<svg width="51" height="50" viewBox="0 0 51 50" xmlns="http://www.w3.org/2000/svg"><title>Badge - simple-line-icons</title><path d="M49.91 41.016c.163.26.228.545.196.854a1.7 1.7 0 0 1-.342.855 1.47 1.47 0 0 1-.684.512 1.258 1.258 0 0 1-.879.025l-7.86-1.758-2.686 7.47a1.408 1.408 0 0 1-.513.709 1.65 1.65 0 0 1-.806.317h-.146c-.293 0-.562-.073-.806-.22a1.454 1.454 0 0 1-.561-.61l-8.155-14.893a13.733 13.733 0 0 1-1.611.098 15.848 15.848 0 0 1-1.758-.098L15.291 49.17c-.13.26-.317.464-.561.61-.244.147-.513.22-.806.22h-.098a1.702 1.702 0 0 1-.854-.317 1.408 1.408 0 0 1-.513-.708l-2.685-7.471-7.862 1.758c-.293.097-.586.09-.878-.025a1.369 1.369 0 0 1-.684-.561 1.44 1.44 0 0 1-.342-.806 1.31 1.31 0 0 1 .195-.854l9.18-16.748a16.94 16.94 0 0 1-1.123-3.394 17.17 17.17 0 0 1-.39-3.686c0-2.377.447-4.607 1.342-6.69A17.327 17.327 0 0 1 12.9 5.03a17.327 17.327 0 0 1 5.469-3.686C20.45.448 22.68 0 25.057 0c2.376 0 4.606.448 6.69 1.343a17.039 17.039 0 0 1 5.444 3.686 17.888 17.888 0 0 1 3.686 5.47c.912 2.082 1.367 4.312 1.367 6.688 0 1.237-.13 2.434-.39 3.59a19.55 19.55 0 0 1-1.074 3.344l9.13 16.895zM14.217 44.58l5.86-10.937A17.37 17.37 0 0 1 15.12 31.2a16.915 16.915 0 0 1-3.881-3.808l-6.641 12.06 5.81-1.318c.391-.098.757-.05 1.1.146.341.196.593.472.756.83l1.953 5.47zm-3.223-27.392c0 1.92.367 3.735 1.1 5.444A13.91 13.91 0 0 0 15.12 27.1a14.846 14.846 0 0 0 4.468 3.027c1.693.749 3.516 1.123 5.469 1.123 1.92 0 3.735-.374 5.444-1.123A14.452 14.452 0 0 0 34.97 27.1a14.11 14.11 0 0 0 3.003-4.468 13.675 13.675 0 0 0 1.099-5.445c0-1.92-.367-3.735-1.099-5.444a14.11 14.11 0 0 0-3.003-4.468 14.452 14.452 0 0 0-4.468-3.027 13.419 13.419 0 0 0-5.444-1.123c-1.953 0-3.776.374-5.469 1.123a14.846 14.846 0 0 0-4.468 3.027 13.91 13.91 0 0 0-3.027 4.468 13.675 13.675 0 0 0-1.099 5.444zm28.711 20.947l5.811 1.318-6.592-12.158a17.779 17.779 0 0 1-3.98 3.906 17.217 17.217 0 0 1-5.053 2.49l6.006 10.938 1.953-5.518c.163-.358.415-.634.757-.83a1.435 1.435 0 0 1 1.098-.146z" fill="#F6A623" fill-rule="evenodd"/></svg>