<svg width="156" height="40" viewBox="0 0 156 40" xmlns="http://www.w3.org/2000/svg" xmlns:xlink="http://www.w3.org/1999/xlink"><title>Page 1</title><defs><path id="a" d="M5.871 7.667H.181V.197h5.69v7.47z"/><path id="c" d="M0 39.824h155.34V0H0z"/></defs><g fill="#009ee3" fill-rule="evenodd"><path d="M2.685 6.091c3.16.539 6.47.514 9.558-.045a25.764 25.764 0 0 0 2.499-.575 25.37 25.37 0 0 0 4.957-1.96l-5.346-1.837-1.793-.497-.765.44a.449.449 0 0 1-.033.018L2.685 6.091zm4.628 1.525A28.57 28.57 0 0 1 .81 6.869a.567.567 0 0 1-.12-1.061L11.245.626l.954-.55a.56.56 0 0 1 .434-.055l2.038.565a.627.627 0 0 1 .033.01l6.565 2.257a.568.568 0 0 1 .104 1.024 26.348 26.348 0 0 1-6.325 2.685c-.836.238-1.714.44-2.605.6a28.861 28.861 0 0 1-5.131.454zm8.825 1.354c.38 2.324.461 4.711.238 7.103a27.416 27.416 0 0 1-2.076 8.233l5.307-3.115a24.395 24.395 0 0 0 2.467-8.668 24.974 24.974 0 0 0-.153-5.95 29.107 29.107 0 0 1-5.783 2.398m-3.122 17.312a.568.568 0 0 1-.505-.823 26.236 26.236 0 0 0 2.736-9.492c.23-2.463.124-4.92-.312-7.3a.567.567 0 0 1 .407-.649 27.95 27.95 0 0 0 6.56-2.737.567.567 0 0 1 .996.257c.425 2.312.527 4.697.304 7.09a25.515 25.515 0 0 1-2.658 9.223.57.57 0 0 1-.219.232l-7.022 4.121a.567.567 0 0 1-.287.078" fill="#FEFEFE"/><path d="M1.134 20.646l8.384 4.84a23.795 23.795 0 0 0 3.123-9.76 24.24 24.24 0 0 0-.167-5.915 31.673 31.673 0 0 1-11.34-.195v11.03zm8.583 6.176a.564.564 0 0 1-.283-.076l-9.15-5.281A.567.567 0 0 1 0 20.974V8.914a.566.566 0 0 1 .692-.552c3.96.896 8.18.967 12.145.234a.565.565 0 0 1 .661.458 25.32 25.32 0 0 1 .272 6.777c-.357 3.814-1.592 7.522-3.57 10.722a.566.566 0 0 1-.483.269zM26.3.567h20.936v4.364h-7.993v21.303h-4.95V4.931h-7.994zM53.323 16.59h9.02L57.87 5.81l-4.547 10.78zm13.053 9.644l-2.273-5.427h-12.54l-2.273 5.427h-5.097L55.45.568h5.096l11.11 25.666h-5.28zM74.04.567h5.61l8.505 16.537L96.59.567h5.61v25.667h-4.51V7.827l-7.993 15.767h-3.154l-8.03-15.767v18.407H74.04zm33.732 0h18.81v4.29h-13.897v6.344h12.467v4.29h-12.467v6.453h14.337v4.29h-19.25zm38.518 20.259a7.666 7.666 0 0 0 2.952-3.007c.709-1.283 1.063-2.744 1.063-4.381 0-1.638-.367-3.11-1.1-4.419a7.791 7.791 0 0 0-3.025-3.043c-1.283-.721-2.72-1.082-4.308-1.082h-5.684v17.013h5.867c1.564 0 2.976-.36 4.235-1.081m2.549-18.627c2.028 1.088 3.617 2.61 4.766 4.565 1.15 1.956 1.723 4.168 1.723 6.637 0 2.47-.58 4.675-1.741 6.618-1.162 1.943-2.768 3.465-4.822 4.565-2.053 1.1-4.388 1.65-7.003 1.65h-10.487V.568h10.67c2.567 0 4.865.544 6.894 1.631" fill="#FEFEFE"/><g transform="translate(.333 32.157)"><mask id="b" fill="#fff"><use xlink:href="#a"/></mask><path d="M4.131 1.341c-.313-.23-.715-.345-1.204-.345-.198 0-.393.02-.585.06a1.54 1.54 0 0 0-.51.2 1.038 1.038 0 0 0-.357.375c-.09.157-.134.352-.134.585 0 .22.065.399.193.535.129.137.301.25.515.335.215.087.458.159.729.215.271.057.547.119.828.186.281.066.557.144.828.234.27.09.513.212.728.365.215.154.387.347.516.58.128.234.193.527.193.88 0 .38-.084.705-.253.975a2.09 2.09 0 0 1-.65.66c-.263.17-.559.294-.886.37a4.293 4.293 0 0 1-.977.116 4.12 4.12 0 0 1-1.125-.15 2.753 2.753 0 0 1-.931-.456 2.147 2.147 0 0 1-.635-.78C.26 5.965.181 5.59.181 5.156h.892c0 .3.058.559.174.776.115.216.267.394.456.534.188.14.408.244.659.31a3 3 0 0 0 .773.1c.211 0 .425-.02.64-.06.214-.04.407-.108.58-.204a1.16 1.16 0 0 0 .416-.396c.105-.166.159-.38.159-.64 0-.246-.065-.446-.194-.6a1.426 1.426 0 0 0-.515-.375 3.747 3.747 0 0 0-.729-.235l-.828-.184a11.345 11.345 0 0 1-.828-.22 2.978 2.978 0 0 1-.728-.33 1.57 1.57 0 0 1-.515-.53c-.13-.217-.194-.489-.194-.816 0-.36.073-.671.218-.935a1.92 1.92 0 0 1 .58-.65 2.59 2.59 0 0 1 .823-.38 3.61 3.61 0 0 1 .947-.125c.363 0 .7.044 1.01.13.311.087.584.224.819.41.234.187.419.422.554.705.136.284.21.622.224 1.015H4.68c-.053-.513-.236-.885-.55-1.115" fill="#FEFEFE" mask="url(#b)"/></g><path fill="#FEFEFE" d="M16.642 32.524l2.23 6 2.24-6h1.29v7.14h-.892v-5.94h-.02l-2.21 5.94h-.804l-2.21-5.94h-.02v5.94h-.892v-7.14zm18.934 4.19l-1.18-3.33h-.02l-1.199 3.33h2.399zm-.654-4.19l2.765 7.14h-1.04l-.773-2.15h-2.995l-.792 2.15h-.962l2.756-7.14h1.04zM49.9 35.763c.198-.033.371-.098.52-.195.149-.096.267-.226.357-.39.09-.163.134-.375.134-.635 0-.36-.1-.653-.298-.88-.198-.226-.519-.34-.961-.34h-2.34v2.49h1.963c.218 0 .426-.016.624-.05zm-.199-3.24c.674 0 1.201.167 1.581.5.38.334.57.79.57 1.37 0 .434-.098.814-.292 1.14-.195.327-.507.55-.937.67v.02c.205.04.372.107.5.2.13.094.232.205.308.335.076.13.132.276.169.435.036.16.064.327.084.5.013.174.023.35.03.53.006.18.023.357.05.53.025.174.064.339.113.495.05.157.124.295.223.415h-1.05a.597.597 0 0 1-.135-.3 3.082 3.082 0 0 1-.044-.425 90.788 90.788 0 0 1-.02-.505 3.528 3.528 0 0 0-.06-.53 5.274 5.274 0 0 0-.099-.494 1.163 1.163 0 0 0-.188-.41.925.925 0 0 0-.337-.28c-.139-.07-.324-.106-.555-.106h-2.3v3.05h-.942v-7.14h3.331zm10.517.801v-.8h5.66v.8H63.52v6.34h-.941v-6.34zm26.12-.8v6.34h3.748v.8h-4.69v-7.14z"/><mask id="d" fill="#fff"><use xlink:href="#c"/></mask><path fill="#FEFEFE" mask="url(#d)" d="M98.937 39.664h.942v-7.14h-.942zm12.233-.001l-2.489-7.14h1.011l2.023 6.19h.02l2.042-6.19h.981l-2.518 7.14zm12.37.001h.942v-7.14h-.941zm11.51-7.14l3.726 5.79h.02v-5.79h.893v7.14h-1.032l-3.697-5.73h-.02v5.73h-.892v-7.14zm18.417 7.055c-.41.163-.823.245-1.24.245a3.283 3.283 0 0 1-1.417-.295 3.203 3.203 0 0 1-1.06-.795 3.482 3.482 0 0 1-.665-1.15 4.041 4.041 0 0 1-.228-1.35c0-.52.071-1.015.213-1.485a3.66 3.66 0 0 1 .635-1.235c.281-.354.63-.636 1.05-.845.42-.21.91-.315 1.472-.315.384 0 .746.045 1.086.134.34.09.644.232.912.426.267.193.492.438.674.735.182.296.306.655.372 1.075h-.942a1.878 1.878 0 0 0-.258-.705 1.662 1.662 0 0 0-.465-.485 2.061 2.061 0 0 0-.63-.285 2.865 2.865 0 0 0-.749-.095c-.43 0-.797.086-1.105.26a2.234 2.234 0 0 0-.753.685 3.003 3.003 0 0 0-.431.97 4.48 4.48 0 0 0-.139 1.114c0 .374.053.732.158 1.076.106.343.261.646.466.91.205.263.458.473.76.63.3.156.648.235 1.044.235.37 0 .698-.06.982-.18.284-.12.524-.285.718-.495a2.08 2.08 0 0 0 .442-.74c.099-.283.142-.589.129-.915h-2.26v-.8h3.102v3.76h-.594l-.248-.89a2.362 2.362 0 0 1-1.03.805"/></g></svg>