<svg width="159" height="40" viewBox="0 0 159 40" xmlns="http://www.w3.org/2000/svg" xmlns:xlink="http://www.w3.org/1999/xlink"><title>tamed-2017-gris-sl</title><defs><path id="a" d="M5.672.18H.023v5.516h5.649V.18z"/><path id="c" d="M0 .196v7.47h5.69V.197H0z"/><path id="e" d="M0 39.82h159.006V.332H0z"/></defs><g fill="none" fill-rule="evenodd"><g transform="translate(153.333 .153)"><mask id="b" fill="#fff"><use xlink:href="#a"/></mask><path d="M2.438 2.812h.298c.356 0 .637-.116.637-.402 0-.252-.183-.416-.583-.416a1.4 1.4 0 0 0-.352.033v.785zm-.02 1.542h-.636V1.606c.251-.034.604-.086 1.055-.086.523 0 .756.086.942.218a.7.7 0 0 1 .282.588c0 .336-.25.553-.57.653v.033c.269.083.404.302.486.672.084.42.155.57.202.67H3.51c-.086-.1-.138-.335-.218-.67-.05-.284-.22-.417-.573-.417h-.302v1.087zM.728 2.929c0 1.224.921 2.195 2.144 2.195 1.19.02 2.094-.97 2.094-2.176 0-1.226-.905-2.213-2.13-2.213C1.65.735.728 1.722.728 2.93zm4.944 0c0 1.542-1.241 2.767-2.818 2.767C1.279 5.696.023 4.47.023 2.929S1.279.181 2.872.181c1.559 0 2.8 1.206 2.8 2.748z" fill="#999" mask="url(#b)"/></g><path fill="#999" d="M25.785.563h20.937v4.363h-7.994V26.23h-4.95V4.926h-7.993zm27.023 16.024h9.02l-4.473-10.78-4.547 10.78zm13.053 9.643l-2.273-5.427h-12.54l-2.273 5.427h-5.097L54.935.563h5.096l11.11 25.667h-5.28zM73.524.563h5.61L87.641 17.1 96.074.563h5.61V26.23h-4.51V7.823L89.182 23.59h-3.153l-8.03-15.767V26.23h-4.474zm33.733 0h18.81v4.29h-13.896v6.343h12.467v4.29H112.17v6.454h14.336v4.29h-19.25zm38.519 20.259a7.666 7.666 0 0 0 2.951-3.007c.71-1.283 1.064-2.744 1.064-4.382 0-1.637-.367-3.11-1.1-4.418a7.791 7.791 0 0 0-3.025-3.044c-1.284-.72-2.72-1.081-4.308-1.081h-5.684v17.013h5.867c1.564 0 2.976-.36 4.235-1.081m2.548-18.627c2.029 1.088 3.618 2.61 4.767 4.565 1.149 1.956 1.723 4.168 1.723 6.637 0 2.469-.58 4.675-1.741 6.618-1.162 1.943-2.769 3.465-4.822 4.565-2.053 1.1-4.388 1.65-7.003 1.65H130.76V.563h10.67c2.567 0 4.864.544 6.893 1.632M20.585 3.385a25.783 25.783 0 0 1-6.188 2.626 25.93 25.93 0 0 1-2.553.588 28.27 28.27 0 0 1-5.031.446 27.97 27.97 0 0 1-6.374-.733l10.573-5.19.97-.559 2.039.565 6.564 2.257zm1.256 2.251l-.03.094.006-.038a28.486 28.486 0 0 1-6.825 2.869c.44 2.402.557 4.908.32 7.455a26.942 26.942 0 0 1-2.796 9.696l7.022-4.121a25.077 25.077 0 0 0 2.6-9.02 25.4 25.4 0 0 0-.297-6.935M12.44 9.15A30.941 30.941 0 0 1 .067 8.91v12.06l9.15 5.28a24.23 24.23 0 0 0 3.489-10.476 24.723 24.723 0 0 0-.266-6.625"/><g transform="translate(0 32.153)"><mask id="d" fill="#fff"><use xlink:href="#c"/></mask><path d="M3.95 1.341c-.314-.23-.715-.345-1.204-.345-.199 0-.394.02-.585.06a1.54 1.54 0 0 0-.51.2 1.042 1.042 0 0 0-.358.375 1.172 1.172 0 0 0-.133.585c0 .22.064.399.193.535.129.137.3.25.515.335.215.087.458.159.729.215.271.057.547.119.828.186.28.066.556.144.827.234.271.09.514.212.729.365.214.154.387.347.515.58.129.234.194.527.194.88 0 .38-.084.705-.253.975a2.09 2.09 0 0 1-.65.66c-.264.17-.56.294-.886.37a4.293 4.293 0 0 1-.977.116 4.11 4.11 0 0 1-1.125-.15 2.75 2.75 0 0 1-.932-.456 2.143 2.143 0 0 1-.634-.78C.077 5.965 0 5.59 0 5.156h.892c0 .3.057.559.173.776.116.216.268.394.456.534.189.14.408.244.66.31a3 3 0 0 0 .773.1c.211 0 .424-.02.64-.06.214-.04.407-.108.579-.204a1.16 1.16 0 0 0 .416-.396c.106-.166.16-.38.16-.64 0-.246-.066-.446-.195-.6a1.421 1.421 0 0 0-.515-.375 3.755 3.755 0 0 0-.728-.235l-.828-.184a11.345 11.345 0 0 1-.828-.22 2.978 2.978 0 0 1-.728-.33 1.567 1.567 0 0 1-.516-.53c-.129-.217-.193-.489-.193-.816 0-.36.072-.671.218-.935a1.92 1.92 0 0 1 .58-.65c.241-.17.515-.296.822-.38a3.62 3.62 0 0 1 .947-.125c.364 0 .7.044 1.011.13.311.087.584.224.818.41.235.187.42.422.555.705.136.284.21.622.223 1.015H4.5c-.053-.513-.236-.885-.55-1.115" fill="#999" mask="url(#d)"/></g><path fill="#999" d="M16.127 32.52l2.23 6 2.241-6h1.289v7.14h-.892v-5.94h-.02l-2.21 5.94h-.804l-2.21-5.94h-.02v5.94h-.892v-7.14zm18.934 4.19l-1.18-3.33h-.02l-1.199 3.33h2.399zm-.654-4.19l2.765 7.14h-1.04l-.773-2.151h-2.994l-.793 2.15h-.962l2.756-7.14h1.04zm14.978 3.24c.198-.034.371-.1.52-.196.149-.096.268-.227.357-.39.09-.163.134-.375.134-.635 0-.36-.1-.653-.297-.88-.199-.226-.52-.34-.962-.34h-2.34v2.49h1.963c.218 0 .426-.016.625-.05zm-.199-3.24c.675 0 1.202.166 1.582.5.38.332.57.79.57 1.37 0 .432-.098.812-.293 1.14-.195.326-.507.55-.937.67v.02c.205.04.372.106.5.2.13.093.232.204.308.334.076.13.132.275.169.435.036.16.064.327.084.5.013.174.023.35.03.53.006.18.023.357.05.53.026.173.064.338.113.495.05.157.124.295.223.415h-1.05a.597.597 0 0 1-.134-.3 3.082 3.082 0 0 1-.045-.425 90.787 90.787 0 0 1-.02-.505 3.528 3.528 0 0 0-.06-.53 5.274 5.274 0 0 0-.098-.495 1.163 1.163 0 0 0-.19-.41.925.925 0 0 0-.335-.28c-.14-.07-.325-.105-.556-.105h-2.3v3.05h-.941v-7.14h3.33zm10.518.8v-.8h5.66v.8h-2.36v6.34h-.941v-6.34zm26.12-.8v6.34h3.747v.8h-4.689v-7.14z"/><mask id="f" fill="#fff"><use xlink:href="#e"/></mask><path fill="#999" mask="url(#f)" d="M98.423 39.659h.941v-7.14h-.941zm12.232.001l-2.488-7.14h1.01l2.023 6.19h.02l2.042-6.19h.982l-2.519 7.14zm12.371-.001h.942v-7.14h-.942zm11.509-7.139l3.727 5.79h.02v-5.79h.892v7.14h-1.031l-3.698-5.731h-.02v5.73h-.892v-7.14zm18.418 7.054c-.41.163-.823.245-1.24.245a3.283 3.283 0 0 1-1.417-.295 3.203 3.203 0 0 1-1.06-.795 3.482 3.482 0 0 1-.665-1.15 4.041 4.041 0 0 1-.228-1.35c0-.52.07-1.015.213-1.485.142-.47.354-.881.634-1.235a3.1 3.1 0 0 1 1.051-.845c.42-.21.91-.315 1.472-.315.384 0 .746.045 1.086.135.34.09.644.232.911.425.268.194.493.439.675.735.182.297.305.655.372 1.075h-.942a1.878 1.878 0 0 0-.258-.705 1.662 1.662 0 0 0-.466-.485 2.061 2.061 0 0 0-.63-.285 2.865 2.865 0 0 0-.748-.095c-.43 0-.797.087-1.105.26a2.234 2.234 0 0 0-.754.685 3.003 3.003 0 0 0-.43.97 4.48 4.48 0 0 0-.14 1.115c0 .374.053.732.159 1.075.106.344.261.647.466.91.204.264.458.474.759.63.3.157.649.235 1.045.235.37 0 .697-.06.981-.18.285-.12.524-.285.719-.495a2.08 2.08 0 0 0 .441-.74c.1-.283.142-.588.13-.915h-2.261v-.8h3.103v3.76h-.595l-.248-.89a2.362 2.362 0 0 1-1.03.805"/></g></svg>