<svg width="106" height="27" viewBox="0 0 106 27" xmlns="http://www.w3.org/2000/svg" xmlns:xlink="http://www.w3.org/1999/xlink"><title>Logo TAMED Color</title><defs><path id="a" d="M3.758.119H.015v3.632h3.743V.119z"/><path id="c" d="M0 .13v4.919h3.77V.129H0z"/><path id="e" d="M0 26.222h105.341V.22H0z"/></defs><g transform="translate(.077 .462)" fill="none" fill-rule="evenodd"><g transform="translate(101.583 .1)"><mask id="b" fill="#fff"><use xlink:href="#a"/></mask><path d="M1.615 1.852h.198c.235 0 .422-.077.422-.265 0-.166-.121-.274-.387-.274a.96.96 0 0 0-.233.022v.517zm-.013 1.015H1.18v-1.81c.166-.021.4-.056.698-.056.347 0 .501.057.624.144a.46.46 0 0 1 .188.387c0 .22-.166.364-.379.43v.022c.179.054.268.199.323.442.056.277.102.375.133.44h-.442c-.057-.065-.091-.22-.144-.44-.033-.187-.146-.275-.38-.275h-.2v.716zm-1.12-.938c0 .806.61 1.445 1.42 1.445.789.013 1.388-.639 1.388-1.433 0-.807-.6-1.457-1.41-1.457-.787 0-1.398.65-1.398 1.445zm3.276 0c0 1.015-.822 1.822-1.867 1.822C.847 3.75.015 2.944.015 1.929.015.914.847.119 1.903.119c1.033 0 1.855.795 1.855 1.81z" fill="#000" mask="url(#b)"/></g><path fill="#000" d="M17.082.37h13.871v2.874h-5.296v14.03h-3.28V3.243h-5.295zm17.903 10.553h5.976l-2.963-7.1-3.013 7.1zm8.648 6.35L42.127 13.7H33.82l-1.507 3.574h-3.376L36.395.371h3.376l7.36 16.902h-3.498zM48.71.37h3.716l5.636 10.89L63.65.37h3.717v16.903h-2.988V5.152l-5.295 10.383h-2.09l-5.32-10.383v12.121H48.71zm22.348 0H83.52v2.826h-9.207v4.177h8.26v2.825h-8.26v4.25h9.498v2.825H71.058zm25.518 13.342a5.063 5.063 0 0 0 1.956-1.98c.47-.845.704-1.807.704-2.886 0-1.078-.243-2.048-.728-2.91a5.146 5.146 0 0 0-2.005-2.004c-.85-.474-1.801-.712-2.854-.712h-3.765v11.204h3.887c1.036 0 1.971-.237 2.805-.712m1.689-12.267a7.924 7.924 0 0 1 3.157 3.006c.762 1.289 1.142 2.745 1.142 4.371 0 1.626-.384 3.079-1.153 4.359-.77 1.28-1.834 2.281-3.195 3.006-1.36.724-2.907 1.086-4.64 1.086H86.63V.371h7.069c1.7 0 3.223.358 4.567 1.074"/><path d="M13.638 2.229a17.137 17.137 0 0 1-4.1 1.73c-.552.156-1.117.285-1.691.387a18.84 18.84 0 0 1-3.334.293c-1.44 0-2.856-.164-4.222-.482L7.296.739 7.938.37l1.35.372 4.35 1.486zm.812 1.544a19.854 19.854 0 0 1-4.518 1.865c.292 1.582.369 3.232.212 4.91a17.662 17.662 0 0 1-1.852 6.385l4.652-2.715A16.63 16.63 0 0 0 14.47 3.711l-.02.062z" fill="#1E70B7"/><path d="M8.241 6.025a20.618 20.618 0 0 1-8.197-.157v7.941l6.062 3.478a15.892 15.892 0 0 0 2.312-6.9c.14-1.49.075-2.955-.177-4.362" fill="#009EE2"/><g transform="translate(0 21.174)"><mask id="d" fill="#fff"><use xlink:href="#c"/></mask><path d="M2.617.883c-.208-.15-.474-.227-.798-.227-.131 0-.26.013-.387.04-.128.026-.24.07-.339.131a.688.688 0 0 0-.236.247.765.765 0 0 0-.089.386.49.49 0 0 0 .128.352c.086.09.2.164.342.22.142.058.303.105.482.142.18.037.363.078.549.122.186.044.369.095.548.155.18.059.34.14.483.24.142.101.256.228.341.382.086.154.128.347.128.58 0 .25-.055.464-.167.642a1.383 1.383 0 0 1-.43.434 1.87 1.87 0 0 1-.588.244 2.86 2.86 0 0 1-1.392-.023 1.826 1.826 0 0 1-.617-.3 1.413 1.413 0 0 1-.42-.513A1.654 1.654 0 0 1 0 3.396h.59c0 .197.039.367.116.51.076.143.177.26.302.352.125.093.27.16.436.205a2 2 0 0 0 .513.065c.14 0 .281-.013.424-.04.142-.025.27-.07.384-.134a.767.767 0 0 0 .275-.26c.07-.11.106-.25.106-.422a.591.591 0 0 0-.129-.395.941.941 0 0 0-.34-.247 2.498 2.498 0 0 0-.484-.155l-.548-.121a7.552 7.552 0 0 1-.549-.145 1.979 1.979 0 0 1-.482-.218 1.035 1.035 0 0 1-.341-.349 1.027 1.027 0 0 1-.129-.536c0-.237.048-.443.145-.616C.385.717.513.574.673.462a1.73 1.73 0 0 1 .545-.25 2.4 2.4 0 0 1 .627-.083c.241 0 .464.029.67.086.206.057.387.147.542.27.155.123.278.278.367.464.09.187.14.41.148.669h-.59c-.036-.338-.157-.583-.365-.735" fill="#000" mask="url(#d)"/></g><path fill="#000" d="M10.684 21.415l1.478 3.951 1.484-3.95h.854v4.701h-.59v-3.912h-.014l-1.465 3.912H11.9l-1.464-3.912h-.013v3.912H9.83v-4.702zm12.544 2.759l-.782-2.193h-.013l-.794 2.193h1.589zm-.434-2.759l1.833 4.702h-.69l-.512-1.416h-1.983l-.526 1.416h-.637l1.826-4.702h.69zm9.923 2.134a.903.903 0 0 0 .345-.129.701.701 0 0 0 .237-.257.864.864 0 0 0 .088-.418.846.846 0 0 0-.197-.58c-.131-.148-.344-.223-.637-.223h-1.55v1.64h1.3c.145 0 .283-.011.414-.033zm-.131-2.134c.447 0 .796.11 1.048.33.251.219.377.52.377.902 0 .285-.065.535-.194.75-.129.215-.336.362-.62.441v.014c.136.026.246.07.331.131a.725.725 0 0 1 .204.22c.05.087.087.182.112.287a3.068 3.068 0 0 1 .075.679c.004.118.016.235.033.349.017.114.043.223.076.326a.805.805 0 0 0 .147.273h-.696a.392.392 0 0 1-.089-.198 2.018 2.018 0 0 1-.029-.28 59.428 59.428 0 0 1-.013-.332 2.31 2.31 0 0 0-.04-.35 3.455 3.455 0 0 0-.065-.325.764.764 0 0 0-.125-.27.612.612 0 0 0-.223-.184.828.828 0 0 0-.368-.07h-1.524v2.009h-.624v-4.702h2.207zm6.968.527v-.527h3.75v.527H41.74v4.175h-.624v-4.175zm17.304-.527v4.175h2.483v.527h-3.106v-4.702z"/><mask id="f" fill="#fff"><use xlink:href="#e"/></mask><path fill="#000" mask="url(#f)" d="M65.205 26.117h.624v-4.702h-.624zm8.104 0l-1.648-4.702h.67l1.34 4.076h.012l1.353-4.076h.65l-1.668 4.702zm8.196 0h.624v-4.702h-.624zm7.625-4.702l2.469 3.813h.012v-3.813h.592v4.702h-.683l-2.45-3.774h-.013v3.774h-.591v-4.702zm12.201 4.646a2.219 2.219 0 0 1-.821.161c-.35 0-.664-.065-.94-.194a2.121 2.121 0 0 1-.702-.523 2.29 2.29 0 0 1-.44-.758 2.647 2.647 0 0 1-.151-.889c0-.342.047-.668.141-.978.094-.31.235-.58.42-.813.187-.233.418-.418.697-.556.277-.139.603-.208.975-.208.254 0 .494.03.72.089.225.06.426.153.603.28.177.127.326.289.447.484.12.195.202.431.246.708h-.624a1.232 1.232 0 0 0-.17-.464 1.098 1.098 0 0 0-.309-.32 1.37 1.37 0 0 0-.417-.187 1.909 1.909 0 0 0-.496-.063c-.285 0-.528.057-.732.171-.204.114-.37.265-.5.451-.128.187-.224.4-.285.64a2.905 2.905 0 0 0-.092.733c0 .246.035.482.105.708.07.226.173.426.309.6.135.173.303.311.502.414.2.104.43.155.693.155.245 0 .462-.04.65-.118a1.36 1.36 0 0 0 .476-.326c.13-.139.227-.301.292-.488.066-.186.095-.387.086-.602h-1.498v-.527h2.056v2.476h-.394l-.164-.586a1.563 1.563 0 0 1-.683.53"/></g></svg>