<svg xmlns="http://www.w3.org/2000/svg" width="61" height="60" viewBox="0 0 61 60">
    <path fill="#0090FF" fill-rule="evenodd" d="M59.68 30.059c.35.39.517.84.497 1.347-.02.508-.205.957-.556 1.348-.196.156-.4.283-.616.38a1.61 1.61 0 0 1-.673.147 1.96 1.96 0 0 1-.762-.146 1.454 1.454 0 0 1-.586-.44l-2.52-2.636v28.066c0 .508-.185.947-.556 1.318-.371.371-.81.557-1.319.557H39.464c-.507 0-.947-.186-1.318-.557a1.802 1.802 0 0 1-.557-1.318v-18.75H22.648l-.059 18.75c0 .508-.185.947-.556 1.318-.371.371-.81.557-1.319.557H7.648c-.547 0-.996-.186-1.348-.557a1.852 1.852 0 0 1-.527-1.318V30.059l-2.52 2.636c-.39.352-.84.537-1.347.557a1.843 1.843 0 0 1-1.348-.498 2.081 2.081 0 0 1-.556-1.348c-.02-.508.146-.957.498-1.347L28.8.586c.196-.195.41-.342.645-.44.234-.097.469-.146.703-.146.273 0 .527.049.762.146.234.098.43.245.586.44l28.183 29.473zm-8.966-3.633a.52.52 0 0 1 .059-.235L30.148 4.63 9.464 26.19c0 .079.01.157.03.235.02.078.029.156.029.234v29.59h9.316l.059-18.75c0-.508.186-.947.557-1.318.37-.371.81-.557 1.318-.557h18.691c.508 0 .948.186 1.319.557.37.37.556.81.556 1.318v18.75h9.375V26.426z"/>
</svg>
