<svg width="83" height="69" viewBox="0 0 83 69" xmlns="http://www.w3.org/2000/svg"><title>39987B57-355C-4541-82B8-E7F6B7ED361F</title><g fill="none" fill-rule="evenodd"><path d="M4.786 0A4.786 4.786 0 0 0 0 4.786v47.846a4.786 4.786 0 0 0 4.786 4.787h28.795v9.573h-3.784a.965.965 0 1 0 0 1.892h22.835a.965.965 0 1 0 0-1.892h-3.916v-9.573h28.795a4.786 4.786 0 0 0 4.786-4.787V4.786A4.786 4.786 0 0 0 77.511 0H4.786zm0 1.892h72.725a2.838 2.838 0 0 1 2.875 2.876v39.256H1.911V4.786a2.838 2.838 0 0 1 2.875-2.875v-.02zM1.911 45.935h78.475v6.697a2.838 2.838 0 0 1-2.875 2.876H4.786a2.838 2.838 0 0 1-2.875-2.876v-6.697zm39.238 2.876a1.892 1.892 0 1 0 0 3.784 1.892 1.892 0 0 0 0-3.784zm-5.676 8.608h11.351v9.573H35.473v-9.573z" fill="#0090FF" fill-rule="nonzero"/><path d="M32.351 24.481v-8.949a2.251 2.251 0 0 1 3.387-1.891l7.813 4.521 7.814 4.37a2.251 2.251 0 0 1 0 3.917L43.55 30.97l-7.813 4.522A2.251 2.251 0 0 1 32.35 33.6v-9.119z" stroke="#0090FF"/></g></svg>