<svg width="53" height="53" viewBox="0 0 53 53" xmlns="http://www.w3.org/2000/svg"><title>FA0AEDB1-7956-460C-A416-6C259CDECBBF</title><path d="M40.5 10.54a1 1 0 1 1-2 0 1 1 0 0 1 2 0zm-25.29 1.6c2 1.86 3.48 4.3 3.48 5.55a6.29 6.29 0 0 1-1.41 3.71c-1.36 2-2.53 3.77 3.58 9.88 3.2 3.19 5.49 4.68 7.21 4.68a4.8 4.8 0 0 0 2.67-1.11 6.28 6.28 0 0 1 3.7-1.41c1.25 0 3.68 1.53 5.55 3.48 2.24 2.35 6.41 6.72.59 12.55a8.66 8.66 0 0 1-6.14 2.54C23.54 52 .13 28.62.13 17.69a8.64 8.64 0 0 1 2.53-6.13c2-2 3.93-3 5.89-3 2.57.06 4.72 1.74 6.66 3.58zm2.38 5.55c0-.74-1.19-2.9-3.14-4.75-1.65-1.58-3.61-3.26-5.9-3.26-1.66 0-3.33.87-5.12 2.65a7.56 7.56 0 0 0-2.21 5.36c0 4.62 5 12.63 12.77 20.4 7.77 7.77 15.8 12.82 20.45 12.82a7.56 7.56 0 0 0 5.36-2.22c4.67-4.67 2.26-8-.61-11-1.86-1.94-4-3.14-4.75-3.14a5.33 5.33 0 0 0-3.1 1.22 5.78 5.78 0 0 1-3.28 1.29c-2.06 0-4.53-1.54-8-5-6.28-6.28-5.55-8.54-3.71-11.26a5.33 5.33 0 0 0 1.24-3.11zm27.53-8.17a1 1 0 1 0 0 2 1 1 0 0 0 0-2zm-10.26 1a1 1 0 1 0 0 .02v-.02zm17.15.48c0 6-5.62 10.87-12.54 10.87a14.28 14.28 0 0 1-3.61-.46h-.17l-5.54 3.74a.55.55 0 0 1-.85-.55l1.1-6-.15-.14a10.09 10.09 0 0 1-3.33-7.38c0-6 5.63-10.87 12.54-10.87C46.37.21 52.01 5 52.01 11zm-1.1 0c0-5.39-5.13-9.78-11.44-9.78s-11.46 4.4-11.46 9.77a9.06 9.06 0 0 0 3.34 6.9.55.55 0 0 1 .18.51l-.92 5.06 4.67-3.16a.55.55 0 0 1 .46-.07 13.17 13.17 0 0 0 3.71.53c6.33.01 11.47-4.37 11.47-9.77l-.01.01z" stroke-width=".25" stroke="#0090FF" fill="#0090FF" fill-rule="nonzero"/></svg>