<svg xmlns="http://www.w3.org/2000/svg" width="82" height="82" viewBox="0 0 82 82">
    <g fill="none" fill-rule="evenodd" stroke="#0090FF" stroke-width="2" transform="translate(1 1)">
        <circle cx="40" cy="40" r="40"/>
        <path d="M28.326 43.642c2.623 0 4.863.928 6.718 2.783 1.856 1.856 2.496 4.191 1.92 7.007-.896 4.095-3.775 6.558-8.638 7.39-1.856.32-4.016.208-6.479-.336-2.464-.544-4.08-1.551-4.847-3.023 2.176-.832 3.263-2.4 3.263-4.703 0-2.496.736-4.64 2.208-6.43 1.472-1.792 3.423-2.688 5.855-2.688zm31.521-22.404c1.472 1.472 1.632 2.912.48 4.32l-14.78 16.796c.191.896.095 1.632-.289 2.207l-4.799 5.567c-.192.192-.384.192-.576 0-.064-.064-.096-.16-.096-.288v-.096c.064-2.431-.735-4.447-2.4-6.046-1.663-1.6-3.71-2.464-6.142-2.592h-.192c-.128 0-.192-.032-.192-.096-.192-.192-.192-.384 0-.576l5.663-4.703c.512-.32 1.248-.384 2.208-.192l16.796-14.78c1.408-1.152 2.847-.992 4.32.48z"/>
    </g>
</svg>
