<svg width="42" height="43" viewBox="0 0 42 43" xmlns="http://www.w3.org/2000/svg"><title>1629B7D9-F6D1-486E-8700-7563B4CDFEAA</title><path d="M6.23 26.84h16.69a.61.61 0 1 0 0-1.22H6.23a.6.6 0 0 0-.61.61.62.62 0 0 0 .61.61zm0-10.24h22a.61.61 0 1 0 0-1.22h-22a.6.6 0 0 0-.61.61.66.66 0 0 0 .61.61zm0 5.1h18.3a.61.61 0 0 0 0-1.22H6.23a.6.6 0 0 0-.61.61.62.62 0 0 0 .61.61zm12.64 10.24a.61.61 0 1 0 0-1.22H6.23a.61.61 0 1 0 0 1.22h12.64zm22.18-7v-.13a2.16 2.16 0 0 0-.57-1.44 1.1 1.1 0 0 0-1.57 0l-2.52 2.56c-.35.35-.39.39-.7.39h-2.53v-.13a10.13 10.13 0 0 1-.22-1.22v-.35a2.37 2.37 0 0 1 .44-.57l3.4-3.4a1.05 1.05 0 0 0 .31-.78 1.32 1.32 0 0 0-.44-1 1.93 1.93 0 0 0-1.09-.44h-.22a7.47 7.47 0 0 0-2.4-.13V8.33L23.87.01H2.96a2 2 0 0 0-2 2v34.64a2 2 0 0 0 2 2h13.68v.22a1.35 1.35 0 0 0 .39 1l2.48 2.48a1.37 1.37 0 0 0 1.92 0l3.62-3.74h5.84a2 2 0 0 0 2-2v-4.19a9.18 9.18 0 0 0 1.09.09 7.09 7.09 0 0 0 5.07-2.09 6.53 6.53 0 0 0 2-5.45v-.03zm-7.1 6.39a7 7 0 0 1-2.31-.44l-.39-.17-10.73 10.72c-.09 0-.13.09-.17 0l-2.48-2.48v-.09-.09l10.76-10.76-.17-.39a6 6 0 0 1 1.26-6.49 5.51 5.51 0 0 1 3.92-1.74 4.5 4.5 0 0 1 1.31.17 1.21 1.21 0 0 1 .74.17l-3.31 3.36a2 2 0 0 0-.78 1.7c.04.53.128 1.055.26 1.57a1.24 1.24 0 0 0 1.18 1h2.61a1.94 1.94 0 0 0 1.57-.74l2.44-2.3c.082.226.14.461.17.7v.13a5.29 5.29 0 0 1-1.7 4.45 5.8 5.8 0 0 1-4.18 1.72zm-9.5-29.11l6.49 6h-5.71a.73.73 0 0 1-.74-.74V2.22h-.04zM2.18 36.69V2a.73.73 0 0 1 .74-.74h20.26v6.19a2 2 0 0 0 2 2h6.37v9.15a7.26 7.26 0 0 0-4.45 9.2l-9.63 9.63H2.96a.77.77 0 0 1-.78-.74zm29.46 0a.73.73 0 0 1-.74.74h-4.62l5.32-5.32h.09v4.58h-.05z" fill-rule="nonzero" fill="#0090FF"/></svg>