<svg width="137" height="80" viewBox="0 0 137 80" xmlns="http://www.w3.org/2000/svg"><title>8923EF02-EE9B-461D-9C07-55E0840AA097</title><g fill="none" fill-rule="evenodd"><path d="M115.385 66.923V8.462a.723.723 0 0 0-.77-.77H22.308a.723.723 0 0 0-.77.77v58.461a.723.723 0 0 0 .77.77h92.307a.723.723 0 0 0 .77-.77zm-1.539-.77h-90.77V9.232h90.77v56.923z" fill="#0090FF" fill-rule="nonzero"/><path d="M134.615 72.154h-13.077V3.846A3.815 3.815 0 0 0 117.692 0H19.231a3.815 3.815 0 0 0-3.846 3.846v68.308H2.308A2.37 2.37 0 0 0 0 74.462v1.692C0 78 11.385 80 11.538 80h113.847c.153 0 11.538-2 11.538-3.846v-1.692a2.37 2.37 0 0 0-2.308-2.308zM16.923 3.846a2.37 2.37 0 0 1 2.308-2.308h98.461A2.37 2.37 0 0 1 120 3.846v68.308H82.308a1.17 1.17 0 0 0-.616.308c-.154.153-.154.307-.154.615v.154a.723.723 0 0 1-.769.769H56.154a.723.723 0 0 1-.77-.77v-.153a.923.923 0 0 0-.153-.615.8.8 0 0 0-.616-.308H16.923V3.846zm118.462 72a56.754 56.754 0 0 1-10 2.616H11.538a56.754 56.754 0 0 1-10-2.616v-1.384a.723.723 0 0 1 .77-.77h13.538c.154 0 .154.154.308.154s.308 0 .308-.154h37.384A2.462 2.462 0 0 0 56 75.385h24.615a2.138 2.138 0 0 0 2.154-1.693h37.539c.154 0 .154.154.307.154.154 0 .308 0 .308-.154h13.692a.723.723 0 0 1 .77.77v1.384z" fill="#0090FF" fill-rule="nonzero"/><path d="M67.892 25.662v12.492a.262.262 0 0 0 .262.261h17.138a.262.262 0 0 0 .262-.261V23.169a.262.262 0 0 0-.308-.261L68.123 25.4a.262.262 0 0 0-.23.262zm-3.415 28.753a.262.262 0 0 0 .261-.261V41.846a.262.262 0 0 0-.261-.261h-12.83a.262.262 0 0 0-.262.261V52.4c-.001.133.098.246.23.262l12.831 1.753h.03zm-12.83-15.953h12.83a.262.262 0 0 0 .261-.262V25.97a.262.262 0 0 0-.092-.2.262.262 0 0 0-.215 0l-12.893 1.692a.262.262 0 0 0-.23.261v10.43a.262.262 0 0 0 .261.262l.077.047zm33.645 18.63a.262.262 0 0 0 .262-.261V41.846a.262.262 0 0 0-.262-.261H68.154a.262.262 0 0 0-.262.261v12.585c0 .133.099.246.231.261l17.123 2.416.046-.016z" stroke="#0090FF"/></g></svg>