<?xml version="1.0" encoding="UTF-8"?>
<svg width="51px" height="50px" viewBox="0 0 51 50" version="1.1" xmlns="http://www.w3.org/2000/svg" xmlns:xlink="http://www.w3.org/1999/xlink">
    <!-- Generator: Sketch 43.2 (39069) - http://www.bohemiancoding.com/sketch -->
    <title>Badge - simple-line-icons</title>
    <desc>Created with Sketch.</desc>
    <defs></defs>
    <g id="Expertos-Inicio" stroke="none" stroke-width="1" fill="none" fill-rule="evenodd">
        <g id="Landing-Page-V2" transform="translate(-935.000000, -2431.000000)" fill="#F6A623">
            <path d="M984.910482,2472.01562 C985.073243,2472.27604 985.138347,2472.56087 985.105794,2472.87012 C985.073242,2473.17936 984.959311,2473.46419 984.763998,2473.72461 C984.601236,2473.95248 984.373374,2474.12337 984.080404,2474.2373 C983.787434,2474.35124 983.494468,2474.35938 983.201498,2474.26172 L975.340169,2472.50391 L972.654623,2479.97461 C972.556966,2480.26758 972.386069,2480.50358 972.141927,2480.68262 C971.897785,2480.86165 971.629233,2480.96745 971.336263,2481 L971.189779,2481 C970.896809,2481 970.628257,2480.92676 970.384115,2480.78027 C970.139973,2480.63379 969.9528,2480.43034 969.822591,2480.16992 L961.668294,2465.27734 C961.407876,2465.3099 961.139324,2465.33431 960.86263,2465.35059 C960.585936,2465.36686 960.317384,2465.375 960.056966,2465.375 C959.763996,2465.375 959.47103,2465.36686 959.17806,2465.35059 C958.88509,2465.33431 958.592124,2465.3099 958.299154,2465.27734 L950.291341,2480.16992 C950.161132,2480.43034 949.97396,2480.63379 949.729818,2480.78027 C949.485676,2480.92676 949.217124,2481 948.924154,2481 L948.826498,2481 C948.500975,2480.96745 948.216147,2480.86165 947.972005,2480.68262 C947.727863,2480.50358 947.556967,2480.26758 947.45931,2479.97461 L944.773763,2472.50391 L936.912435,2474.26172 C936.619465,2474.35938 936.326499,2474.35124 936.033529,2474.2373 C935.740559,2474.12337 935.512696,2473.9362 935.349935,2473.67578 C935.154622,2473.44792 935.04069,2473.17936 935.008138,2472.87012 C934.975586,2472.56087 935.040689,2472.27604 935.203451,2472.01562 L944.383138,2455.26758 C943.894854,2454.19335 943.520509,2453.06218 943.260091,2451.87402 C942.999673,2450.68587 942.869466,2449.45704 942.869466,2448.1875 C942.869466,2445.81119 943.317053,2443.58139 944.21224,2441.49805 C945.107426,2439.4147 946.336255,2437.5918 947.898763,2436.0293 C949.461271,2434.46679 951.284169,2433.23796 953.367513,2432.34277 C955.450857,2431.44759 957.680652,2431 960.056966,2431 C962.43328,2431 964.663076,2431.44759 966.746419,2432.34277 C968.829763,2433.23796 970.644524,2434.46679 972.190755,2436.0293 C973.736987,2437.5918 974.965816,2439.4147 975.877279,2441.49805 C976.788742,2443.58139 977.244466,2445.81119 977.244466,2448.1875 C977.244466,2449.42449 977.114259,2450.62076 976.853841,2451.77637 C976.593423,2452.93197 976.235354,2454.04687 975.779623,2455.12109 L984.910482,2472.01562 Z M949.217123,2475.58008 L955.076498,2464.64258 C953.286124,2464.08919 951.634122,2463.2754 950.120443,2462.20117 C948.606763,2461.12695 947.312831,2459.85743 946.238607,2458.39258 L939.597982,2470.45312 L945.408529,2469.13477 C945.799156,2469.03711 946.165363,2469.08594 946.507162,2469.28125 C946.84896,2469.47656 947.101236,2469.75325 947.263998,2470.11133 L949.217123,2475.58008 Z M945.994466,2448.1875 C945.994466,2450.10808 946.360674,2451.92284 947.093099,2453.63184 C947.825525,2455.34083 948.834629,2456.83007 950.120443,2458.09961 C951.406257,2459.36915 952.895499,2460.37825 954.588216,2461.12695 C956.280933,2461.87565 958.103831,2462.25 960.056966,2462.25 C961.977549,2462.25 963.792309,2461.87565 965.501302,2461.12695 C967.210295,2460.37825 968.699538,2459.36915 969.969076,2458.09961 C971.238613,2456.83007 972.23958,2455.34083 972.972005,2453.63184 C973.704431,2451.92284 974.070638,2450.10808 974.070638,2448.1875 C974.070638,2446.26692 973.704431,2444.45216 972.972005,2442.74316 C972.23958,2441.03417 971.238613,2439.54493 969.969076,2438.27539 C968.699538,2437.00585 967.210295,2435.99675 965.501302,2435.24805 C963.792309,2434.49935 961.977549,2434.125 960.056966,2434.125 C958.103831,2434.125 956.280933,2434.49935 954.588216,2435.24805 C952.895499,2435.99675 951.406257,2437.00585 950.120443,2438.27539 C948.834629,2439.54493 947.825525,2441.03417 947.093099,2442.74316 C946.360674,2444.45216 945.994466,2446.26692 945.994466,2448.1875 Z M974.705404,2469.13477 L980.515951,2470.45312 L973.924154,2458.29492 C972.817377,2459.79233 971.490893,2461.0944 969.944662,2462.20117 C968.39843,2463.30795 966.713876,2464.13802 964.890951,2464.69141 L970.89681,2475.62891 L972.849935,2470.11133 C973.012696,2469.75325 973.264972,2469.47656 973.606771,2469.28125 C973.94857,2469.08594 974.314777,2469.03711 974.705404,2469.13477 Z" id="Badge---simple-line-icons"></path>
        </g>
    </g>
</svg>