<?xml version="1.0" encoding="UTF-8"?>
<svg width="106px" height="27px" viewBox="0 0 106 27" version="1.1" xmlns="http://www.w3.org/2000/svg" xmlns:xlink="http://www.w3.org/1999/xlink">
    <!-- Generator: Sketch 44.1 (41455) - http://www.bohemiancoding.com/sketch -->
    <title>Logo TAMED Color</title>
    <desc>Created with Sketch.</desc>
    <defs>
        <polygon id="path-1" points="3.7577 0.11897561 0.0152375 0.11897561 0.0152375 3.75069512 3.7577 3.75069512 3.7577 0.11897561"></polygon>
        <polygon id="path-3" points="0 0.129358537 0 5.04878049 3.76942625 5.04878049 3.76942625 0.129358537 2.3942798e-20 0.129358537"></polygon>
        <polygon id="path-5" points="0 26.2224878 105.341254 26.2224878 105.341254 0.219512195 0 0.219512195"></polygon>
    </defs>
    <g id="Main---Soporte" stroke="none" stroke-width="1" fill="none" fill-rule="evenodd">
        <g id="TAMED-Desktop-(-&gt;1170px)" transform="translate(-121.000000, -18.000000)">
            <g id="navbar">
                <g id="Logo-/-TAMED-Color" transform="translate(121.076923, 18.461538)">
                    <g id="tamed-2017-gris-sl">
                        <g id="Group-3" transform="translate(101.583333, 0.100537)">
                            <mask id="mask-2" fill="white">
                                <use xlink:href="#path-1"></use>
                            </mask>
                            <g id="Clip-2"></g>
                            <path d="M1.61495417,1.85169512 L1.81282083,1.85169512 C2.04845,1.85169512 2.23483333,1.77508537 2.23483333,1.58696341 C2.23483333,1.4210122 2.11359583,1.3130122 1.848375,1.3130122 C1.737075,1.3130122 1.65845833,1.32245122 1.61495417,1.3347439 L1.61495417,1.85169512 Z M1.601925,2.86693902 L1.180575,2.86693902 L1.180575,1.05771951 C1.34708333,1.03554878 1.58050417,1.00108537 1.87929167,1.00108537 C2.22577917,1.00108537 2.38014167,1.05771951 2.50336667,1.14464634 C2.61312083,1.22235366 2.69063333,1.35515854 2.69063333,1.53186585 C2.69063333,1.75291463 2.52456667,1.89603659 2.31234583,1.96167073 L2.31234583,1.98362195 C2.491,2.0385 2.58021667,2.18271951 2.63454167,2.42615854 C2.69063333,2.7027439 2.73722917,2.80108537 2.76836667,2.86693902 L2.32581667,2.86693902 C2.26884167,2.80108537 2.23483333,2.64676829 2.1816125,2.42615854 C2.14892917,2.23869512 2.03630417,2.15110976 1.80222083,2.15110976 L1.601925,2.15110976 L1.601925,2.86693902 Z M0.481858333,1.92896341 C0.481858333,2.7350122 1.09268333,3.37445122 1.9027,3.37445122 C2.69063333,3.38696341 3.29019583,2.7350122 3.29019583,1.9412561 C3.29019583,1.13389024 2.69063333,0.484134146 1.87929167,0.484134146 C1.09268333,0.484134146 0.481858333,1.13389024 0.481858333,1.92896341 L0.481858333,1.92896341 Z M3.7577,1.92896341 C3.7577,2.9439878 2.9355375,3.75069512 1.89055417,3.75069512 C0.847116667,3.75069512 0.0152375,2.9439878 0.0152375,1.92896341 C0.0152375,0.913719512 0.847116667,0.118865854 1.9027,0.118865854 C2.9355375,0.118865854 3.7577,0.913719512 3.7577,1.92896341 L3.7577,1.92896341 Z" id="Fill-1" fill="#000000" mask="url(#mask-2)"></path>
                        </g>
                        <polygon id="Fill-4" fill="#000000" points="17.0823417 0.370843902 30.9531042 0.370843902 30.9531042 3.24425854 25.6573 3.24425854 25.6573 17.2732829 22.377925 17.2732829 22.377925 3.24425854 17.0823417 3.24425854"></polygon>
                        <path d="M34.9853663,10.922861 L40.9613371,10.922861 L37.9977538,3.82383659 L34.9853663,10.922861 Z M43.6331996,17.2733488 L42.1271163,13.6994707 L33.8195871,13.6994707 L32.3132829,17.2733488 L28.9365204,17.2733488 L36.3945038,0.370909756 L39.7708246,0.370909756 L47.1311996,17.2733488 L43.6331996,17.2733488 Z" id="Fill-6" fill="#000000"></path>
                        <polygon id="Fill-8" fill="#000000" points="48.7098267 0.370843902 52.4264517 0.370843902 58.0621183 11.2608439 63.6492017 0.370843902 67.3658267 0.370843902 67.3658267 17.2732829 64.3781725 17.2732829 64.3781725 5.15181951 59.0825892 15.5347463 56.993285 15.5347463 51.67341 5.15181951 51.67341 17.2732829 48.7098267 17.2732829"></polygon>
                        <polygon id="Fill-10" fill="#000000" points="71.0579833 0.370843902 83.5196083 0.370843902 83.5196083 3.19596585 74.3130667 3.19596585 74.3130667 7.37328293 82.5724542 7.37328293 82.5724542 10.1984049 74.3130667 10.1984049 74.3130667 14.448161 83.8111083 14.448161 83.8111083 17.2732829 71.0579833 17.2732829"></polygon>
                        <path d="M96.5763129,13.7117854 C97.4104004,13.2372 98.0623004,12.5769073 98.5317921,11.7315659 C99.0015046,10.8866634 99.2362504,9.92476098 99.2362504,8.84629756 C99.2362504,7.76805366 98.9933338,6.79802927 98.5077213,5.93666341 C98.0216671,5.07551707 97.3538671,4.40732195 96.5034379,3.93229756 C95.6532296,3.4577122 94.7018796,3.2202 93.6493879,3.2202 L89.8839588,3.2202 L89.8839588,14.4238829 L93.7706254,14.4238829 C94.8069963,14.4238829 95.7422254,14.1865902 96.5763129,13.7117854 M98.2648046,1.44522439 C99.6087963,2.16193171 100.661288,3.16378537 101.4225,4.4514439 C102.183934,5.73976098 102.564209,7.19622439 102.564209,8.82215122 C102.564209,10.4482976 102.179517,11.9008098 101.410575,13.1805659 C100.640971,14.4601024 99.5765546,15.4623951 98.2162213,16.1865659 C96.8558879,16.9109561 95.3091713,17.2733707 93.5765129,17.2733707 L86.6288754,17.2733707 L86.6288754,0.370931707 L93.6977504,0.370931707 C95.3983879,0.370931707 96.9205921,0.72917561 98.2648046,1.44522439" id="Fill-12" fill="#000000"></path>
                        <path d="M13.6378717,2.22897073 C12.3713925,2.97223902 10.9929508,3.55570244 9.53788,3.95872683 C8.98579667,4.11501951 8.42112583,4.24365366 7.8465175,4.34594634 C6.7653175,4.54043415 5.64856333,4.63921463 4.51348,4.63921463 C3.0738675,4.63921463 1.65678,4.47458049 0.290705,4.15672683 L7.29553833,0.738921951 L7.93838417,0.3708 L9.28878,0.742653659 L13.6378717,2.22897073 Z" id="Fill-14" fill="#1E70B7"></path>
                        <path d="M14.4502292,3.77343659 C13.0543417,4.56302195 11.5345667,5.19850976 9.93242083,5.63775366 C10.2241417,7.21977805 10.3009917,8.86963171 10.1439792,10.5473634 C9.930875,12.8184366 9.2875875,14.9843634 8.29185,16.9325341 L12.943925,14.2184854 C13.8698792,12.4057537 14.4681167,10.3915098 14.666425,8.27892439 C14.8123958,6.71819268 14.7412875,5.18336341 14.4698833,3.71175366 L14.4502292,3.77343659 Z" id="Fill-16" fill="#1E70B7"></path>
                        <path d="M8.24147792,6.02499512 C7.03064875,6.24758049 5.78316125,6.36194634 4.51336958,6.36194634 C2.99381542,6.36194634 1.49369458,6.19401951 0.0441445833,5.86782439 L0.0441445833,13.8091171 L6.10646125,17.2868488 C7.37161542,15.2532878 8.18163208,12.8915561 8.41770292,10.3875805 C8.55749042,8.89753171 8.49300708,7.43162927 8.24147792,6.02499512" id="Fill-18" fill="#009EE2"></path>
                        <g id="Group-22" transform="translate(0.000000, 21.173707)">
                            <mask id="mask-4" fill="white">
                                <use xlink:href="#path-3"></use>
                            </mask>
                            <g id="Clip-21"></g>
                            <path d="M2.61689708,0.883382927 C2.40909292,0.732139024 2.14298875,0.656187805 1.81902625,0.656187805 C1.68763042,0.656187805 1.55844292,0.669358537 1.43168458,0.695919512 C1.30448458,0.722041463 1.19163875,0.765943902 1.09336792,0.827407317 C0.994655417,0.888870732 0.915817917,0.971187805 0.856855417,1.07435854 C0.797672083,1.17752927 0.76830125,1.3059439 0.76830125,1.45960244 C0.76830125,1.60448049 0.810922083,1.72191951 0.896384583,1.81191951 C0.98162625,1.90213902 1.09535542,1.97567561 1.23757208,2.03252927 C1.38000958,2.08960244 1.54077625,2.13679756 1.72031375,2.17411463 C1.90007208,2.21143171 2.08270125,2.25204146 2.26886375,2.29616341 C2.45502625,2.34006585 2.63765542,2.39143171 2.81719292,2.4507 C2.99673042,2.50996829 3.15749708,2.59009024 3.29971375,2.69106585 C3.44193042,2.79204146 3.55610125,2.91935854 3.64134292,3.07323659 C3.72658458,3.22689512 3.76942625,3.42006585 3.76942625,3.65252927 C3.76942625,3.90277317 3.71377625,4.11679756 3.60203458,4.29460244 C3.49029292,4.47262683 3.34675125,4.61728537 3.17163042,4.7294561 C2.99673042,4.8411878 2.80085125,4.92240732 2.58421375,4.97289512 C2.36713458,5.02316341 2.15160125,5.04884634 1.93717208,5.04884634 C1.67438042,5.04884634 1.42594292,5.0157 1.19163875,4.94984634 C0.957334583,4.8842122 0.75173875,4.78433415 0.574630417,4.6502122 C0.397080417,4.51630976 0.257072083,4.34530976 0.154384583,4.13655366 C0.0512554167,3.92801707 -0.00019875,3.68106585 -0.00019875,3.3957 L0.59075125,3.3957 C0.59075125,3.59326098 0.628955417,3.76338293 0.705805417,3.90628537 C0.78221375,4.04874878 0.88291375,4.1661878 1.00790542,4.25838293 C1.13267625,4.35057805 1.27820542,4.41862683 1.44449292,4.46252927 C1.61078042,4.50643171 1.78170542,4.52838293 1.95682625,4.52838293 C2.09683458,4.52838293 2.23816792,4.5152122 2.38060542,4.48887073 C2.52260125,4.46252927 2.65068458,4.41774878 2.76463458,4.35409024 C2.87836375,4.29043171 2.97045125,4.20350488 3.04045542,4.09374878 C3.11023875,3.98399268 3.14579292,3.84350488 3.14579292,3.67228537 C3.14579292,3.51006585 3.10273042,3.37813902 3.01726792,3.27716341 C2.93202625,3.1761878 2.81807625,3.09387073 2.67608042,3.0302122 C2.53364292,2.96655366 2.37287625,2.91496829 2.19333875,2.8754561 C2.01380125,2.83616341 1.83073042,2.79533415 1.64500958,2.75384634 C1.45884708,2.71191951 1.27599708,2.66362683 1.09645958,2.60874878 C0.917142917,2.55387073 0.755934583,2.48143171 0.61393875,2.39143171 C0.47150125,2.30143171 0.357772083,2.18530976 0.272530417,2.04240732 C0.186847083,1.8999439 0.14422625,1.72082195 0.14422625,1.5057 C0.14422625,1.26862683 0.192367917,1.06338293 0.28865125,0.889968293 C0.385155417,0.716553659 0.51323875,0.573870732 0.67290125,0.461919512 C0.832784583,0.349968293 1.01453042,0.266553659 1.21791792,0.21167561 C1.42174708,0.156797561 1.63043458,0.129358537 1.84530542,0.129358537 C2.08601375,0.129358537 2.30927625,0.157895122 2.51487208,0.214968293 C2.72090958,0.272041463 2.90155125,0.362041463 3.05679708,0.485187805 C3.21226375,0.607895122 3.33482625,0.76265122 3.42448458,0.949236585 C3.51436375,1.13582195 3.56360958,1.35862683 3.57222208,1.61765122 L2.98127208,1.61765122 C2.94615958,1.27982195 2.82470125,1.03484634 2.61689708,0.883382927" id="Fill-20" fill="#000000" mask="url(#mask-4)"></path>
                        </g>
                        <polygon id="Fill-23" fill="#000000" points="10.6844467 21.415061 12.1620425 25.3662805 13.6462633 21.415061 14.500005 21.415061 14.500005 26.1170122 13.909055 26.1170122 13.909055 22.2053049 13.895805 22.2053049 12.4314592 26.1170122 11.8992508 26.1170122 10.434905 22.2053049 10.4218758 22.2053049 10.4218758 26.1170122 9.83092583 26.1170122 9.83092583 21.415061"></polygon>
                        <path d="M23.2279346,24.1743951 L22.4464054,21.9814683 L22.4331554,21.9814683 L21.6388179,24.1743951 L23.2279346,24.1743951 Z M22.7944388,21.4151268 L24.6266929,26.117078 L23.9372513,26.117078 L23.4251388,24.7010049 L21.4416138,24.7010049 L20.9162513,26.117078 L20.2791471,26.117078 L22.1049971,21.4151268 L22.7944388,21.4151268 Z" id="Fill-25" fill="#000000"></path>
                        <path d="M32.7172975,23.5486756 C32.8486933,23.5267244 32.9635267,23.4839195 33.0622392,23.420261 C33.1607308,23.356822 33.2393475,23.2709927 33.2985308,23.1634317 C33.3577142,23.0558707 33.3873058,22.9164805 33.3873058,22.745261 C33.3873058,22.5081878 33.3214975,22.3150171 33.1903225,22.1657488 C33.0589267,22.0167 32.846485,21.9420659 32.5532183,21.9420659 L31.00341,21.9420659 L31.00341,23.5816024 L32.3036767,23.5816024 C32.4481017,23.5816024 32.5859017,23.5708463 32.7172975,23.5486756 L32.7172975,23.5486756 Z M32.5859017,21.4150171 C33.0326475,21.4150171 33.381785,21.5247732 33.633535,21.7442854 C33.8850642,21.9637976 34.0109392,22.2645293 34.0109392,22.6467 C34.0109392,22.9318463 33.946235,23.1820902 33.8172683,23.3974317 C33.6880808,23.6123341 33.4813808,23.7594073 33.1967267,23.8384317 L33.1967267,23.8516024 C33.3325392,23.8779439 33.4429558,23.9218463 33.5284183,23.9833098 C33.6138808,24.0449927 33.6814558,24.1183098 33.7320267,24.2039195 C33.7821558,24.2895293 33.8194767,24.3852366 33.8437683,24.4903829 C33.8676183,24.5959683 33.8863892,24.7057244 33.8994183,24.8196512 C33.9082517,24.9340171 33.9148767,25.050139 33.9190725,25.1686756 C33.9234892,25.2872122 33.9345308,25.4035537 33.9519767,25.5177 C33.9694225,25.6318463 33.9948183,25.7405049 34.0275017,25.8436756 C34.0604058,25.9470659 34.1096517,26.0379439 34.1752392,26.1169683 L33.4791725,26.1169683 C33.4352267,26.0686756 33.4058558,26.0030415 33.3903975,25.9194073 C33.37516,25.8362122 33.3652225,25.7427 33.3610267,25.6395293 C33.35661,25.536578 33.3521933,25.4255049 33.3477767,25.3069683 C33.34336,25.1884317 33.3303308,25.0720902 33.3084683,24.9579439 C33.2908017,24.8437976 33.2689392,24.735139 33.24266,24.6321878 C33.2166017,24.5290171 33.1746433,24.4390171 33.1176683,24.3619683 C33.061135,24.285139 32.9867142,24.2236756 32.8948475,24.177578 C32.80276,24.1314805 32.6799767,24.1084317 32.5269392,24.1084317 L31.00341,24.1084317 L31.00341,26.1169683 L30.379335,26.1169683 L30.379335,21.4150171 L32.5859017,21.4150171 Z" id="Fill-27" fill="#000000"></path>
                        <polygon id="Fill-29" fill="#000000" points="39.5536571 21.941978 39.5536571 21.4151488 43.3036279 21.4151488 43.3036279 21.941978 41.7405696 21.941978 41.7405696 26.1171 41.1167154 26.1171 41.1167154 21.941978"></polygon>
                        <polygon id="Fill-31" fill="#000000" points="56.8582233 21.415061 56.8582233 25.5901829 59.3408317 25.5901829 59.3408317 26.1170122 56.23459 26.1170122 56.23459 21.415061"></polygon>
                        <mask id="mask-6" fill="white">
                            <use xlink:href="#path-5"></use>
                        </mask>
                        <g id="Clip-34"></g>
                        <polygon id="Fill-33" fill="#000000" mask="url(#mask-6)" points="65.2050167 26.1169024 65.82865 26.1169024 65.82865 21.4149512 65.2050167 21.4149512"></polygon>
                        <polygon id="Fill-35" fill="#000000" mask="url(#mask-6)" points="73.3090258 26.1170122 71.660505 21.415061 72.3302925 21.415061 73.6700883 25.4914024 73.6833383 25.4914024 75.0363842 21.415061 75.6865175 21.415061 74.0181217 26.1170122"></polygon>
                        <polygon id="Fill-36" fill="#000000" mask="url(#mask-6)" points="81.5049458 26.1169024 82.1285792 26.1169024 82.1285792 21.4149512 81.5049458 21.4149512"></polygon>
                        <polygon id="Fill-37" fill="#000000" mask="url(#mask-6)" points="89.1292167 21.415061 91.598575 25.2279878 91.6113833 25.2279878 91.6113833 21.415061 92.202775 21.415061 92.202775 26.1170122 91.5195167 26.1170122 89.0700333 22.343378 89.0567833 22.343378 89.0567833 26.1170122 88.4658333 26.1170122 88.4658333 21.415061"></polygon>
                        <path d="M101.33112,26.0610585 C101.059495,26.1684 100.785882,26.2224 100.50984,26.2224 C100.159599,26.2224 99.8464571,26.1574244 99.5708571,26.0281317 C99.2952571,25.8986195 99.0607321,25.7241073 98.8683863,25.5045951 C98.6755988,25.2850829 98.5289654,25.0326439 98.4282654,24.747278 C98.3273446,24.4619122 98.2769946,24.1655707 98.2769946,23.8582537 C98.2769946,23.5158146 98.3240321,23.189839 98.4181071,22.8803268 C98.5124029,22.5708146 98.6526321,22.2997171 98.8385738,22.0670341 C99.0249571,21.8343512 99.2563904,21.6486439 99.5346404,21.5105707 C99.8124488,21.372278 100.137736,21.3031317 100.50984,21.3031317 C100.76402,21.3031317 101.003845,21.3327659 101.229315,21.3918146 C101.454565,21.4513024 101.655965,21.5445951 101.833074,21.6719122 C102.010403,21.7992293 102.159245,21.9605707 102.28004,22.1559366 C102.400395,22.3513024 102.482324,22.587278 102.52627,22.8638634 L101.902195,22.8638634 C101.871499,22.6838634 101.814524,22.5291073 101.73127,22.3995951 C101.648236,22.2700829 101.545549,22.1636195 101.422986,22.0802049 C101.299982,21.9967902 101.161078,21.9342293 101.005832,21.892522 C100.850145,21.8508146 100.684961,21.829961 100.50984,21.829961 C100.225186,21.829961 99.9816071,21.8870341 99.7775571,22.0011805 C99.5739488,22.1153268 99.4078821,22.2656927 99.2784738,22.452278 C99.1495071,22.6388634 99.0541071,22.8517902 98.9929363,23.0910585 C98.9313238,23.3305463 98.9010696,23.5750829 98.9010696,23.8251073 C98.9010696,24.0714 98.9359613,24.3071561 99.0059654,24.5332537 C99.0761904,24.7593512 99.1788779,24.9591073 99.3146904,25.132522 C99.4500613,25.3061561 99.6178946,25.4442293 99.8173071,25.5474 C100.016057,25.6505707 100.24727,25.7021561 100.50984,25.7021561 C100.754965,25.7021561 100.971824,25.6626439 101.159974,25.5836195 C101.348345,25.5045951 101.507124,25.3959366 101.63609,25.2576439 C101.765499,25.1193512 101.862886,24.9569122 101.928474,24.7703268 C101.994061,24.583961 102.022549,24.3828878 102.013936,24.1677659 L100.516465,24.1677659 L100.516465,23.6409366 L102.571982,23.6409366 L102.571982,26.1170341 L102.178236,26.1170341 L102.013936,25.5309366 C101.829761,25.7767902 101.602082,25.9534976 101.33112,26.0610585" id="Fill-38" fill="#000000" mask="url(#mask-6)"></path>
                    </g>
                </g>
            </g>
        </g>
    </g>
</svg>