<?xml version="1.0" encoding="UTF-8"?>
<svg width="159px" height="40px" viewBox="0 0 159 40" version="1.1" xmlns="http://www.w3.org/2000/svg" xmlns:xlink="http://www.w3.org/1999/xlink">
    <!-- Generator: Sketch 43.2 (39069) - http://www.bohemiancoding.com/sketch -->
    <title>tamed-2017-gris-sl</title>
    <desc>Created with Sketch.</desc>
    <defs>
        <polygon id="path-1" points="5.672 0.180666667 0.023 0.180666667 0.023 5.6955 5.672 5.6955 5.672 0.180666667"></polygon>
        <polygon id="path-3" points="0 0.196433333 0 7.66666667 5.6897 7.66666667 5.6897 0.196433333 3.61400724e-20 0.196433333"></polygon>
        <polygon id="path-5" points="0 39.8193333 159.005667 39.8193333 159.005667 0.333333333 0 0.333333333"></polygon>
    </defs>
    <g id="Expertos-Inicio" stroke="none" stroke-width="1" fill="none" fill-rule="evenodd">
        <g id="Landing-Page-V2" transform="translate(-611.000000, -26.000000)">
            <g id="tamed-2017-gris-sl" transform="translate(611.000000, 26.000000)">
                <g id="Group-3" transform="translate(153.333333, 0.152667)">
                    <mask id="mask-2" fill="white">
                        <use xlink:href="#path-1"></use>
                    </mask>
                    <g id="Clip-2"></g>
                    <path d="M2.43766667,2.81183333 L2.73633333,2.81183333 C3.092,2.81183333 3.37333333,2.6955 3.37333333,2.40983333 C3.37333333,2.15783333 3.19033333,1.99383333 2.79,1.99383333 C2.622,1.99383333 2.50333333,2.00816667 2.43766667,2.02683333 L2.43766667,2.81183333 Z M2.418,4.3535 L1.782,4.3535 L1.782,1.60616667 C2.03333333,1.5725 2.38566667,1.52016667 2.83666667,1.52016667 C3.35966667,1.52016667 3.59266667,1.60616667 3.77866667,1.73816667 C3.94433333,1.85616667 4.06133333,2.05783333 4.06133333,2.32616667 C4.06133333,2.66183333 3.81066667,2.87916667 3.49033333,2.97883333 L3.49033333,3.01216667 C3.76,3.0955 3.89466667,3.3145 3.97666667,3.68416667 C4.06133333,4.10416667 4.13166667,4.2535 4.17866667,4.3535 L3.51066667,4.3535 C3.42466667,4.2535 3.37333333,4.01916667 3.293,3.68416667 C3.24366667,3.3995 3.07366667,3.2665 2.72033333,3.2665 L2.418,3.2665 L2.418,4.3535 Z M0.727333333,2.92916667 C0.727333333,4.15316667 1.64933333,5.12416667 2.872,5.12416667 C4.06133333,5.14316667 4.96633333,4.15316667 4.96633333,2.94783333 C4.96633333,1.72183333 4.06133333,0.735166667 2.83666667,0.735166667 C1.64933333,0.735166667 0.727333333,1.72183333 0.727333333,2.92916667 L0.727333333,2.92916667 Z M5.672,2.92916667 C5.672,4.4705 4.431,5.6955 2.85366667,5.6955 C1.27866667,5.6955 0.023,4.4705 0.023,2.92916667 C0.023,1.3875 1.27866667,0.1805 2.872,0.1805 C4.431,0.1805 5.672,1.3875 5.672,2.92916667 L5.672,2.92916667 Z" id="Fill-1" fill="#FFFFFF" mask="url(#mask-2)"></path>
                </g>
                <polygon id="Fill-4" fill="#FFFFFF" points="25.7846667 0.563133333 46.7216667 0.563133333 46.7216667 4.92646667 38.728 4.92646667 38.728 26.2298 33.778 26.2298 33.778 4.92646667 25.7846667 4.92646667"></polygon>
                <path d="M52.8081,16.5865667 L61.8284333,16.5865667 L57.3551,5.80656667 L52.8081,16.5865667 Z M65.8614333,26.2299 L63.5881,20.8029 L51.0484333,20.8029 L48.7747667,26.2299 L43.6777667,26.2299 L54.9351,0.563233333 L60.0314333,0.563233333 L71.1414333,26.2299 L65.8614333,26.2299 Z" id="Fill-6" fill="#FFFFFF"></path>
                <polygon id="Fill-8" fill="#FFFFFF" points="73.5242667 0.563133333 79.1342667 0.563133333 87.6409333 17.0998 96.0742667 0.563133333 101.684267 0.563133333 101.684267 26.2298 97.1746 26.2298 97.1746 7.82313333 89.1812667 23.5898 86.0276 23.5898 77.9976 7.82313333 77.9976 26.2298 73.5242667 26.2298"></polygon>
                <polygon id="Fill-10" fill="#FFFFFF" points="107.257333 0.563133333 126.067333 0.563133333 126.067333 4.85313333 112.170667 4.85313333 112.170667 11.1964667 124.637667 11.1964667 124.637667 15.4864667 112.170667 15.4864667 112.170667 21.9398 126.507333 21.9398 126.507333 26.2298 107.257333 26.2298"></polygon>
                <path d="M145.775567,20.8216 C147.034567,20.1009333 148.018567,19.0982667 148.727233,17.8146 C149.436233,16.5316 149.790567,15.0709333 149.790567,13.4332667 C149.790567,11.7959333 149.4239,10.3229333 148.6909,9.01493333 C147.957233,7.70726667 146.949233,6.6926 145.665567,5.97126667 C144.382233,5.2506 142.946233,4.88993333 141.357567,4.88993333 L135.6739,4.88993333 L135.6739,21.9029333 L141.540567,21.9029333 C143.1049,21.9029333 144.516567,21.5426 145.775567,20.8216 M148.324233,2.1946 C150.3529,3.28293333 151.941567,4.80426667 153.090567,6.7596 C154.2399,8.71593333 154.8139,10.9276 154.8139,13.3966 C154.8139,15.8659333 154.233233,18.0716 153.072567,20.0149333 C151.9109,21.9579333 150.304233,23.4799333 148.2509,24.5796 C146.197567,25.6796 143.8629,26.2299333 141.247567,26.2299333 L130.760567,26.2299333 L130.760567,0.563266667 L141.430567,0.563266667 C143.997567,0.563266667 146.295233,1.10726667 148.324233,2.1946" id="Fill-12" fill="#FFFFFF"></path>
                <path d="M20.5854667,3.38473333 C18.6738,4.5134 16.5931333,5.3994 14.3968,6.0114 C13.5634667,6.24873333 12.7111333,6.44406667 11.8438,6.5994 C10.2118,6.89473333 8.52613333,7.04473333 6.8128,7.04473333 C4.6398,7.04473333 2.5008,6.79473333 0.4388,6.31206667 L11.0121333,1.12206667 L11.9824667,0.563066667 L14.0208,1.12773333 L20.5854667,3.38473333 Z" id="Fill-14" fill="#FFFFFF"></path>
                <path d="M21.8413333,5.63636667 L21.8116667,5.73003333 L21.817,5.69203333 C19.7046667,6.92903333 17.4106667,7.89403333 14.9923333,8.56103333 C15.4326667,10.9633667 15.5486667,13.4687 15.3116667,16.0163667 C14.99,19.4650333 14.019,22.7540333 12.516,25.7123667 L19.538,21.5910333 C20.9356667,18.8383667 21.8386667,15.7797 22.138,12.5717 C22.3583333,10.2017 22.251,7.87103333 21.8413333,5.63636667" id="Fill-16" fill="#FFFFFF"></path>
                <path d="M12.4399667,9.14906667 C10.6123,9.48706667 8.7293,9.66073333 6.81263333,9.66073333 C4.51896667,9.66073333 2.25463333,9.40573333 0.0666333333,8.9104 L0.0666333333,20.9694 L9.2173,26.2504 C11.1269667,23.1624 12.3496333,19.5760667 12.7059667,15.7737333 C12.9169667,13.5110667 12.8196333,11.2850667 12.4399667,9.14906667" id="Fill-18" fill="#FFFFFF"></path>
                <g id="Group-22" transform="translate(0.000000, 32.152667)">
                    <mask id="mask-4" fill="white">
                        <use xlink:href="#path-3"></use>
                    </mask>
                    <g id="Clip-21"></g>
                    <path d="M3.95003333,1.34143333 C3.63636667,1.11176667 3.2347,0.996433333 2.7457,0.996433333 C2.54736667,0.996433333 2.35236667,1.01643333 2.16103333,1.05676667 C1.96903333,1.09643333 1.7987,1.1631 1.65036667,1.25643333 C1.50136667,1.34976667 1.38236667,1.47476667 1.29336667,1.63143333 C1.20403333,1.7881 1.1597,1.9831 1.1597,2.21643333 C1.1597,2.43643333 1.22403333,2.61476667 1.35303333,2.75143333 C1.4817,2.88843333 1.65336667,3.0001 1.86803333,3.08643333 C2.08303333,3.1731 2.3257,3.24476667 2.5967,3.30143333 C2.86803333,3.3581 3.1437,3.41976667 3.4247,3.48676667 C3.7057,3.55343333 3.98136667,3.63143333 4.25236667,3.72143333 C4.52336667,3.81143333 4.76603333,3.9331 4.9807,4.08643333 C5.19536667,4.23976667 5.3677,4.4331 5.49636667,4.66676667 C5.62503333,4.9001 5.6897,5.19343333 5.6897,5.54643333 C5.6897,5.92643333 5.6057,6.25143333 5.43703333,6.52143333 C5.26836667,6.79176667 5.0517,7.01143333 4.78736667,7.18176667 C4.52336667,7.35143333 4.2277,7.47476667 3.9007,7.55143333 C3.57303333,7.62776667 3.2477,7.66676667 2.92403333,7.66676667 C2.52736667,7.66676667 2.15236667,7.61643333 1.7987,7.51643333 C1.44503333,7.41676667 1.1347,7.2651 0.867366667,7.06143333 C0.599366667,6.8581 0.388033333,6.59843333 0.233033333,6.28143333 C0.0773666667,5.96476667 -0.0003,5.58976667 -0.0003,5.15643333 L0.8917,5.15643333 C0.8917,5.45643333 0.949366667,5.71476667 1.06536667,5.93176667 C1.1807,6.1481 1.3327,6.32643333 1.52136667,6.46643333 C1.7097,6.60643333 1.92936667,6.70976667 2.18036667,6.77643333 C2.43136667,6.8431 2.68936667,6.87643333 2.9537,6.87643333 C3.16503333,6.87643333 3.37836667,6.85643333 3.59336667,6.81643333 C3.8077,6.77643333 4.00103333,6.70843333 4.17303333,6.61176667 C4.3447,6.5151 4.4837,6.3831 4.58936667,6.21643333 C4.6947,6.04976667 4.74836667,5.83643333 4.74836667,5.57643333 C4.74836667,5.3301 4.68336667,5.12976667 4.55436667,4.97643333 C4.4257,4.8231 4.2537,4.6981 4.03936667,4.60143333 C3.82436667,4.50476667 3.5817,4.42643333 3.3107,4.36643333 C3.0397,4.30676667 2.76336667,4.24476667 2.48303333,4.18176667 C2.20203333,4.1181 1.92603333,4.04476667 1.65503333,3.96143333 C1.38436667,3.8781 1.14103333,3.7681 0.9267,3.63143333 C0.7117,3.49476667 0.540033333,3.31843333 0.411366667,3.10143333 C0.282033333,2.8851 0.2177,2.6131 0.2177,2.28643333 C0.2177,1.92643333 0.290366667,1.61476667 0.4357,1.35143333 C0.581366667,1.0881 0.7747,0.871433333 1.0157,0.701433333 C1.25703333,0.531433333 1.53136667,0.404766667 1.83836667,0.321433333 C2.14603333,0.2381 2.46103333,0.196433333 2.78536667,0.196433333 C3.1487,0.196433333 3.4857,0.239766667 3.79603333,0.326433333 C4.10703333,0.4131 4.3797,0.549766667 4.61403333,0.736766667 C4.8487,0.9231 5.0337,1.1581 5.16903333,1.44143333 C5.3047,1.72476667 5.37903333,2.0631 5.39203333,2.45643333 L4.50003333,2.45643333 C4.44703333,1.94343333 4.2637,1.57143333 3.95003333,1.34143333" id="Fill-20" fill="#FFFFFF" mask="url(#mask-4)"></path>
                </g>
                <polygon id="Fill-23" fill="#FFFFFF" points="16.1274667 32.5191667 18.3578 38.5191667 20.5981333 32.5191667 21.8868 32.5191667 21.8868 39.6591667 20.9948 39.6591667 20.9948 33.7191667 20.9748 33.7191667 18.7644667 39.6591667 17.9611333 39.6591667 15.7508 33.7191667 15.7311333 33.7191667 15.7311333 39.6591667 14.8391333 39.6591667 14.8391333 32.5191667"></polygon>
                <path d="M35.0610333,36.7092667 L33.8813667,33.3792667 L33.8613667,33.3792667 L32.6623667,36.7092667 L35.0610333,36.7092667 Z M34.4067,32.5192667 L37.1723667,39.6592667 L36.1317,39.6592667 L35.3587,37.5089333 L32.3647,37.5089333 L31.5717,39.6592667 L30.6100333,39.6592667 L33.3660333,32.5192667 L34.4067,32.5192667 Z" id="Fill-25" fill="#FFFFFF"></path>
                <path d="M49.3846,35.7591 C49.5829333,35.7257667 49.7562667,35.6607667 49.9052667,35.5641 C50.0539333,35.4677667 50.1726,35.3374333 50.2619333,35.1741 C50.3512667,35.0107667 50.3959333,34.7991 50.3959333,34.5391 C50.3959333,34.1791 50.2966,33.8857667 50.0986,33.6591 C49.9002667,33.4327667 49.5796,33.3194333 49.1369333,33.3194333 L46.7976,33.3194333 L46.7976,35.8091 L48.7602667,35.8091 C48.9782667,35.8091 49.1862667,35.7927667 49.3846,35.7591 L49.3846,35.7591 Z M49.1862667,32.5191 C49.8606,32.5191 50.3876,32.6857667 50.7676,33.0191 C51.1472667,33.3524333 51.3372667,33.8091 51.3372667,34.3894333 C51.3372667,34.8224333 51.2396,35.2024333 51.0449333,35.5294333 C50.8499333,35.8557667 50.5379333,36.0791 50.1082667,36.1991 L50.1082667,36.2191 C50.3132667,36.2591 50.4799333,36.3257667 50.6089333,36.4191 C50.7379333,36.5127667 50.8399333,36.6241 50.9162667,36.7541 C50.9919333,36.8841 51.0482667,37.0294333 51.0849333,37.1891 C51.1209333,37.3494333 51.1492667,37.5161 51.1689333,37.6891 C51.1822667,37.8627667 51.1922667,38.0391 51.1986,38.2191 C51.2052667,38.3991 51.2219333,38.5757667 51.2482667,38.7491 C51.2746,38.9224333 51.3129333,39.0874333 51.3622667,39.2441 C51.4119333,39.4011 51.4862667,39.5391 51.5852667,39.6591 L50.5346,39.6591 C50.4682667,39.5857667 50.4239333,39.4861 50.4006,39.3591 C50.3776,39.2327667 50.3626,39.0907667 50.3562667,38.9341 C50.3496,38.7777667 50.3429333,38.6091 50.3362667,38.4291 C50.3296,38.2491 50.3099333,38.0724333 50.2769333,37.8991 C50.2502667,37.7257667 50.2172667,37.5607667 50.1776,37.4044333 C50.1382667,37.2477667 50.0749333,37.1111 49.9889333,36.9941 C49.9036,36.8774333 49.7912667,36.7841 49.6526,36.7141 C49.5136,36.6441 49.3282667,36.6091 49.0972667,36.6091 L46.7976,36.6091 L46.7976,39.6591 L45.8556,39.6591 L45.8556,32.5191 L49.1862667,32.5191 Z" id="Fill-27" fill="#FFFFFF"></path>
                <polygon id="Fill-29" fill="#FFFFFF" points="59.7036333 33.3193 59.7036333 32.5193 65.3639667 32.5193 65.3639667 33.3193 63.0046333 33.3193 63.0046333 39.6593 62.0629667 39.6593 62.0629667 33.3193"></polygon>
                <polygon id="Fill-31" fill="#FFFFFF" points="85.8237333 32.5191667 85.8237333 38.8591667 89.5710667 38.8591667 89.5710667 39.6591667 84.8824 39.6591667 84.8824 32.5191667"></polygon>
                <mask id="mask-6" fill="white">
                    <use xlink:href="#path-5"></use>
                </mask>
                <g id="Clip-34"></g>
                <polygon id="Fill-33" fill="#FFFFFF" mask="url(#mask-6)" points="98.4226667 39.659 99.364 39.659 99.364 32.519 98.4226667 32.519"></polygon>
                <polygon id="Fill-35" fill="#FFFFFF" mask="url(#mask-6)" points="110.655133 39.6591667 108.1668 32.5191667 109.1778 32.5191667 111.200133 38.7091667 111.220133 38.7091667 113.262467 32.5191667 114.2438 32.5191667 111.725467 39.6591667"></polygon>
                <polygon id="Fill-36" fill="#FFFFFF" mask="url(#mask-6)" points="123.026333 39.659 123.967667 39.659 123.967667 32.519 123.026333 32.519"></polygon>
                <polygon id="Fill-37" fill="#FFFFFF" mask="url(#mask-6)" points="134.534667 32.5191667 138.262 38.3091667 138.281333 38.3091667 138.281333 32.5191667 139.174 32.5191667 139.174 39.6591667 138.142667 39.6591667 134.445333 33.9288333 134.425333 33.9288333 134.425333 39.6591667 133.533333 39.6591667 133.533333 32.5191667"></polygon>
                <path d="M152.952633,39.5742 C152.542633,39.7372 152.129633,39.8192 151.712967,39.8192 C151.1843,39.8192 150.711633,39.7205333 150.295633,39.5242 C149.879633,39.3275333 149.525633,39.0625333 149.2353,38.7292 C148.9443,38.3958667 148.722967,38.0125333 148.570967,37.5792 C148.418633,37.1458667 148.342633,36.6958667 148.342633,36.2292 C148.342633,35.7092 148.413633,35.2142 148.555633,34.7442 C148.697967,34.2742 148.909633,33.8625333 149.1903,33.5092 C149.471633,33.1558667 149.820967,32.8738667 150.240967,32.6642 C150.6603,32.4542 151.1513,32.3492 151.712967,32.3492 C152.096633,32.3492 152.458633,32.3942 152.798967,32.4838667 C153.138967,32.5742 153.442967,32.7158667 153.7103,32.9092 C153.977967,33.1025333 154.202633,33.3475333 154.384967,33.6442 C154.566633,33.9408667 154.6903,34.2992 154.756633,34.7192 L153.814633,34.7192 C153.7683,34.4458667 153.6823,34.2108667 153.556633,34.0142 C153.4313,33.8175333 153.2763,33.6558667 153.0913,33.5292 C152.905633,33.4025333 152.695967,33.3075333 152.461633,33.2442 C152.226633,33.1808667 151.9773,33.1492 151.712967,33.1492 C151.2833,33.1492 150.915633,33.2358667 150.607633,33.4092 C150.3003,33.5825333 150.049633,33.8108667 149.8543,34.0942 C149.659633,34.3775333 149.515633,34.7008667 149.4233,35.0642 C149.3303,35.4278667 149.284633,35.7992 149.284633,36.1788667 C149.284633,36.5528667 149.3373,36.9108667 149.442967,37.2542 C149.548967,37.5975333 149.703967,37.9008667 149.908967,38.1642 C150.1133,38.4278667 150.366633,38.6375333 150.667633,38.7942 C150.967633,38.9508667 151.316633,39.0292 151.712967,39.0292 C152.082967,39.0292 152.4103,38.9692 152.6943,38.8492 C152.978633,38.7292 153.2183,38.5642 153.412967,38.3542 C153.6083,38.1442 153.7553,37.8975333 153.8543,37.6142 C153.9533,37.3312 153.9963,37.0258667 153.9833,36.6992 L151.722967,36.6992 L151.722967,35.8992 L154.825633,35.8992 L154.825633,39.6592 L154.2313,39.6592 L153.9833,38.7692 C153.7053,39.1425333 153.361633,39.4108667 152.952633,39.5742" id="Fill-38" fill="#FFFFFF" mask="url(#mask-6)"></path>
            </g>
        </g>
    </g>
</svg>