<?xml version="1.0" encoding="UTF-8"?>
<svg width="171px" height="28px" viewBox="0 0 171 28" version="1.1" xmlns="http://www.w3.org/2000/svg" xmlns:xlink="http://www.w3.org/1999/xlink">
    <!-- Generator: Sketch 43 (38999) - http://www.bohemiancoding.com/sketch -->
    <title>MainLogo</title>
    <desc>Created with Sketch.</desc>
    <defs></defs>
    <g id="Inicio" stroke="none" stroke-width="1" fill="#333" fill-rule="evenodd">
        <g id="IndexResellersDesktop-(-&gt;1170px)" transform="translate(-130.000000, -26.000000)">
            <g id="Navbar-text">
                <g id="MainLogo" transform="translate(130.000000, 26.000000)">
                    <path d="M167.119034,2.82414206 L167.439751,2.82414206 C167.821382,2.82414206 168.123017,2.69937811 168.123017,2.39260558 C168.123017,2.12179442 167.927064,1.94639099 167.496995,1.94639099 C167.317188,1.94639099 167.189489,1.9610691 167.119034,1.98161845 L167.119034,2.82414206 Z M167.097751,4.47836524 L166.415218,4.47836524 L166.415218,1.52953262 C166.685296,1.49430515 167.063257,1.43779442 167.546901,1.43779442 C168.109073,1.43779442 168.3586,1.52953262 168.558223,1.6719103 C168.735828,1.79814206 168.86206,2.01464421 168.86206,2.3030691 C168.86206,2.66268283 168.592716,2.89679871 168.248515,3.00321502 L168.248515,3.03844249 C168.538407,3.12871288 168.682987,3.36356266 168.771055,3.76060558 C168.86206,4.21122361 168.936918,4.37121502 168.987558,4.47836524 L168.270532,4.47836524 C168.17806,4.37121502 168.123017,4.12021931 168.03715,3.76060558 C167.983575,3.45456695 167.801566,3.31218927 167.422137,3.31218927 L167.097751,3.31218927 L167.097751,4.47836524 Z M165.283536,2.94963991 C165.283536,4.26406481 166.272841,5.30547682 167.585064,5.30547682 C168.86206,5.32676009 169.833017,4.26406481 169.833017,2.97018927 C169.833017,1.65429657 168.86206,0.59453691 167.546901,0.59453691 C166.272841,0.59453691 165.283536,1.65429657 165.283536,2.94963991 Z M170.589673,2.94963991 C170.589673,4.60386309 169.258369,5.91902189 167.565248,5.91902189 C165.875798,5.91902189 164.527613,4.60386309 164.527613,2.94963991 C164.527613,1.29541674 165.875798,7.33905579e-05 167.585064,7.33905579e-05 C169.258369,7.33905579e-05 170.589673,1.29541674 170.589673,2.94963991 Z" id="Fill-1" fill="#999999"></path>
                    <polygon id="Fill-29" fill="#999999" points="27.6031429 0.246518884 50.0753318 0.246518884 50.0753318 4.92957039 41.4959755 4.92957039 41.4959755 27.7951326 36.1824991 27.7951326 36.1824991 4.92957039 27.6031429 4.92957039"></polygon>
                    <path d="M56.6081923,17.4445687 L66.2891408,17.4445687 L61.4879305,5.87454721 L56.6081923,17.4445687 Z M70.6184498,27.7948391 L68.1782137,21.9705644 L54.7191193,21.9705644 L52.2796172,27.7948391 L46.8083511,27.7948391 L58.8906386,0.246225322 L64.3604369,0.246225322 L76.2856687,27.7948391 L70.6184498,27.7948391 Z" id="Fill-30" fill="#999999"></path>
                    <polygon id="Fill-31" fill="#999999" points="78.8425223 0.246518884 84.8642176 0.246518884 93.9947369 17.9960253 103.045994 0.246518884 109.06769 0.246518884 109.06769 27.7951326 104.226848 27.7951326 104.226848 8.03912833 95.6474923 24.9615232 92.2627197 24.9615232 83.6437326 8.03912833 83.6437326 27.7951326 78.8425223 27.7951326"></polygon>
                    <polygon id="Fill-32" fill="#999999" points="115.04902 0.246518884 135.238029 0.246518884 135.238029 4.85104249 120.322866 4.85104249 120.322866 11.6594845 133.703432 11.6594845 133.703432 16.2640082 120.322866 16.2640082 120.322866 23.190609 135.70993 23.190609 135.70993 27.7951326 115.04902 27.7951326"></polygon>
                    <path d="M156.390655,21.9903064 C157.742509,21.21677 158.797866,20.1401305 159.558926,18.7633236 C160.319986,17.3857828 160.700149,15.8181605 160.700149,14.0604567 C160.700149,12.3027528 160.306776,10.7219202 159.520029,9.3179588 C158.731814,7.91473133 157.650771,6.82561545 156.272497,6.05134506 C154.89569,5.27780858 153.353754,4.89104034 151.648891,4.89104034 L145.548668,4.89104034 L145.548668,23.1513451 L151.845578,23.1513451 C153.524754,23.1513451 155.039535,22.7638429 156.390655,21.9903064 M159.126655,1.99798455 C161.303419,3.16562833 163.009016,4.79856824 164.241977,6.8975382 C165.475673,8.99724206 166.092153,11.3714266 166.092153,14.0208258 C166.092153,16.6709588 165.468333,19.0385382 164.222896,21.1242979 C162.97599,23.2100575 161.251312,24.8437313 159.047394,26.0238515 C156.843475,27.2039717 154.337921,27.7947657 151.530733,27.7947657 L140.274823,27.7947657 L140.274823,0.246885837 L151.727419,0.246885837 C154.482501,0.246885837 156.948424,0.830340773 159.126655,1.99798455" id="Fill-33" fill="#999999"></path>
                    <path d="M22.0228918,3.27498026 C19.9708918,4.48665837 17.7383511,5.43706609 15.3803124,6.09391159 C14.4856815,6.34857682 13.5712352,6.55847382 12.6406429,6.72507039 C10.8888103,7.0428515 9.07973305,7.20357682 7.24056567,7.20357682 C4.90894764,7.20357682 2.61255708,6.93496738 0.399097854,6.41683004 L11.7482137,0.846486695 L12.7896258,0.246885837 L14.9766644,0.85235794 L22.0228918,3.27498026 Z" id="Fill-34" fill="#999999"></path>
                    <path d="M23.371003,5.69173133 L23.3394451,5.79227639 L23.3445824,5.75191159 C21.0775481,7.07954678 18.6160288,8.11508755 16.0194708,8.83064549 C16.4928399,11.4095897 16.61687,14.0986197 16.3622047,16.832418 C16.0172691,20.5342378 14.9758571,24.0643236 13.3619987,27.2391991 L20.899209,22.8159502 C22.399312,19.8619803 23.3680674,16.5784867 23.689518,13.1357356 C23.9258356,10.5920189 23.8106124,8.09013476 23.371003,5.69173133" id="Fill-35" fill="#999999"></path>
                    <path d="M13.2805352,9.46195107 C11.3188056,9.82450043 9.29762961,10.0116464 7.24122618,10.0116464 C4.77897296,10.0116464 2.34827768,9.73716567 -0.000220171674,9.20581803 L-0.000220171674,22.1489768 L9.8216382,27.8169296 C11.8707026,24.502612 13.1836597,20.6540112 13.5660245,16.5720283 C13.7920674,14.1435348 13.6878528,11.7546721 13.2805352,9.46195107" id="Fill-36" fill="#999999"></path>
                </g>
            </g>
        </g>
    </g>
</svg>
