<svg xmlns="http://www.w3.org/2000/svg" width="122.49" height="32.64" viewBox="0 0 122.4899979 32.6399994"><path fill="#777878" d="M111.963 0H9.534c-.366 0-.729 0-1.094.002-.306.003-.61.008-.92.013-.665.017-1.338.057-2.003.176a6.667 6.667 0 0 0-1.9.629A6.426 6.426 0 0 0 .193 5.522c-.12.662-.162 1.332-.179 2.002-.009.307-.01.614-.015.921v14.751c.005.31.006.612.015.921.017.67.059 1.341.18 2.003.116.67.313 1.297.625 1.903.303.596.7 1.145 1.178 1.615a6.25 6.25 0 0 0 1.618 1.178 6.73 6.73 0 0 0 1.901.632c.665.12 1.338.159 2.004.177.309.006.613.01.919.01.365.002.728.002 1.094.002h102.43c.359 0 .723 0 1.082-.002.306 0 .617-.004.923-.01.67-.018 1.342-.058 1.998-.177a6.756 6.756 0 0 0 1.91-.632 6.248 6.248 0 0 0 1.616-1.178 6.418 6.418 0 0 0 1.182-1.615 6.66 6.66 0 0 0 .62-1.903c.122-.662.162-1.332.184-2.003.004-.31.004-.611.004-.921.01-.364.01-.725.01-1.095V9.536c0-.365 0-.728-.01-1.09 0-.308 0-.615-.004-.922-.022-.67-.062-1.34-.184-2.002a6.68 6.68 0 0 0-.62-1.904A6.452 6.452 0 0 0 117.876.82a6.75 6.75 0 0 0-1.909-.629c-.656-.119-1.329-.159-1.998-.176-.306-.005-.617-.01-.923-.013C112.687 0 112.323 0 111.963 0z"/><path fill="#FFF" d="M111.963.616c.358 0 .721 0 1.079.003l.05.002.86.011c.534.016 1.234.048 1.908.167a6.2 6.2 0 0 1 1.734.571 5.868 5.868 0 0 1 2.528 2.526 5.98 5.98 0 0 1 .564 1.74c.121.651.157 1.331.174 1.9.005.303.005.606.005.921.008.36.008.717.008 1.08V22.1c0 .365 0 .721-.008 1.095 0 .305 0 .607-.005.902-.017.578-.053 1.255-.174 1.916a6.056 6.056 0 0 1-.56 1.725 5.905 5.905 0 0 1-1.072 1.466 5.766 5.766 0 0 1-1.46 1.064 6.19 6.19 0 0 1-1.734.571c-.661.117-1.336.15-1.902.168-.305.006-.61.01-.915.01-.359.002-.722.002-1.08.002H9.534c-.364 0-.726 0-1.094-.002-.302 0-.602-.004-.9-.01-.574-.018-1.25-.05-1.914-.168a6.16 6.16 0 0 1-1.729-.571A5.746 5.746 0 0 1 2.432 29.2a5.7 5.7 0 0 1-1.062-1.457 6.108 6.108 0 0 1-.568-1.735c-.124-.685-.155-1.378-.168-1.91-.007-.212-.01-.424-.012-.637l-.004-.265V8.453l.004-.277c.002-.21.005-.422.012-.637.013-.528.044-1.22.17-1.91a5.997 5.997 0 0 1 .568-1.732 5.625 5.625 0 0 1 1.064-1.462A5.81 5.81 0 0 1 3.898 1.37 6.11 6.11 0 0 1 5.625.8C6.304.68 7.003.647 7.532.631l.91-.013C8.807.616 9.17.616 9.533.616h102.43"/><path d="M35.9 22.686h-3.391l-.814 2.404H30.26l3.212-8.895h1.491l3.212 8.895h-1.46l-.815-2.404zm-3.04-1.11h2.688l-1.325-3.902h-.037l-1.326 3.903zm12.423.272c0 2.016-1.079 3.31-2.706 3.31-.925 0-1.659-.413-2.04-1.134h-.032v3.211h-1.331v-8.63h1.288v1.08h.025c.37-.698 1.159-1.147 2.065-1.147 1.646 0 2.73 1.3 2.73 3.31zm-1.369 0c0-1.313-.678-2.176-1.713-2.176-1.017 0-1.702.881-1.702 2.176 0 1.307.685 2.182 1.702 2.182 1.035 0 1.713-.857 1.713-2.182zm8.566 0c0 2.016-1.078 3.31-2.706 3.31-.924 0-1.658-.413-2.04-1.134h-.03v3.211h-1.332v-8.63h1.288v1.08h.025c.37-.698 1.159-1.147 2.065-1.147 1.646 0 2.73 1.3 2.73 3.31zm-1.368 0c0-1.313-.678-2.176-1.714-2.176-1.017 0-1.701.881-1.701 2.176 0 1.307.684 2.182 1.701 2.182 1.036 0 1.714-.857 1.714-2.182zm2.508-5.653h1.33v8.895h-1.33v-8.895zm8.539 6.991c-.18 1.177-1.326 1.984-2.793 1.984-1.887 0-3.057-1.263-3.057-3.292 0-2.034 1.177-3.353 3.002-3.353 1.793 0 2.921 1.233 2.921 3.2v.456h-4.58v.08c0 1.11.697 1.837 1.745 1.837.74 0 1.319-.351 1.498-.912h1.264zm-4.5-1.936H60.9c-.03-.993-.666-1.646-1.59-1.646-.919 0-1.585.666-1.653 1.646zm14.791 3.84v-3.939h-4.568v3.94H66.5v-8.896h1.38v3.76h4.569v-3.76h1.381v8.895h-1.38zm2.82-3.242c0-2.04 1.203-3.323 3.077-3.323 1.88 0 3.076 1.282 3.076 3.323 0 2.047-1.19 3.322-3.076 3.322s-3.076-1.275-3.076-3.322zm4.796 0c0-1.4-.64-2.225-1.72-2.225s-1.719.832-1.719 2.225c0 1.405.64 2.225 1.72 2.225s1.72-.82 1.72-2.225zm2.515-3.243h1.27v1.11h.03c.29-.734.993-1.184 1.844-1.184.9 0 1.553.463 1.812 1.27h.03c.333-.789 1.098-1.27 2.023-1.27 1.282 0 2.12.85 2.12 2.146v4.413h-1.337v-4.1c0-.831-.45-1.312-1.24-1.312s-1.337.58-1.337 1.4v4.012h-1.307v-4.192c0-.746-.474-1.22-1.226-1.22-.79 0-1.35.61-1.35 1.448v3.964H82.58v-6.485zm16.342 4.581c-.179 1.177-1.325 1.984-2.793 1.984-1.886 0-3.058-1.263-3.058-3.292 0-2.034 1.178-3.353 3.003-3.353 1.794 0 2.922 1.233 2.922 3.2v.456h-4.58v.08c0 1.11.696 1.837 1.744 1.837.74 0 1.32-.351 1.498-.912h1.264zm-4.5-1.936h3.242c-.03-.993-.665-1.646-1.59-1.646-.919 0-1.585.666-1.652 1.646zm6.069 3.84v-8.895h1.381v4.235h.056l3.717-4.235h1.64l-3.527 3.939 3.822 4.956h-1.714l-3.082-4.007-.912 1.042v2.965h-1.38zm8.181-8.193c0-.43.346-.764.77-.764.432 0 .777.333.777.764 0 .42-.345.759-.777.759a.765.765 0 0 1-.77-.759zm.104 1.708h1.332v6.485h-1.332v-6.485zm4.711-1.535v1.535h1.234v1.054h-1.234v3.576c0 .555.247.813.79.813.135 0 .35-.018.438-.03v1.047a3.663 3.663 0 0 1-.74.062c-1.313 0-1.825-.493-1.825-1.75v-3.718h-.943v-1.054h.943V17.07h1.337z"/><path d="M33.064 12.118h-.706l-1.63-5.99h.78l1.191 4.87h.05l1.34-4.87h.756l1.34 4.87h.05l1.191-4.87h.78l-1.63 5.99h-.706l-1.378-4.727h-.05l-1.378 4.727zm5.554-2.238c0-1.44.789-2.315 2.063-2.315s2.063.876 2.063 2.316c0 1.436-.789 2.316-2.063 2.316s-2.063-.88-2.063-2.316zm3.387 0c0-1.062-.478-1.672-1.324-1.672s-1.324.61-1.324 1.673c0 1.058.477 1.673 1.324 1.673s1.324-.615 1.324-1.673zm1.863-2.236h.68v.664h.067c.133-.436.647-.743 1.24-.743.117 0 .266.008.358.02V8.3a2.873 2.873 0 0 0-.457-.042c-.68 0-1.174.457-1.174 1.088v2.772h-.714V7.644zm6.003 0h.876l-1.926 1.918 2.054 2.556h-.908l-1.677-2.096-.428.399v1.697h-.714v-6.25h.714v3.73h.067l1.942-1.954zm3.253-.079c.938 0 1.59.465 1.685 1.2h-.705c-.096-.357-.445-.594-.984-.594-.532 0-.947.27-.947.668 0 .307.25.498.776.627l.69.166c.842.203 1.249.569 1.249 1.212 0 .801-.777 1.353-1.793 1.353-.996 0-1.68-.477-1.76-1.22h.734c.12.377.478.618 1.05.618.603 0 1.034-.286 1.034-.697 0-.307-.232-.515-.71-.63l-.767-.188c-.84-.203-1.22-.564-1.22-1.212 0-.743.717-1.303 1.668-1.303zm9.662 4.553h-.726l-1-3.461h-.067l-.996 3.461h-.722L58.02 7.644h.723l.88 3.578h.066l1-3.578h.685l1 3.578h.066l.88-3.578h.719l-1.254 4.474zm2.088-5.881a.5.5 0 0 1 .996 0c0 .274-.224.498-.498.498s-.498-.224-.498-.498zm.141 1.407h.714v4.474h-.714V7.644zm3.089-1.158v1.158h.997v.598h-.997v2.531c0 .528.2.751.665.751.128 0 .199-.003.332-.016v.602a2.393 2.393 0 0 1-.42.041c-.921 0-1.29-.34-1.29-1.195V8.242h-.723v-.598h.723V6.486h.713zm2.119-.618h.714V8.35h.066c.225-.495.693-.785 1.378-.785.947 0 1.545.606 1.545 1.656v2.897h-.715V9.396c0-.793-.357-1.188-1.033-1.188-.801 0-1.241.507-1.241 1.262v2.648h-.714v-6.25zm-50.056.037l.735.001.25.005c.125.001.25.003.378.007a8.56 8.56 0 0 1 1.291.112c.428.076.808.201 1.163.383a3.827 3.827 0 0 1 1.692 1.694 4.1 4.1 0 0 1 .382 1.163c.08.434.102.896.113 1.288a92.258 92.258 0 0 1 .01 1.362v7.798c0 .247 0 .494-.002.745 0 .207-.003.412-.008.614a8.537 8.537 0 0 1-.113 1.295 4.108 4.108 0 0 1-.383 1.162 3.855 3.855 0 0 1-.707.98 3.954 3.954 0 0 1-.984.713c-.354.18-.734.305-1.165.382a8.494 8.494 0 0 1-1.303.112c-.201.005-.404.01-.607.01-.248.003-.494.003-.742.003H12.37c-.248 0-.495 0-.743-.002-.203-.001-.406-.006-.62-.01a8.486 8.486 0 0 1-1.292-.113 3.931 3.931 0 0 1-2.142-1.091 3.888 3.888 0 0 1-.713-.986 4.143 4.143 0 0 1-.381-1.159 8.928 8.928 0 0 1-.113-1.297 20.29 20.29 0 0 1-.008-.621c-.004-.246-.004-.492-.004-.737V11.92c0-.244 0-.49.004-.745 0-.204.002-.407.008-.615.01-.362.031-.836.112-1.292.077-.43.202-.81.381-1.162a3.85 3.85 0 0 1 1.696-1.694 4.09 4.09 0 0 1 1.158-.382c.369-.065.768-.1 1.297-.112.125-.004.25-.006.375-.007l.242-.005.743-.001h7.797m0-.5H12.37c-.25 0-.498 0-.746.002-.21.004-.42.005-.629.011a9.16 9.16 0 0 0-1.369.12 4.574 4.574 0 0 0-1.299.429 4.35 4.35 0 0 0-1.913 1.912 4.615 4.615 0 0 0-.428 1.3c-.08.45-.108.91-.12 1.368-.006.21-.008.42-.008.628-.004.25-.004.498-.004.745v7.798c0 .248 0 .496.004.745 0 .211.002.42.008.628.012.458.04.917.12 1.37.083.457.216.882.428 1.298.209.411.48.786.805 1.111a4.442 4.442 0 0 0 2.407 1.23c.453.083.913.11 1.369.121a61.424 61.424 0 0 0 1.375.013h7.797c.249 0 .497 0 .746-.002.21-.001.42-.006.628-.011.456-.01.918-.038 1.368-.12a4.607 4.607 0 0 0 1.301-.428 4.47 4.47 0 0 0 1.11-.803c.322-.325.594-.7.801-1.111.213-.416.347-.84.43-1.299a9.09 9.09 0 0 0 .12-1.369 26.1 26.1 0 0 0 .008-.628c.002-.249.002-.497.002-.745V11.92c0-.247 0-.495-.002-.745 0-.209-.003-.417-.008-.628a8.968 8.968 0 0 0-.12-1.368 4.574 4.574 0 0 0-.43-1.3 4.336 4.336 0 0 0-1.91-1.912 4.579 4.579 0 0 0-1.302-.43 9.113 9.113 0 0 0-1.368-.119c-.209-.006-.419-.007-.628-.011-.25-.002-.497-.002-.746-.002z" fill="#777878"/><path fill="#FFF" d="M20.167 5.905l.735.001.25.005c.125.001.25.003.378.007a8.56 8.56 0 0 1 1.291.112c.428.076.808.201 1.163.383a3.827 3.827 0 0 1 1.692 1.694 4.1 4.1 0 0 1 .382 1.163c.08.434.102.896.113 1.288a92.258 92.258 0 0 1 .01 1.362v7.798c0 .247 0 .494-.002.745 0 .207-.003.412-.008.614a8.537 8.537 0 0 1-.113 1.295 4.108 4.108 0 0 1-.383 1.162 3.855 3.855 0 0 1-.707.98 3.954 3.954 0 0 1-.984.713c-.354.18-.734.305-1.165.382a8.494 8.494 0 0 1-1.303.112c-.201.005-.404.01-.607.01-.248.003-.494.003-.742.003H12.37c-.248 0-.495 0-.743-.002-.203-.001-.406-.006-.62-.01a8.486 8.486 0 0 1-1.292-.113 3.931 3.931 0 0 1-2.142-1.091 3.888 3.888 0 0 1-.713-.986 4.143 4.143 0 0 1-.381-1.159 8.928 8.928 0 0 1-.113-1.297 20.29 20.29 0 0 1-.008-.621c-.004-.246-.004-.492-.004-.737V11.92c0-.244 0-.49.004-.745 0-.204.002-.407.008-.615.01-.362.031-.836.112-1.292.077-.43.202-.81.381-1.162a3.85 3.85 0 0 1 1.696-1.694 4.09 4.09 0 0 1 1.158-.382c.369-.065.768-.1 1.297-.112.125-.004.25-.006.375-.007l.242-.005.743-.001h7.797"/><path fill="#F79918" d="M23.815 13.806l-1.432-1.131v-2.57c0-.174-.07-.224-.193-.224h-1.309c-.143 0-.23.028-.23.225v1.2L16.628 8.13c-.155-.122-.251-.154-.361-.154-.11 0-.207.032-.362.154l-7.187 5.676c-.252.199-.18.485.1.485h1.332v7.23c0 .468.187.655.632.655H21.75c.445 0 .632-.187.632-.654V14.29h1.333c.28 0 .351-.286.1-.485zm-2.553 6.701c0 .323-.166.548-.504.548h-8.983c-.337 0-.504-.225-.504-.548V13.75c0-.392.172-.643.368-.798l4.32-3.41c.114-.09.211-.13.308-.13.093 0 .194.04.308.13l4.32 3.41c.195.155.367.406.367.798v6.758z"/><path fill="#FAAC28" d="M20.894 12.951l-4.32-3.41a.503.503 0 0 0-.307-.13c-.097 0-.194.04-.308.13l-4.32 3.41c-.196.155-.368.406-.368.798v6.758c0 .323.167.548.504.548h8.983c.338 0 .504-.225.504-.548V13.75c0-.392-.172-.643-.368-.798zm-.753 6.542c0 .3-.17.44-.42.44h-6.908c-.25 0-.42-.14-.42-.44v-5.277c0-.293.068-.46.275-.625l3.344-2.64a.421.421 0 0 1 .255-.101c.08 0 .17.034.254.1l3.344 2.64c.207.165.276.333.276.626v5.277z"/><path fill="#FDBF47" d="M19.865 13.59l-3.344-2.64a.423.423 0 0 0-.254-.1.421.421 0 0 0-.255.1l-3.344 2.64c-.207.165-.276.333-.276.626v5.277c0 .3.17.44.42.44h6.91c.25 0 .42-.14.42-.44v-5.277c0-.293-.069-.46-.276-.625zm-.845 4.888c0 .241-.134.335-.318.335h-4.871c-.183 0-.318-.094-.318-.335v-3.796c0-.169 0-.304.185-.452.121-.097 2.302-1.818 2.367-1.87a.317.317 0 0 1 .202-.078c.068 0 .136.027.201.079.065.051 2.246 1.772 2.368 1.87.184.147.184.282.184.451v3.796z"/><path fill="#FFD364" d="M18.836 14.23l-2.368-1.87a.326.326 0 0 0-.201-.078.317.317 0 0 0-.202.079c-.065.051-2.246 1.772-2.367 1.87-.185.147-.185.282-.185.451v3.796c0 .241.135.335.318.335h4.871c.184 0 .318-.094.318-.335v-3.796c0-.169 0-.304-.184-.452zm-.937 3.233c0 .186-.094.228-.224.228h-2.816c-.131 0-.224-.042-.224-.228v-2.315c0-.123.05-.25.159-.338.058-.046 1.28-1.004 1.324-1.04a.272.272 0 0 1 .149-.053c.039 0 .104.02.148.054.044.035 1.267.993 1.324 1.04.108.087.16.214.16.337v2.315z"/><path fill="#FFF080" d="M16.267 17.691h1.408c.13 0 .224-.042.224-.228V15.15a.434.434 0 0 0-.16-.339c-.057-.046-1.28-1.004-1.324-1.04-.044-.034-.11-.053-.148-.053s-.105.02-.149.054c-.043.035-1.266.993-1.324 1.04a.432.432 0 0 0-.16.338v2.314c0 .186.094.228.225.228h1.408z"/></svg>