<svg width="24" height="28" viewBox="0 0 24 28" xmlns="http://www.w3.org/2000/svg"><title>MainLogo</title><g fill="none" fill-rule="evenodd"><path d="M22.023 3.275a27.654 27.654 0 0 1-6.643 2.819c-.894.255-1.809.464-2.74.631-1.751.318-3.56.479-5.4.479A30.02 30.02 0 0 1 .4 6.417L11.747.847l1.042-.6 2.187.605 7.046 2.423zm1.348 2.417l-.032.1.006-.04a30.543 30.543 0 0 1-7.326 3.079c.474 2.579.598 5.268.343 8.001a28.893 28.893 0 0 1-3 10.407l7.537-4.423a26.917 26.917 0 0 0 2.79-9.68 27.276 27.276 0 0 0-.318-7.444" fill="#1D70B7"/><path d="M13.28 9.462a33.23 33.23 0 0 1-6.039.55A32.83 32.83 0 0 1 0 9.206v12.943l9.822 5.668a26.01 26.01 0 0 0 3.744-11.245 26.559 26.559 0 0 0-.285-7.11" fill="#FFF"/></g></svg>