<svg id="Warstwa_1" xmlns="http://www.w3.org/2000/svg" viewBox="0 0 85 85"><style>.st0{fill:#0090ff}</style><path class="st0" d="M22.4 68c4.7 4.3 10.8 8.4 16.7 12.4l2.9 2c.2.2.6.2.8 0l2.9-1.9c5.9-4 12.1-8.1 16.8-12.4 6.6-6 9.6-11.6 9.6-17.4V14.4c0-.2-.1-.4-.3-.6-.4-.4-11.3-11.3-29.4-11.3-18.1 0-28.9 10.9-29.4 11.3-.1.1-.2.3-.2.6v36.2c.1 5.8 3.1 11.4 9.6 17.4zm-8-53.3l.2-.2c1.9-1.7 12.3-10.4 27.8-10.4s26 8.7 27.9 10.4l.3.2v35.8c0 5.4-2.9 10.6-9.1 16.3-4.6 4.3-10.7 8.3-16.6 12.3l-2.5 1.7-2.5-1.7c-5.9-4-11.9-8-16.5-12.3-6.2-5.7-9.1-10.9-9.1-16.3V14.7z"/><path class="st0" d="M33.4 63.2c-.1 0-.2 0-.2-.1-.2-.1-.3-.4-.2-.6l7.8-21H34c-.2 0-.3-.1-.4-.2-.1-.1-.1-.3-.1-.4L39.2 21c.1-.2.3-.4.5-.4h9.5c.2 0 .3.1.4.2.1.1.1.3.1.5L44.5 35h7.9c.2 0 .4.1.4.3.1.2.1.4 0 .5L33.8 63c-.1.1-.3.2-.4.2zm1.3-22.7h6.7c.2 0 .3.1.4.2.1.1.1.3.1.5l-6.7 18.1L51.4 36h-7.6c-.2 0-.3-.1-.4-.2-.1-.1-.1-.3-.1-.5l5.2-13.8h-8.4l-5.4 19z"/></svg>