<svg xmlns="http://www.w3.org/2000/svg" width="70" height="70" viewBox="0 0 70 70"><defs><style>.a{fill:none;stroke:#0090ff;stroke-linecap:round;stroke-miterlimit:10}</style></defs><title>icon</title><path class="a" d="M52.94 17.06l-5.58 5.58m-24.7 24.7l-5.6 5.6m24.5-42.44l-2.03 7.61m-9.05 33.75l-2.04 7.64m0-49l2.03 7.61m9.05 33.75l2.04 7.64m-24.5-42.44l5.58 5.58m24.7 24.7l5.6 5.6M10.5 28.44l7.61 2.03m33.75 9.05l7.64 2.04m-49 0l7.61-2.03m33.75-9.05l7.64-2.04"/><circle class="a" cx="34.96" cy="34.93" r="11.17"/><path class="a" d="M34.96 24.3v21.8m3.86-21.6v20.51m3.86-17.89V42.4"/></svg>