<svg xmlns="http://www.w3.org/2000/svg" width="70" height="70" viewBox="0 0 70 70"><defs><style>.a{fill:#0090ff}.b{fill:none;stroke:#0090ff;stroke-miterlimit:10}</style></defs><title>icon</title><path class="a" d="M21.79 51.78a96.52 96.52 0 0 0 11 8.17l1.91 1.3a.49.49 0 0 0 .54 0L37.11 60a97.29 97.29 0 0 0 11-8.19c4.32-4 6.35-7.61 6.35-11.47V16.5a.54.54 0 0 0-.17-.36 28.84 28.84 0 0 0-38.71 0 .49.49 0 0 0-.12.36v23.8c.04 3.87 2.01 7.51 6.33 11.48zM16.5 16.71l.13-.15A28.38 28.38 0 0 1 35 9.69a28.5 28.5 0 0 1 18.36 6.87l.18.15V40.3c0 3.55-1.93 7-6 10.71a95.83 95.83 0 0 1-10.9 8.09L35 60.2l-1.63-1.1A95.94 95.94 0 0 1 22.46 51c-4.09-3.76-6-7.16-6-10.71z"/><path class="b" d="M35 38.44l-5.92 3.11 1.13-6.59-4.79-4.67 6.62-.96 2.96-6 2.96 6 6.62.96-4.79 4.67 1.13 6.59L35 38.44z"/></svg>