<svg width="60" height="60" xmlns="http://www.w3.org/2000/svg" viewBox="0 0 57.3 57.3"><defs><style>.a{fill:#0090ff}</style></defs><title>accelerometer</title><path class="a" d="M55.6 38.39a1.3 1.3 0 1 1 1.64-.85 1.3 1.3 0 0 1-1.64.85zm-2.29-1.41l-1.24-.4a.651.651 0 1 1 .4-1.24l1.24.4a.651.651 0 1 1-.4 1.24zM21.74 50.19a22.83 22.83 0 1 1 28.67-14.83 22.83 22.83 0 0 1-28.67 14.83zM35.18 7.93a21.76 21.76 0 0 0-27 14 21.76 21.76 0 0 0 14 27 21.76 21.76 0 0 0 27-14 21.76 21.76 0 0 0-14-27zm-12 40c-2.16-.69-1.91-7.31.52-16.37-8.79-3.25-14.35-6.87-13.66-9s7.31-1.91 16.37.52c3.25-8.79 6.87-14.34 9-13.66s1.91 7.31-.52 16.37c8.79 3.25 14.34 6.87 13.66 9s-7.31 1.91-16.37-.52c-3.25 8.77-6.87 14.32-9.03 13.63zm.4-1.24c1.06.34 4.42-5 7.35-12.77-1-.28-2-.57-3-.9s-2-.66-3-1c-2.08 7.97-2.44 14.31-1.39 14.64zm8.84-17c.33-1 .63-2.06.91-3.06-1-.35-2-.7-3-1s-2.06-.63-3.06-.91c-.35 1-.7 2-1 3s-.63 2.06-.91 3.06c1 .35 2 .7 3 1s2.06.63 3.06.91c.29-1.02.63-2.02.97-3.06zM11.26 22.9c-.34 1.06 5 4.42 12.77 7.35.28-1 .57-2 .9-3s.66-2 1-3c-8-2.04-14.34-2.4-14.67-1.35zm23.75-12.28c-1.06-.34-4.42 5-7.35 12.77 1 .28 2 .57 3 .9s2 .66 3 1c2.05-8 2.41-14.34 1.35-14.67zM47.3 34.37c.34-1.06-5-4.42-12.77-7.35-.28 1-.57 2-.9 3s-.66 2-1 3c8.02 2.05 14.33 2.43 14.67 1.35zm-19.26-6.13a1.3 1.3 0 1 1 .85 1.64 1.3 1.3 0 0 1-.85-1.64zm9.77-24.26l-.4 1.24a.651.651 0 1 1-1.24-.4l.4-1.24a.651.651 0 0 1 1.24.4zm-.23-1.43a1.3 1.3 0 1 1 1.64-.85 1.3 1.3 0 0 1-1.64.85zm-32.74 19l-1.24-.4a.651.651 0 1 1 .4-1.24l1.24.4a.651.651 0 0 1-.4 1.24zm-3.93-.57a1.3 1.3 0 1 1 1.64-.85 1.3 1.3 0 0 1-1.64.86zm19.83 32.33l.4-1.24a.651.651 0 0 1 1.24.4l-.4 1.24a.651.651 0 1 1-1.24-.4zm.23 1.44a1.3 1.3 0 1 1-1.64.85 1.3 1.3 0 0 1 1.64-.85z"/></svg>