<svg xmlns="http://www.w3.org/2000/svg" width="70" height="70" viewBox="0 0 70 70"><defs><style>.a{fill:#0090ff}</style></defs><title>icon</title><path class="a" d="M35.5 27a.5.5 0 0 0-1 0v17.53a6.5 6.5 0 1 0 1 0zm5 24a5.5 5.5 0 1 1-5.5-5.5 5.51 5.51 0 0 1 5.5 5.5z"/><path class="a" d="M39.5 41.52V13a4.5 4.5 0 0 0-9 0v28.52a10.5 10.5 0 1 0 9 0zm5 9.48a9.5 9.5 0 1 1-13.3-8.7.5.5 0 0 0 .3-.46V13a3.5 3.5 0 0 1 7 0v28.84a.5.5 0 0 0 .3.46 9.5 9.5 0 0 1 5.7 8.7zM43 17.5h2a.5.5 0 0 0 0-1h-2a.5.5 0 0 0 0 1zm2 3h-2a.5.5 0 0 0 0 1h2a.5.5 0 0 0 0-1zm0 4h-2a.5.5 0 0 0 0 1h2a.5.5 0 0 0 0-1zm0 4h-2a.5.5 0 0 0 0 1h2a.5.5 0 0 0 0-1z"/><path class="a" d="M45 32.5h-2a.5.5 0 0 0 0 1h2a.5.5 0 0 0 0-1zm0 4h-2a.5.5 0 0 0 0 1h2a.5.5 0 0 0 0-1z"/></svg>