<svg xmlns="http://www.w3.org/2000/svg" width="39" height="52.66" viewBox="0 0 39 52.66"><defs><style>.a{fill:#0090ff}.b{fill:none;stroke:#0090ff;stroke-miterlimit:10}</style></defs><title>icon-shield</title><path class="a" d="M6.29 43.11a96.52 96.52 0 0 0 11 8.17l1.91 1.3a.49.49 0 0 0 .54 0l1.87-1.25a97.29 97.29 0 0 0 11-8.19C37 39.14 39 35.5 39 31.63V7.83a.54.54 0 0 0-.17-.36 28.84 28.84 0 0 0-38.71 0 .49.49 0 0 0-.12.36v23.8c0 3.87 2 7.51 6.29 11.48zM1 8.04l.13-.15a28.38 28.38 0 0 1 18.33-6.87 28.5 28.5 0 0 1 18.36 6.87l.18.15v23.59c0 3.55-1.93 7-6 10.71a95.83 95.83 0 0 1-10.9 8.09l-1.64 1.1-1.63-1.1A95.94 95.94 0 0 1 7 42.33c-4.09-3.76-6-7.16-6-10.71z"/><path class="b" d="M19.5 29.77l-5.92 3.11 1.13-6.59-4.79-4.67 6.62-.96 2.96-6 2.96 6 6.62.96-4.79 4.67 1.13 6.59-5.92-3.11z"/></svg>