<svg xmlns="http://www.w3.org/2000/svg" width="72.67" height="101.55" viewBox="0 0 72.67 101.55"><defs><style>.a{fill:#fff}</style></defs><title>icon-lock</title><path class="a" d="M39.09 83.44H37.5v3.59a6.66 6.66 0 0 1-6.65 6.65H14.68a6.66 6.66 0 0 1-6.65-6.65V14.5a6.66 6.66 0 0 1 6.65-6.65h16.21a6.66 6.66 0 0 1 6.61 6.65v57.86h1.55V14.5a8.21 8.21 0 0 0-8.2-8.2H14.68a8.21 8.21 0 0 0-8.18 8.2v72.53a8.21 8.21 0 0 0 8.2 8.2h16.19a8.21 8.21 0 0 0 8.2-8.2z"/><path class="a" d="M31.26 54.82a3.63 3.63 0 1 1-3.62-3.65 3.6 3.6 0 0 1 3.62 3.65m-3.62-2a2 2 0 1 0 2 2 2 2 0 0 0-2-2m-6 2a3.64 3.64 0 1 1-3.65-3.65 3.67 3.67 0 0 1 3.65 3.65m-3.65-2a2 2 0 0 0 0 4 2 2 0 1 0 0-4m13.33-36a3.63 3.63 0 1 1-3.63-3.63 3.59 3.59 0 0 1 3.63 3.63m-3.65 2a2 2 0 1 0 0-4 2 2 0 0 0 0 4m-9.72 11.06a3.63 3.63 0 1 1 0-7.25 3.66 3.66 0 0 1 3.64 3.62 3.6 3.6 0 0 1-3.64 3.63m0-1.62a2 2 0 1 0-2-2 2 2 0 0 0 2 2m13.31 17.05a3.63 3.63 0 1 1-3.65-3.62 3.59 3.59 0 0 1 3.65 3.62m-1.62-.07a2 2 0 0 0-4 0 2 2 0 0 0 4 0m1.63-19a3.63 3.63 0 1 1-3.6-3.63 3.58 3.58 0 0 1 3.6 3.63m-3.65 2a2 2 0 0 0 2-2 2 2 0 1 0-2 2m3.65 7.48a3.63 3.63 0 1 1-3.64-3.62 3.58 3.58 0 0 1 3.64 3.62m-3.62-2a2 2 0 0 0-2 2 2 2 0 1 0 4 0 2 2 0 0 0-2-2m-9.69-1.62a3.65 3.65 0 0 1 3.63 3.66 3.64 3.64 0 1 1-3.63-3.66m-2 3.62a2 2 0 1 0 2-2 2 2 0 0 0-2 2m2.07-15.32a3.631 3.631 0 0 1-.18-7.26 3.73 3.73 0 0 1 3.74 3.58 3.62 3.62 0 0 1-3.56 3.68m-.09-1.63a2 2 0 0 0 2-2 2 2 0 0 0-2-2 2 2 0 0 0 0 4m0 22.93a3.65 3.65 0 0 1 3.65 3.64 3.64 3.64 0 1 1-3.65-3.64m0 5.55a2 2 0 0 0 2-2 2 2 0 1 0-2 2"/><path class="a" d="M45.31 83.1h-1.55v4.47A12.45 12.45 0 0 1 31.32 100H13.98A12.45 12.45 0 0 1 1.55 87.57V13.98A12.45 12.45 0 0 1 13.98 1.55h17.34a12.45 12.45 0 0 1 12.44 12.43v58.35h1.55V13.98a14 14 0 0 0-14-14H13.98a14 14 0 0 0-14 14v73.59a14 14 0 0 0 14 14h17.34a14 14 0 0 0 14-14z"/><path class="a" d="M39.42 83.37c-1.45.06-2.9.13-4.34.17a.71.71 0 0 0-.65.39 12.48 12.48 0 0 1-9.09 6 12.3 12.3 0 0 1-11.14-3.85 12.12 12.12 0 0 1-3.47-9.58 12.76 12.76 0 0 1 23.69-5.67.54.54 0 0 0 .5.32l9.24.41 10.92.49 9 .39c1.59.07 3.19.08 4.78.24a4.34 4.34 0 0 1 3.64 3.38 4.85 4.85 0 0 1-2.22 5.36 4.49 4.49 0 0 1-2.15.64l-10.17.44-10.36.49-8.18.35m5.87-1.75l6.75-.33 16.09-.76a3.35 3.35 0 0 0 3.15-3.17 3.21 3.21 0 0 0-3.15-3.18c-2-.07-4-.16-6.06-.25l-11-.49-9.05-.39-11.1-.49c-2.47-.11-4.94-.19-7.41-.33a5.2 5.2 0 0 0-5.61 5.15 5 5 0 0 0 1.88 4.15 5.37 5.37 0 0 0 3.79 1.2c3.39-.21 6.79-.36 10.18-.52l11.53-.54m-13.3 2.08l-4.48.2c-1.16.06-2.31.16-3.47.17a9.64 9.64 0 0 1-2.28-.18 6.78 6.78 0 0 1-5.11-7.41 7 7 0 0 1 6.94-6.1c2.75.11 5.5.27 8.25.4h.9l-.57-.69a11.38 11.38 0 0 0-14.89-2.21 11.2 11.2 0 1 0 15 16.26l.47-.57z"/></svg>