<svg width="102" height="72" viewBox="0 0 102 72" xmlns="http://www.w3.org/2000/svg"><title>388DDD1C-B9AC-4625-8926-87C19130EE1B</title><g stroke-width="2" stroke="#0090FF" fill="none" fill-rule="evenodd" stroke-linecap="round" stroke-linejoin="round"><path d="M59.89 16.658H10.146c-4.353.233-7.87 3.685-8.236 8.087v27.373c0 4.127 4.182 6.908 8.236 6.908h4.491V71l11.255-11.974h34a6.963 6.963 0 0 0 5.187-1.842 7.151 7.151 0 0 0 2.286-5.066V24.745c-.01-4.265-3.273-7.797-7.473-8.087z"/><path d="M71.91 44.29h4.2l11.254 11.973V44.29h4.49c4.073 0 8.237-2.8 8.237-6.907V10.008c-.366-4.402-3.883-7.854-8.236-8.087H42.109c-4.2.29-7.463 3.822-7.473 8.087v2.045"/></g></svg>