<svg id="Warstwa_1" xmlns="http://www.w3.org/2000/svg" viewBox="0 0 85 85"><style>.st0{fill:#0090ff}</style><path class="st0" d="M69.5 20.6c-.2 0-.4.1-.6.3-.9.7-3.1 2.5-6 4.8-9.8 7.9-30.2 24.3-32.2 26.2-1.7 1.7-2.1 3.8-2.1 5.2 0 2 .7 3.6 2.3 5.2 1.5 1.3 3.4 2.1 5 2.1 1.9 0 4-.9 5.4-2.3 2.6-2.6 25.8-35.5 28.8-39.9.1-.1.4-.7-.1-1.2-.1-.2-.3-.4-.5-.4zM61.8 31c-9 12.8-20.1 28.2-21.6 29.7-1.2 1.2-2.7 1.8-4.2 1.8-1.4 0-2.7-.5-3.7-1.5-1.1-1.1-1.6-2.4-1.6-3.8 0-1.5.6-3.1 1.6-4.1 1.4-1.4 15.4-12.9 28.3-23.2l4.7-3.8-3.5 4.9zm20.7 30.5c-.2-11-4.9-21.7-12.9-29.2-.2-.2-.4-.3-.7-.3-.2 0-.5.1-.7.3-.2.2-.3.4-.3.7 0 .3.1.5.3.7 7.7 7 12.3 17.4 12.3 27.9 0 .4.3 1 1 1 .7-.1 1-.4 1-1.1zM56.2 24.9c.1-.5-.2-1-.7-1.3-4-1.5-8.3-2.2-13-2.2-22 0-39.9 17.9-39.9 39.9 0 .5.4 1 1 1 .7 0 1-.3 1-1 0-21 17.1-38.1 38.1-38.1 4.5.3 8.6 1 12.3 2.3.4.1.9-.1 1.2-.6z"/></svg>