<svg xmlns="http://www.w3.org/2000/svg" width="70" height="70" viewBox="0 0 70 70"><defs><style>.a{fill:#0090ff}.b{fill:none;stroke:#0090ff;stroke-miterlimit:10}</style></defs><title>icon</title><path class="a" d="M50.14 22.09c-.1.11-.26.24-.25.38a.48.48 0 0 0 .2.42A14.5 14.5 0 0 1 56.1 35 14.51 14.51 0 0 1 50 47.09a.56.56 0 0 0-.24.35.54.54 0 0 0 .84.55 15.61 15.61 0 0 0 6.52-13 15.52 15.52 0 0 0-6.52-13 .51.51 0 0 0-.32 0"/><path class="a" d="M44.66 27.44c-.29 0-.48.4-.46.54a.68.68 0 0 0 .23.42 8.21 8.21 0 0 1 0 13.11.56.56 0 0 0 .65.9 9.28 9.28 0 0 0 0-14.84m10.49 25.29a22.9 22.9 0 0 0 0-35.73.55.55 0 0 0-.36-.14h-.1a.55.55 0 0 0-.44.65.54.54 0 0 0 .21.33 21.8 21.8 0 0 1 0 34 .55.55 0 0 0 .28 1 .56.56 0 0 0 .41-.11z"/><path class="b" d="M22 46.86H6.62a.76.76 0 0 1-.76-.76V23.88a.76.76 0 0 1 .76-.76H22zM37.87 13.6L22 23.08V47l15.85 9.4a.76.76 0 0 0 1.15-.66V14.26a.76.76 0 0 0-1.13-.66z"/></svg>