<svg id="Layer_1" xmlns="http://www.w3.org/2000/svg" viewBox="0 0 70 70"><style>.st0{fill:#0090ff}</style><path class="st0" d="M59.8 31L35.1 13c-.2-.2-.5-.2-.7 0l-10.6 7.8v-5.1c0-.4-.2-.6-.6-.6H19c-.4 0-.6.2-.6.6v8.8l.1.1-.1.1L9.8 31c-.2.2-.3.6-.1.8.2.2.6.3.8.1l2.7-1.9v30c0 .4.2.6.6.6h41.9c.4 0 .6-.2.6-.6V30l2.7 1.9c.1.1.2.1.4.1s.4-.1.5-.2c.1-.2.1-.6-.1-.8zM19.5 16.3h3v5.3l-3 2.2v-7.5zM39 59.4h-8.6V43.3H39v16.1zm16.2 0h-15V42.7c0-.4-.2-.6-.6-.6h-9.7c-.4 0-.6.2-.6.6v16.7h-15V29l20.4-14.9h.1L55.2 29v30.4z"/><path class="st0" d="M21.8 41c-1.8 0-3.2 1.1-3.2 2.5v8.8c0 .4.2.6.6.6h5.3c.4 0 .6-.2.6-.6v-8.8c-.1-1.4-1.5-2.5-3.3-2.5zm2.1 10.8h-4.1v-8.1c0-.8.9-1.5 2.1-1.5 1.2 0 2.1.7 2.1 1.5v8.1zM47.2 41c-1.8 0-3.2 1.1-3.2 2.5v8.8c0 .4.3.6.6.6h5.3c.4 0 .6-.2.6-.6v-8.8c-.2-1.4-1.6-2.5-3.3-2.5zm2 10.8h-4.1v-8.1c0-.9.9-1.5 2.1-1.5 1.2 0 2.1.7 2.1 1.5v8.1zm-8.9-22.4c-.1-2.4-2.6-4.3-5.5-4.3-3.1.1-5.5 1.9-5.6 4.4v3.2c0 .4.2.6.6.6h9.9c.4 0 .6-.2.6-.6v-3.3zM34.2 32h-3.8v-2.5c0-1.6 1.6-2.9 3.7-3.2h.1V32zm4.9 0h-3.8v-5.7h.1c2.1.2 3.7 1.6 3.7 3.2V32z"/></svg>