<svg xmlns="http://www.w3.org/2000/svg" width="66.39" height="53.46" viewBox="0 0 66.39 53.46"><defs><style>.a,.b{fill:none;stroke:#0090ff;stroke-miterlimit:10;stroke-width:1.2px}.a{stroke-linecap:round}</style></defs><title>icon_mediadl</title><circle class="a" cx="33.2" cy="32.21" r="12.75"/><path class="a" d="M36.63 34.83l-3.43 3.43m-3.43-3.43l3.43 3.43m0-12.09v11.56"/><path class="b" d="M65.8 48.32a4.47 4.47 0 0 1-4.38 4.54H4.98A4.47 4.47 0 0 1 .6 48.32V15.2a4.47 4.47 0 0 1 4.38-4.54h56.44a4.47 4.47 0 0 1 4.38 4.54z"/><path class="b" d="M65.8 48.32a4.47 4.47 0 0 1-4.38 4.54H4.98A4.47 4.47 0 0 1 .6 48.32V15.2a4.47 4.47 0 0 1 4.38-4.54h56.44a4.47 4.47 0 0 1 4.38 4.54z"/><path class="b" d="M65.8 16.11v-4.9c0-3.13-1.94-5.56-4.38-5.69H27C23.58 5.52 24.11.6 19.75.6H4.98C2.57.6.6 3.16.6 6.29v9.75"/></svg>