<svg xmlns="http://www.w3.org/2000/svg" width="70" height="70" viewBox="0 0 70 70"><defs><style>.a{fill:#0090ff}</style></defs><title>icon</title><path class="a" d="M49.74 25.66H14.32a.48.48 0 0 0-.48.48v17.71a.49.49 0 0 0 .48.48h35.42a.48.48 0 0 0 .48-.44V26.15a.48.48 0 0 0-.48-.49zm-27 17.71H14.8V26.63h7.89zm8.85 0h-7.93V26.63h7.89zm8.85 0h-7.93V26.63h7.89zm8.85 0h-7.92V26.63h7.89z"/><path class="a" d="M60.4 28.46A.45.45 0 0 0 60 28h-5.5v-4.21a2.27 2.27 0 0 0-2.23-2.3H11.83a2.27 2.27 0 0 0-2.23 2.3V46.2a2.28 2.28 0 0 0 2.23 2.32h40.4a2.28 2.28 0 0 0 2.23-2.32V42H60a.45.45 0 0 0 .45-.45zM53.57 46.2a1.37 1.37 0 0 1-1.34 1.43h-40.4a1.37 1.37 0 0 1-1.34-1.43V23.79a1.36 1.36 0 0 1 1.34-1.41h40.4a1.36 1.36 0 0 1 1.34 1.41zm5.94-5.11h-5V28.91h5z"/></svg>