<svg xmlns="http://www.w3.org/2000/svg" width="70" height="70" viewBox="0 0 70 70"><defs><style>.a,.b{fill:#0090ff}.b{stroke:#0090ff;stroke-miterlimit:10;stroke-width:.25px}</style></defs><title>icon</title><path class="a" d="M46.7 2H23.3a4.64 4.64 0 0 0-4.59 4.59v56.82A4.64 4.64 0 0 0 23.3 68h23.4a4.64 4.64 0 0 0 4.59-4.59V6.59A4.64 4.64 0 0 0 46.7 2zm3.76 61.41a3.74 3.74 0 0 1-3.76 3.76H23.3a3.74 3.74 0 0 1-3.76-3.76V6.59a3.74 3.74 0 0 1 3.76-3.75h23.4a3.74 3.74 0 0 1 3.76 3.76z"/><path class="a" d="M20.8 9.52a.39.39 0 0 0-.42.42v50.12a.39.39 0 0 0 .42.42h28.4a.39.39 0 0 0 .42-.42V9.94a.39.39 0 0 0-.42-.42zm28 50.13H21.22v-49.3h27.56zM35 61.73a2.09 2.09 0 1 0 2.09 2.09A2.12 2.12 0 0 0 35 61.73zm0 3.34a1.25 1.25 0 1 1 1.25-1.25A1.28 1.28 0 0 1 35 65.08zM32.41 7h5a.42.42 0 1 0 0-.84h-5a.39.39 0 0 0-.42.42.45.45 0 0 0 .42.42z"/><path class="b" d="M28.4 42.82h3.22V43a3.42 3.42 0 0 0 2.22 2.86A3.41 3.41 0 0 0 35 46a3.41 3.41 0 0 0 3.42-3v-.14h6.18a1.93 1.93 0 0 0 1.91-1.53A2.55 2.55 0 0 0 45.43 39a4.36 4.36 0 0 1-1.5-2v-.11a23.87 23.87 0 0 1-.76-3.73c-.5-3.28-1.06-7-4.42-8.55a10 10 0 0 0-1.78-.53h-.2l.08-.18A2 2 0 0 0 37 23a2.1 2.1 0 0 0-2.1-2.1 2.1 2.1 0 0 0-2.1 2.1 2 2 0 0 0 .18.82L33 24h-.2a9.48 9.48 0 0 0-1.48.41c-3.6 1.48-4.1 5.29-4.54 8.66a23.8 23.8 0 0 1-.68 3.72A4.36 4.36 0 0 1 24.57 39a2.55 2.55 0 0 0-1.1 2.34 1.88 1.88 0 0 0 1.23 1.41 2 2 0 0 0 .67.12h2.82zm9.4.18a2.8 2.8 0 0 1-5.54 0v-.18h5.59zm-9.54-.76h-2.88a1.32 1.32 0 0 1-1.3-1 2 2 0 0 1 .83-1.73 5 5 0 0 0 1.76-2.33v-.08a24 24 0 0 0 .71-3.86c.44-3.35.9-6.82 4.17-8.17a9.83 9.83 0 0 1 1.55-.41.62.62 0 0 0 .48-.35.62.62 0 0 0-.06-.59 1.38 1.38 0 0 1-.18-.67 1.49 1.49 0 0 1 3 0 1.39 1.39 0 0 1-.18.66.63.63 0 0 0-.07.59.6.6 0 0 0 .36.32h.12a10.23 10.23 0 0 1 1.85.53C41.5 26.59 42 30 42.51 33.23a24.33 24.33 0 0 0 .79 3.84 4.93 4.93 0 0 0 1.77 2.35 2 2 0 0 1 .83 1.73 1.32 1.32 0 0 1-1.3 1H28.31z"/></svg>