<svg id="Capa_1" xmlns="http://www.w3.org/2000/svg" viewBox="0 0 70 70"><style>.st0{fill:#0b94ff}</style><path class="st0" d="M35 62.3c-15.5 0-28.1-12.6-28.1-28.1 0-4.2.9-8.3 2.7-12.1 4.6-9.7 14.6-16 25.4-16s20.7 6.3 25.4 16c1.8 3.8 2.7 7.8 2.7 12.1 0 15.5-12.6 28.1-28.1 28.1zm0-55.4c-10.5 0-20.2 6.1-24.7 15.6-1.8 3.7-2.6 7.6-2.6 11.7C7.7 49.3 20 61.5 35 61.5s27.3-12.3 27.3-27.3c0-4.1-.9-8.1-2.6-11.7C55.2 13 45.5 6.9 35 6.9zm0 45.5c-10 0-18.1-8.1-18.1-18.1 0-10 8.1-18.1 18.1-18.1s18.1 8.1 18.1 18.1c0 9.9-8.1 18.1-18.1 18.1zm0-35.6c-9.6 0-17.4 7.8-17.4 17.4S25.4 51.6 35 51.6c9.6 0 17.4-7.8 17.4-17.4S44.6 16.8 35 16.8z"/><path class="st0" d="M45 63.9H35v-.8h9.8C55 59.7 62.2 51.2 63.6 40.7v-9.9c-.8-2.9-2.1-5.7-3.9-8.3l.6-.4c1.9 2.7 3.2 5.6 4 8.6l.1 10C63 51.6 55.5 60.4 45 63.9zm-10 0H25C14.5 60.4 7 51.6 5.6 40.8v-10c.8-3.2 2.2-6.1 4-8.7l.6.4c-1.8 2.6-3.1 5.4-3.9 8.4v9.8c1.4 10.4 8.6 19 18.8 22.4H35v.8z"/></svg>