<svg id="Warstwa_1" xmlns="http://www.w3.org/2000/svg" viewBox="0 0 70 70"><style>.st0{fill:#fff}</style><path class="st0" d="M22.3 50.5c2.9 2.6 6.6 5.2 10.2 7.6l1.8 1.2c.2.1.4.1.5 0l1.8-1.2c3.6-2.4 7.3-4.9 10.2-7.6 4-3.7 5.8-7 5.8-10.6v-22c0-.1-.1-.3-.2-.4-.3-.3-6.9-6.9-17.9-6.9S17 17.2 16.7 17.5v22.4c-.2 3.6 1.6 6.9 5.6 10.6zm-4.9-32.4c1.3-1.1 7.6-6.5 17-6.5s15.8 5.3 17 6.4l.2.1v21.8c0 3.3-1.8 6.5-5.5 9.9-2.8 2.6-6.5 5.1-10.1 7.5l-1.5 1-1.5-1c-3.6-2.4-7.3-4.9-10.1-7.5-3.8-3.5-5.5-6.6-5.5-9.9V18.1z"/><path class="st0" d="M40.6 41.9l-6.1-3.2-6.1 3.2 1.2-6.7-4.9-4.8 6.8-1 3-6.2 3 6.2 6.8 1-4.9 4.8 1.2 6.7zm-6.1-4.2l4.9 2.6-.9-5.4 4-3.8-5.5-.9-2.4-4.9-2.4 4.9-5.5.7 4 3.8-.9 5.4 4.7-2.4z"/></svg>