<svg id="Warstwa_1" xmlns="http://www.w3.org/2000/svg" viewBox="0 0 70 70"><style>.st0{fill:#fff}</style><path class="st0" d="M52.3 12.5s-.1 0 0 0l-26.1 10c-.2.1-.4.3-.4.4v25c-1.2-1.4-3.3-2.2-5.7-1.9-3.7.4-6.8 3.4-6.8 6.6 0 3.2 3.1 5.3 6.8 4.8 3.7-.4 6.8-3.4 6.8-6.6V31.1l25-9.5v19c-1.2-1.4-3.3-2.2-5.7-1.9-3.7.4-6.8 3.4-6.8 6.6 0 3.2 3.1 5.3 6.8 4.8 3.7-.4 6.8-3.4 6.8-6.6V13.1c0-.4-.4-.6-.7-.6zm-.4 1.3v6.7L26.8 30v-6.7l25.1-9.5zm-5.1 25.9c3-.2 5.1 1.6 5.1 4 0 2.5-2.5 4.9-5.7 5.4-3.2.4-5.7-1.3-5.7-3.9s2.5-4.9 5.7-5.4c.2 0 .4-.1.6-.1zM20.6 47c3-.2 5.1 1.6 5.1 4 0 2.5-2.5 4.9-5.7 5.4-3.2.4-5.7-1.3-5.7-3.9s2.5-4.9 5.7-5.4c.3-.1.4-.1.6-.1z"/></svg>