<svg xmlns="http://www.w3.org/2000/svg" width="454.1" height="413.1" viewBox="0 0 454.1 413.1"><title>icon_cart_wtb</title><path d="M12.2 2a10.2 10.2 0 1 0 0 20.4h15.3c8.7 0 13.8 2 17.4 4.6s6.1 6.6 8.2 11.8c0 .5 63.4 200.5 63.4 200.5a48.77 48.77 0 0 0-25.6 21c-8.7 13.8-12.3 32.2-12.3 53.7 0 5.1 5.1 10.2 10.2 10.2h276.1a10.24 10.24 0 0 0 10.2-10.2 10.58 10.58 0 0 0-10.2-10.2H100.2c1-13.3 4.1-25.6 8.7-32.7 5.6-9.2 11.8-13.3 20.5-13.3h220.4c27.1 0 53.2-17.4 60.9-43 0 0 41.4-137 41.4-141.1a10.24 10.24 0 0 0-10.2-10.2H82.4l-9.2-28.6c-3.1-8.7-7.7-17.4-15.3-23.5S40 2.2 27.7 2.2L12.2 2zm76.7 81.8h339l-36.8 124.8c-4.6 14.8-23.5 28.6-41.4 28.6H137.5zm10.3 255.7c-19.4 0-35.8 16.4-35.8 35.8s16.4 35.8 35.8 35.8 35.8-16.4 35.8-35.8-16.4-35.8-35.8-35.8zm255.6 0c-19.4 0-35.8 16.4-35.8 35.8s16.4 35.8 35.8 35.8 35.8-16.4 35.8-35.8-16.3-35.8-35.8-35.8zM99.2 360a15.3 15.3 0 1 1-15.3 15.3A15 15 0 0 1 99.2 360zm255.6 0a15.3 15.3 0 1 1-15.3 15.3 15 15 0 0 1 15.3-15.3z" fill="#fff" stroke="#0090ff" stroke-miterlimit="10" stroke-width="4"/></svg>