<svg id="Layer_1" xmlns="http://www.w3.org/2000/svg" viewBox="0 0 60 60"><style>.st0{fill:#0090ff;stroke:#0090ff;stroke-width:.7;stroke-miterlimit:10}</style><title>icon-modularity</title><path class="st0" d="M27.4 31.2L9.1 20.6c-.3-.2-.7-.3-1.1-.3-.6 0-1.2.2-1.6.7-.4.4-.7 1-.6 1.6v21.1c0 .8.4 1.5 1.1 1.9l18.2 10.5c.3.2.7.3 1.1.3 1.2 0 2.2-1 2.2-2.2V33.1c.1-.8-.3-1.5-1-1.9zm.5 23c0 .9-.7 1.6-1.6 1.6-.3 0-.6-.1-.8-.2L7.2 45c-.5-.3-.8-.8-.8-1.4V22.5c0-.4.2-.8.5-1.2.3-.3.7-.5 1.2-.5.3 0 .6.1.8.2l18.3 10.6c.5.3.8.8.8 1.4l-.1 21.2zm26.3-31.7c0-1.2-1-2.2-2.2-2.2-.4 0-.8.1-1.1.3L32.6 31.1c-.7.4-1.1 1.1-1.1 1.9v21.1c0 .6.2 1.2.6 1.6.4.4 1 .7 1.6.7.4 0 .8-.1 1.1-.3l18.3-10.5c.7-.4 1.1-1.1 1.1-1.9V22.5zM52.8 45L34.5 55.6c-.2.1-.5.2-.8.2-.4 0-.9-.2-1.2-.5-.3-.3-.5-.7-.5-1.2V33c0-.6.3-1.1.8-1.4L51 21.1c.2-.1.5-.2.8-.2.9 0 1.6.7 1.6 1.6v21.1c.2.6-.1 1.1-.6 1.4zm-3.4-26.7c1.1-.6 1.4-2 .8-3-.2-.3-.5-.6-.8-.8L31.1 3.9c-.7-.4-1.5-.4-2.2 0L10.6 14.4c-1.1.6-1.4 2-.8 3 .2.3.5.6.8.8l18.3 10.6c.7.4 1.5.4 2.2 0l18.3-10.5zM30 28.6c-.3 0-.6-.1-.8-.2L10.9 17.8c-.8-.4-1.1-1.4-.6-2.2.1-.3.4-.5.6-.6L29.1 4.4c.5-.3 1.1-.3 1.6 0L49.1 15c.8.4 1.1 1.4.6 2.2-.1.3-.4.5-.6.6L30.8 28.3c-.2.2-.5.3-.8.3z"/></svg>