<svg id="Layer_1" xmlns="http://www.w3.org/2000/svg" viewBox="0 0 70 70"><style>.st0{fill:#0090ff}</style><path class="st0" d="M26.9 967.3c-1.7 0-3 1.4-3 3v3H11.6c-1.7 0-3 1.4-3 3v28c0 1.7 1.4 3 3 3H58c1.7 0 3-1.4 3-3v-28c0-1.7-1.4-3-3-3H45.8v-3c0-1.7-1.4-3-3-3H26.9zm0 1.3h15.9c1 0 1.8.8 1.8 1.8v3H25v-3c0-1 .8-1.8 1.9-1.8zm-15.3 6.1H58c1 0 1.8.8 1.8 1.8v4.3c-5.7 4.4-14.8 7.3-25 7.3s-19.3-2.9-25-7.3v-4.3c0-1 .8-1.8 1.8-1.8zm-1.8 7.6c5 3.6 12.1 6 20.1 6.8v2.7c0 1 .8 1.8 1.8 1.8h6.1c1 0 1.8-.8 1.8-1.8v-2.7c8-.7 15.1-3.2 20.1-6.8v22.2c0 1-.8 1.8-1.8 1.8H11.6c-1 0-1.8-.8-1.8-1.8v-22.2zm21.3 6.9c1.2.1 2.4.1 3.7.1 1.2 0 2.5 0 3.7-.1v2.6c0 .3-.3.6-.6.6h-6.1c-.3 0-.6-.3-.6-.6v-2.6z" transform="translate(0 -952.362)"/></svg>