<svg id="Layer_1" xmlns="http://www.w3.org/2000/svg" viewBox="0 0 70 70"><style>.st0{fill:#0090ff}</style><path class="st0" d="M23.5 19.1l1.7-3.3-1.9-6.4h-4.1l-1.9 6.4 1.7 3.4v16h-3.7v3.5h.5l.2.1c.4.3.5.8.2 1.2h-.4v19.3c0 1 .4 2 1.1 2.7.7.7 1.7 1.1 2.7 1.1h3.2c2.1 0 3.8-1.7 3.8-3.8V39.9h-.4c-.1-.2-.1-.4-.1-.5 0-.3.2-.5.4-.6l.2-.1h.5V35h-3.7V19.1zm1.6 20.8h-7.6c0-.2.1-.4 0-.6 0-.2-.1-.5-.2-.7h7.9c-.2.4-.2.8-.1 1.3zm.4 1.1v18.2c0 1.4-1.1 2.6-2.6 2.7h-3.3c-1.5 0-2.7-1.2-2.7-2.7V41h8.6zm.6-4.9v1.3h-9.6v-1.3h9.6zm-3.6-25.7l1.5 5.2-1.6 3.2V35h-2.2V18.9l-1.7-3.2 1.5-5.2 2.5-.1zm4 48.7z"/><path class="st0" d="M20.7 43.6h1.1V58h-1.1zm24.4 10c.1 0 .2 0 .3-.1.2-.1.3-.3.3-.5V28.6c0-.4-.3-.5-.5-.5-.3 0-.5.2-.5.5V53c0 .2.1.4.3.5-.1.1 0 .1.1.1zm-.1 6.2c.7 0 1.2-.5 1.2-1.2 0-.3-.1-.6-.3-.8-.2-.2-.5-.3-.8-.3-.7 0-1.2.5-1.2 1.2 0 .3.1.6.3.8.2.2.5.3.8.3z"/><path class="st0" d="M48.9 9.4c-.1-.1-.3-.1-.5 0s-.3.3-.3.5v6.6c.1 1.1-.4 2-1.3 2.6-1 .7-2.5.7-3.5.1-1-.5-1.5-1.5-1.5-2.8V9.8c0-.2 0-.4-.2-.5-.2-.1-.4-.1-.5-.1-3.2 1.5-5.3 4.8-5.3 8.4 0 3.4 1.9 6.6 4.9 8.2v32.8c0 1.6.7 2.9 2.1 3.7.7.4 1.5.6 2.3.6.8 0 1.7-.2 2.4-.7 1.2-.7 1.8-2 1.7-3.5V25.9c3.1-1.6 4.9-4.8 4.9-8.2.1-3.4-2-6.8-5.2-8.3zm-7.1 15.9c-.1-.1-.2-.1-.3-.2-2.8-1.3-4.6-4.2-4.6-7.3 0-2.8 1.5-5.4 3.8-6.9l.1-.1v5.7c0 1.3.5 2.5 1.4 3.2.8.7 1.8 1 2.9 1 2.1 0 4.3-1.3 4.3-4.3v-5.7l.1.1c2.3 1.5 3.8 4.2 3.8 6.9 0 3.1-1.8 6-4.7 7.3-.2.1-.3.2-.3.5v33.1c0 1-.3 1.8-1 2.4-.6.5-1.3.8-2.2.8-1.6 0-3.3-1.1-3.3-3.2V25.3z"/></svg>