<svg id="Warstwa_1" xmlns="http://www.w3.org/2000/svg" viewBox="0 0 70 70"><style>.st0{fill:#fff}</style><path class="st0" d="M34.9 27.7c0-.3-.2-.4-.4-.4s-.4.2-.4.4V43c-3 .3-5.2 2.7-5.2 5.7 0 3.1 2.5 5.7 5.7 5.7s5.7-2.5 5.7-5.7c0-3-2.3-5.4-5.2-5.7V27.7zm4.4 21c0 2.6-2.2 4.8-4.8 4.8s-4.8-2.2-4.8-4.8 2.2-4.8 4.8-4.8 4.8 2.1 4.8 4.8z"/><path class="st0" d="M38.4 40.4V15.5c0-2.2-1.7-3.9-3.9-3.9s-3.9 1.7-3.9 3.9v24.9c-3.2 1.5-5.2 4.7-5.2 8.3 0 5.1 4.1 9.2 9.2 9.2s9.2-4.1 9.2-9.2c-.1-3.6-2.1-6.8-5.4-8.3zm4.4 8.3c0 4.5-3.8 8.3-8.3 8.3s-8.3-3.8-8.3-8.3c0-3.3 1.9-6.3 5-7.6.2-.1.3-.3.3-.4V15.5c0-1.7 1.4-3.1 3.1-3.1s3.1 1.4 3.1 3.1v25.1c0 .2.1.3.3.4 2.9 1.4 4.8 4.4 4.8 7.7zm-1.3-29.3h1.7c.3 0 .4-.2.4-.4 0-.3-.2-.4-.4-.4h-1.7c-.3 0-.4.2-.4.4-.1.2.1.4.4.4zm1.7 2.6h-1.7c-.3 0-.4.2-.4.4 0 .3.2.4.4.4h1.7c.3 0 .4-.2.4-.4.1-.2-.1-.4-.4-.4zm0 3.5h-1.7c-.3 0-.4.2-.4.4 0 .3.2.4.4.4h1.7c.3 0 .4-.2.4-.4.1-.2-.1-.4-.4-.4zm0 3.5h-1.7c-.3 0-.4.2-.4.4 0 .3.2.4.4.4h1.7c.3 0 .4-.2.4-.4.1-.2-.1-.4-.4-.4z"/><path class="st0" d="M43.2 32.5h-1.7c-.3 0-.4.2-.4.4 0 .3.2.4.4.4h1.7c.3 0 .4-.2.4-.4.1-.2-.1-.4-.4-.4zm0 3.5h-1.7c-.3 0-.4.2-.4.4 0 .3.2.4.4.4h1.7c.3 0 .4-.2.4-.4.1-.2-.1-.4-.4-.4z"/></svg>