<svg xmlns="http://www.w3.org/2000/svg" width="70" height="70" viewBox="0 0 70 70"><defs><style>.a{fill:#0090ff}.b{fill:none;stroke:#0090ff;stroke-miterlimit:10}</style></defs><title>icon</title><path class="a" d="M51.91 54.39l.7.7a28.47 28.47 0 0 0 0-40.18l-.7.7a27.5 27.5 0 0 1 0 38.78z"/><path class="a" d="M48.11 47.7a18 18 0 0 0 0-25.4l-.7.7a17 17 0 0 1 0 23.94zm-4.52-17.96l-.7.7A6.52 6.52 0 0 1 44.8 35a6.31 6.31 0 0 1-1.91 4.58l.7.7a7.41 7.41 0 0 0 0-10.56zm-25.5-14.13l-.7-.7a28.47 28.47 0 0 0 0 40.18l.7-.7a27.5 27.5 0 0 1 0-38.78z"/><path class="a" d="M21.89 22.3a18 18 0 0 0 0 25.4l.7-.7a17 17 0 0 1 0-23.94zm4.52 17.96l.7-.7A6.52 6.52 0 0 1 25.2 35a6.31 6.31 0 0 1 1.91-4.58l-.7-.7a7.41 7.41 0 0 0 0 10.56z"/><circle class="b" cx="35" cy="35.03" r="4.99"/></svg>