<svg id="Layer_1" xmlns="http://www.w3.org/2000/svg" viewBox="0 0 70 70"><style>.st0{fill:#0090ff}</style><path class="st0" d="M65.8 52.2V22.3c0-3.3-2.7-6-6-6-.5 0-.9.1-1.4.2-.2.1-.4.3-.4.5v6.1h-4v1h4v24.2c.3-.1.6-.2 1-.3.3 0 .6-.1.8-.1 2.8 0 5 2.2 5 5 0 2.6-2.1 4.8-4.7 5H9.7c-2.8 0-5-2.2-5-5s2.2-5 5-5c.3 0 .6 0 .9.1l.9.3V24.1h11v-1h-11V17c0-.2-.2-.4-.4-.5-.5-.1-.9-.2-1.4-.2-3.3 0-6 2.7-6 6v30.6c0 3.2 2.5 5.8 5.6 6h50.8c3.2-.2 5.6-2.8 5.6-6v-.5l.1-.2zm-61-29.9c0-2.8 2.2-5 5-5h.8V47h-.5c-1.7-.1-3.5.6-4.7 1.9l-.6.6V22.3zm60 27.2l-.6-.6c-1.2-1.3-3-2-4.7-1.9H59V17.3h.8c2.8 0 5 2.2 5 5v27.2z"/><path class="st0" d="M32.5 44.4h14.6V28.7L32.5 44.4zm13.7-1H34.9l.2-.2 11.1-11.9v12.1z"/><path class="st0" d="M35.8 24.1h9.8L20.1 50.4h32.1V17.2L46.5 23h-9.8l5.1-5-4.8-4.9-22.4 22.3 4.9 4.9 16.3-16.2zm15.5-4.4v29.6h-2.4v-2.5h-1v2.5h-2.4v-2.5h-1v2.5h-2.4v-2.5h-1v2.5h-2.4v-2.5h-1v2.5h-2.4v-2.5h-1v2.5h-2.4v-2.5h-1v2.5h-2.4v-2.5h-1v2.5h-5l.2-.2 28.6-29.4zm-33.5 14l1.8 1.8.7-.7-1.8-1.8 1.7-1.7 1.2 1.2.7-.7-1.2-1.2 1.7-1.7 1.8 1.8.7-.7-1.8-1.8 1.7-1.7 1.2 1.2.7-.7-1.2-1.2 1.7-1.7 1.8 1.8.7-.7-1.8-1.8 1.7-1.7 1.2 1.2.7-.7-1.2-1.2 1.7-1.7 1.8 1.8.7-.7-1.8-1.8 1.7-1.7 1.2 1.2.7-.7-1.2-1.2 1.7-1.7 3.5 3.5-20.9 20.9-3.5-3.5 1.7-1.7z"/></svg>