<svg width="50" height="50" viewBox="0 0 50 50" xmlns="http://www.w3.org/2000/svg"><title>D84CEEA0-3471-453F-8896-16EDBF3C2C1E</title><g fill="none" fill-rule="evenodd"><path d="M49.167 22.133a3.758 3.758 0 0 0-3.8-3.716h-2.2v1.2h2.2a2.5 2.5 0 0 1 .833.166l.342.117-4.6 3.867V9.992L32.775.825H7.192v22.783l-4.517-3.783.342-.117a2.5 2.5 0 0 1 .783-.166H6v-1.2H3.8A3.758 3.758 0 0 0 0 22.133v23.992a3.758 3.758 0 0 0 3.8 3.8h41.567a3.758 3.758 0 0 0 3.8-3.8V22.133zM33.175 2.875l6.758 6.758h-6.758V2.875zM8.392 2.042h23.583v8.783h8.8v13.883l-.075.059-16.117 13.458-16.191-13.6V2.042zM1.458 47.325a2.642 2.642 0 0 1-.258-1.117V22.217c.02-.497.182-.977.467-1.384l.116-.2.184.15 14.358 12.092-14.742 14.7-.125-.25zm45 1.208a2.4 2.4 0 0 1-1.125.259H3.8a2.4 2.4 0 0 1-1.133-.25l-.25-.125 14.8-14.8 7.366 6.166 7.367-6.166.133.133L46.75 48.417l-.292.116zm1.509-2.325a2.4 2.4 0 0 1-.259 1.125l-.125.25-14.658-14.708L47.5 20.733l.125.167a2.3 2.3 0 0 1 .358 1.317l-.016 23.991z" fill="#0090FF" fill-rule="nonzero"/><path d="M19.483 10.067l5 5.833-4.166 3.625-4.95-5.742a7.392 7.392 0 0 0 7.391 10.592l5.4 6.258 6.409-5.525-5.4-6.258a7.383 7.383 0 0 0-9.684-8.783z" stroke="#0090FF" stroke-width="1.5"/></g></svg>