<svg xmlns="http://www.w3.org/2000/svg" width="70" height="70" viewBox="0 0 70 70"><defs><style>.a{fill:#0090ff}</style></defs><title>icon</title><path class="a" d="M55.39 10h-.07L26.24 21a.6.6 0 0 0-.38.55v27.87a7 7 0 0 0-6.4-2.13c-4.11.53-7.56 3.75-7.56 7.31s3.45 5.88 7.56 5.34S27 56.18 27 52.63V30.75l27.93-10.61v21.13a7 7 0 0 0-6.4-2.13c-4.11.54-7.53 3.76-7.53 7.31s3.45 5.88 7.56 5.34 7.54-3.79 7.54-7.3V10.58a.61.61 0 0 0-.71-.58zm-.45 1.42v7.48L27 29.52V22zm-5.73 28.84c3.27-.15 5.72 1.76 5.72 4.38 0 2.79-2.8 5.53-6.4 6s-6.4-1.53-6.4-4.33 2.8-5.53 6.4-6c.23-.03.47-.04.68-.05zM20.13 48.4c3.27-.15 5.72 1.76 5.72 4.38 0 2.79-2.8 5.53-6.4 6s-6.4-1.53-6.4-4.33 2.8-5.53 6.4-6c.24-.03.47-.04.68-.05z"/></svg>