<svg xmlns="http://www.w3.org/2000/svg" viewBox="0 0 47.41 47.41"><defs><style>.a{fill:#0090ff}</style></defs><title>choose-range</title><path class="a" d="M46.52 25.59h.9A25.65 25.65 0 0 0 21.81 0v.9a24.77 24.77 0 0 1 24.71 24.69z"/><path class="a" d="M39.81 23.75A16.21 16.21 0 0 0 23.66 7.57v.9a15.29 15.29 0 0 1 15.25 15.25zm-14.29-8.56v.9a5.87 5.87 0 0 1 4.13 1.7 5.68 5.68 0 0 1 1.7 4.13h.9a6.67 6.67 0 0 0-6.73-6.73zM.9 21.81H0a25.65 25.65 0 0 0 25.6 25.6v-.9A24.77 24.77 0 0 1 .9 21.81z"/><path class="a" d="M7.58 23.65a16.21 16.21 0 0 0 16.18 16.18v-.9A15.29 15.29 0 0 1 8.51 23.68zm14.31 8.56v-.92a5.87 5.87 0 0 1-4.08-1.67 5.68 5.68 0 0 1-1.7-4.13h-.9a6.67 6.67 0 0 0 6.73 6.73z"/><circle class="a" cx="33.07" cy="32.28" r="2.58" transform="rotate(-45 17.962 39.02)"/></svg>