<svg width="48" height="48" viewBox="0 0 48 48" xmlns="http://www.w3.org/2000/svg"><title>Group</title><g fill="none" fill-rule="evenodd"><circle fill="#0090FF" cx="24" cy="24" r="24"/><path d="M33.98 23.238c.013.026.02.056.02.088v9.424c0 .352-.124.648-.371.889a1.22 1.22 0 0 1-.879.361h-17.5c-.339 0-.632-.12-.879-.361A1.192 1.192 0 0 1 14 32.75v-9.355c0-.222.072-.43.215-.625.143-.196.26-.339.351-.43l8.145-7.813c.352-.351.794-.527 1.328-.527s.977.176 1.328.527l8.145 7.871.117.118a.78.78 0 0 1 .098.117l.02.02a.943.943 0 0 1 .155.273c.04.104.065.208.078.312zM19.273 28.18l-4.023-3.535v7.246l4.023-3.711zm1.29.527l-4.415 4.043H31.91l-7.5-6.738a.486.486 0 0 0-.205-.117.891.891 0 0 0-.264-.04.728.728 0 0 0-.263.05.838.838 0 0 0-.225.126l-2.754 2.54-.02.019a.194.194 0 0 1-.058.068.57.57 0 0 0-.058.049zm8.222-.43l3.965 3.555v-7.07l-3.965 3.515zm-12.754-5.625h-.039l-.527.508 4.726 4.18 2.461-2.266a1.992 1.992 0 0 1 1.3-.459 2.03 2.03 0 0 1 1.259.44l2.656 2.363 4.727-4.2-1.074-1.073h.02l-7.052-6.739a.89.89 0 0 0-.215-.127.605.605 0 0 0-.234-.049.605.605 0 0 0-.234.05.89.89 0 0 0-.215.126l-7.559 7.246z" fill="#FFF"/></g></svg>