<svg width="70" height="70" id="Warstwa_1" xmlns="http://www.w3.org/2000/svg" viewBox="0 0 70 70"><style>.st0{fill:#0090ff}</style><path class="st0" d="M35 9.7c-2 2.6-17.8 24-17.8 32.9 0 9.8 8 17.8 17.8 17.8s17.8-8 17.8-17.8c0-9-15.8-30.3-17.8-32.9zm0 49.5c-9.2 0-16.7-7.5-16.7-16.7 0-3.5 2.4-9.2 7.1-16.9 3.7-6.1 7.8-11.7 9.4-13.9l.2-.3.2.3c1.6 2.1 5.7 7.7 9.4 13.9 4.7 7.7 7.1 13.4 7.1 16.9 0 9.2-7.5 16.7-16.7 16.7z"/><path class="st0" d="M34.8 56.2v-1.1C28 55 22.6 49.5 22.5 42.8h-1.1c.1 7.4 6 13.3 13.4 13.4z"/></svg>