<svg xmlns="http://www.w3.org/2000/svg" width="42.11" height="53" viewBox="0 0 42.11 53"><defs><style>.a,.b{fill:#0090ff}.b{stroke:#0090ff;stroke-miterlimit:10;stroke-width:.5px}</style></defs><title>icon-thermo</title><path class="a" d="M11.03 18.5a.5.5 0 0 0-1 0v17.52a6.5 6.5 0 1 0 1 0zm5 24a5.5 5.5 0 1 1-5.5-5.5 5.51 5.51 0 0 1 5.5 5.5z"/><path class="a" d="M15.03 33.01V4.5a4.5 4.5 0 1 0-9 0v28.51a10.5 10.5 0 1 0 9 0zm5 9.48A9.5 9.5 0 1 1 6.7 33.83a.5.5 0 0 0 .3-.46V4.5a3.5 3.5 0 1 1 7 0v28.83a.5.5 0 0 0 .3.46 9.5 9.5 0 0 1 5.73 8.71zM.5 9h2a.5.5 0 0 0 0-1h-2a.5.5 0 0 0 0 1zm2 3h-2a.5.5 0 0 0 0 1h2a.5.5 0 0 0 0-1zm0 4h-2a.5.5 0 0 0 0 1h2a.5.5 0 0 0 0-1z"/><path class="a" d="M2.5 20h-2a.5.5 0 0 0 0 1h2a.5.5 0 0 0 0-1zm0 4h-2a.5.5 0 0 0 0 1h2a.5.5 0 0 0 0-1zm0 4h-2a.5.5 0 0 0 0 1h2a.5.5 0 0 0 0-1z"/><path class="b" d="M31.55 2.96a.3.3 0 0 0-.24.29c.12 3.43 0 7.39-2 9.58a15.42 15.42 0 0 0-1.28-2 5.4 5.4 0 0 0-2.21-1.92.29.29 0 0 0-.37.31c.55 4.18-.1 5.83-.95 7-.42.58-.91 1-1.35 1.62a4.83 4.83 0 0 0-.95 2.29 6.94 6.94 0 0 0 1 5.22c1.09 1.49 3.07 2.59 6.33 3.12a.3.3 0 0 0 .22-.5 5 5 0 0 1-1.36-2.6 5 5 0 0 1 0-2.39 5.64 5.64 0 0 0 1 1.73 2.92 2.92 0 0 0 2.63.81.29.29 0 0 0 .24-.33 31.74 31.74 0 0 1-.56-3.36 5.16 5.16 0 0 1 .28-2.13 4.89 4.89 0 0 1 2.59 3 8.9 8.9 0 0 1-.54 5.38.3.3 0 0 0 .31.38 8.4 8.4 0 0 0 5.4-3 9.84 9.84 0 0 0 2-5.23c.4-3.83-.89-7.89-3-9.9a.3.3 0 0 0-.47.16 22.87 22.87 0 0 1-.8 4.34 4.89 4.89 0 0 1-2.44 3.08 22.15 22.15 0 0 0 .35-8.51c-.49-2.8-1.66-5.19-3.69-6.41a.28.28 0 0 0-.18 0zm.33.88a8.82 8.82 0 0 1 3 5.66 22.06 22.06 0 0 1-.45 8.81.3.3 0 0 0 .34.35c1.73-.44 2.7-2 3.27-3.62a19.37 19.37 0 0 0 .81-3.81 12.85 12.85 0 0 1 2.4 9 9.34 9.34 0 0 1-1.9 4.94 7.71 7.71 0 0 1-4.62 2.66 9.09 9.09 0 0 0 .38-5.26 5.6 5.6 0 0 0-3.18-3.51.3.3 0 0 0-.38.15 5.7 5.7 0 0 0-.41 2.62 29.29 29.29 0 0 0 .55 3.07 2.23 2.23 0 0 1-1.87-.66 6.42 6.42 0 0 1-1.18-2.13.29.29 0 0 0-.49-.05 4.57 4.57 0 0 0-.29 3.37 6.72 6.72 0 0 0 .94 2.23c-2.62-.56-4.25-1.52-5.13-2.72a6.32 6.32 0 0 1-.88-4.8 4.06 4.06 0 0 1 .83-2c.4-.52.9-1 1.36-1.62.87-1.19 1.5-3 1.09-6.83a5.8 5.8 0 0 1 1.53 1.47 14.09 14.09 0 0 1 1.36 2.27.3.3 0 0 0 .45.09c2.42-2.23 2.57-6.23 2.47-9.7z"/></svg>