<svg id="Layer_1" xmlns="http://www.w3.org/2000/svg" viewBox="0 0 80.9 80.9"><style>.st0{fill:none;stroke:#0090ff;stroke-miterlimit:10}.st1{fill:#0090ff}</style><title>actions-count</title><circle class="st0" cx="40.5" cy="40.5" r="40"/><path class="st1" d="M18.4 50.1c.4 1.1 1 2.1 1.7 2.9s1.7 1.4 2.8 1.9c1.1.5 2.4.7 3.8.7 1.2 0 2.3-.2 3.4-.5s2-.8 2.9-1.5c.8-.7 1.5-1.5 2-2.5s.8-2.1.8-3.3c0-1.3-.2-2.4-.7-3.3-.4-.9-1-1.7-1.8-2.3-.8-.6-1.7-1.1-2.7-1.4-1-.3-2.1-.5-3.3-.5h-2.7v-2.7h2.7c.8 0 1.6-.1 2.5-.4s1.6-.6 2.3-1.2c.7-.5 1.2-1.2 1.7-2 .4-.8.7-1.8.7-2.9 0-1.2-.2-2.2-.6-3-.4-.8-1-1.5-1.7-2.1s-1.5-1-2.4-1.2c-.9-.3-1.9-.4-3-.4-1.3 0-2.5.2-3.5.7-1 .4-1.9 1-2.5 1.8-.7.8-1.2 1.7-1.5 2.8-.3 1.1-.5 2.3-.5 3.6h-3.2c0-1.7.3-3.2.8-4.6.5-1.4 1.3-2.6 2.2-3.6 1-1 2.1-1.8 3.5-2.4 1.4-.6 2.9-.9 4.6-.9 1.4 0 2.7.2 4 .5s2.5.9 3.5 1.6c1 .7 1.8 1.6 2.5 2.8.6 1.1.9 2.5.9 4 0 1.9-.5 3.6-1.5 5s-2.5 2.3-4.4 2.8v.1c2.3.4 4.1 1.3 5.4 2.9 1.3 1.6 1.9 3.5 1.9 5.8 0 1.7-.3 3.3-1 4.6-.7 1.3-1.5 2.4-2.6 3.3s-2.4 1.6-3.9 2c-1.5.5-3 .7-4.6.7-1.8 0-3.5-.3-5-.8s-2.8-1.3-3.9-2.3c-1.1-1-1.9-2.2-2.5-3.7s-.8-3.2-.6-5.1H18c-.1 1.7.1 2.9.4 4.1zm43-26.5c1.6 1.1 2.8 2.6 3.7 4.3.9 1.7 1.5 3.7 1.8 5.8.3 2.1.5 4.2.5 6.3 0 2.1-.2 4.2-.5 6.3-.3 2.1-.9 4.1-1.8 5.8-.9 1.7-2.1 3.2-3.7 4.3-1.6 1.1-3.7 1.7-6.3 1.7-2.5 0-4.6-.6-6.2-1.7-1.6-1.1-2.9-2.5-3.7-4.3s-1.5-3.7-1.8-5.8c-.3-2.1-.5-4.2-.5-6.3 0-2.1.2-4.2.5-6.3.3-2.1.9-4.1 1.8-5.8.9-1.7 2.1-3.2 3.7-4.3 1.6-1.1 3.7-1.7 6.2-1.7 2.6.1 4.7.6 6.3 1.7zm-11.1 2.6c-1.2 1-2.1 2.3-2.7 3.9-.6 1.5-1 3.2-1.2 5s-.3 3.5-.3 5 .1 3.2.3 5 .6 3.5 1.2 5c.6 1.6 1.5 2.9 2.7 3.9 1.2 1 2.8 1.6 4.8 1.6s3.6-.5 4.8-1.6c1.2-1 2.1-2.3 2.7-3.9.6-1.6 1-3.2 1.2-5s.3-3.5.3-5-.1-3.2-.3-5-.6-3.5-1.2-5-1.5-2.8-2.7-3.9c-1.2-1-2.8-1.6-4.8-1.6s-3.6.5-4.8 1.6z"/></svg>