<svg width="60" height="60" xmlns="http://www.w3.org/2000/svg" viewBox="0 0 55.82 55.3"><defs><style>.a{fill:none}.b{opacity:.2}.c{fill:#0090ff}.d{opacity:.5}.e{clip-path:url(#a)}</style><clipPath id="a" transform="translate(-.08 .1)"><path class="a" d="M22 0h34v55.1H22z"/></clipPath></defs><title>motion</title><g class="b"><circle class="a" cx="20.03" cy="5.2" r="4.1"/><path class="a" d="M20.72 13.5a2.36 2.36 0 0 0-.8-.9 6 6 0 0 0-1.6-.8 3.4 3.4 0 0 0-1-.1 2.77 2.77 0 0 0-.9.1 10.09 10.09 0 0 0-1.5.7l-9.9 5.2a1.08 1.08 0 0 1-.4.5 1.59 1.59 0 0 0-.8 1l-1.5 8.1a1.16 1.16 0 0 0 .2 1 1.46 1.46 0 0 0 .9.6 1.16 1.16 0 0 0 1-.2 1.46 1.46 0 0 0 .6-.9l1.5-7.9 6.4-3.4-2.5 11.6a2.2 2.2 0 0 0-.1.8l-1.8 11.2-.1.2-7 10.7a4.07 4.07 0 0 0-.5 1.8 1.64 1.64 0 0 0 .7 1.2 2.18 2.18 0 0 0 2.8-1l6.9-10.7a3.55 3.55 0 0 0 .4-.9c.1-.3.2-.4.2-.6l1.4-8.7.5.2c.1 0 .3.1.4.1a14.24 14.24 0 0 1 1.6.5l.2.1 3 3.6 1.3-7.8a2.77 2.77 0 0 1 .1-.9l2.1-9.5-4.1 2.2-1.4 7.4a2.26 2.26 0 0 1-1 1.5 2.32 2.32 0 0 1-1.8.4 2.26 2.26 0 0 1-1.5-1 2.32 2.32 0 0 1-.4-1.8l1.5-8.1a2.2 2.2 0 0 1 1.2-1.6 2.19 2.19 0 0 1 .5-.3l5.5-2.9c-.1-.1-.1-.2-.2-.4z"/><circle class="a" cx="31.03" cy="5.2" r="4.1"/><path class="c" d="M20.02 10.2a5.1 5.1 0 1 0 0-10.2 5.28 5.28 0 0 0-5.1 5.2 5.1 5.1 0 0 0 5.1 5zm0-9.1a4.1 4.1 0 1 1-4.1 4.1 4.06 4.06 0 0 1 4.1-4.1zm-3.9 32l-.2-.2a4.94 4.94 0 0 0-1.6-.5c-.2 0-.3-.1-.4-.1l-.6-.2-1.4 8.8a3.93 3.93 0 0 1-.2.6 3.55 3.55 0 0 1-.4.9L4.42 53c-.7 1.1-2 1.6-2.8 1a1.85 1.85 0 0 1-.7-1.2 2.5 2.5 0 0 1 .5-1.8l7-10.7.1-.2 1.8-11.2a2.2 2.2 0 0 1 .1-.8l2.5-11.6-6.4 3.4-1.5 7.9a1.46 1.46 0 0 1-.6.9 1.23 1.23 0 0 1-1 .2 1.46 1.46 0 0 1-.9-.6 1.23 1.23 0 0 1-.2-1l1.5-8.1a1.52 1.52 0 0 1 .8-1c.1-.1.3-.2.4-.3l9.9-5.2a3.48 3.48 0 0 1 1.5-.7 2.77 2.77 0 0 1 .9-.1 3.4 3.4 0 0 1 1 .1 3.46 3.46 0 0 1 1.6.8 1.42 1.42 0 0 1 .8.9l.1.2c.1.1.1.2.2.4l.9-.5c-.1-.1-.1-.3-.2-.4l-.1-.3a3.06 3.06 0 0 0-1.2-1.3 6.63 6.63 0 0 0-1.9-.9 4.87 4.87 0 0 0-1.2-.1 5 5 0 0 0-1.2.2 8.86 8.86 0 0 0-1.7.8L4.62 17a2.19 2.19 0 0 0-.5.3 2.2 2.2 0 0 0-1.2 1.6l-1.6 8.2a2.32 2.32 0 0 0 .4 1.8 2.52 2.52 0 0 0 1.5 1 2.32 2.32 0 0 0 1.8-.4 2.52 2.52 0 0 0 1-1.5l1.4-7.4 4.1-2.2-2.1 9.5a3.08 3.08 0 0 0-.1.9l-1.7 10.9a.1.1 0 0 1-.1.1L.62 50.5a3.48 3.48 0 0 0-.6 2.4 3.09 3.09 0 0 0 1.1 2 2.2 2.2 0 0 0 1.3.4 3.62 3.62 0 0 0 2.9-1.7l6.9-10.7a9.74 9.74 0 0 0 .5-1.1 2.54 2.54 0 0 0 .2-.7l1.2-7.6a5.64 5.64 0 0 1 1.2.4l3.5 4.2.2-1.3z"/></g><g class="d"><path class="a" d="M31.42 27.9l2.1-9.5-4.1 2.2-1.4 7.4a2.26 2.26 0 0 1-1 1.5 2.32 2.32 0 0 1-1.8.4 2.26 2.26 0 0 1-1.5-1 2.32 2.32 0 0 1-.4-1.8l1.5-8.1a2.2 2.2 0 0 1 1.2-1.6 2.19 2.19 0 0 1 .5-.3l5.5-2.9c-.1-.1-.1-.2-.2-.4l-.1-.2a2.36 2.36 0 0 0-.8-.9 6 6 0 0 0-1.6-.8 3.4 3.4 0 0 0-1-.1 2.77 2.77 0 0 0-.9.1 10.09 10.09 0 0 0-1.5.7l-9.9 5.2c-.1.1-.3.2-.4.3a1.59 1.59 0 0 0-.8 1l-1.5 8.1a1.16 1.16 0 0 0 .2 1 1.46 1.46 0 0 0 .9.6 1.16 1.16 0 0 0 1-.2 1.46 1.46 0 0 0 .6-.9l1.5-7.9 6.4-3.4-2.5 11.7a2.2 2.2 0 0 0-.1.8l-1.8 11.2-.1.2-7 10.7a2.9 2.9 0 0 0-.5 1.8 1.64 1.64 0 0 0 .7 1.2 2.18 2.18 0 0 0 2.8-1l6.9-10.7a3.55 3.55 0 0 0 .4-.9c.1-.3.2-.4.2-.6l1.4-8.7.5.2c.1 0 .3.1.4.1a14.24 14.24 0 0 1 1.6.5l.2.1 3 3.6 1.3-7.8a3.08 3.08 0 0 1 .1-.9z"/><circle class="a" cx="42.02" cy="5.2" r="4.1"/><circle class="a" cx="31.03" cy="5.2" r="4.1"/><path class="a" d="M26.62 18.2a1.59 1.59 0 0 0-.8 1l-1.5 8.1a1.16 1.16 0 0 0 .2 1 1.46 1.46 0 0 0 .9.6 1.16 1.16 0 0 0 1-.2 1.46 1.46 0 0 0 .6-.9l1.5-7.9 6.4-3.4-2.5 11.6a2.2 2.2 0 0 0-.1.8l-1.8 11.2-.1.2-7 10.7a2.9 2.9 0 0 0-.5 1.8 1.64 1.64 0 0 0 .7 1.2 2.18 2.18 0 0 0 2.8-1l6.9-10.7a3.55 3.55 0 0 0 .4-.9c.1-.3.2-.4.2-.6l1.4-8.7.5.2c.1 0 .3.1.4.1a14.24 14.24 0 0 1 1.6.5l.2.1 7.3 8.7 2.3 10.8a1.9 1.9 0 0 0 2.2 1.6 2 2 0 0 0 1.4-2.3L48.92 41a3.55 3.55 0 0 0-.4-.9 1.38 1.38 0 0 0-.3-.4l-7.7-9.2 2.4-11 2.4 5c0 .1.1.2.1.3l.1.2a1 1 0 0 0 .6.8l7 3.1a1.39 1.39 0 0 0 .9 0 1.55 1.55 0 0 0 .8-.8 1.32 1.32 0 0 0-.6-1.8l-6.7-3-4.3-8.8a2 2 0 0 0-.4-.8l-.1-.2a2.36 2.36 0 0 0-.8-.9 6 6 0 0 0-1.6-.8 3.4 3.4 0 0 0-1-.1 2.77 2.77 0 0 0-.9.1 10.09 10.09 0 0 0-1.5.7l-9.9 5.2a1.08 1.08 0 0 1-.4.5z"/><path class="c" d="M25.92 5.2a5.1 5.1 0 1 0 5.1-5.1 5.12 5.12 0 0 0-5.1 5.1zm9.1 0a4.12 4.12 0 0 1-4.1 4.1 4 4 0 0 1-4-4.1 4.06 4.06 0 0 1 4.1-4.1 4 4 0 0 1 4 4.1zm-11.8 37.7a9.74 9.74 0 0 0 .5-1.1 2.54 2.54 0 0 0 .2-.7l1.2-7.6a5.64 5.64 0 0 1 1.2.4l3.5 4.2.2-1.3-3-3.6-.1-.3a4.94 4.94 0 0 0-1.6-.5c-.2 0-.3-.1-.4-.1l-.6-.2-1.4 8.8a3.93 3.93 0 0 1-.2.6 3.55 3.55 0 0 1-.4.9l-6.9 10.7c-.7 1.1-2 1.6-2.8 1a1.85 1.85 0 0 1-.7-1.2 2.5 2.5 0 0 1 .5-1.8l7-10.7.1-.2 1.8-11.2a2.2 2.2 0 0 1 .1-.8l2.5-11.7-6.4 3.4-1.5 7.9a1.46 1.46 0 0 1-.6.9 1.23 1.23 0 0 1-1 .2 1.46 1.46 0 0 1-.9-.6 1.23 1.23 0 0 1-.2-1l1.5-8.1a1.52 1.52 0 0 1 .8-1c.1-.1.3-.2.4-.3l9.9-5.2a3.48 3.48 0 0 1 1.5-.7 2.77 2.77 0 0 1 .9-.1 3.4 3.4 0 0 1 1 .1 3.46 3.46 0 0 1 1.6.8 1.42 1.42 0 0 1 .8.9l.1.2c.1.1.1.2.2.4l.9-.5c-.1-.1-.1-.3-.2-.4l-.1-.3a3.06 3.06 0 0 0-1.2-1.3 6.63 6.63 0 0 0-1.9-.9 4.87 4.87 0 0 0-1.2-.1 5 5 0 0 0-1.2.2 8.86 8.86 0 0 0-1.7.8l-9.8 5.2a2.19 2.19 0 0 0-.5.3 2.2 2.2 0 0 0-1.2 1.6l-1.6 8.2a2.32 2.32 0 0 0 .4 1.8 2.52 2.52 0 0 0 1.5 1 2.32 2.32 0 0 0 1.8-.4 2.52 2.52 0 0 0 1-1.5l1.4-7.4 4.1-2.2-2.1 9.5a3.08 3.08 0 0 0-.1.9l-1.7 10.9a.1.1 0 0 1-.1.1l-6.9 10.7a3.48 3.48 0 0 0-.6 2.4 3.09 3.09 0 0 0 1.1 2 2.2 2.2 0 0 0 1.3.4 3.62 3.62 0 0 0 2.9-1.7z"/></g><g class="e"><path class="c" d="M42.02 10.2a5.12 5.12 0 0 1-5.1-5.1 5.1 5.1 0 0 1 10.2.1 5.17 5.17 0 0 1-5.1 5zm0-9.1a4.06 4.06 0 0 0-4.1 4.1 4.12 4.12 0 0 0 4.1 4.1 4.06 4.06 0 0 0 4.1-4.1 4.18 4.18 0 0 0-4.1-4.1z"/></g><g class="e"><path class="c" d="M24.42 55.2a2 2 0 0 1-1.3-.4 2.4 2.4 0 0 1-1.1-2 3.48 3.48 0 0 1 .6-2.4l6.9-10.7a.1.1 0 0 1 .1-.1l1.7-10.9a2.77 2.77 0 0 1 .1-.9l2.1-9.5-4.1 2.2-1.4 7.4a2.26 2.26 0 0 1-1 1.5 2.32 2.32 0 0 1-1.8.4 2.26 2.26 0 0 1-1.5-1 2.32 2.32 0 0 1-.4-1.8l1.5-8.1a2.2 2.2 0 0 1 1.2-1.6 2.19 2.19 0 0 1 .5-.3l9.8-5.2a3.81 3.81 0 0 1 1.7-.8 5 5 0 0 1 1.2-.2 4.87 4.87 0 0 1 1.2.1 5.57 5.57 0 0 1 1.9.9 2.56 2.56 0 0 1 1.2 1.3l.1.2a3.55 3.55 0 0 1 .4.9l4.1 8.4 6.4 2.8a2.4 2.4 0 0 1 1.1 3.1 2.73 2.73 0 0 1-1.3 1.3 2.21 2.21 0 0 1-1.6 0l-7-3.1a2.36 2.36 0 0 1-1.2-1.4c-.1-.1-.1-.2-.2-.3l-1.2-2.4-1.7 7.7 7.4 8.8c.1.2.2.3.3.5a2.62 2.62 0 0 1 .6 1.3l2.3 10.8a2.92 2.92 0 0 1-2.1 3.5 3 3 0 0 1-3.4-2.4l-2.2-10.5-7.1-8.4a5.64 5.64 0 0 0-1.2-.4l-1.1 7.5a1.85 1.85 0 0 1-.2.7 9.74 9.74 0 0 1-.5 1.1l-6.9 10.7a3.48 3.48 0 0 1-2.9 1.7zm10.5-38.7l-2.5 11.6a2.2 2.2 0 0 0-.1.8l-1.8 11.2-.1.2-7 10.7a2.9 2.9 0 0 0-.5 1.8 1.64 1.64 0 0 0 .7 1.2 2.18 2.18 0 0 0 2.8-1l6.9-10.7a3.55 3.55 0 0 0 .4-.9c.1-.3.2-.4.2-.6l1.4-8.7.5.2c.1 0 .3.1.4.1a14.24 14.24 0 0 1 1.6.5l.2.1 7.3 8.7 2.3 10.8a1.9 1.9 0 0 0 2.2 1.6 2 2 0 0 0 1.4-2.3L48.92 41a3.55 3.55 0 0 0-.4-.9 1.38 1.38 0 0 0-.3-.4l-7.7-9.2 2.4-11 2.4 5c0 .1.1.2.1.3l.1.2a1 1 0 0 0 .6.8l7 3.1a1.39 1.39 0 0 0 .9 0 1.55 1.55 0 0 0 .8-.8 1.32 1.32 0 0 0-.6-1.8l-6.7-3-4.3-8.8a2 2 0 0 0-.4-.8l-.1-.2a2.36 2.36 0 0 0-.8-.9 6 6 0 0 0-1.6-.8 3.4 3.4 0 0 0-1-.1 2.77 2.77 0 0 0-.9.1 10.09 10.09 0 0 0-1.5.7l-9.9 5.2c-.1.1-.3.2-.4.3a1.59 1.59 0 0 0-.8 1l-1.5 8.1a1.16 1.16 0 0 0 .2 1 1.46 1.46 0 0 0 .9.6 1.16 1.16 0 0 0 1-.2 1.46 1.46 0 0 0 .6-.9l1.5-7.9z"/></g></svg>