<svg xmlns="http://www.w3.org/2000/svg" width="49.5" height="34.68" viewBox="0 0 49.5 34.68"><defs><style>.a{fill:#0090ff}</style></defs><title>icon-voice</title><path class="a" d="M21.5 6.74a.75.75 0 0 0-1.5 0v21.2a.75.75 0 1 0 1.5 0zm-8-1.4a.75.75 0 0 0-1.5 0v24a.75.75 0 1 0 1.5 0zm4 8a.75.75 0 0 0-1.5 0v8a.75.75 0 0 0 1.5 0zm-8 0a.75.75 0 0 0-1.5 0v8a.75.75 0 0 0 1.5 0zm-8 2a.75.75 0 0 0-1.5 0v4a.75.75 0 0 0 1.5 0zm4-4a.75.75 0 0 0-1.5 0v12a.75.75 0 0 0 1.5 0zm36-3a.75.75 0 0 0-1.5 0v18a.75.75 0 1 0 1.5 0zm4 5a.75.75 0 0 0-1.5 0v8a.75.75 0 1 0 1.5 0zm-8 2a.75.75 0 0 0-1.5 0v4a.75.75 0 1 0 1.5 0zm12 0a.75.75 0 0 0-1.5 0v4a.75.75 0 1 0 1.5 0zm-16-2a.75.75 0 0 0-1.5 0v8a.75.75 0 1 0 1.5 0zm-4-6a.75.75 0 0 0-1.5 0v20a.75.75 0 1 0 1.5 0zm-4-6.6a.75.75 0 0 0-1.5 0v33.19a.75.75 0 0 0 1.5 0z"/></svg>