<svg xmlns="http://www.w3.org/2000/svg" width="70" height="70" viewBox="0 0 70 70"><defs><style>.cls-1{fill:none;stroke:#0b94ff;stroke-miterlimit:10;stroke-width:1px}</style></defs><title>icon_motion</title><g id="Capa_2" data-name="Capa 2"><g id="Capa_2-2" data-name="Capa 2"><path class="cls-1" d="M63.58 18.77a32.49 32.49 0 1 0 3.14 13.95 32.48 32.48 0 0 0-3.14-13.95zM34.25 53.55a20.83 20.83 0 1 1 20.83-20.83 20.83 20.83 0 0 1-20.83 20.83z"/><path class="cls-1" d="M34.25 67h11.6a32.36 32.36 0 0 0 22.4-26.65l-.05-11.6a31.18 31.18 0 0 0-4.61-10M34.25 67h-11.6A32.36 32.36 0 0 1 .25 40.38L.3 28.75a31.18 31.18 0 0 1 4.61-10"/></g></g></svg>