<svg xmlns="http://www.w3.org/2000/svg" width="70" height="70" viewBox="0 0 70 70"><defs><style>.a{fill:#0090ff}</style></defs><title>icon</title><path class="a" d="M26.59 62.44a.52.52 0 0 0 .65-.16l23.09-33.1c.12-.17.08-.14 0-.28s-.23-.05-.43-.05H37l6.13-20.72a.76.76 0 0 0-.12-.6c-.1-.12-.24.15-.37.15s0 .34-.06.34c-.16 0-.3-.3-.36-.19l-22.56 32.6a.87.87 0 0 0 0 .69c.09.18.26.47.43.47h12.5l-6.27 20.52c-.07.24.06.25.27.33zm7.19-21.78c0-.15 0-.11-.11-.26s-.25 0-.38 0H21.08l.19-.48L41.2 10.86 35.82 28.8a1.26 1.26 0 0 0 .1.72c.1.14.25.5.4.5h12.62-.19L28.26 59.14z"/></svg>