<svg id="Warstwa_1" xmlns="http://www.w3.org/2000/svg" viewBox="0 0 70 70"><style>.st0{fill:#fff}</style><path class="st0" d="M43.2 17.2c-2.3-1.9-5.2-3.1-8.3-3.1-.4 0-.9 0-1.3.1-5.6.6-10.2 5-10.8 10.6-.4 2.8.4 5.5 1.9 7.8 2.3 3.4 3.6 7.1 4 10.7l.1.4c.1.4.3 1 .6 1.2l.1.1-.1.1c-.4.4-.6.8-.6 1.3 0 .4.2.8.5 1.1l.1.1-.1.1c-.4.4-.5.7-.5 1.1 0 .4.2.8.5 1.1l.1.1-.1.1c-.4.4-.5.8-.5 1.2 0 1 .8 1.8 1.7 1.8h1.4v.1c.3 1.4 1.5 2.4 3 2.4s2.7-1 3-2.4v-.1h1.6c1 0 1.7-.8 1.7-1.8 0-.4-.2-.9-.5-1.1l-.1-.1.1-.1c.4-.3.6-.7.6-1.1s-.2-.8-.5-1.1l-.1-.1.1-.1c.4-.4.5-.7.5-1.1s-.2-.9-.5-1.2l-.1-.1.1-.1c.4-.4.6-.8.6-1.4v-.2c.9-4.1 1.8-7.8 3.9-10.7 1.4-2 2.2-4.4 2.2-6.8-.2-3.3-1.7-6.5-4.3-8.8zM37 53.5c-.2.9-1 1.5-2 1.5s-1.8-.6-2-1.5l-.1-.2h4.2l-.1.2zm2.4-1h-8.8c-.4 0-.8-.4-.8-.9s.4-.9.8-.9h8.8c.4 0 .8.4.8.9.1.5-.4.9-.8.9zm0-2.6h-8.9c-.4 0-.8-.4-.8-.9 0-.4.4-.9.8-.9h8.9c.4 0 .8.4.8.9 0 .4-.4.9-.8.9zm-9.7-3.5c0-.4.4-.9.8-.9h8.8c.4 0 .8.4.8.9s-.4.9-.8.9h-8.8c-.4-.1-.8-.5-.8-.9zm14.6-14c-2.2 3.2-3.2 7-4.1 11.1v.3c0 .7-.5.8-1.2.8h-8.2c-.7 0-1.1-.2-1.1-.8v-.4c-.9-3.9-1.8-7.6-4.2-11.1-1.4-2.2-2.1-4.8-1.8-7.3.5-5.2 4.8-9.3 10-9.9.4-.1.9-.1 1.3-.1 2.8 0 5.5 1 7.6 2.8 2.4 2.1 3.7 5.1 3.7 8.3.2 2.3-.6 4.5-2 6.3zM32.2 18.2c-.2 0-.4 0-.4-.2-.1-.3 0-.4.3-.4.4-.1.6-.3 1.1-.3h.1c.3 0 .4.2.4.4 0 .3-.1.4-.4.4-.4.1-.6.1-.9.1h-.2zm-1.8.1c.2 0 .4.1.4.2.1.2.1.4-.2.6-1.4.8-2.5 2-3.1 3.4-.1.2-.3.3-.4.3l-.1-.1c-.1 0-.2-.1-.3-.2-.1-.1-.1-.2 0-.4.7-1.6 1.9-3 3.4-3.8h.3z"/></svg>