<svg xmlns="http://www.w3.org/2000/svg" viewBox="0 0 80 60"><title>hand</title><path d="M49 14.7c.2-.8.4-1.7.4-2.6-.2-5.5-4.7-9.8-10.2-9.6-5.2.2-9.4 4.4-9.6 9.6 0 1.7.4 3.3 1.3 4.8.3.5.8.6 1.3.4.5-.3.6-.8.4-1.3-.7-1.2-1-2.5-1-3.9 0-4.4 3.6-8 8-8s8 3.6 8 8c0 .7-.1 1.4-.3 2.1-.1.5.2 1 .7 1.2.2.1.5 0 .7-.1.1-.2.3-.4.3-.6zm-26.4-2.9c.5 0 1-.4 1-1 0-.5-.4-1-1-1H4.5L8 6.4c.3-.5.1-1.1-.3-1.4-.3-.2-.8-.2-1.1 0l-5.1 5.1c-.1.1-.2.2-.2.3l-.1.1v.6c0 .1.1.3.2.4l5.1 5.1c.3.4.9.6 1.4.3.4-.3.6-.9.3-1.4l-.3-.3-3.4-3.5h18.1zm55.9-.3c.1-.1.2-.2.2-.3v-.7c0-.1-.1-.3-.2-.4L73.4 5c-.4-.4-1-.4-1.4 0-.4.4-.4 1 0 1.4l3.5 3.5H57.4c-.5 0-1 .4-1 1 0 .5.4 1 1 1h18.2L72 15.3c-.4.4-.4 1 0 1.4.4.4 1 .4 1.4 0l5.1-5.2z"/><path d="M67.3 30c0-2.6-2.1-4.8-4.8-4.8-1 0-1.9.3-2.7.8l-.3.2-.1-.4c-.9-2.5-3.6-3.8-6.1-2.9-.4.1-.8.3-1.1.5l-.3.2-.1-.4c-.9-2.5-3.6-3.8-6.1-2.9-.3.1-.6.2-.8.4l-.6.3v-8.9c0-2.6-2.1-4.8-4.8-4.8s-4.8 2.1-4.8 4.8v22.4l-5-3.7c-2.5-1.9-6.1-1.6-8.3.6-1.4 1.4-1.4 3.6 0 5l18.2 18.2c2.1 2.1 4.9 3.3 7.9 3.3h6c7.6 0 13.7-6.2 13.8-13.8V30zm-2 14.1c0 6.5-5.3 11.8-11.8 11.8h-6c-2.5 0-4.8-1-6.6-2.7L22.8 35c-.6-.6-.6-1.6 0-2.3 1.6-1.5 4-1.7 5.8-.4l6.5 4.9c.4.3 1.1.2 1.4-.2.1-.2.2-.3.2-.5V12.1c0-1.6 1.3-2.9 2.9-2.9s2.9 1.3 2.9 2.9v19.2c0 .5.4 1 1 1s1-.4 1-1v-6.4c0-1.6 1.3-2.9 2.9-2.9 1.6 0 2.9 1.3 2.9 2.9v6.4c0 .5.4 1 1 1s1-.4 1-1v-3.8c0-1.6 1.3-2.9 2.9-2.9 1.6 0 2.9 1.3 2.9 2.9v3.8c0 .5.4 1 1 1s1-.4 1-1V30c0-1.6 1.3-2.9 2.9-2.9 1.6 0 2.9 1.3 2.9 2.9l-.6 14.1z"/></svg>