<svg width="50" height="50" xmlns="http://www.w3.org/2000/svg" viewBox="0 0 31.66 31.66"><defs><style>.a{fill:#0090ff}.b{fill:none;stroke:#0090ff;stroke-linecap:round;stroke-miterlimit:10}</style></defs><title>light-sensor</title><path class="a" d="M15.51 22.04a6 6 0 1 1 6-6 6 6 0 0 1-6 6zm0-10.84a4.85 4.85 0 1 0 4.85 4.85 4.86 4.86 0 0 0-4.85-4.86z"/><path class="b" d="M15.83.5v4.76m0 21.12v4.78M8.16 2.55l2.39 4.13M21.1 24.96l2.39 4.14M2.55 8.16l4.13 2.39M24.96 21.1l4.14 2.39M.5 15.83h4.76m21.12 0h4.78M2.55 23.49l4.13-2.38m18.28-10.55l4.14-2.4M8.16 29.1l2.39-4.12M21.1 6.69l2.39-4.14"/></svg>