<svg width="137" height="80" viewBox="0 0 137 80" xmlns="http://www.w3.org/2000/svg"><title>FF0BBAC9-6277-436D-8A5B-C2D646EBF7B4</title><g fill="none" fill-rule="evenodd"><path d="M115.385 66.923V8.462a.723.723 0 0 0-.77-.77H22.308a.723.723 0 0 0-.77.77v58.461a.723.723 0 0 0 .77.77h92.307a.723.723 0 0 0 .77-.77zm-1.539-.77h-90.77V9.232h90.77v56.923z" fill="#0090FF" fill-rule="nonzero"/><path d="M134.615 72.154h-13.077V3.846A3.815 3.815 0 0 0 117.692 0H19.231a3.815 3.815 0 0 0-3.846 3.846v68.308H2.308A2.37 2.37 0 0 0 0 74.462v1.692C0 78 11.385 80 11.538 80h113.847c.153 0 11.538-2 11.538-3.846v-1.692a2.37 2.37 0 0 0-2.308-2.308zM16.923 3.846a2.37 2.37 0 0 1 2.308-2.308h98.461A2.37 2.37 0 0 1 120 3.846v68.308H82.308a1.17 1.17 0 0 0-.616.308c-.154.153-.154.307-.154.615v.154a.723.723 0 0 1-.769.769H56.154a.723.723 0 0 1-.77-.77v-.153a.923.923 0 0 0-.153-.615.8.8 0 0 0-.616-.308H16.923V3.846zm118.462 72a56.754 56.754 0 0 1-10 2.616H11.538a56.754 56.754 0 0 1-10-2.616v-1.384a.723.723 0 0 1 .77-.77h13.538c.154 0 .154.154.308.154s.308 0 .308-.154h37.384A2.462 2.462 0 0 0 56 75.385h24.615a2.138 2.138 0 0 0 2.154-1.693h37.539c.154 0 .154.154.307.154.154 0 .308 0 .308-.154h13.692a.723.723 0 0 1 .77.77v1.384z" fill="#0090FF" fill-rule="nonzero"/><path d="M76.323 40.154c-.785-3.97 2.908-6.308 2.908-6.308a7.215 7.215 0 0 0-3.939-2.661 6.846 6.846 0 0 0-4.938.646 5.508 5.508 0 0 1-1.846.507c-1.785 0-3.077-1.876-6.477-1.03a8 8 0 0 0-5.246 6.507 17.662 17.662 0 0 0 2.446 10.523c1.846 3.185 3.738 4.385 5.061 4.416 1.323.03 2.677-.954 4.293-1.2 1.615-.246 2.6.584 4.169 1.03 1.57.447 2.123 0 3.938-1.538 1.816-1.538 3.462-5.954 3.462-5.954a6.385 6.385 0 0 1-3.846-4.969l.015.03zM72.83 27.17a5.415 5.415 0 0 0 1.155-4.54 8.415 8.415 0 0 0-4.093 2.14 6.154 6.154 0 0 0-1.43 4.46 7.692 7.692 0 0 0 4.307-2.015l.062-.046z" stroke="#0090FF" stroke-linecap="round"/></g></svg>