<svg width="70" height="70" id="Warstwa_1" xmlns="http://www.w3.org/2000/svg" viewBox="0 0 70 70"><style>.st0{fill:#0090ff}</style><path class="st0" d="M35 50.5c-4.4 0-8-3.6-8-8s3.6-8 8-8 8 3.6 8 8-3.6 8-8 8zm0-15.4c-4.1 0-7.5 3.4-7.5 7.5s3.4 7.5 7.5 7.5 7.5-3.4 7.5-7.5-3.4-7.5-7.5-7.5zm-.2-.3h.4v2.9h-.4v-2.9zM29.7 37l2 2-.3.3-2-2 .3-.3zm-2.4 5.4h2.9v.4h-2.9v-.4zm4.1 3.5l.3.3-2 2-.3-.3 2-2zm3.4 1.6h.4v2.9h-.4v-2.9zm3.8-1.6l2 2-.3.3-2-2 .3-.3zm1.3-3.5h2.9v.4h-2.9v-.4zm.4-5.4l.3.3-2 2-.3-.3 2-2zm6.1 19.2H23.6c-1.1 0-2-.9-2-2V31.4c0-1.1.9-2 2-2h22.8c1.1 0 2 .9 2 2v22.8c0 1.1-.9 2-2 2zM23.6 29.9c-.8 0-1.5.7-1.5 1.5v22.8c0 .8.7 1.5 1.5 1.5h22.8c.8 0 1.5-.7 1.5-1.5V31.4c0-.8-.7-1.5-1.5-1.5H23.6zm22.6 0h-3.9v-5.3c0-4-3.3-7.3-7.3-7.3s-7.3 3.3-7.3 7.3v5.3h-3.9v-5.3c0-6.2 5-11.2 11.2-11.2s11.2 5 11.2 11.2v5.3zm-3.5-.4h3.1v-4.9c0-6-4.8-10.8-10.8-10.8s-10.8 4.8-10.8 10.8v4.9h3.1v-4.9c0-4.3 3.5-7.7 7.7-7.7 4.3 0 7.7 3.5 7.7 7.7v4.9zm3.7 26.9H23.6c-1.2 0-2.2-1-2.2-2.2V31.4c0-1.2 1-2.2 2.1-2.2v-4.7c0-6.3 5.1-11.4 11.4-11.4s11.4 5.1 11.4 11.4v4.7c1.2 0 2.1 1 2.1 2.2v22.8c.2 1.2-.8 2.2-2 2.2zM23.6 29.7c-1 0-1.7.8-1.7 1.8v22.8c0 1 .8 1.8 1.8 1.8h22.8c1 0 1.8-.8 1.8-1.8V31.4c0-1-.8-1.7-1.7-1.8.9 0 1.7.8 1.7 1.7v22.8c0 1-.8 1.7-1.7 1.7h-23c-1 0-1.7-.8-1.7-1.7V31.4c0-.9.7-1.7 1.7-1.7zm0 .4c-.7 0-1.3.6-1.3 1.3v22.8c0 .7.6 1.3 1.3 1.3h22.8c.7 0 1.3-.6 1.3-1.3V31.4c0-.7-.6-1.3-1.3-1.3H23.6zm18.9-.4H46h-3.5zm-14.6 0h14.2-14.2zm-3.9 0h3.5H24zm22-.4v-4.7c0-6.1-4.9-11-11-11s-11 4.9-11 11v4.7-4.7c0-6.1 4.9-11 11-11s11 4.9 11 11v4.7zm-3.1 0h2.6v-4.7C45.6 18.8 40.8 14 35 14s-10.6 4.7-10.6 10.6v4.7H27v-4.7c0-4.4 3.6-7.9 7.9-7.9s7.9 3.6 7.9 7.9l.1 4.7zm-.4 0v-4.7c0-4.2-3.4-7.5-7.5-7.5s-7.5 3.4-7.5 7.5v4.7-4.7c0-4.1 3.4-7.5 7.5-7.5s7.5 3.4 7.5 7.5v4.7zm-14.6 0h14.2v-4.7c0-3.9-3.2-7.1-7.1-7.1s-7.1 3.2-7.1 7.1v4.7zM35 50.7c-4.5 0-8.2-3.7-8.2-8.2s3.7-8.2 8.2-8.2 8.2 3.7 8.2 8.2-3.7 8.2-8.2 8.2zm.4-.4c1.8-.1 3.5-.8 4.7-1.9-1.2 1.1-2.9 1.8-4.7 1.9zm-5.6-1.9c1.3 1.1 2.9 1.9 4.7 2-1.7-.2-3.4-.9-4.7-2zm5.2 1.5v-2.2 2.2zm-.4-2.7h.9v2.6c1.7-.1 3.2-.8 4.4-1.8L38 46.2l.6-.6 1.9 1.9c1.1-1.2 1.7-2.7 1.8-4.4h-2.6v-.9h2.6c-.1-1.7-.8-3.2-1.8-4.4l-1.9 1.9-.6-.7 1.8-1.9c-1.2-1.1-2.7-1.7-4.4-1.8v2.6h-.9v-2.6c-1.7.1-3.2.8-4.4 1.8L32 39l-.6.6-1.9-1.9c-1.1 1.2-1.7 2.7-1.8 4.4h2.6v.9h-2.6c.1 1.7.8 3.2 1.8 4.4l1.9-1.9.6.6-1.9 1.9c1.2 1.1 2.7 1.7 4.4 1.8l.1-2.6zm4-1l1.6 1.6-1.6-1.6zm-8.8 1.5s0 .1 0 0l1.6-1.6-1.6 1.6zm11 0c1.2-1.3 1.9-2.9 2-4.7-.2 1.8-.9 3.5-2 4.7zM27.3 43c.1 1.8.8 3.5 2 4.7-1.2-1.2-1.9-2.9-2-4.7zm12.8-.4h2.2-2.2zm-12.4 0h2.2-2.2zm15-.4c-.1-1.8-.8-3.5-1.9-4.7 1.1 1.2 1.8 2.8 1.9 4.7zm-15.4 0c.1-1.8.8-3.5 2-4.7-1.2 1.2-1.9 2.8-2 4.7zm2.5-4.8l1.6 1.6-1.6-1.6zm8.8 1.6l1.6-1.6-1.6 1.6zM35 37.5v-2.2 2.2zm.4-2.6c1.8.1 3.5.8 4.7 2-1.2-1.2-2.9-2-4.7-2zm-5.6 1.9c1.3-1.1 2.9-1.8 4.7-1.9-1.7 0-3.4.8-4.7 1.9z"/></svg>