<svg xmlns="http://www.w3.org/2000/svg" width="70" height="70" viewBox="0 0 70 70"><defs><style>.a{fill:#0090ff}</style></defs><title>icon</title><path class="a" d="M45.83 11.53A16.49 16.49 0 0 0 35 7.5a16.94 16.94 0 0 0-1.79.09 16.08 16.08 0 0 0-14.28 14 15.23 15.23 0 0 0 2.53 10.33 31.79 31.79 0 0 1 5.28 14.21l.07.56a2.81 2.81 0 0 0 .81 1.68l.13.13-.13.12a2.24 2.24 0 0 0-.8 1.72 2.15 2.15 0 0 0 .66 1.52l.12.12-.12.12a2.07 2.07 0 0 0 0 3l.12.12-.12.12A2.29 2.29 0 0 0 29 59.26h1.91v.07a4.06 4.06 0 0 0 7.92 0v-.09h1.91a2.28 2.28 0 0 0 2.25-2.31 2.22 2.22 0 0 0-.66-1.55l-.12-.13.12-.12a2.07 2.07 0 0 0 0-3L42.3 52l.12-.12a2.15 2.15 0 0 0 .66-1.52 2.33 2.33 0 0 0-.66-1.59l-.12-.12.06-.12a2.35 2.35 0 0 0 .87-1.81v-.27c1.16-5.32 2.3-10.18 5.08-14.09a15.5 15.5 0 0 0 2.92-9 15.72 15.72 0 0 0-5.4-11.83zm-8.19 47.9a2.75 2.75 0 0 1-2.72 2 2.8 2.8 0 0 1-2.72-2l-.07-.19h5.57zm3.11-1.34H29.1a1.16 1.16 0 0 1 0-2.32h11.72a1.17 1.17 0 0 1 1.09 1.16 1.19 1.19 0 0 1-1.16 1.16zm.07-3.48H29.1a1.16 1.16 0 0 1 0-2.32h11.72a1.16 1.16 0 0 1 0 2.32zM28 50a1.17 1.17 0 0 1 1.1-1.2h11.65a1.16 1.16 0 0 1 0 2.32H29.1A1.17 1.17 0 0 1 28 50zm19.35-18.32c-2.93 4.14-4.14 9.2-5.3 14.63v.27c0 .88-.66 1.06-1.58 1.06h-10.8c-.89 0-1.55-.21-1.55-1.05v-.51C27 41 25.71 36.07 22.59 31.39a14.75 14.75 0 0 1-2.41-9.63 14.77 14.77 0 0 1 13.2-13 13.59 13.59 0 0 1 1.71-.07 15 15 0 0 1 10 3.74A14.59 14.59 0 0 1 50 23.35a13.85 13.85 0 0 1-2.65 8.33zM31.23 12.8c-.21 0-.5 0-.55-.26s0-.47.39-.59a4.78 4.78 0 0 1 1.4-.32h.11a.57.57 0 0 1 .56.44c.05.33-.16.53-.5.59a7.14 7.14 0 0 1-1.21.14zm-2.23.09a.7.7 0 0 1 .54.24.56.56 0 0 1-.23.77 9.9 9.9 0 0 0-4 4.54.62.62 0 0 1-.56.34h-.23a.52.52 0 0 1-.32-.27.55.55 0 0 1 0-.43 10.57 10.57 0 0 1 4.55-5 .6.6 0 0 1 .25-.19z"/></svg>