<svg xmlns="http://www.w3.org/2000/svg" width="70" height="70" viewBox="0 0 70 70"><defs><style>.a,.b{fill:none;stroke:#0090ff;stroke-miterlimit:10}.a{stroke-width:1.5px}.c{clip-path:url(#a)}.d{clip-path:url(#b)}</style><clipPath id="a"><circle class="a" cx="50.8" cy="48.36" r="11.8"/></clipPath><clipPath id="b"><circle class="a" cx="19.21" cy="48.36" r="11.8" transform="rotate(-45 19.212 48.362)"/></clipPath></defs><title>icon</title><circle class="a" cx="35" cy="21.64" r="11.8"/><circle class="b" cx="50.8" cy="48.36" r="11.8"/><g class="c"><path class="b" d="M41.29 35.95v24.83m2.72-24.83v24.83m2.71-24.83v24.83m2.72-24.83v24.83m2.72-24.83v24.83m2.72-24.83v24.83m2.72-24.83v24.83m2.71-24.83v24.83"/></g><circle class="a" cx="50.8" cy="48.36" r="11.8"/><circle class="b" cx="19.2" cy="48.36" r="11.8" transform="rotate(-45 19.195 48.37)"/><g class="d"><path class="b" d="M3.7 46.32l17.55 17.55M5.62 44.4l17.56 17.55M7.54 42.47L25.1 60.03M9.47 40.55l17.55 17.56M11.39 38.63l17.55 17.55M13.31 36.71l17.55 17.55M15.23 34.79l17.56 17.55M17.15 32.86l17.56 17.56M21.25 32.86L3.7 50.42m19.48-15.63L5.62 52.34M25.1 36.71L7.54 54.26m19.48-15.63L9.47 56.18m19.47-15.63L11.39 58.11m19.47-15.64L13.31 60.03M32.79 44.4L15.23 61.95m19.48-15.63L17.15 63.87"/></g><circle class="a" cx="19.21" cy="48.36" r="11.8" transform="rotate(-45 19.212 48.362)"/></svg>