<svg xmlns="http://www.w3.org/2000/svg" width="70" height="70" viewBox="0 0 70 70"><defs><style>.a{fill:none;stroke:#0090ff;stroke-miterlimit:10}</style></defs><title>icon</title><path class="a" d="M39 17c-4.5-9.21-16.71-6.56-18.9 1.62m2.57 2.68c-9.53 0-9.58 11.46-1.56 12.15m24.81 4.31c6.49 2.51 12.09-5.4 6.46-10.4m-27.09 3.51c-7.2 4.68 5.22 11.1 7.78 5.62m5.78-12.88c6.49-1.61 8 5.15 4.06 7.78m-13.57-4.01c-2.23-5.32-.55-7.32 2.2-7.68m21.02 3.84c4.87-7.77-5.2-15.54-13.83-12.86m-4.32 20.38c16 11.51-15.11 11.51-1.55 21.4m3.92 7.39c9.42-7.33-7.09-12.56 6.4-17.85"/></svg>