<svg id="Warstwa_2" xmlns="http://www.w3.org/2000/svg" viewBox="0 0 700 1000"><style>.st0{fill:none;stroke:#ccc;stroke-width:17.0079;stroke-linecap:round;stroke-linejoin:round;stroke-miterlimit:10}</style><path class="st0" d="M296.5 631.1l-77.8 77.8c-21.4 21.4-56.4 21.4-77.8 0s-21.4-56.4 0-77.8l77.8-77.8c7.8 7.8 21.4 7.8 29.1 0 7.8-7.8 7.8-21.4 0-29.1l19.4-19.4 77.8 77.8-19.4 19.4c-7.8-7.8-21.4-7.8-29.1 0-7.7 7.6-7.7 21.2 0 29.1zM248 601.9L179.9 670l68.1-68.1zm50.5-222.7c7.8-27.2 0-58.3-21.4-79.7-25.2-25.2-63.2-31.1-94.3-16.6l55.4 55.4c10.7 10.7 10.7 28.2 0 38.9s-28.2 10.7-38.9 0l-55.4-55.4c-14.6 31.1-9.7 69.1 16.6 94.3 21.4 21.4 52.5 29.1 79.7 21.4l75.8 75.8 58.3-58.3-75.8-75.8zm172.1 172.1l-75.8-75.8-58.3 58.3 75.8 75.8c-7.8 27.2 0 58.3 21.4 79.7 25.2 25.2 63.2 31.1 94.3 16.6l-55.4-55.4c-10.7-10.7-10.7-28.2 0-38.9s28.2-10.7 38.9 0l55.4 55.5c14.6-31.1 9.7-69.1-16.6-94.3-21.3-22.4-52.5-29.3-79.7-21.5z"/><path class="st0" d="M316 553.2l-19.5-19.4 166.4-166.2 9.7-29.3 38.8-38.8 38.9 38.8-38.9 39-29.1 9.7z"/></svg>