<svg xmlns="http://www.w3.org/2000/svg" viewBox="0 0 86 72"><defs><style>.a{fill:#0090ff}</style></defs><title>pr-dept</title><path class="a" d="M14.81 0a1 1 0 0 0-.5.28l-14 14A1 1 0 0 0 0 15v56a1 1 0 0 0 1 1h84a1 1 0 0 0 1-1V1a1 1 0 0 0-1-1zM16 2h68v68H2V16h13a1 1 0 0 0 1-1zm-2 1.41V14H3.41zM20 11v2h50v-2zm-4.41 11A7.55 7.55 0 0 0 8 29.5v23a7.55 7.55 0 0 0 7.59 7.5h16.82A7.55 7.55 0 0 0 40 52.5v-23a7.55 7.55 0 0 0-7.59-7.5zM45 23v2h34v-2zm-29.41 1h16.82A5.51 5.51 0 0 1 38 29.5v23a5.51 5.51 0 0 1-5.59 5.5H15.59A5.51 5.51 0 0 1 10 52.5v-23a5.51 5.51 0 0 1 5.59-5.5zM24 28.5a5 5 0 1 0 5 5 5 5 0 0 0-5-5zm0 2a3 3 0 1 1-3 3 3 3 0 0 1 3-3zm21 .5v2h34v-2zm0 8v2h34v-2zm-21 2.5a11 11 0 0 0-11 11h2a9 9 0 0 1 18 0h2a11 11 0 0 0-11-11zM45 47v2h34v-2zm0 8v2h26v-2z"/></svg>