<svg width="25" height="33" viewBox="0 0 25 33" xmlns="http://www.w3.org/2000/svg"><title>shopping-bag</title><g fill="#FFF" fill-rule="evenodd"><path d="M24.313 33H.688a.5.5 0 0 1-.5-.524L1.313 8.851a.5.5 0 0 1 .5-.476h21.375a.5.5 0 0 1 .5.476l1.125 23.625a.5.5 0 0 1-.5.524zM1.212 32h22.576L22.711 9.375H2.289L1.212 32z"/><path d="M17.905 11.375a.5.5 0 0 1-.5-.5v-4.97A4.91 4.91 0 0 0 12.5 1a4.91 4.91 0 0 0-4.905 4.905v4.97a.5.5 0 0 1-1 0v-4.97A5.912 5.912 0 0 1 12.5 0a5.912 5.912 0 0 1 5.905 5.905v4.97a.5.5 0 0 1-.5.5z"/></g></svg>