<svg xmlns="http://www.w3.org/2000/svg" width="194.36" height="49.5" viewBox="0 0 194.36 49.5"><title>siri-wave</title><g style="isolation:isolate"><path d="M148.52 15.53c-11.48 0-15.89 5.74-24.37 5.74S110.91 8.75 96.6 8.75s-21 14.09-28.79 13.91-8.81-2.08-23.13-2.08S0 24.75 0 24.75s30.38 4.17 44.68 4.17S60 27 67.82 26.84 82.3 40.75 96.6 40.75s19.07-12.52 27.55-12.52S137 34 148.52 34s14.13-6.26 19.25-6.26 26.49-3 26.49-3-21.37-3-26.49-3-7.77-6.21-19.25-6.21z" style="mix-blend-mode:overlay" fill="#0fedb8"/><path d="M168.83 23.75c-5.08-.88-7.91-4.65-19.19-4.33-10.1.28-12.6-2.87-21.07-2.87s-5.84-5.69-15.54-7.8c-13.78-3-23.31 11.7-32.85 11.75-7.6 0-11.83-8.83-20.66-7.58C51.78 14 54.36 21 40.09 22.5 29.89 23.54 0 24.75 0 24.75h.15S30 26 40.24 27c14.27 1.45 11.69 8.49 19.43 9.58C68.5 37.83 72.74 29 80.33 29c9.54.06 19.07 14.75 32.85 11.75 9.7-2.11 7.06-7.8 15.54-7.8s11-3.15 21.07-2.87c11.28.32 14.11-3.45 19.19-4.33 5.59-1 24.22-1 25.37-1h-.1s-19.65 0-25.42-1z" style="mix-blend-mode:overlay" fill="#ea11b2" opacity=".8"/><path d="M176.72 21.75c-4-1.22-7.65-4.83-11.66-5-5.12-.21-4.38 3.35-15.66 3.67-10.1.28-8.12-13.92-17.07-14.33C123 5.65 119.45 22 109.64 22.15 99.62 22.33 90.07-.06 80.53 0 72.93 0 68.76 16.93 63 16.75c-7.77-.25-6.51 2.88-20.78 4.33C32.07 22.12 0 24.75 0 24.75s32.07 2.63 42.27 3.67C56.54 29.87 55.28 33 63 32.75c5.71-.18 9.89 16.71 17.48 16.75 9.54.06 19.09-22.33 29.1-22.15 9.82.17 13.39 16.5 22.7 16.07 8.95-.42 7-14.62 17.07-14.33 11.28.32 10.54 3.88 15.66 3.67 4-.17 7.68-3.78 11.66-5 6.87-2.12 17.54-3 17.54-3s-10.62-.89-17.49-3.01z" style="mix-blend-mode:overlay" fill="#0092ff" opacity=".8"/></g></svg>