<svg xmlns="http://www.w3.org/2000/svg" width="750.74" height="310.27" viewBox="0 0 750.74 310.27"><defs><style>.a{fill:#224770}</style></defs><title>z-wave-logo</title><path class="a" d="M639.46 172.93h62.58v25.4h-29.58v9h26.86v24h-26.84v9.82h30.36v25.4l-63.37-.07.09-93.59m-109.84-.12h36.4l9.92 33.92a108.91 108.91 0 0 1 4.56 22.13h.65a132.9 132.9 0 0 1 4.75-21.26l10.5-34.68h35.73l-35.7 93.57h-31.3zm-29.49 59.53l-2.87-10.61a95.87 95.87 0 0 1-3.77-20.56h-.65c-.53 9-2.5 15.58-3.81 20.56l-2.9 10.6zm-25.21-59.58h37.45l32.53 93.7h-36.13l-3-11.79h-25.38l-2.89 11.78h-36.15zm-93.58 61.55l-7.11 32H345l-27.29-93.63h33.77l7.29 41.25a127.63 127.63 0 0 1 2.08 18.45h.79a91.75 91.75 0 0 1 2.23-16l9-43.71h23.7l8.86 43.72a93 93 0 0 1 2.23 16h.77a130.27 130.27 0 0 1 2.1-18.43l7.38-41.23h33.78l-27.48 93.58h-29.33l-7-31.95a93.14 93.14 0 0 1-2.61-15.44h-1.19a92.5 92.5 0 0 1-2.64 15.39M221.69 88.98v-29.9c-89.69 0-162.6 72.95-162.6 162.61H89c0-73.18 59.53-132.71 132.7-132.71m0-59.09V0C99.45 0 0 99.45 0 221.69h29.89c0-105.76 86-191.8 191.8-191.8m26.56 234.93h-75.13l40.65-63.74h-39l16.87-27.05h74l-39.5 62.87h39.51zm-26.56-131.7a88.57 88.57 0 1 0 88.57 88.57 88.56 88.56 0 0 0-88.57-88.57m512.86 53.15h1.54c1.9 0 2.85-.67 2.85-2.06 0-1.54-1-2.18-3.09-2.18h-1.31v4.24m2-7c4.55 0 6.85 1.63 6.85 4.59a4.33 4.33 0 0 1-3.39 4.31l3.52 7h-4.79l-3-6.3h-1.27v6.3h-4.35v-15.9zm-8.47-.28a11.93 11.93 0 0 0-3.56 8.51 11.9 11.9 0 0 0 11.76 11.8 12 12 0 0 0 8.35-3.4 11.91 11.91 0 0 0 .18-16.63 11.65 11.65 0 0 0-8.47-3.56 11.44 11.44 0 0 0-8.23 3.32m18.61-1.58a14.17 14.17 0 0 1 4 10.09 14 14 0 0 1-4.28 10.25 14.66 14.66 0 0 1-10.17 4.2 14.15 14.15 0 0 1-10.25-4.4 14.31 14.31 0 0 1-4.16-10.06 14.54 14.54 0 0 1 4.39-10.37 14 14 0 0 1 10-4.08 14.25 14.25 0 0 1 10.41 4.36"/></svg>