<svg width="171" height="28" viewBox="0 0 171 28" xmlns="http://www.w3.org/2000/svg"><title>MainLogo</title><path d="M167.119 2.824h.32c.382 0 .684-.125.684-.431 0-.271-.196-.447-.626-.447-.18 0-.308.015-.378.036v.842zm-.021 1.654h-.683V1.53c.27-.036.648-.092 1.132-.092.562 0 .812.092 1.011.234a.75.75 0 0 1 .304.631c0 .36-.27.594-.613.7v.035c.29.09.434.326.522.723.091.45.166.61.217.717h-.717c-.093-.107-.148-.358-.234-.717-.053-.306-.235-.449-.615-.449h-.324v1.166zm-1.814-1.528c0 1.314.989 2.355 2.301 2.355 1.277.022 2.248-1.04 2.248-2.335 0-1.316-.97-2.375-2.286-2.375-1.274 0-2.263 1.06-2.263 2.355zm5.306 0c0 1.654-1.332 2.969-3.025 2.969-1.69 0-3.037-1.315-3.037-2.97 0-1.654 1.348-2.949 3.057-2.949 1.673 0 3.005 1.295 3.005 2.95zM27.603.247h22.472V4.93h-8.579v22.865h-5.314V4.93h-8.579zm29.005 17.198h9.681l-4.801-11.57-4.88 11.57zm14.01 10.35l-2.44-5.824H54.72l-2.44 5.824h-5.47L58.89.246h5.47l11.925 27.549h-5.668zM78.843.247h6.021l9.13 17.749 9.052-17.75h6.022v27.55h-4.841V8.038l-8.58 16.923h-3.384l-8.62-16.923v19.756h-4.8zm36.206 0h20.189V4.85h-14.915v6.808h13.38v4.605h-13.38v6.927h15.387v4.604h-20.661zM156.39 21.99a8.233 8.233 0 0 0 3.169-3.227c.761-1.377 1.141-2.945 1.141-4.703 0-1.757-.393-3.338-1.18-4.742a8.376 8.376 0 0 0-3.248-3.267c-1.376-.773-2.918-1.16-4.623-1.16h-6.1v18.26h6.297c1.679 0 3.194-.387 4.545-1.16m2.736-19.993c2.176 1.168 3.882 2.8 5.115 4.9 1.234 2.1 1.85 4.473 1.85 7.123 0 2.65-.624 5.018-1.87 7.103-1.246 2.086-2.97 3.72-5.175 4.9-2.204 1.18-4.71 1.77-7.516 1.77h-11.256V.248h11.452c2.756 0 5.221.583 7.4 1.751M22.023 3.275a27.654 27.654 0 0 1-6.643 2.819c-.894.255-1.809.464-2.74.631-1.751.318-3.56.479-5.4.479A30.02 30.02 0 0 1 .4 6.417L11.747.847l1.042-.6 2.187.605 7.046 2.423zm1.348 2.417l-.032.1.006-.04a30.543 30.543 0 0 1-7.326 3.079c.474 2.579.598 5.268.343 8.001a28.893 28.893 0 0 1-3 10.407l7.537-4.423a26.917 26.917 0 0 0 2.79-9.68 27.276 27.276 0 0 0-.318-7.444M13.28 9.462a33.23 33.23 0 0 1-6.039.55A32.83 32.83 0 0 1 0 9.206v12.943l9.822 5.668a26.01 26.01 0 0 0 3.744-11.245 26.559 26.559 0 0 0-.285-7.11" fill="#999" fill-rule="evenodd"/></svg>