<svg width="94" height="69" viewBox="0 0 94 69" xmlns="http://www.w3.org/2000/svg"><title>F118CB7E-1F27-42E4-8A7D-449A5CE1EAC5</title><g fill-rule="nonzero" fill="#0090FF"><path d="M3.27 48.56a6.244 6.244 0 0 1 2.492-3.374c.49-.294 3.276-1.4 5.754-2.282 3.08-1.19 6.356-2.38 7.644-3.08a5.964 5.964 0 0 0 2.478-4.074 7 7 0 0 0 0-1.484 2.968 2.968 0 0 0-.392-.798l-.098-.098-.49-.49a15.792 15.792 0 0 1-3.374-6.16c-.896-3.374-1.582-10.024 1.4-14.098a9.576 9.576 0 0 1 7.742-3.472h.294c1.526.067 3.032.37 4.466.896.196-.602.392-1.19.602-1.89a16.268 16.268 0 0 0-4.074-.994v-.098h-2.296v.098a10.794 10.794 0 0 0-8.4 4.2c-4.2 5.754-1.988 14.798-1.792 15.792a18.382 18.382 0 0 0 3.878 7l.49.49c0 .054.044.098.098.098v.7a3.64 3.64 0 0 1-1.484 2.576c-1.092.602-4.466 1.89-7.35 2.982-3.374 1.288-5.46 2.086-6.16 2.478a8.288 8.288 0 0 0-3.276 4.368C.624 49.834.33 58.864.33 59.158v.196l.098.098c.294.798 1.988 2.884 12.11 3.878 0-.392.098-1.092.196-1.988-7.742-.7-9.926-2.086-10.43-2.478.182-1.47.476-8.904.966-10.304z"/><path d="M78.73 62.658c-.294-4.76-.602-9.8-1.19-11.522a9.282 9.282 0 0 0-3.57-4.858 65.268 65.268 0 0 0-7.546-3.08c-3.878-1.484-7.84-2.982-9.338-3.766-1.498-.784-2.478-4.368-2.38-5.6.239-.493.577-.932.994-1.288a22.05 22.05 0 0 0 4.564-8.4c1.19-4.368 2.086-13.3-1.988-18.858-2.282-3.08-5.964-4.76-10.724-4.97h-.49c-4.76.196-8.4 1.792-10.724 4.97-4.074 5.46-3.178 14.392-1.988 18.858a21.882 21.882 0 0 0 4.312 8.232l.098.098c.37.398.702.83.994 1.288.392 1.288-1.092 4.76-2.478 5.6a72.1 72.1 0 0 1-9.436 3.766 79.618 79.618 0 0 0-7.378 2.954 8.4 8.4 0 0 0-3.57 4.858c-.602 1.694-.896 6.846-1.19 11.62.035.335.002.673-.098.994v.49l.294.294c1.092.994 6.552 4.368 31.374 4.368 24.514.014 30.17-3.346 31.262-4.466l.392-.294v-.49c-.196 0-.196-.308-.196-.798zm-31.57 4.2c-22.148 0-28.294-2.8-29.582-3.668v-.49c.098-2.38.49-9.436 1.092-11.018a6.454 6.454 0 0 1 2.884-3.878c.602-.392 4.466-1.89 7.154-2.884a103.432 103.432 0 0 0 9.632-3.878c1.988-1.19 4.2-5.6 3.276-7.938a7.28 7.28 0 0 0-1.4-1.988 21.126 21.126 0 0 1-4.074-7.448C35.05 19.594 34.154 11.46 37.836 6.49c1.89-2.576 5.068-3.976 9.24-4.2h.392c4.2.098 7.252 1.484 9.142 4.2 3.668 4.858 2.8 13.104 1.694 17.178a20.258 20.258 0 0 1-4.074 7.448c-.994 1.092-1.484 1.694-1.484 2.576 0 1.484 1.092 5.964 3.472 7.35 1.694.896 5.754 2.478 9.8 3.976 2.576.994 6.454 2.38 7 2.8a6.86 6.86 0 0 1 2.884 3.878c.602 1.582.896 8.638 1.092 10.92v.49c-1.638 1.148-7.784 3.822-29.834 3.822v-.07z"/><path d="M93.724 58.682c0-.196-.294-9.24-1.092-11.326a8.176 8.176 0 0 0-3.276-4.396 37.128 37.128 0 0 0-6.16-2.478 76.706 76.706 0 0 1-7.35-2.982 4.018 4.018 0 0 1-1.484-2.576v-.7l.098-.098.49-.49a18.956 18.956 0 0 0 3.878-7c.294-.994 2.478-10.024-1.792-15.792a11.102 11.102 0 0 0-8.4-4.2v-.098h-2.212v.014c-1.403.107-2.78.443-4.074.994.26.61.462 1.242.602 1.89a10.57 10.57 0 0 1 4.466-.896h.294a9.576 9.576 0 0 1 7.742 3.472c2.982 4.074 2.282 10.822 1.4 14.098a15.792 15.792 0 0 1-3.374 6.16l-.49.49-.098.098c-.17.245-.302.514-.392.798-.103.49-.103.995 0 1.484a5.334 5.334 0 0 0 2.478 4.074c1.288.7 4.466 1.89 7.644 3.08 2.478.896 5.264 1.988 5.754 2.282a6.258 6.258 0 0 1 2.478 3.374c.49 1.4.798 8.834.896 10.43-.49.392-2.674 1.792-10.43 2.576.098.798.098 1.484.196 1.988 10.122-.994 11.816-3.178 12.11-3.878l.098-.196v-.196z"/></g></svg>