<?xml version="1.0" encoding="UTF-8"?>
<svg width="24px" height="28px" viewBox="0 0 24 28" version="1.1" xmlns="http://www.w3.org/2000/svg" xmlns:xlink="http://www.w3.org/1999/xlink">
    <!-- Generator: Sketch 43.2 (39069) - http://www.bohemiancoding.com/sketch -->
    <title>MainLogo</title>
    <desc>Created with Sketch.</desc>
    <defs></defs>
    <g id="Expertos-Inicio" stroke="none" stroke-width="1" fill="none" fill-rule="evenodd">
        <g id="iPhone-7" transform="translate(-176.000000, -9.000000)">
            <g id="MainLogo" transform="translate(176.000000, 9.000000)">
                <path d="M22.0228918,3.27498026 C19.9708918,4.48665837 17.7383511,5.43706609 15.3803124,6.09391159 C14.4856815,6.34857682 13.5712352,6.55847382 12.6406429,6.72507039 C10.8888103,7.0428515 9.07973305,7.20357682 7.24056567,7.20357682 C4.90894764,7.20357682 2.61255708,6.93496738 0.399097854,6.41683004 L11.7482137,0.846486695 L12.7896258,0.246885837 L14.9766644,0.85235794 L22.0228918,3.27498026 Z" id="Fill-34" fill="#1D70B7"></path>
                <path d="M23.371003,5.69173133 L23.3394451,5.79227639 L23.3445824,5.75191159 C21.0775481,7.07954678 18.6160288,8.11508755 16.0194708,8.83064549 C16.4928399,11.4095897 16.61687,14.0986197 16.3622047,16.832418 C16.0172691,20.5342378 14.9758571,24.0643236 13.3619987,27.2391991 L20.899209,22.8159502 C22.399312,19.8619803 23.3680674,16.5784867 23.689518,13.1357356 C23.9258356,10.5920189 23.8106124,8.09013476 23.371003,5.69173133" id="Fill-35" fill="#1D70B7"></path>
                <path d="M13.2805352,9.46195107 C11.3188056,9.82450043 9.29762961,10.0116464 7.24122618,10.0116464 C4.77897296,10.0116464 2.34827768,9.73716567 -0.000220171674,9.20581803 L-0.000220171674,22.1489768 L9.8216382,27.8169296 C11.8707026,24.502612 13.1836597,20.6540112 13.5660245,16.5720283 C13.7920674,14.1435348 13.6878528,11.7546721 13.2805352,9.46195107" id="Fill-36" fill="#FFFFFF"></path>
            </g>
        </g>
    </g>
</svg>