<svg xmlns="http://www.w3.org/2000/svg" width="82" height="82" viewBox="0 0 82 82">
    <g fill="none" fill-rule="evenodd" transform="translate(1 1)">
        <circle cx="40" cy="40" r="40" stroke="#0090FF" stroke-width="2"/>
        <path fill="#0090FF" d="M39.667 37.188c1.18 0 2.205.416 3.073 1.25.868.833 1.302 1.84 1.302 3.02s-.434 2.188-1.302 3.021c-.868.834-1.893 1.25-3.073 1.25s-2.205-.416-3.073-1.25c-.868-.833-1.302-1.84-1.302-3.02 0-1.181.434-2.188 1.302-3.022.868-.833 1.892-1.25 3.073-1.25zm13.02 4.27c0 2.292-.607 4.427-1.822 6.407-1.216 1.979-2.796 3.559-4.74 4.74l-2.083-3.75c2.847-1.598 4.27-4.063 4.27-7.397 0-2.36-.85-4.375-2.552-6.041-1.701-1.667-3.732-2.5-6.093-2.5-2.361 0-4.393.833-6.094 2.5-1.701 1.666-2.552 3.68-2.552 6.041 0 3.334 1.423 5.799 4.27 7.396l-2.083 3.75c-1.944-1.18-3.524-2.76-4.74-4.74-1.215-1.979-1.822-4.114-1.822-6.406 0-3.541 1.267-6.58 3.802-9.114 2.535-2.535 5.608-3.802 9.219-3.802 3.61 0 6.684 1.267 9.218 3.802 2.535 2.534 3.803 5.573 3.803 9.114zM39.668 20c5.972 0 11.076 2.1 15.312 6.302 4.236 4.201 6.354 9.254 6.354 15.156 0 3.89-.99 7.466-2.968 10.73-1.98 3.263-4.601 5.868-7.865 7.812l-2.188-3.75c2.64-1.458 4.74-3.507 6.303-6.146 1.562-2.639 2.343-5.52 2.343-8.646 0-4.722-1.684-8.767-5.052-12.135-3.368-3.368-7.448-5.052-12.24-5.052-4.791 0-8.87 1.684-12.239 5.052-3.368 3.368-5.052 7.413-5.052 12.135 0 3.125.781 5.99 2.344 8.594a17.395 17.395 0 0 0 6.302 6.198L28.833 60c-3.264-1.944-5.885-4.549-7.864-7.813C18.989 48.925 18 45.347 18 41.459c0-5.902 2.118-10.955 6.354-15.156C28.59 22.101 33.694 20 39.667 20z"/>
    </g>
</svg>
