<?xml version="1.0" encoding="utf-8"?>
<!-- Generator: Adobe Illustrator 21.0.2, SVG Export Plug-In . SVG Version: 6.00 Build 0)  -->
<svg version="1.1" id="Layer_1" xmlns="http://www.w3.org/2000/svg" xmlns:xlink="http://www.w3.org/1999/xlink" x="0px" y="0px"
	 viewBox="0 0 50 50" style="enable-background:new 0 0 50 50;" xml:space="preserve">
<style type="text/css">
	.st0{fill:#FFFFFF;}
</style>
<title>play-icon</title>
<path class="st0" d="M25,1.3C11.9,1.3,1.3,11.9,1.3,25S11.9,48.7,25,48.7S48.7,38.1,48.7,25l0,0l0,0C48.7,11.9,38.1,1.3,25,1.3z
	 M36.3,26.1l-16.8,9.7c-0.6,0.4-1.4,0.2-1.8-0.4c-0.1-0.2-0.2-0.5-0.2-0.7V15.3c0-0.7,0.6-1.3,1.3-1.3c0.2,0,0.5,0.1,0.7,0.2
	l16.8,9.7c0.6,0.4,0.8,1.2,0.5,1.8C36.7,25.9,36.5,26,36.3,26.1z"/>
</svg>
