<svg xmlns="http://www.w3.org/2000/svg" width="49" height="60" viewBox="0 0 49 60">
    <path fill="#0090FF" fill-rule="evenodd" d="M47.671 8.395c.392.392.685.822.88 1.292.197.47.294.959.294 1.468v9.393c0 8.689-1.193 15.616-3.58 20.783-2.388 5.166-5.04 9.12-7.956 11.859-2.916 2.74-5.636 4.54-8.16 5.401-2.525.861-3.904 1.311-4.14 1.35-.117.04-.234.059-.351.059h-.646c-.118 0-.235-.02-.353-.059-.234-.039-1.604-.489-4.11-1.35-2.504-.861-5.205-2.661-8.1-5.401-2.897-2.74-5.53-6.693-7.897-11.86C1.184 36.165 0 29.238 0 20.549v-9.393c0-.51.098-.998.294-1.468.195-.47.489-.88.88-1.233a3.483 3.483 0 0 1 1.204-.793c.45-.176.91-.264 1.38-.264h.234c.04 0 .196.01.47.03.274.02.646.029 1.115.029.783 0 1.879-.049 3.288-.147a25.629 25.629 0 0 0 4.286-.675c2.23-.548 4.285-1.673 6.164-3.376C21.194 1.556 22.172.685 22.25.646a2.99 2.99 0 0 1 .999-.5A4.15 4.15 0 0 1 24.364 0c.352 0 .704.049 1.057.147.352.098.685.264.998.499.626.391 1.869 1.37 3.728 2.935 1.859 1.566 3.728 2.583 5.606 3.053 1.449.352 2.867.577 4.257.675 1.39.098 2.475.147 3.258.147.47 0 .842-.01 1.116-.03.274-.019.43-.029.47-.029h.234c.47 0 .93.088 1.38.264.45.177.851.421 1.203.734zm-2.583 12.153v-9.393l-.499.029c-.333.02-.773.03-1.32.03-1.019 0-2.28-.06-3.788-.177a29.317 29.317 0 0 1-4.667-.763c-2.583-.626-4.97-1.869-7.162-3.728l-3.288-2.789-3.2 2.789c-2.133 1.86-4.49 3.102-7.074 3.728-1.605.391-3.17.646-4.697.763-1.526.118-2.798.176-3.816.176-.548 0-.988-.01-1.32-.029l-.5-.03v9.394c0 8.023 1.067 14.393 3.2 19.11 2.133 4.716 4.491 8.297 7.074 10.743 2.583 2.446 4.951 4.031 7.104 4.756l3.229 1.086 3.229-1.086c2.153-.725 4.53-2.31 7.133-4.756 2.603-2.446 4.98-6.027 7.133-10.743 2.153-4.717 3.23-11.087 3.23-19.11z"/>
</svg>
