<svg width="55" height="55" viewBox="0 0 55 55" xmlns="http://www.w3.org/2000/svg"><title>5F3EAF0F-B9D0-4EE2-9625-8F8A46666781</title><g stroke="#0090FF" fill="none" fill-rule="evenodd" stroke-linecap="round" stroke-linejoin="round"><path d="M21.23 42.892l-9.142 9.143a6.465 6.465 0 0 1-9.143-9.143l9.143-9.142c.916.916 2.515.916 3.42 0 .904-.917.916-2.515 0-3.42l2.28-2.28 9.142 9.143-2.28 2.28c-.916-.917-2.515-.917-3.42 0-.904.893-.904 2.49 0 3.42z"/><path d="M15.53 39.46l-8.002 8.004 8.003-8.003zM21.466 13.29c.916-3.197 0-6.851-2.515-9.366A9.835 9.835 0 0 0 7.869 1.973l6.51 6.51a3.233 3.233 0 0 1-4.571 4.572l-6.51-6.51c-1.716 3.654-1.14 8.12 1.95 11.081 2.515 2.515 6.17 3.42 9.366 2.515l8.908 8.908 6.851-6.851-8.907-8.908zM41.69 33.515l-8.908-8.908-6.85 6.851 8.907 8.908c-.917 3.196 0 6.85 2.515 9.366a9.835 9.835 0 0 0 11.082 1.95l-6.51-6.51a3.233 3.233 0 0 1 4.57-4.571l6.511 6.522c1.716-3.655 1.14-8.12-1.95-11.082a9.37 9.37 0 0 0-9.367-2.526z"/><path d="M23.522 33.738l-2.292-2.28 19.555-19.531 1.14-3.444 4.56-4.56 4.571 4.56-4.571 4.584-3.42 1.14z"/></g></svg>