<svg fill="#7e7e7e" width="215" height="38" viewBox="0 0 215 38" xmlns="http://www.w3.org/2000/svg"><title>2928CAD2-CF99-4309-B409-75E6D2889A5C</title><g fill="#7e7e7e" fill-rule="evenodd"><path d="M67.548 2.433v4.055h-11.44v29.92h-4.65V6.487h-11.45V2.433zM85.919 22.484l-5.23-15.01-5.435 15.01h10.665zm-7.628-20.05h5.192l12.33 33.973h-5.038l-3.542-10.173h-13.34l-3.682 10.173h-4.717L78.291 2.433zM100.726 2.433h6.587l9.774 28.73 9.703-28.73h6.542v33.974h-4.386V16.354c0-.69.013-1.834.04-3.44.026-1.608.046-3.325.046-5.161l-9.701 28.654h-4.567l-9.793-28.654v1.04c0 .831.031 2.102.076 3.81.048 1.697.072 2.956.072 3.75v20.054h-4.393V2.433zM141.602 2.433h24.66v4.165h-20.169v10.315h18.638v3.929h-18.638v11.523h20.513v4.042h-25.004zM186.515 32.48c1.524 0 2.775-.162 3.75-.486 1.75-.6 3.187-1.764 4.297-3.475.89-1.364 1.525-3.122 1.925-5.27.226-1.277.342-2.462.342-3.563 0-4.21-.818-7.473-2.455-9.805-1.632-2.334-4.273-3.495-7.91-3.495h-7.978V32.48h8.03zM173.837 2.435h13.58c4.612 0 8.186 1.658 10.727 4.966 2.26 2.997 3.398 6.834 3.398 11.502 0 3.608-.673 6.863-2.005 9.788-2.357 5.146-6.413 7.718-12.167 7.718h-13.533V2.434zM209.2 7.41c.163 0 .313-.013.457-.037a.981.981 0 0 0 .38-.139c.112-.068.2-.159.266-.287a.957.957 0 0 0 .096-.457c0-.26-.073-.469-.22-.639-.145-.16-.378-.244-.701-.244h-1.715V7.41h1.438zm-2.129-2.385h2.442c.489 0 .877.116 1.152.369.285.237.424.57.424.986 0 .318-.073.593-.216.832-.144.231-.37.397-.684.484v.013a.826.826 0 0 1 .366.149c.092.066.17.153.23.24.057.092.098.202.124.316.023.12.043.243.056.363.006.125.018.259.025.393.01.126.02.263.037.379.012.132.046.246.08.362.036.112.092.21.164.294h-.77a.401.401 0 0 1-.093-.19 1.557 1.557 0 0 1-.033-.258c-.01-.108-.016-.225-.023-.357 0-.133-.016-.29-.04-.468a7.684 7.684 0 0 0-.07-.357.88.88 0 0 0-.14-.301.666.666 0 0 0-.254-.205.938.938 0 0 0-.405-.074h-1.68v2.21h-.692v-5.18z"/><path d="M209.17 3.073a4.552 4.552 0 0 0-4.546 4.541 4.556 4.556 0 0 0 4.546 4.55 4.552 4.552 0 0 0 4.542-4.55 4.548 4.548 0 0 0-4.542-4.54m0 10.06a5.524 5.524 0 0 1-5.518-5.52 5.524 5.524 0 0 1 5.518-5.516 5.525 5.525 0 0 1 5.52 5.516 5.525 5.525 0 0 1-5.52 5.52"/><g><path d="M26.97 11.359L15.148.059v37.817H29.48zM12.323 37.876h.843l.257-35.877-.178.202zM10.115 37.876h.844l.614-33.867-.182.197zM8 37.876h.842l.907-31.792-.18.196zM6.085 37.876h.844L8.017 8.01l-.177.199zM3.922 37.876h.844l1.448-27.859-.18.204zM2.002 37.876h.844L4.345 12.1l-.181.205zM.049 37.876h.843l1.556-23.661-.18.197z"/></g></g></svg>
