<?xml version="1.0" encoding="UTF-8"?>
<svg width="156px" height="40px" viewBox="0 0 156 40" version="1.1" xmlns="http://www.w3.org/2000/svg" xmlns:xlink="http://www.w3.org/1999/xlink">
    <!-- Generator: Sketch 43.2 (39069) - http://www.bohemiancoding.com/sketch -->
    <title>Page 1</title>
    <desc>Created with Sketch.</desc>
    <defs>
        <polygon id="path-1" points="5.871 7.66666667 0.181 7.66666667 0.181 0.196466667 5.871 0.196466667 5.871 7.66666667"></polygon>
        <polygon id="path-3" points="0 39.8236667 155.340333 39.8236667 155.340333 0 0 0"></polygon>
    </defs>
    <g id="Expertos-Inicio" stroke="none" stroke-width="1" fill="#009ee3" fill-rule="evenodd">
        <g id="Landing-Page-V2" transform="translate(-420.000000, -24.000000)">
            <g id="Page-1" transform="translate(420.000000, 24.000000)">
                <path d="M2.68456667,6.09123333 C5.84456667,6.6299 9.1559,6.60456667 12.2432333,6.04556667 C13.0982333,5.89256667 13.9385667,5.6989 14.7415667,5.47056667 C16.4719,4.98823333 18.1339,4.33156667 19.6992333,3.5119 L14.3529,1.67356667 L12.5602333,1.17723333 L11.7952333,1.61756667 C11.7845667,1.6239 11.7735667,1.62956667 11.7619,1.63523333 L2.68456667,6.09123333 Z M7.3129,7.61623333 C5.1169,7.61623333 2.9289,7.36456667 0.809566667,6.86856667 C0.576566667,6.8139 0.402566667,6.61856667 0.375566667,6.38056667 C0.348566667,6.14223333 0.474233333,5.91323333 0.689233333,5.80756667 L11.2459,0.6259 L12.1999,0.0762333333 C12.3309,0.000233333333 12.4875667,-0.0204333333 12.6342333,0.0212333333 L14.6722333,0.585566667 C14.6832333,0.588566667 14.6942333,0.592233333 14.7052333,0.5959 L21.2699,2.8529 C21.4792333,2.9249 21.6272333,3.1119 21.6499,3.3319 C21.6719,3.5519 21.5642333,3.7649 21.3735667,3.87723333 C19.4102333,5.03656667 17.2822333,5.93956667 15.0489,6.5619 C14.2129,6.7999 13.3352333,7.0019 12.4439,7.16156667 C10.7789,7.46323333 9.05223333,7.61623333 7.3129,7.61623333 Z" id="Fill-1" fill="#FEFEFE"></path>
                <path d="M16.1383333,8.9708 C16.5186667,11.2944667 16.599,13.6811333 16.3763333,16.0731333 C16.1093333,18.9351333 15.4123333,21.6964667 14.2996667,24.3058 L19.607,21.1911333 C20.96,18.4814667 21.7896667,15.5661333 22.0736667,12.5231333 C22.2596667,10.5198 22.2083333,8.52213333 21.921,6.5728 C20.1036667,7.5698 18.1636667,8.3748 16.1383333,8.9708 M13.0163333,26.2834667 C12.8753333,26.2834667 12.7356667,26.2308 12.6276667,26.1294667 C12.4443333,25.9568 12.3966667,25.6844667 12.5106667,25.4598 C14.0156667,22.4978 14.9363333,19.3044667 15.2473333,15.9678 C15.4766667,13.5048 15.3713333,11.0484667 14.935,8.6678 C14.8816667,8.3788 15.0586667,8.09713333 15.3416667,8.01913333 C17.6603333,7.3798 19.867,6.4588 21.9026667,5.2818 C22.016,5.1438 22.1926667,5.05946667 22.377,5.0748 C22.6366667,5.09113333 22.8523333,5.28246667 22.899,5.53846667 C23.323,7.85113333 23.4246667,10.2364667 23.2023333,12.6284667 C22.9003333,15.8694667 22.0056667,18.9728 20.5436667,21.8524667 C20.4943333,21.9491333 20.4186667,22.0294667 20.3253333,22.0844667 L13.3033333,26.2054667 C13.214,26.2578 13.115,26.2834667 13.0163333,26.2834667" id="Fill-3" fill="#FEFEFE"></path>
                <path d="M1.1338,20.6462667 L9.51846667,25.4856 C11.2408,22.5426 12.3181333,19.1806 12.6414667,15.7252667 C12.8271333,13.7359333 12.7704667,11.7489333 12.4741333,9.8106 C8.75613333,10.4252667 4.8468,10.3662667 1.1338,9.61593333 L1.1338,20.6462667 Z M9.71713333,26.8216 C9.6208,26.8216 9.52313333,26.7972667 9.4338,26.7456 L0.283466667,21.4646 C0.108133333,21.3632667 0.000133333333,21.1762667 0.000133333333,20.9736 L0.000133333333,8.91493333 C0.000133333333,8.7426 0.0781333333,8.5796 0.213133333,8.47193333 C0.3478,8.36426667 0.523466667,8.32426667 0.692133333,8.3616 C4.6518,9.25793333 8.87213333,9.32926667 12.8368,8.59593333 C12.9871333,8.5686 13.1394667,8.60126667 13.2631333,8.6876 C13.3871333,8.7736 13.4721333,8.90526667 13.4984667,9.05426667 C13.8914667,11.2682667 13.9834667,13.5482667 13.7704667,15.8309333 C13.4134667,19.6452667 12.1784667,23.3526 10.1994667,26.5529333 C10.0928,26.7259333 9.90713333,26.8216 9.71713333,26.8216 L9.71713333,26.8216 Z" id="Fill-5" fill="#FEFEFE"></path>
                <polygon id="Fill-7" fill="#FEFEFE" points="26.2994667 0.567466667 47.2364667 0.567466667 47.2364667 4.9308 39.2428 4.9308 39.2428 26.2341333 34.2928 26.2341333 34.2928 4.9308 26.2994667 4.9308"></polygon>
                <path d="M53.3229,16.5909333 L62.3432333,16.5909333 L57.8699,5.81093333 L53.3229,16.5909333 Z M66.3762333,26.2342667 L64.1029,20.8072667 L51.5632333,20.8072667 L49.2895667,26.2342667 L44.1925667,26.2342667 L55.4499,0.5676 L60.5462333,0.5676 L71.6562333,26.2342667 L66.3762333,26.2342667 Z" id="Fill-9" fill="#FEFEFE"></path>
                <polygon id="Fill-11" fill="#FEFEFE" points="74.0390667 0.567466667 79.6490667 0.567466667 88.1554 17.1041333 96.5887333 0.567466667 102.198733 0.567466667 102.198733 26.2341333 97.6890667 26.2341333 97.6890667 7.82746667 89.6957333 23.5941333 86.5420667 23.5941333 78.5124 7.82746667 78.5124 26.2341333 74.0390667 26.2341333"></polygon>
                <polygon id="Fill-13" fill="#FEFEFE" points="107.7718 0.567466667 126.5818 0.567466667 126.5818 4.85746667 112.685133 4.85746667 112.685133 11.2008 125.152133 11.2008 125.152133 15.4908 112.685133 15.4908 112.685133 21.9441333 127.0218 21.9441333 127.0218 26.2341333 107.7718 26.2341333"></polygon>
                <path d="M146.290033,20.8259667 C147.549033,20.1053 148.533033,19.1026333 149.2417,17.8189667 C149.9507,16.5359667 150.305033,15.0753 150.305033,13.4376333 C150.305033,11.8003 149.938367,10.3273 149.205367,9.0193 C148.4717,7.71163333 147.4637,6.69696667 146.180033,5.97563333 C144.8967,5.25496667 143.4607,4.8943 141.872033,4.8943 L136.188367,4.8943 L136.188367,21.9073 L142.055033,21.9073 C143.619367,21.9073 145.031033,21.5469667 146.290033,20.8259667 M148.8387,2.19896667 C150.867367,3.2873 152.456033,4.80863333 153.605033,6.76396667 C154.754367,8.7203 155.328367,10.9319667 155.328367,13.4009667 C155.328367,15.8703 154.7477,18.0759667 153.587033,20.0193 C152.425367,21.9623 150.8187,23.4843 148.765367,24.5839667 C146.712033,25.6839667 144.377367,26.2343 141.762033,26.2343 L131.275033,26.2343 L131.275033,0.567633333 L141.945033,0.567633333 C144.512033,0.567633333 146.8097,1.11163333 148.8387,2.19896667" id="Fill-15" fill="#FEFEFE"></path>
                <g id="Group-19" transform="translate(0.333333, 32.157000)">
                    <mask id="mask-2" fill="white">
                        <use xlink:href="#path-1"></use>
                    </mask>
                    <g id="Clip-18"></g>
                    <path d="M4.13133333,1.34146667 C3.81766667,1.1118 3.416,0.996466667 2.927,0.996466667 C2.72866667,0.996466667 2.53366667,1.01646667 2.34233333,1.0568 C2.15033333,1.09646667 1.98,1.16313333 1.83166667,1.25646667 C1.68266667,1.3498 1.56366667,1.4748 1.475,1.63146667 C1.38533333,1.78813333 1.341,1.98313333 1.341,2.21646667 C1.341,2.43646667 1.40566667,2.6148 1.53433333,2.75146667 C1.663,2.88846667 1.835,3.00013333 2.04933333,3.08646667 C2.26433333,3.17313333 2.507,3.2448 2.778,3.30146667 C3.04933333,3.35813333 3.32533333,3.4198 3.606,3.4868 C3.887,3.55346667 4.16266667,3.63146667 4.43366667,3.72146667 C4.70466667,3.81146667 4.94733333,3.93313333 5.162,4.08646667 C5.37666667,4.2398 5.549,4.43313333 5.67766667,4.6668 C5.80633333,4.90013333 5.871,5.19346667 5.871,5.54646667 C5.871,5.92646667 5.787,6.25146667 5.61833333,6.52146667 C5.45,6.7918 5.233,7.01146667 4.96866667,7.1818 C4.70466667,7.35146667 4.409,7.4748 4.082,7.55146667 C3.75433333,7.6278 3.429,7.6668 3.10533333,7.6668 C2.70866667,7.6668 2.33366667,7.61646667 1.98,7.51646667 C1.62666667,7.4168 1.316,7.26513333 1.04866667,7.06146667 C0.780666667,6.85813333 0.569666667,6.59846667 0.414333333,6.28146667 C0.258666667,5.9648 0.181,5.5898 0.181,5.15646667 L1.073,5.15646667 C1.073,5.45646667 1.131,5.7148 1.24666667,5.9318 C1.36233333,6.14813333 1.514,6.32646667 1.70266667,6.46646667 C1.891,6.60646667 2.11066667,6.7098 2.36166667,6.77646667 C2.61266667,6.84313333 2.87066667,6.87646667 3.135,6.87646667 C3.34633333,6.87646667 3.56,6.85646667 3.77466667,6.81646667 C3.989,6.77646667 4.18233333,6.70846667 4.35433333,6.6118 C4.526,6.51513333 4.665,6.38313333 4.77066667,6.21646667 C4.87633333,6.0498 4.92966667,5.83646667 4.92966667,5.57646667 C4.92966667,5.33013333 4.86466667,5.1298 4.736,4.97646667 C4.607,4.82313333 4.435,4.69813333 4.22066667,4.60146667 C4.006,4.5048 3.763,4.42646667 3.492,4.36646667 C3.221,4.3068 2.94466667,4.2448 2.66433333,4.1818 C2.38333333,4.11813333 2.10733333,4.0448 1.83633333,3.96146667 C1.56566667,3.87813333 1.32233333,3.76813333 1.108,3.63146667 C0.893333333,3.4948 0.721333333,3.31846667 0.592666667,3.10146667 C0.463333333,2.88513333 0.399,2.61313333 0.399,2.28646667 C0.399,1.92646667 0.472,1.6148 0.617,1.35146667 C0.762666667,1.08813333 0.956,0.871466667 1.19733333,0.701466667 C1.43833333,0.531466667 1.71266667,0.4048 2.01966667,0.321466667 C2.32733333,0.238133333 2.64233333,0.196466667 2.96666667,0.196466667 C3.33,0.196466667 3.667,0.2398 3.97766667,0.326466667 C4.28833333,0.413133333 4.56133333,0.5498 4.79566667,0.7368 C5.03033333,0.923133333 5.215,1.15813333 5.35033333,1.44146667 C5.48633333,1.7248 5.56033333,2.06313333 5.57366667,2.45646667 L4.68133333,2.45646667 C4.62833333,1.94346667 4.445,1.57146667 4.13133333,1.34146667" id="Fill-17" fill="#FEFEFE" mask="url(#mask-2)"></path>
                </g>
                <polygon id="Fill-20" fill="#FEFEFE" points="16.6422667 32.5235333 18.8726 38.5235333 21.1129333 32.5235333 22.4016 32.5235333 22.4016 39.6635333 21.5096 39.6635333 21.5096 33.7235333 21.4896 33.7235333 19.2792667 39.6635333 18.4759333 39.6635333 16.2656 33.7235333 16.2459333 33.7235333 16.2459333 39.6635333 15.3539333 39.6635333 15.3539333 32.5235333"></polygon>
                <path d="M35.5758333,36.7136333 L34.3961667,33.3836333 L34.3761667,33.3836333 L33.1771667,36.7136333 L35.5758333,36.7136333 Z M34.9215,32.5236333 L37.6871667,39.6636333 L36.6465,39.6636333 L35.8735,37.5133 L32.8795,37.5133 L32.0865,39.6636333 L31.1248333,39.6636333 L33.8808333,32.5236333 L34.9215,32.5236333 Z" id="Fill-22" fill="#FEFEFE"></path>
                <path d="M49.8994,35.7634667 C50.0977333,35.7301333 50.2710667,35.6651333 50.4200667,35.5684667 C50.5687333,35.4721333 50.6874,35.3418 50.7767333,35.1784667 C50.8660667,35.0151333 50.9107333,34.8034667 50.9107333,34.5434667 C50.9107333,34.1834667 50.8114,33.8901333 50.6134,33.6634667 C50.4150667,33.4371333 50.0944,33.3238 49.6517333,33.3238 L47.3124,33.3238 L47.3124,35.8134667 L49.2750667,35.8134667 C49.4930667,35.8134667 49.7010667,35.7971333 49.8994,35.7634667 L49.8994,35.7634667 Z M49.7010667,32.5234667 C50.3754,32.5234667 50.9024,32.6901333 51.2824,33.0234667 C51.6620667,33.3568 51.8520667,33.8134667 51.8520667,34.3938 C51.8520667,34.8268 51.7544,35.2068 51.5597333,35.5338 C51.3647333,35.8601333 51.0527333,36.0834667 50.6230667,36.2034667 L50.6230667,36.2234667 C50.8280667,36.2634667 50.9947333,36.3301333 51.1237333,36.4234667 C51.2527333,36.5171333 51.3547333,36.6284667 51.4310667,36.7584667 C51.5067333,36.8884667 51.5630667,37.0338 51.5997333,37.1934667 C51.6357333,37.3538 51.6640667,37.5204667 51.6837333,37.6934667 C51.6970667,37.8671333 51.7070667,38.0434667 51.7134,38.2234667 C51.7200667,38.4034667 51.7367333,38.5801333 51.7630667,38.7534667 C51.7894,38.9268 51.8277333,39.0918 51.8770667,39.2484667 C51.9267333,39.4054667 52.0010667,39.5434667 52.1000667,39.6634667 L51.0494,39.6634667 C50.9830667,39.5901333 50.9387333,39.4904667 50.9154,39.3634667 C50.8924,39.2371333 50.8774,39.0951333 50.8710667,38.9384667 C50.8644,38.7821333 50.8577333,38.6134667 50.8510667,38.4334667 C50.8444,38.2534667 50.8247333,38.0768 50.7917333,37.9034667 C50.7650667,37.7301333 50.7320667,37.5651333 50.6924,37.4088 C50.6530667,37.2521333 50.5897333,37.1154667 50.5037333,36.9984667 C50.4184,36.8818 50.3060667,36.7884667 50.1674,36.7184667 C50.0284,36.6484667 49.8430667,36.6134667 49.6120667,36.6134667 L47.3124,36.6134667 L47.3124,39.6634667 L46.3704,39.6634667 L46.3704,32.5234667 L49.7010667,32.5234667 Z" id="Fill-24" fill="#FEFEFE"></path>
                <polygon id="Fill-26" fill="#FEFEFE" points="60.2184333 33.3236667 60.2184333 32.5236667 65.8787667 32.5236667 65.8787667 33.3236667 63.5194333 33.3236667 63.5194333 39.6636667 62.5777667 39.6636667 62.5777667 33.3236667"></polygon>
                <polygon id="Fill-28" fill="#FEFEFE" points="86.3382 32.5235333 86.3382 38.8635333 90.0855333 38.8635333 90.0855333 39.6635333 85.3968667 39.6635333 85.3968667 32.5235333"></polygon>
                <mask id="mask-4" fill="white">
                    <use xlink:href="#path-3"></use>
                </mask>
                <g id="Clip-31"></g>
                <polygon id="Fill-30" fill="#FEFEFE" mask="url(#mask-4)" points="98.9373333 39.6636667 99.8786667 39.6636667 99.8786667 32.5236667 98.9373333 32.5236667"></polygon>
                <polygon id="Fill-32" fill="#FEFEFE" mask="url(#mask-4)" points="111.1696 39.6635 108.681267 32.5235 109.692267 32.5235 111.7146 38.7135 111.7346 38.7135 113.776933 32.5235 114.758267 32.5235 112.239933 39.6635"></polygon>
                <polygon id="Fill-33" fill="#FEFEFE" mask="url(#mask-4)" points="123.540667 39.6636667 124.482 39.6636667 124.482 32.5236667 123.540667 32.5236667"></polygon>
                <polygon id="Fill-34" fill="#FEFEFE" mask="url(#mask-4)" points="135.049167 32.5235333 138.7765 38.3135333 138.795833 38.3135333 138.795833 32.5235333 139.6885 32.5235333 139.6885 39.6635333 138.657167 39.6635333 134.959833 33.9332 134.939833 33.9332 134.939833 39.6635333 134.047833 39.6635333 134.047833 32.5235333"></polygon>
                <path d="M153.467133,39.5785667 C153.057133,39.7415667 152.644133,39.8235667 152.227467,39.8235667 C151.6988,39.8235667 151.226133,39.7249 150.810133,39.5285667 C150.394133,39.3319 150.040133,39.0669 149.7498,38.7335667 C149.4588,38.4002333 149.237467,38.0169 149.085467,37.5835667 C148.933133,37.1502333 148.857133,36.7002333 148.857133,36.2335667 C148.857133,35.7135667 148.928133,35.2185667 149.070133,34.7485667 C149.212467,34.2785667 149.424133,33.8669 149.7048,33.5135667 C149.986133,33.1602333 150.335467,32.8782333 150.755467,32.6685667 C151.1748,32.4585667 151.6658,32.3535667 152.227467,32.3535667 C152.611133,32.3535667 152.973133,32.3985667 153.313467,32.4882333 C153.653467,32.5785667 153.957467,32.7202333 154.2248,32.9135667 C154.492467,33.1069 154.717133,33.3519 154.899467,33.6485667 C155.081133,33.9452333 155.2048,34.3035667 155.271133,34.7235667 L154.329133,34.7235667 C154.2828,34.4502333 154.1968,34.2152333 154.071133,34.0185667 C153.9458,33.8219 153.7908,33.6602333 153.6058,33.5335667 C153.420133,33.4069 153.210467,33.3119 152.976133,33.2485667 C152.741133,33.1852333 152.4918,33.1535667 152.227467,33.1535667 C151.7978,33.1535667 151.430133,33.2402333 151.122133,33.4135667 C150.8148,33.5869 150.564133,33.8152333 150.3688,34.0985667 C150.174133,34.3819 150.030133,34.7052333 149.9378,35.0685667 C149.8448,35.4322333 149.799133,35.8035667 149.799133,36.1832333 C149.799133,36.5572333 149.8518,36.9152333 149.957467,37.2585667 C150.063467,37.6019 150.218467,37.9052333 150.423467,38.1685667 C150.6278,38.4322333 150.881133,38.6419 151.182133,38.7985667 C151.482133,38.9552333 151.831133,39.0335667 152.227467,39.0335667 C152.597467,39.0335667 152.9248,38.9735667 153.2088,38.8535667 C153.493133,38.7335667 153.7328,38.5685667 153.927467,38.3585667 C154.1228,38.1485667 154.2698,37.9019 154.3688,37.6185667 C154.4678,37.3355667 154.5108,37.0302333 154.4978,36.7035667 L152.237467,36.7035667 L152.237467,35.9035667 L155.340133,35.9035667 L155.340133,39.6635667 L154.7458,39.6635667 L154.4978,38.7735667 C154.2198,39.1469 153.876133,39.4152333 153.467133,39.5785667" id="Fill-35" fill="#FEFEFE" mask="url(#mask-4)"></path>
            </g>
        </g>
    </g>
</svg>
