<svg xmlns="http://www.w3.org/2000/svg" width="97.54" height="37.36" viewBox="0 0 97.54 37.36"><title>alexa-logo</title><path d="M47.04 4.03a.4.4 0 0 0-.8 0v12.6a.4.4 0 0 0 .8 0zM42.24 3.13a.43.43 0 0 0-.4-.4c-.2 0-.5.2-.5.4v14.3a.4.4 0 0 0 .8 0V3.13zM44.64 7.93a.4.4 0 0 0-.8 0v4.8a.4.4 0 0 0 .8 0zM39.84 7.93a.4.4 0 0 0-.8 0v4.8a.4.4 0 0 0 .8 0zM35.04 9.13a.4.4 0 0 0-.8 0v2.4a.4.4 0 0 0 .8 0zM37.44 6.73a.43.43 0 0 0-.4-.4c-.2 0-.5.2-.5.4v7.2a.4.4 0 0 0 .8 0v-7.2zM58.94 4.93a.4.4 0 0 0-.8 0v10.7a.4.4 0 0 0 .8 0zM61.34 7.93a.4.4 0 0 0-.8 0v4.8a.4.4 0 0 0 .8 0zM56.54 9.13a.4.4 0 0 0-.8 0v2.4a.4.4 0 0 0 .8 0zM63.64 9.13a.4.4 0 0 0-.8 0v2.4a.4.4 0 0 0 .8 0zM54.14 7.93a.4.4 0 0 0-.8 0v4.8a.4.4 0 0 0 .8 0zM51.74 4.33a.4.4 0 0 0-.8 0v11.9a.4.4 0 0 0 .8 0zM49.34.43a.43.43 0 0 0-.4-.4c-.2-.1-.4.1-.4.4v19.8a.4.4 0 0 0 .8 0zM5.7 37.21l-.25-1.18h-.06a3.48 3.48 0 0 1-1.23 1.05 3.76 3.76 0 0 1-1.54.28 2.76 2.76 0 0 1-1.93-.63 2.31 2.31 0 0 1-.7-1.8q0-2.51 4-2.63h1.4v-.51a2.1 2.1 0 0 0-.42-1.44 1.72 1.72 0 0 0-1.34-.46 5.45 5.45 0 0 0-2.34.63l-.38-1a6 6 0 0 1 2.8-.71 3.15 3.15 0 0 1 2.19.66 2.74 2.74 0 0 1 .71 2.11v5.64zm-2.83-.88a2.54 2.54 0 0 0 1.84-.64 2.37 2.37 0 0 0 .67-1.76v-.75l-1.25.05a4.56 4.56 0 0 0-2.15.46 1.4 1.4 0 0 0-.67 1.24 1.29 1.29 0 0 0 .41 1 1.71 1.71 0 0 0 1.15.4zM19.76 37.21v-5.38a2.23 2.23 0 0 0-.42-1.48 1.63 1.63 0 0 0-1.31-.49 2.12 2.12 0 0 0-1.73.67 3.2 3.2 0 0 0-.56 2.07v4.62h-1.26v-5.39a2.23 2.23 0 0 0-.42-1.48 1.64 1.64 0 0 0-1.32-.49 2 2 0 0 0-1.72.71 3.82 3.82 0 0 0-.55 2.31v4.34H9.21v-8.29h1l.2 1.13h.13a2.46 2.46 0 0 1 1-.94 3.05 3.05 0 0 1 1.45-.34 2.46 2.46 0 0 1 2.54 1.4h.01a2.64 2.64 0 0 1 1.07-1 3.33 3.33 0 0 1 1.6-.38 2.8 2.8 0 0 1 2.1.72 3.22 3.22 0 0 1 .7 2.31v5.4zM28.68 37.21l-.25-1.18h-.06a3.48 3.48 0 0 1-1.23 1.05 3.76 3.76 0 0 1-1.54.28 2.76 2.76 0 0 1-1.93-.63 2.31 2.31 0 0 1-.7-1.8q0-2.51 4-2.63h1.4v-.51a2.1 2.1 0 0 0-.42-1.44 1.72 1.72 0 0 0-1.34-.46 5.45 5.45 0 0 0-2.34.63l-.38-1a6 6 0 0 1 2.8-.71 3.15 3.15 0 0 1 2.19.66 2.74 2.74 0 0 1 .71 2.11v5.64zm-2.83-.88a2.54 2.54 0 0 0 1.84-.64 2.37 2.37 0 0 0 .67-1.8v-.75l-1.25.05a4.56 4.56 0 0 0-2.15.46 1.4 1.4 0 0 0-.68 1.28 1.29 1.29 0 0 0 .41 1 1.71 1.71 0 0 0 1.16.4zM37.48 37.21h-6v-.85l4.51-6.43h-4.24v-1h5.61v1l-4.45 6.32h4.57zM46.54 33.07a4.56 4.56 0 0 1-1 3.16 3.59 3.59 0 0 1-2.81 1.14 3.72 3.72 0 0 1-2-.52 3.43 3.43 0 0 1-1.33-1.49 5.2 5.2 0 0 1-.47-2.28 4.56 4.56 0 0 1 1-3.15 3.58 3.58 0 0 1 2.81-1.13 3.5 3.5 0 0 1 2.8 1.13 4.55 4.55 0 0 1 1 3.14zm-6.3 0a3.92 3.92 0 0 0 .63 2.41 2.52 2.52 0 0 0 3.73 0 3.91 3.91 0 0 0 .64-2.42 3.85 3.85 0 0 0-.64-2.4 2.24 2.24 0 0 0-1.88-.82 2.21 2.21 0 0 0-1.86.81 3.89 3.89 0 0 0-.61 2.42zM54.41 37.21v-5.35a2.15 2.15 0 0 0-.46-1.51 1.87 1.87 0 0 0-1.44-.5 2.37 2.37 0 0 0-1.9.7 3.54 3.54 0 0 0-.6 2.32v4.34h-1.26v-8.28h1l.2 1.13h.06a2.56 2.56 0 0 1 1.08-.95 3.51 3.51 0 0 1 1.55-.34 3.14 3.14 0 0 1 2.25.72 3.06 3.06 0 0 1 .76 2.31v5.4zM67.34 37.21l-.25-1.18h-.06a3.48 3.48 0 0 1-1.23 1.05 3.76 3.76 0 0 1-1.54.28 2.76 2.76 0 0 1-1.93-.63 2.31 2.31 0 0 1-.7-1.8q0-2.51 4-2.63h1.4v-.51a2.1 2.1 0 0 0-.42-1.44 1.72 1.72 0 0 0-1.34-.46 5.45 5.45 0 0 0-2.34.63l-.38-1a6 6 0 0 1 2.8-.71 3.15 3.15 0 0 1 2.19.66 2.74 2.74 0 0 1 .71 2.11v5.64zm-2.8-.88a2.54 2.54 0 0 0 1.84-.64 2.37 2.37 0 0 0 .67-1.8v-.75l-1.25.05a4.55 4.55 0 0 0-2.15.46 1.4 1.4 0 0 0-.71 1.28 1.29 1.29 0 0 0 .41 1 1.71 1.71 0 0 0 1.19.4zM72.1 37.21h-1.25V25.47h1.25zM78.25 37.36a3.8 3.8 0 0 1-2.89-1.12 4.33 4.33 0 0 1-1.06-3.1 4.8 4.8 0 0 1 1-3.18 3.27 3.27 0 0 1 2.65-1.18 3.12 3.12 0 0 1 2.46 1 3.92 3.92 0 0 1 .91 2.7v.79h-5.7a3.28 3.28 0 0 0 .74 2.21 2.54 2.54 0 0 0 2 .75 6.65 6.65 0 0 0 2.64-.56v1.16a6.59 6.59 0 0 1-1.26.41 7.05 7.05 0 0 1-1.49.12zm-.34-7.52a2 2 0 0 0-1.59.65 3 3 0 0 0-.7 1.8h4.32a2.76 2.76 0 0 0-.53-1.82 1.86 1.86 0 0 0-1.5-.63zM85.42 32.93l-2.88-4h1.43l2.18 3.17 2.17-3.17h1.41l-2.87 4 3 4.23h-1.39l-2.32-3.35-2.34 3.35h-1.42zM96.61 37.21l-.25-1.18h-.06a3.48 3.48 0 0 1-1.23 1.05 3.76 3.76 0 0 1-1.54.28 2.76 2.76 0 0 1-1.93-.63 2.31 2.31 0 0 1-.7-1.8q0-2.51 4-2.63h1.4v-.51a2.1 2.1 0 0 0-.42-1.44 1.72 1.72 0 0 0-1.34-.51 5.45 5.45 0 0 0-2.34.63l-.38-1a6 6 0 0 1 2.8-.71 3.15 3.15 0 0 1 2.19.66 2.74 2.74 0 0 1 .73 2.15v5.64zm-2.83-.88a2.54 2.54 0 0 0 1.84-.64 2.37 2.37 0 0 0 .67-1.8v-.75l-1.25.05a4.55 4.55 0 0 0-2.15.46 1.4 1.4 0 0 0-.67 1.28 1.29 1.29 0 0 0 .41 1 1.71 1.71 0 0 0 1.15.4z" fill="#0090ff"/></svg>