<svg xmlns="http://www.w3.org/2000/svg" width="40" height="60" viewBox="0 0 40 60">
    <path fill="#0090FF" fill-rule="evenodd" d="M24.642 3.757l-20.9 27.946 15.381.058-4.227 24.482 20.9-30.176-15.38-.06 4.226-22.25zM24.818 0c1.018.04 1.879.42 2.583 1.145.705.724 1.057 1.595 1.057 2.612 0 .157-.01.304-.03.44-.019.138-.048.284-.087.441l-3.405 17.671h10.86c.705 0 1.36.186 1.967.558.607.372 1.067.87 1.38 1.497.313.626.44 1.292.382 1.996a4.043 4.043 0 0 1-.675 1.937L17.773 58.474c-.391.508-.822.89-1.291 1.144-.47.255-.998.382-1.586.382-.273 0-.538-.02-.792-.059a2.473 2.473 0 0 1-.734-.235 3.867 3.867 0 0 1-1.82-1.673 3.53 3.53 0 0 1-.41-2.436l3.463-20.137L3.742 35.4c-.705 0-1.36-.186-1.967-.558a3.631 3.631 0 0 1-1.38-1.497 3.695 3.695 0 0 1-.381-1.996c.059-.704.284-1.35.675-1.937L21.765 1.585a.46.46 0 0 0 .088-.117.46.46 0 0 1 .088-.118c.118-.156.245-.293.382-.41.137-.118.284-.216.44-.294.235-.196.48-.343.734-.44.255-.098.538-.167.852-.206h.47z"/>
</svg>
