<svg xmlns="http://www.w3.org/2000/svg" viewBox="0 0 280.72 22.57"><title>frase</title><g id="Capa_2" data-name="Capa 2"><g id="Capa_1-2" data-name="Capa 1"><path d="M22,.2l.67,1.07-.48,1.31h-2a35,35,0,0,0-9.92,12l-7.81,8L.67,22.1l-.4-3.21Q.12,17.77.06,16.7T0,14.6A29,29,0,0,1,1.51,5.36L2.86,6a85.16,85.16,0,0,0-.71,11v1.23c0,.4,0,.81,0,1.23l.67.2A53.29,53.29,0,0,0,15,5.36L20.87,0Z"/><path d="M32.09,10l1.11,1.43v1.15a21.51,21.51,0,0,1-11.5,5.63l.87,1.71,1.9.75,8.09-1v1.15l-4.88,1.43H23.8l-2.1-.75-2.86-4.2.4-1.31h1.31q2.7-5.27,9.32-6Zm-4.6,2.58L23.4,15.15v.2L28,14.12l3.45-2-1.23-.36Z"/><path d="M38,13.8l-1,3.73,6-2.94h1.51l.75,1.23v2.38l-1,1.79-.16,2.3-1.55-.4a3.08,3.08,0,0,1-.59-1.75,3.81,3.81,0,0,1,1.67-2.82l-.4-.67-8.09,3.73-1.9-.48,3.41-6.47Z"/><path d="M70.13,10.59l.36,1.79,1,1.07L71.36,15l-3.25,4.76,2,.48,6.66-1.71L76,19.71,69.93,22.1l-3.05-.67-.67-.83v-1.9h-.63l-5.71,3.61H58.23l-1.15-1.43.48-2.18A25.68,25.68,0,0,1,68.11,9.52Zm-5,2.66-5.83,6.27.2.48,4.21-1.79L69,14.28l-.2-2.18-1-.56Z"/><path d="M98,7.81l1,1.43-.2,1-3-.28q-6.27,2.42-6.58,8.49l2.3,2,8-.2v.75l-1.31.79-4.13.56-.65.06-.65,0q-4.44,0-5.43-4.17v-.4q0-5.24,5-7.89l3.93-2.1Z"/><path d="M109.72,12.3,111,14.76q-.08,4.4-4.56,6.51l-3.21,1.31h-2.38l-1.35-1.51v-.12q0-6.74,7.62-9.2Zm-4.28,2.3-4.21,5.12.48,1.07A9.82,9.82,0,0,0,109.52,16l-.28-2.1-1.71-.28Z"/><path d="M115.79,13.8l-1,3.73,6-2.94h1.51l.75,1.23v2.38l-1,1.79-.16,2.3-1.55-.4a3.08,3.08,0,0,1-.59-1.75,3.81,3.81,0,0,1,1.67-2.82l-.4-.67-8.09,3.73-1.9-.48,3.41-6.47Z"/><path d="M133.2,12.3l1.31,2.46q-.08,4.4-4.56,6.51l-3.21,1.31h-2.38L123,21.06v-.12q0-6.74,7.62-9.2Zm-4.28,2.3-4.21,5.12.48,1.07A9.82,9.82,0,0,0,133,16l-.28-2.1L131,13.65Z"/><path d="M145.18,7.81l1,1.43-.2,1-3-.28q-6.27,2.42-6.58,8.49l2.3,2,8-.2v.75l-1.31.79-4.13.56-.65.06-.65,0q-4.44,0-5.43-4.17v-.4q0-5.24,5-7.89l3.93-2.1Z"/><path d="M159.94,10,161,11.42v1.15a21.51,21.51,0,0,1-11.5,5.63l.87,1.71,1.9.75,8.09-1v1.15l-4.88,1.43h-3.89l-2.1-.75-2.86-4.2.4-1.31h1.31q2.7-5.27,9.32-6Zm-4.6,2.58-4.09,2.58v.2l4.56-1.23,3.45-2L158,11.74Z"/><path d="M177,8l-.48,4.36-4.56,4.76,1.51,2.1,2.86,1.63L176,22.29a7.08,7.08,0,0,1-6.31-4.68l.32-1.51,4.76-4.36.36-2-1.9,1.35-.28,1.51a74,74,0,0,1-10.39,9.32L161,21.74l.48-1.82L175.61,7.14Z"/><path d="M194.76,13.8l-1,3.73,6-2.94h1.51l.75,1.23v2.38L201,20l-.16,2.3-1.55-.4a3.08,3.08,0,0,1-.59-1.75,3.81,3.81,0,0,1,1.67-2.82l-.4-.67-8.09,3.73-1.9-.48,3.41-6.47Z"/><path d="M206.94,11.54v1l-2.58,3.41.2,1.35a11.22,11.22,0,0,0,8.77-4l1.43.48v1L212,18.49l-.67,3.89-1.71-.83.48-3.73-5.32,1.35-1.9-.2-.87-.87a7.39,7.39,0,0,1,4.09-6.94Z"/><path d="M228,10l1.11,1.43v1.15a21.51,21.51,0,0,1-11.5,5.63l.87,1.71,1.9.75,8.09-1v1.15l-4.88,1.43h-3.89l-2.1-.75-2.86-4.2.4-1.31h1.31q2.7-5.27,9.32-6Zm-4.6,2.58-4.09,2.58v.2l4.56-1.23,3.45-2-1.23-.36Z"/><path d="M238.44,9l1.15.79-.28.83-2.78-.08L233,12.1l1.75,2.18,2.66,1.15,1.43,1.43.28,2.18a16.22,16.22,0,0,1-8.65,3.53l-1.35-.48.48-1.71h3.25l4.09-2.18-1.07-1.35-3.49-2.26-1.35-2,.08-1.9L235.7,9Z"/><path d="M249.31,9.72l7.42,1.35-.2.67q-.67.08-1.29.12t-1.29,0a20.05,20.05,0,0,1-4.36-.48,31.85,31.85,0,0,1-7.42,8.77l-1.07,2.1-1.51-.56.2-1.55,7.14-8-.4-.79h-1l-2.18,1.63-1-.28.48-2.1,2.66-1Z"/><path d="M268.07,8l-.48,4.36L263,17.14l1.51,2.1,2.86,1.63-.28,1.43a7.08,7.08,0,0,1-6.31-4.68l.32-1.51,4.76-4.36.36-2-1.9,1.35-.28,1.51a74,74,0,0,1-10.39,9.32l-1.51-.16.48-1.82L266.72,7.14Z"/><path d="M279.41,12.3l1.31,2.46q-.08,4.4-4.56,6.51l-3.21,1.31h-2.38l-1.35-1.51v-.12q0-6.74,7.62-9.2Zm-4.28,2.3-4.21,5.12.48,1.07A9.82,9.82,0,0,0,279.21,16l-.28-2.1-1.71-.28Z"/></g></g></svg>