<?xml version="1.0" encoding="utf-8"?>
<!-- Generator: Adobe Illustrator 19.2.1, SVG Export Plug-In . SVG Version: 6.00 Build 0)  -->
<svg version="1.1" id="Badge" xmlns="http://www.w3.org/2000/svg" xmlns:xlink="http://www.w3.org/1999/xlink" x="0px" y="0px"
	 width="122.4899979px" height="32.6399994px" viewBox="0 0 122.4899979 32.6399994"
	 enable-background="new 0 0 122.4899979 32.6399994" xml:space="preserve">
<g>
	<g>
		<g id="XMLID_11_">
			<g id="XMLID_13_">
				<path id="XMLID_14_" fill="#777878" d="M111.9632111,0H9.5343924C9.1679859,0,8.8054972,0,8.4400196,0.0020619
					c-0.3060942,0.0029898-0.610127,0.0080416-0.9192114,0.0129902c-0.6654897,0.0171141-1.3390064,0.0574249-2.003583,0.1761924
					C4.8477292,0.3090842,4.2255254,0.5094013,3.6164296,0.8195165C3.017334,1.1256108,2.4707148,1.5242863,1.9975004,1.9975005
					c-0.478266,0.4732143-0.8748794,1.0218955-1.177984,1.6209911c-0.3111318,0.6080647-0.5084734,1.2333469-0.625179,1.9037852
					C0.073508,6.1837463,0.0321662,6.8542876,0.0150521,7.5237985C0.0059796,7.8309236,0.0050517,8.1380491,0,8.4450712
					C0,8.80756,0,9.1709757,0,9.5364542v12.5649233c0,0.3694992,0,0.7309551,0,1.0943718
					c0.0050517,0.3101158,0.0059796,0.6121883,0.0150521,0.9212723c0.0171141,0.6705418,0.0584559,1.3410835,0.1792853,2.0025539
					c0.1167056,0.6704369,0.3140472,1.297678,0.625179,1.9037838c0.3031046,0.5961075,0.6997179,1.1447887,1.177984,1.6149101
					c0.4732144,0.4772339,1.0198336,0.8749809,1.6189291,1.1779823c0.6090958,0.3131065,1.2312996,0.5104332,1.9007957,0.6312618
					c0.6645765,0.1197987,1.3380933,0.1590786,2.003583,0.1772232c0.3090844,0.0060844,0.6131172,0.0101051,0.9192114,0.0101051
					c0.3654776,0.0019588,0.7279663,0.0019588,1.0943727,0.0019588h102.4288177c0.3593979,0,0.7238464,0,1.0832367-0.0019588
					c0.305069,0,0.6162338-0.0040207,0.9223099-0.0101051c0.6695099-0.0181446,1.3420105-0.0574245,1.9985275-0.1772232
					c0.6714706-0.1208286,1.294693-0.3181553,1.9088364-0.6312618c0.5970535-0.3030014,1.1457138-0.7007484,1.6169739-1.1779823
					c0.4762039-0.4701214,0.8729401-1.0188026,1.1820068-1.6149101c0.3059845-0.6061058,0.505394-1.2333469,0.6201248-1.9037838
					c0.1218567-0.6614704,0.1620636-1.3320122,0.1842499-2.0025539c0.0040054-0.3090839,0.0040054-0.6111565,0.0040054-0.9212723
					c0.0090714-0.3634167,0.0090714-0.7248726,0.0090714-1.0943718V9.5364542c0-0.3654785,0-0.7288942-0.0090714-1.091383
					c0-0.3070221,0-0.6141477-0.0040054-0.9212728c-0.0221863-0.6695108-0.0623932-1.3400521-0.1842499-2.0015216
					c-0.1147308-0.6704383-0.3141403-1.2957206-0.6201248-1.9037852c-0.3090668-0.5990956-0.7058029-1.1477768-1.1820068-1.6209911
					c-0.4712601-0.4732143-1.0199203-0.8718897-1.6169739-1.177984c-0.6141434-0.3101152-1.2373657-0.5104322-1.9088364-0.6282719
					c-0.656517-0.1187675-1.3290176-0.1590784-1.9985275-0.1761924c-0.306076-0.0049486-0.6172409-0.0100004-0.9223099-0.0129902
					C112.6870575,0,112.3226089,0,111.9632111,0L111.9632111,0z"/>
			</g>
			<path id="XMLID_12_" fill="#FFFFFF" d="M111.9632111,0.6162096c0.357338,0,0.7208557,0,1.0782928,0.0029898l0.0503082,0.0019588
				l0.8598328,0.0111344c0.5345535,0.0160831,1.2342682,0.0473214,1.9079056,0.1671199
				c0.6291962,0.1107259,1.195015,0.2989807,1.7347031,0.570847c0.5436325,0.2769179,1.0339584,0.6342515,1.4608841,1.0651962
				c0.4299164,0.4288826,0.7872467,0.9202421,1.0671539,1.4608817c0.2728958,0.5386806,0.4571533,1.1055069,0.5638351,1.7387276
				c0.1208344,0.6523967,0.1570206,1.3320107,0.1741333,1.9018264c0.0050507,0.302074,0.0050507,0.6051784,0.0050507,0.9202418
				c0.0080414,0.359499,0.0080414,0.7168322,0.0080414,1.0793209v12.5649233c0,0.3644466,0,0.7208519-0.0080414,1.0943718
				c0,0.3050632,0,0.6071377-0.0050507,0.9020977c-0.0171127,0.577961-0.053299,1.2555122-0.1741333,1.9159508
				c-0.1066818,0.6232204-0.2909393,1.1900463-0.5607376,1.7256336c-0.2830048,0.5437336-0.6403351,1.0370502-1.0712814,1.4659328
				c-0.4258957,0.4269238-0.9162216,0.7852898-1.4598541,1.0632381c-0.5296021,0.269804-1.0984726,0.4570274-1.7347031,0.5718784
				c-0.6605377,0.1167049-1.3351059,0.1500053-1.9019318,0.16712c-0.3050613,0.0059795-0.6101227,0.0100002-0.9141541,0.0100002
				c-0.3593979,0.0020618-0.7229156,0.0020618-1.0802536,0.0020618H9.5343924c-0.3644476,0-0.7268324,0-1.0943727-0.0020618
				c-0.3020735,0-0.6020856-0.0040207-0.9000354-0.0100002c-0.5739398-0.0171146-1.2495332-0.050415-1.9139919-0.16712
				c-0.6342516-0.114851-1.2000465-0.3020744-1.7286241-0.5718784c-0.5397117-0.2739277-1.03004-0.6333237-1.4649024-1.0682888
				c-0.4269238-0.4228001-0.7833294-0.9131279-1.0621918-1.4577885c-0.2698187-0.5315685-0.4550837-1.0954037-0.5678716-1.7347069
				c-0.1248502-0.6846657-0.1550575-1.3773746-0.1681508-1.9099712c-0.0070106-0.2114525-0.0100004-0.4238319-0.0120624-0.6372414
				l-0.0040208-0.2648563v-1.0943718V9.5364542V8.4531126l0.0040208-0.2768145
				c0.002062-0.2104206,0.0050517-0.4218721,0.0120624-0.6373444c0.0130933-0.5275464,0.0433006-1.2202539,0.1691818-1.9098682
				c0.1117569-0.6373448,0.2970219-1.2022119,0.568785-1.7317171C1.6491364,3.3516769,2.005542,2.8613486,2.4364867,2.4354558
				c0.4308414-0.4318726,0.9222007-0.7893091,1.4618094-1.0651962c0.5346601-0.2718663,1.1014864-0.4601211,1.7266653-0.570847
				c0.6785831-0.1197985,1.3784041-0.1510368,1.9068785-0.1671199l0.9092107-0.0130933
				C8.80756,0.6162096,9.1699448,0.6162096,9.5343924,0.6162096H111.9632111"/>
		</g>
		<g>
			<path d="M35.8994141,22.6860352h-3.390625l-0.8134766,2.4042969h-1.4365234l3.2119141-8.8955078h1.4916992l3.2119141,8.8955078
				h-1.4609375L35.8994141,22.6860352z M32.8603516,21.5766602h2.6875l-1.3251953-3.9023438h-0.0371094L32.8603516,21.5766602z"/>
			<path d="M45.2827148,21.8476562c0,2.0161133-1.0786133,3.3105469-2.7060547,3.3105469
				c-0.9248047,0-1.6582031-0.4130859-2.0405273-1.1342773h-0.0307617v3.2114258h-1.331543v-8.6298828h1.2880859v1.0786133
				h0.0249023c0.3696289-0.6967773,1.1586914-1.1464844,2.0649414-1.1464844
				C44.1977539,18.5375977,45.2827148,19.8378906,45.2827148,21.8476562z M43.9140625,21.8476562
				c0-1.3129883-0.6777344-2.1757812-1.7133789-2.1757812c-1.0170898,0-1.7016602,0.8813477-1.7016602,2.1757812
				c0,1.3071289,0.6845703,2.1826172,1.7016602,2.1826172C43.2363281,24.0302734,43.9140625,23.1733398,43.9140625,21.8476562z"/>
			<path d="M52.4804688,21.8476562c0,2.0161133-1.0786133,3.3105469-2.7060547,3.3105469
				c-0.9248047,0-1.6582031-0.4130859-2.0405273-1.1342773H47.703125v3.2114258h-1.331543v-8.6298828h1.2885742v1.0786133h0.0244141
				c0.3701172-0.6967773,1.1591797-1.1464844,2.0649414-1.1464844
				C51.3955078,18.5375977,52.4804688,19.8378906,52.4804688,21.8476562z M51.1123047,21.8476562
				c0-1.3129883-0.6782227-2.1757812-1.7138672-2.1757812c-1.0170898,0-1.7016602,0.8813477-1.7016602,2.1757812
				c0,1.3071289,0.6845703,2.1826172,1.7016602,2.1826172C50.434082,24.0302734,51.1123047,23.1733398,51.1123047,21.8476562z"/>
			<path d="M53.6191406,16.1948242h1.331543v8.8955078h-1.331543V16.1948242z"/>
			<path d="M62.1586914,23.1855469c-0.1791992,1.1772461-1.3256836,1.9848633-2.7924805,1.9848633
				c-1.8867188,0-3.0576172-1.2636719-3.0576172-3.2919922c0-2.0341797,1.1772461-3.3535156,3.0019531-3.3535156
				c1.7939453,0,2.921875,1.2329102,2.921875,3.199707v0.4560547h-4.5800781v0.0800781
				c0,1.1098633,0.6962891,1.8369141,1.7446289,1.8369141c0.7397461,0,1.3188477-0.3510742,1.4975586-0.9121094H62.1586914z
				 M57.6582031,21.25h3.2426758c-0.0307617-0.9926758-0.6655273-1.6459961-1.590332-1.6459961
				C58.3920898,19.6040039,57.7260742,20.2695312,57.6582031,21.25z"/>
			<path d="M72.449707,25.090332v-3.9389648h-4.5678711v3.9389648h-1.3808594v-8.8955078h1.3808594v3.7602539h4.5678711v-3.7602539
				h1.3813477v8.8955078H72.449707z"/>
			<path d="M75.2705078,21.8476562c0-2.0405273,1.2021484-3.3227539,3.0761719-3.3227539
				c1.8798828,0,3.0761719,1.2822266,3.0761719,3.3227539c0,2.046875-1.1894531,3.3227539-3.0761719,3.3227539
				S75.2705078,23.8945312,75.2705078,21.8476562z M80.0664062,21.8476562c0-1.3994141-0.640625-2.2250977-1.7197266-2.2250977
				s-1.7197266,0.8320312-1.7197266,2.2250977c0,1.4057617,0.640625,2.2255859,1.7197266,2.2255859
				S80.0664062,23.253418,80.0664062,21.8476562z"/>
			<path d="M82.5810547,18.6054688h1.2695312v1.109375h0.03125c0.2890625-0.7333984,0.9921875-1.1835938,1.8427734-1.1835938
				c0.9003906,0,1.5537109,0.4624023,1.8125,1.2700195h0.0302734c0.3330078-0.7890625,1.0976562-1.2700195,2.0224609-1.2700195
				c1.2822266,0,2.1201172,0.8505859,2.1201172,2.1455078v4.4135742h-1.3369141v-4.0996094
				c0-0.8320312-0.4501953-1.3129883-1.2392578-1.3129883s-1.3378906,0.5795898-1.3378906,1.3994141v4.0131836h-1.3066406
				v-4.1918945c0-0.7460938-0.4746094-1.2207031-1.2265625-1.2207031c-0.7890625,0-1.3505859,0.6103516-1.3505859,1.4487305
				v3.9638672h-1.3310547V18.6054688z"/>
			<path d="M98.9228516,23.1855469c-0.1787109,1.1772461-1.3251953,1.9848633-2.7929688,1.9848633
				c-1.8857422,0-3.0576172-1.2636719-3.0576172-3.2919922c0-2.0341797,1.1777344-3.3535156,3.0029297-3.3535156
				c1.7939453,0,2.921875,1.2329102,2.921875,3.199707v0.4560547h-4.5800781v0.0800781
				c0,1.1098633,0.6962891,1.8369141,1.7441406,1.8369141c0.7402344,0,1.3193359-0.3510742,1.4980469-0.9121094H98.9228516z
				 M94.4228516,21.25h3.2421875C97.6347656,20.2573242,97,19.6040039,96.0751953,19.6040039
				C95.15625,19.6040039,94.4902344,20.2695312,94.4228516,21.25z"/>
			<path d="M100.4921875,25.090332v-8.8955078h1.3808594v4.2348633h0.0556641l3.7167969-4.2348633h1.6396484l-3.5263672,3.9389648
				l3.8222656,4.956543h-1.7138672l-3.0820312-4.0068359L101.8730469,22.125v2.965332H100.4921875z"/>
			<path d="M108.6728516,16.8974609c0-0.4311523,0.3457031-0.7641602,0.7705078-0.7641602
				c0.4316406,0,0.7763672,0.3330078,0.7763672,0.7641602c0,0.4194336-0.3447266,0.7583008-0.7763672,0.7583008
				C109.0185547,17.6557617,108.6728516,17.3168945,108.6728516,16.8974609z M108.7773438,18.6054688h1.3320312v6.4848633
				h-1.3320312V18.6054688z"/>
			<path d="M113.4882812,17.0703125v1.5351562h1.2333984v1.0537109h-1.2333984v3.5756836
				c0,0.5546875,0.2470703,0.8134766,0.7890625,0.8134766c0.1357422,0,0.3515625-0.0180664,0.4384766-0.0307617v1.0478516
				c-0.1484375,0.0371094-0.4443359,0.0620117-0.7402344,0.0620117c-1.3125,0-1.8242188-0.4931641-1.8242188-1.7509766v-3.7172852
				h-0.9433594v-1.0537109h0.9433594v-1.5351562H113.4882812z"/>
		</g>
		<g>
			<path fill="#777878" d="M33.0644531,12.1181641h-0.7060547l-1.6308594-5.9892578h0.7802734l1.1914062,4.8686523h0.0498047
				l1.340332-4.8686523h0.7553711l1.3408203,4.8686523h0.0498047l1.190918-4.8686523h0.7802734l-1.6313477,5.9892578h-0.7050781
				L34.4921875,7.390625h-0.0498047L33.0644531,12.1181641z"/>
			<path fill="#777878" d="M38.6181641,9.8808594c0-1.4399414,0.7885742-2.3154297,2.0625-2.3154297
				c1.2744141,0,2.0629883,0.8754883,2.0629883,2.3154297c0,1.4365234-0.7885742,2.3164062-2.0629883,2.3164062
				C39.4067383,12.1972656,38.6181641,11.3173828,38.6181641,9.8808594z M42.0048828,9.8808594
				c0-1.0625-0.4775391-1.6723633-1.3242188-1.6723633s-1.3237305,0.6098633-1.3237305,1.6723633
				c0,1.0585938,0.4770508,1.6728516,1.3237305,1.6728516S42.0048828,10.9394531,42.0048828,9.8808594z"/>
			<path fill="#777878" d="M43.8676758,7.644043h0.6806641v0.6640625h0.0664062
				c0.1328125-0.4360352,0.6474609-0.7426758,1.2407227-0.7426758c0.1162109,0,0.265625,0.0078125,0.3574219,0.0205078v0.7138672
				c-0.0585938-0.0166016-0.3154297-0.0415039-0.4570312-0.0415039c-0.6806641,0-1.1743164,0.456543-1.1743164,1.0874023v2.7724609
				h-0.7138672V7.644043z"/>
			<path fill="#777878" d="M49.8710938,7.644043h0.8759766l-1.9257812,1.9174805l2.0541992,2.5566406h-0.9086914
				l-1.6767578-2.0957031l-0.4277344,0.3984375v1.6972656h-0.7138672V5.8676758h0.7138672v3.730957h0.0664062L49.8710938,7.644043z"
				/>
			<path fill="#777878" d="M53.1240234,7.5654297c0.9375,0,1.5893555,0.4648438,1.6845703,1.1992188h-0.7050781
				c-0.0957031-0.3569336-0.4443359-0.59375-0.9838867-0.59375c-0.53125,0-0.9462891,0.2700195-0.9462891,0.668457
				c0,0.3071289,0.2490234,0.4980469,0.7758789,0.6264648l0.6894531,0.1660156
				c0.8422852,0.2036133,1.2490234,0.5688477,1.2490234,1.2119141c0,0.8012695-0.7763672,1.3535156-1.7929688,1.3535156
				c-0.9960938,0-1.6806641-0.4775391-1.7597656-1.2207031h0.734375c0.1206055,0.3779297,0.4775391,0.6186523,1.050293,0.6186523
				c0.6020508,0,1.0336914-0.2866211,1.0336914-0.6972656c0-0.3071289-0.2324219-0.5146484-0.7099609-0.6308594
				l-0.7675781-0.1870117c-0.8388672-0.203125-1.2207031-0.5644531-1.2207031-1.2119141
				C51.4550781,8.1254883,52.1733398,7.5654297,53.1240234,7.5654297z"/>
			<path fill="#777878" d="M62.7861328,12.1181641h-0.7265625l-1-3.4614258h-0.0664062l-0.9960938,3.4614258h-0.722168
				l-1.253418-4.4741211h0.722168l0.8798828,3.5776367h0.0664062l1.0004883-3.5776367H61.375l1,3.5776367h0.0664062
				l0.8798828-3.5776367h0.7182617L62.7861328,12.1181641z"/>
			<path fill="#777878" d="M64.8740234,6.2373047c0-0.2744141,0.2241211-0.4980469,0.4980469-0.4980469
				s0.4980469,0.2236328,0.4980469,0.4980469c0,0.2734375-0.2241211,0.4980469-0.4980469,0.4980469
				S64.8740234,6.5107422,64.8740234,6.2373047z M65.0151367,7.644043h0.7138672v4.4741211h-0.7138672V7.644043z"/>
			<path fill="#777878" d="M68.1044922,6.4863281V7.644043h0.9960938v0.5976562h-0.9960938v2.5317383
				c0,0.5273438,0.1992188,0.7509766,0.6640625,0.7509766c0.1289062,0,0.1992188-0.0039062,0.3320312-0.0166016v0.6020508
				c-0.1411133,0.0249023-0.2783203,0.0415039-0.4189453,0.0415039c-0.921875,0-1.2910156-0.340332-1.2910156-1.1953125V8.2416992
				h-0.722168V7.644043h0.722168V6.4863281H68.1044922z"/>
			<path fill="#777878" d="M70.2231445,5.8676758h0.7138672v2.4819336h0.0664062
				c0.2241211-0.4941406,0.6928711-0.7841797,1.3779297-0.7841797c0.9462891,0,1.5444336,0.6054688,1.5444336,1.6557617v2.8969727
				h-0.7143555V9.3955078c0-0.7929688-0.3569336-1.1870117-1.0336914-1.1870117
				c-0.8007812,0-1.2407227,0.5063477-1.2407227,1.2617188v2.6479492h-0.7138672V5.8676758z"/>
		</g>
		<g>
			<g>
				<g>
					<path fill="#777878" d="M20.166748,5.9049988l0.7356262,0.0014038l0.2492371,0.0041656
						c0.125061,0.0018463,0.2500916,0.0036621,0.3778992,0.0074921c0.5209961,0.0123596,0.9316406,0.0478516,1.2914429,0.1115265
						c0.4284668,0.0766296,0.8084717,0.2016602,1.1633911,0.3830566c0.3597107,0.1821899,0.6901245,0.4219055,0.9809875,0.711441
						c0.2886658,0.2891083,0.5274353,0.6187744,0.7108459,0.9822083c0.1802979,0.3527069,0.3051758,0.7324982,0.3822021,1.1632996
						c0.0796204,0.4342346,0.101593,0.8962555,0.1125183,1.2883606c0.0046997,0.2071838,0.0081787,0.4119263,0.0081787,0.6204376
						c0.0018921,0.2487183,0.0018921,0.4959717,0.0018921,0.7418213v7.7977905c0,0.2468414,0,0.493576-0.0018921,0.7451019
						c0,0.2071381-0.003479,0.4123077-0.0081177,0.6141052c-0.0115051,0.4140015-0.0331116,0.8572083-0.1129456,1.2947388
						c-0.0765381,0.4268646-0.2014771,0.8061981-0.3832703,1.1622314c-0.1817017,0.3610077-0.4207458,0.6920776-0.7066956,0.9802399
						c-0.2946777,0.2906342-0.625946,0.5305634-0.9844971,0.7130432c-0.353302,0.1797485-0.7336121,0.3044128-1.1643982,0.3814697
						c-0.4554443,0.0831604-0.9284363,0.103653-1.3030701,0.1125183c-0.2014465,0.0046234-0.4037476,0.0092773-0.6070557,0.0102692
						c-0.2477417,0.0018921-0.4944458,0.0018921-0.7422791,0.0018921h-7.7967834c-0.24823,0-0.4950256,0-0.7431946-0.0018921
						c-0.2028809-0.0009918-0.406189-0.0056763-0.6199646-0.0105743c-0.3596191-0.0085144-0.8313904-0.0289764-1.2922363-0.1124878
						c-0.428009-0.0767975-0.8075256-0.2014465-1.1607666-0.3813782c-0.3583374-0.1819305-0.6893311-0.4216766-0.9811401-0.7098846
						c-0.2875977-0.2884827-0.5275269-0.619873-0.7130737-0.9849091c-0.1795349-0.3532867-0.3042603-0.733017-0.381073-1.1595154
						c-0.0814819-0.4598389-0.1029968-0.9337311-0.1127014-1.2972717c-0.0062561-0.2028961-0.0075378-0.4067688-0.0075989-0.6206818
						C6.3542175,20.208725,6.354248,19.9634094,6.354248,19.7180023v-7.7977905
						c0-0.2444305-0.0000305-0.4902496,0.0040283-0.7456055c0-0.2034607,0.0012817-0.4069366,0.0075989-0.6146545
						C6.3755493,10.197937,6.3970947,9.7238312,6.478302,9.2677612C6.5554504,8.83815,6.6801453,8.4579468,6.8593445,8.1057129
						C7.0454102,7.7405548,7.2850342,7.410553,7.5715637,7.1248932c0.2918091-0.2908783,0.6219788-0.5304413,0.9836426-0.7131805
						c0.3526611-0.1804657,0.7318726-0.305481,1.1575317-0.3818512c0.3692932-0.0648651,0.7684021-0.09935,1.2972412-0.1118927
						c0.1247253-0.0037384,0.2499695-0.0055695,0.3753052-0.0074005l0.2421265-0.0040741l0.7425537-0.0014954H20.166748
						 M20.166748,5.4049988h-7.7967834c-0.2495117,0-0.4975891,0-0.7456055,0.0015106
						c-0.2099915,0.0043945-0.4204102,0.0054016-0.6293945,0.0116882c-0.4561157,0.0108032-0.9155884,0.0396118-1.3687134,0.1192017
						C9.1692505,5.6194,8.7434692,5.7537079,8.3274536,5.9665985C7.9177551,6.1735992,7.5447693,6.4456024,7.2185669,6.7707977
						c-0.3241882,0.3232117-0.5957031,0.6977081-0.804718,1.1079102C6.2024536,8.2942047,6.0686646,8.7200012,5.9861755,9.1793976
						c-0.0801086,0.4498138-0.1079102,0.910202-0.1201172,1.3672028c-0.0064087,0.2109985-0.007782,0.4195099-0.007782,0.628006
						c-0.0040283,0.25-0.0040283,0.4985046-0.0040283,0.7456055v7.7977905c0,0.2481079,0,0.496109,0.0040283,0.7451019
						c0,0.2109985,0.0013733,0.4199982,0.007782,0.628006c0.012207,0.4579926,0.0400085,0.9169922,0.1201172,1.3690948
						c0.082489,0.4579926,0.2162781,0.8827972,0.4276733,1.2987976c0.2090149,0.4112091,0.4805298,0.7862091,0.804718,1.1114044
						c0.3262024,0.3222046,0.6991882,0.594696,1.1088867,0.8027039c0.4160156,0.2118988,0.8417969,0.3456879,1.2987976,0.4276886
						c0.453125,0.0821075,0.9125977,0.1094055,1.3687134,0.1202087c0.2089844,0.0047913,0.4194031,0.0096893,0.6293945,0.0106964
						c0.2480164,0.0019073,0.4960938,0.0019073,0.7456055,0.0019073h7.7967834c0.249115,0,0.4971008,0,0.7461243-0.0019073
						c0.2095032-0.0010071,0.4194946-0.0059052,0.6285095-0.0106964c0.4554749-0.0108032,0.9178772-0.0381012,1.3675842-0.1202087
						c0.4584961-0.0820007,0.8847961-0.2157898,1.3013-0.4276886c0.4086914-0.2080078,0.782196-0.4804993,1.1088867-0.8027039
						c0.3227234-0.3251953,0.5952148-0.7001953,0.8022156-1.1114044c0.2124023-0.4160004,0.3466797-0.8408051,0.4288025-1.2987976
						c0.082489-0.4521027,0.1078796-0.9111023,0.1206055-1.3690948c0.0047913-0.2080078,0.0083008-0.4170074,0.0083008-0.628006
						c0.0018921-0.2489929,0.0018921-0.496994,0.0018921-0.7451019v-7.7977905c0-0.2471008,0-0.4956055-0.0018921-0.7456055
						c0-0.2084961-0.0035095-0.4170074-0.0083008-0.628006c-0.0127258-0.4570007-0.0381165-0.9173889-0.1206055-1.3672028
						c-0.0821228-0.4593964-0.2164001-0.8851929-0.4288025-1.3006897c-0.2070007-0.410202-0.4794922-0.7846985-0.8022156-1.1079102
						c-0.3266907-0.3251953-0.7001953-0.5971985-1.1088867-0.8041992c-0.4165039-0.2128906-0.842804-0.3471985-1.3013-0.4291992
						c-0.449707-0.0795898-0.9121094-0.1083984-1.3675842-0.1192017c-0.2090149-0.0062866-0.4190063-0.0072937-0.6285095-0.0116882
						C20.6638489,5.4049988,20.415863,5.4049988,20.166748,5.4049988L20.166748,5.4049988z"/>
				</g>
			</g>
			<path fill="#FFFFFF" d="M20.166748,5.9049988l0.7356262,0.0014038l0.2492371,0.0041656
				c0.125061,0.0018463,0.2500916,0.0036621,0.3778992,0.0074921c0.5209961,0.0123596,0.9316406,0.0478516,1.2914429,0.1115265
				c0.4284668,0.0766296,0.8084717,0.2016602,1.1633911,0.3830566c0.3597107,0.1821899,0.6901245,0.4219055,0.9809875,0.711441
				c0.2886658,0.2891083,0.5274353,0.6187744,0.7108459,0.9822083c0.1802979,0.3527069,0.3051758,0.7324982,0.3822021,1.1632996
				c0.0796204,0.4342346,0.101593,0.8962555,0.1125183,1.2883606c0.0046997,0.2071838,0.0081787,0.4119263,0.0081787,0.6204376
				c0.0018921,0.2487183,0.0018921,0.4959717,0.0018921,0.7418213v7.7977905c0,0.2468414,0,0.493576-0.0018921,0.7451019
				c0,0.2071381-0.003479,0.4123077-0.0081177,0.6141052c-0.0115051,0.4140015-0.0331116,0.8572083-0.1129456,1.2947388
				c-0.0765381,0.4268646-0.2014771,0.8061981-0.3832703,1.1622314c-0.1817017,0.3610077-0.4207458,0.6920776-0.7066956,0.9802399
				c-0.2946777,0.2906342-0.625946,0.5305634-0.9844971,0.7130432c-0.353302,0.1797485-0.7336121,0.3044128-1.1643982,0.3814697
				c-0.4554443,0.0831604-0.9284363,0.103653-1.3030701,0.1125183c-0.2014465,0.0046234-0.4037476,0.0092773-0.6070557,0.0102692
				c-0.2477417,0.0018921-0.4944458,0.0018921-0.7422791,0.0018921h-7.7967834c-0.24823,0-0.4950256,0-0.7431946-0.0018921
				c-0.2028809-0.0009918-0.406189-0.0056763-0.6199646-0.0105743c-0.3596191-0.0085144-0.8313904-0.0289764-1.2922363-0.1124878
				c-0.428009-0.0767975-0.8075256-0.2014465-1.1607666-0.3813782c-0.3583374-0.1819305-0.6893311-0.4216766-0.9811401-0.7098846
				c-0.2875977-0.2884827-0.5275269-0.619873-0.7130737-0.9849091c-0.1795349-0.3532867-0.3042603-0.733017-0.381073-1.1595154
				c-0.0814819-0.4598389-0.1029968-0.9337311-0.1127014-1.2972717c-0.0062561-0.2028961-0.0075378-0.4067688-0.0075989-0.6206818
				C6.3542175,20.208725,6.354248,19.9634094,6.354248,19.7180023v-7.7977905c0-0.2444305-0.0000305-0.4902496,0.0040283-0.7456055
				c0-0.2034607,0.0012817-0.4069366,0.0075989-0.6146545C6.3755493,10.197937,6.3970947,9.7238312,6.478302,9.2677612
				C6.5554504,8.83815,6.6801453,8.4579468,6.8593445,8.1057129C7.0454102,7.7405548,7.2850342,7.410553,7.5715637,7.1248932
				c0.2918091-0.2908783,0.6219788-0.5304413,0.9836426-0.7131805c0.3526611-0.1804657,0.7318726-0.305481,1.1575317-0.3818512
				c0.3692932-0.0648651,0.7684021-0.09935,1.2972412-0.1118927c0.1247253-0.0037384,0.2499695-0.0055695,0.3753052-0.0074005
				l0.2421265-0.0040741l0.7425537-0.0014954H20.166748"/>
		</g>
	</g>
	<g>
		<path fill="#F79918" d="M23.8151264,13.8055935c-0.0654278-0.0516653-0.6371593-0.5031481-1.4321651-1.1309481
			l0.0000763,0.0000601v-2.5691261c0-0.1743917-0.0691814-0.2242136-0.1929798-0.2242136h-1.3088226
			c-0.1430988,0-0.2302952,0.0279951-0.2302952,0.2242136v1.2012968l-0.0003834-0.0002642
			c-1.8923111-1.4943142-3.9444485-3.11483-4.0224609-3.1764393c-0.1552696-0.1226072-0.2512245-0.1546211-0.3614368-0.1546211
			c-0.1093292,0-0.2061634,0.0320139-0.3614321,0.1546211c-0.1552696,0.122612-6.9807777,5.5125427-7.1870365,5.6754208
			c-0.2519894,0.198988-0.1810017,0.4853029,0.0992651,0.4853029c0.1992979,0,1.3328228,0,1.3328228,0s0,6.8322783,0,7.2308836
			c0,0.4671116,0.1868448,0.6539555,0.6315765,0.6539555c0.3077145,0,5.4848042,0,5.4848042,0s5.1770935,0,5.4848022,0
			c0.4447327,0,0.6315765-0.1868439,0.6315765-0.6539555c0-0.3986053,0-7.2308836,0-7.2308836s1.1335258,0,1.3328285,0
			C23.9961319,14.2908964,24.0671158,14.0045815,23.8151264,13.8055935z M21.2619705,20.5071449
			c0,0.3233089-0.1662655,0.5475235-0.5035343,0.5475235c-0.337265,0-4.4917774,0-4.4917774,0s-4.1545134,0-4.4917774,0
			s-0.5035362-0.2242146-0.5035362-0.5475235c0-0.2672615,0-6.4498043,0-6.7580976
			c0-0.3923731,0.1715498-0.642807,0.3675079-0.7975512c0.1959591-0.1547441,4.2054348-3.3209248,4.3196802-3.4111395
			c0.1142473-0.0902157,0.2119665-0.1292181,0.3081255-0.1292181c0.0930843,0,0.1938782,0.0390024,0.3081284,0.1292181
			c0.1142464,0.0902147,4.1237183,3.2563953,4.3196754,3.4111395c0.1959591,0.1547441,0.3675079,0.4051781,0.3675079,0.7975512
			C21.2619705,14.0573406,21.2619705,20.2398834,21.2619705,20.5071449z"/>
		<path fill="#FAAC28" d="M20.8944626,12.9514961c-0.1959572-0.1547441-4.2054291-3.3209248-4.3196754-3.4111395
			c-0.1142502-0.0902157-0.215044-0.1292181-0.3081284-0.1292181c-0.096159,0-0.1938782,0.0390024-0.3081255,0.1292181
			c-0.1142454,0.0902147-4.1237211,3.2563953-4.3196802,3.4111395c-0.1959581,0.1547441-0.3675079,0.4051781-0.3675079,0.7975512
			c0,0.3082933,0,6.4908361,0,6.7580976c0,0.3233089,0.1662722,0.5475235,0.5035362,0.5475235s4.4917774,0,4.4917774,0
			s4.1545124,0,4.4917774,0c0.3372688,0,0.5035343-0.2242146,0.5035343-0.5475235c0-0.2672615,0-6.4498043,0-6.7580976
			C21.2619705,13.3566742,21.0904217,13.1062403,20.8944626,12.9514961z M20.1409035,19.4925041
			c0,0.3009644-0.1699619,0.4410973-0.4203987,0.4410973c-0.2504349,0-3.453846,0-3.453846,0s-3.2034121,0-3.453846,0
			s-0.4204006-0.1401329-0.4204006-0.4410973c0-0.2075348,0-5.0054207,0-5.2769747
			c0-0.2920952,0.068512-0.4602556,0.2759066-0.6246977c0.117074-0.0928297,3.2594967-2.5739431,3.3435221-2.6402922
			c0.0840263-0.0663528,0.1735153-0.1006975,0.254818-0.1006975c0.0806313,0,0.1707954,0.0343447,0.2548218,0.1006975
			c0.0840244,0.066349,3.2264442,2.5474625,3.343523,2.6402922c0.2073936,0.1644421,0.2758999,0.3326025,0.2758999,0.6246977
			C20.1409035,14.4870834,20.1409035,19.2849693,20.1409035,19.4925041z"/>
		<path fill="#FDBF47" d="M19.8650036,13.5908318c-0.1170788-0.0928297-3.2594986-2.5739431-3.343523-2.6402922
			c-0.0840263-0.0663528-0.1741905-0.1006975-0.2548218-0.1006975c-0.0813026,0-0.1707916,0.0343447-0.254818,0.1006975
			c-0.0840254,0.066349-3.2264481,2.5474625-3.3435221,2.6402922c-0.2073946,0.1644421-0.2759066,0.3326025-0.2759066,0.6246977
			c0,0.271554,0,5.0694399,0,5.2769747c0,0.3009644,0.1699667,0.4410973,0.4204006,0.4410973s3.453846,0,3.453846,0
			s3.2034111,0,3.453846,0c0.2504368,0,0.4203987-0.1401329,0.4203987-0.4410973c0-0.2075348,0-5.0054207,0-5.2769747
			C20.1409035,13.9234343,20.0723972,13.7552738,19.8650036,13.5908318z M19.0198364,18.477869
			c0,0.2412434-0.1340714,0.3346653-0.3176346,0.3346653c-0.1835613,0-2.4355431,0-2.4355431,0s-2.2519836,0-2.4355431,0
			c-0.1835604,0-0.3176355-0.0934219-0.3176355-0.3346653c0-0.1478138,0-3.6264391,0-3.7958536s0-0.3039274,0.1842985-0.4518433
			c0.1213894-0.0974274,2.3020563-1.8178749,2.3673687-1.8694534c0.0653133-0.0515738,0.129406-0.0784006,0.2015114-0.0784006
			c0.0681725,0,0.1362,0.0268269,0.2015152,0.0784006c0.0653076,0.0515785,2.2459736,1.7720261,2.367363,1.8694534
			c0.1842995,0.1479158,0.1842995,0.2824287,0.1842995,0.4518433S19.0198364,18.3300552,19.0198364,18.477869z"/>
		<path fill="#FFD364" d="M18.835537,14.2301722c-0.1213894-0.0974274-2.3020554-1.8178749-2.367363-1.8694534
			c-0.0653152-0.0515738-0.1333427-0.0784006-0.2015152-0.0784006c-0.0721054,0-0.136198,0.0268269-0.2015114,0.0784006
			c-0.0653124,0.0515785-2.2459793,1.7720261-2.3673687,1.8694534c-0.1842985,0.1479158-0.1842985,0.2824287-0.1842985,0.4518433
			s0,3.6480398,0,3.7958536c0,0.2412434,0.1340752,0.3346653,0.3176355,0.3346653c0.1835594,0,2.4355431,0,2.4355431,0
			s2.2519817,0,2.4355431,0c0.1835632,0,0.3176346-0.0934219,0.3176346-0.3346653c0-0.1478138,0-3.6264391,0-3.7958536
			S19.0198364,14.378088,18.835537,14.2301722z M17.8987694,17.4632339c0,0.1861935-0.0934219,0.2282333-0.2242126,0.2282333
			c-0.0861149,0-1.4078979,0-1.4078979,0s-1.3217793,0-1.4078989,0c-0.1307907,0-0.2242126-0.0420399-0.2242126-0.2282333
			c0-0.1207962,0-2.1914034,0-2.3147364c0-0.1233282,0.0513811-0.2503567,0.159502-0.3382359
			c0.0574989-0.0467386,1.2805376-1.0047188,1.3244066-1.0393591c0.043869-0.034646,0.1089401-0.0540876,0.1482029-0.0540876
			c0.0392609,0,0.1043339,0.0194416,0.1482029,0.0540876c0.0438728,0.0346403,1.2669067,0.9926205,1.3244057,1.0393591
			c0.10812,0.0878792,0.159502,0.2149076,0.159502,0.3382359C17.8987694,15.2718306,17.8987694,17.3424377,17.8987694,17.4632339z"
			/>
		<path fill="#FFF080" d="M16.2666588,17.6914673c0,0,1.3217812,0,1.4078999,0c0.1307907,0,0.2242126-0.0420399,0.2242126-0.2282314
			c0-0.1207962,0-2.1914053,0-2.3147354s-0.0513821-0.2503595-0.159502-0.3382397
			c-0.0574989-0.0467367-1.2805347-1.004714-1.3244057-1.0393572c-0.0438709-0.0346441-0.108942-0.0540867-0.1482048-0.0540867
			s-0.1043339,0.0194426-0.1482048,0.0540867c-0.043869,0.0346432-1.2669058,0.9926205-1.3244057,1.0393572
			c-0.10812,0.0878801-0.1595011,0.2149096-0.1595011,0.3382397s0,2.1939392,0,2.3147354
			c0,0.1861916,0.0934219,0.2282314,0.2242126,0.2282314C14.9448776,17.6914673,16.2666588,17.6914673,16.2666588,17.6914673z"/>
	</g>
</g>
<g>
</g>
<g>
</g>
<g>
</g>
<g>
</g>
<g>
</g>
<g>
</g>
</svg>
