<?xml version="1.0" encoding="utf-8"?>
<!-- Generator: Adobe Illustrator 20.1.0, SVG Export Plug-In . SVG Version: 6.00 Build 0)  -->
<svg version="1.1" id="Layer_1" xmlns="http://www.w3.org/2000/svg" xmlns:xlink="http://www.w3.org/1999/xlink" x="0px" y="0px"
	 viewBox="0 0 80.9 80.9" style="enable-background:new 0 0 80.9 80.9;" xml:space="preserve">
<style type="text/css">
	.st0{fill:none;stroke:#0090FF;stroke-miterlimit:10;}
	.st1{fill:#0090FF;}
</style>
<title>actions-count</title>
<circle class="st0" cx="40.5" cy="40.5" r="40"/>
<g>
	<path class="st1" d="M18.4,50.1c0.4,1.1,1,2.1,1.7,2.9s1.7,1.4,2.8,1.9c1.1,0.5,2.4,0.7,3.8,0.7c1.2,0,2.3-0.2,3.4-0.5
		c1.1-0.3,2-0.8,2.9-1.5c0.8-0.7,1.5-1.5,2-2.5c0.5-1,0.8-2.1,0.8-3.3c0-1.3-0.2-2.4-0.7-3.3c-0.4-0.9-1-1.7-1.8-2.3
		c-0.8-0.6-1.7-1.1-2.7-1.4c-1-0.3-2.1-0.5-3.3-0.5h-2.7v-2.7h2.7c0.8,0,1.6-0.1,2.5-0.4s1.6-0.6,2.3-1.2c0.7-0.5,1.2-1.2,1.7-2
		c0.4-0.8,0.7-1.8,0.7-2.9c0-1.2-0.2-2.2-0.6-3c-0.4-0.8-1-1.5-1.7-2.1s-1.5-1-2.4-1.2c-0.9-0.3-1.9-0.4-3-0.4
		c-1.3,0-2.5,0.2-3.5,0.7c-1,0.4-1.9,1-2.5,1.8c-0.7,0.8-1.2,1.7-1.5,2.8c-0.3,1.1-0.5,2.3-0.5,3.6h-3.2c0-1.7,0.3-3.2,0.8-4.6
		c0.5-1.4,1.3-2.6,2.2-3.6c1-1,2.1-1.8,3.5-2.4c1.4-0.6,2.9-0.9,4.6-0.9c1.4,0,2.7,0.2,4,0.5s2.5,0.9,3.5,1.6c1,0.7,1.8,1.6,2.5,2.8
		c0.6,1.1,0.9,2.5,0.9,4c0,1.9-0.5,3.6-1.5,5c-1,1.4-2.5,2.3-4.4,2.8v0.1c2.3,0.4,4.1,1.3,5.4,2.9c1.3,1.6,1.9,3.5,1.9,5.8
		c0,1.7-0.3,3.3-1,4.6c-0.7,1.3-1.5,2.4-2.6,3.3s-2.4,1.6-3.9,2c-1.5,0.5-3,0.7-4.6,0.7c-1.8,0-3.5-0.3-5-0.8
		c-1.5-0.5-2.8-1.3-3.9-2.3c-1.1-1-1.9-2.2-2.5-3.7s-0.8-3.2-0.6-5.1H18C17.9,47.7,18.1,48.9,18.4,50.1z"/>
	<path class="st1" d="M61.4,23.6c1.6,1.1,2.8,2.6,3.7,4.3c0.9,1.7,1.5,3.7,1.8,5.8c0.3,2.1,0.5,4.2,0.5,6.3c0,2.1-0.2,4.2-0.5,6.3
		c-0.3,2.1-0.9,4.1-1.8,5.8c-0.9,1.7-2.1,3.2-3.7,4.3c-1.6,1.1-3.7,1.7-6.3,1.7c-2.5,0-4.6-0.6-6.2-1.7c-1.6-1.1-2.9-2.5-3.7-4.3
		s-1.5-3.7-1.8-5.8c-0.3-2.1-0.5-4.2-0.5-6.3c0-2.1,0.2-4.2,0.5-6.3c0.3-2.1,0.9-4.1,1.8-5.8c0.9-1.7,2.1-3.2,3.7-4.3
		c1.6-1.1,3.7-1.7,6.2-1.7C57.7,22,59.8,22.5,61.4,23.6z M50.3,26.2c-1.2,1-2.1,2.3-2.7,3.9c-0.6,1.5-1,3.2-1.2,5s-0.3,3.5-0.3,5
		c0,1.5,0.1,3.2,0.3,5s0.6,3.5,1.2,5c0.6,1.6,1.5,2.9,2.7,3.9c1.2,1,2.8,1.6,4.8,1.6s3.6-0.5,4.8-1.6c1.2-1,2.1-2.3,2.7-3.9
		c0.6-1.6,1-3.2,1.2-5s0.3-3.5,0.3-5c0-1.5-0.1-3.2-0.3-5s-0.6-3.5-1.2-5c-0.6-1.5-1.5-2.8-2.7-3.9c-1.2-1-2.8-1.6-4.8-1.6
		S51.5,25.1,50.3,26.2z"/>
</g>
</svg>
