<svg xmlns="http://www.w3.org/2000/svg" width="70" height="70" viewBox="0 0 70 70"><defs><style>.a{fill:none;stroke:#0090ff;stroke-miterlimit:10;}</style></defs><title>icon</title><rect class="a" x="13.8" y="55.84" width="42.59" height="4.53" rx="1.92" ry="1.92"/><path class="a" d="M34,16.7H36a14.8,14.8,0,0,1,14.8,14.8V55.84a0,0,0,0,1,0,0H19.21a0,0,0,0,1,0,0V31.51A14.8,14.8,0,0,1,34,16.7Z"/><path class="a" d="M22.67,31.75A12.45,12.45,0,0,1,35,19.85"/><line class="a" x1="10.49" y1="32.26" x2="16.74" y2="32.26"/><line class="a" x1="53.26" y1="32.26" x2="59.51" y2="32.26"/><line class="a" x1="35.48" y1="13.88" x2="35.48" y2="7.63"/><line class="a" x1="15.86" y1="14.92" x2="20.28" y2="19.34"/><line class="a" x1="49.72" y1="19.34" x2="54.14" y2="14.92"/></svg>