<svg xmlns="http://www.w3.org/2000/svg" width="70" height="70" viewBox="0 0 70 70"><defs><style>.cls-1{fill:none;stroke:#0b94ff;stroke-miterlimit:10;stroke-width:1px;}</style></defs><title>icon_motion</title><g id="Capa_2" data-name="Capa 2"><g id="Capa_2-2" data-name="Capa 2"><path class="cls-1" d="M63.58,18.77a32.49,32.49,0,1,0,3.14,13.95A32.48,32.48,0,0,0,63.58,18.77ZM34.25,53.55A20.83,20.83,0,1,1,55.08,32.72,20.83,20.83,0,0,1,34.25,53.55Z"/><path class="cls-1" d="M34.25,67h11.6a32.36,32.36,0,0,0,22.4-26.65L68.2,28.75a31.18,31.18,0,0,0-4.61-10"/><path class="cls-1" d="M34.25,67H22.65A32.36,32.36,0,0,1,.25,40.38L.3,28.75a31.18,31.18,0,0,1,4.61-10"/></g></g></svg>
