<svg xmlns="http://www.w3.org/2000/svg" width="70" height="70" viewBox="0 0 70 70"><defs><style>.a{fill:#0090ff;}</style></defs><title>icon</title><path class="a" d="M26.59,62.44a.52.52,0,0,0,.65-.16l23.09-33.1c.12-.17.08-.14,0-.28s-.23-.05-.43-.05H37L43.13,8.13a.76.76,0,0,0-.12-.6c-.1-.12-.24.15-.37.15s0,.34-.06.34h0c-.16,0-.3-.3-.36-.19L19.66,40.43a.87.87,0,0,0,0,.69c.09.18.26.47.43.47H32.59L26.32,62.11C26.25,62.35,26.38,62.36,26.59,62.44Zm7.19-21.78c0-.15,0-.11-.11-.26s-.25,0-.38,0H21.08l.19-.48L41.2,10.86,35.82,28.8a1.26,1.26,0,0,0,.1.72c.1.14.25.5.4.5H48.94l-.19,0L28.26,59.14Z"/></svg>