<?xml version="1.0" encoding="utf-8"?>
<!-- Generator: Adobe Illustrator 21.0.2, SVG Export Plug-In . SVG Version: 6.00 Build 0)  -->
<svg version="1.1" id="Layer_1" xmlns="http://www.w3.org/2000/svg" xmlns:xlink="http://www.w3.org/1999/xlink" x="0px" y="0px"
	 viewBox="0 0 70 70" style="enable-background:new 0 0 70 70;" xml:space="preserve">
<style type="text/css">
	.st0{fill:#0090FF;}
</style>
<g>
	<path class="st0" d="M50.4,56.7H18.6c-0.2,0-0.4-0.1-0.5-0.2S18,56.1,18,56l1.5-31.7c0-0.4,0.3-0.6,0.7-0.6h28.7
		c0.4,0,0.7,0.3,0.7,0.6L51,56c0,0.2-0.1,0.4-0.2,0.5C50.7,56.6,50.6,56.7,50.4,56.7z M19.3,55.3h30.3l-1.4-30.4H20.8L19.3,55.3z"/>
	<path class="st0" d="M41.8,27.6c-0.4,0-0.7-0.3-0.7-0.7v-6.7c0-3.6-3-6.6-6.6-6.6c-3.6,0-6.6,3-6.6,6.6v6.7c0,0.4-0.3,0.7-0.7,0.7
		s-0.7-0.3-0.7-0.7v-6.7c0-4.4,3.6-7.9,7.9-7.9s7.9,3.6,7.9,7.9v6.7C42.4,27.3,42.1,27.6,41.8,27.6z"/>
</g>
</svg>
