<svg xmlns="http://www.w3.org/2000/svg" width="39" height="52.66" viewBox="0 0 39 52.66"><defs><style>.a{fill:#0090ff;}.b{fill:none;stroke:#0090ff;stroke-miterlimit:10;}</style></defs><title>icon-shield</title><path class="a" d="M21.29,51.78a96.52,96.52,0,0,0,11,8.17l1.91,1.3a.49.49,0,0,0,.54,0L36.61,60a97.29,97.29,0,0,0,11-8.19C52,47.81,54,44.17,54,40.3V16.5a.54.54,0,0,0-.17-.36,28.84,28.84,0,0,0-38.71,0,.49.49,0,0,0-.12.36V40.3C15,44.17,17,47.81,21.29,51.78ZM16,16.71l.13-.15A28.38,28.38,0,0,1,34.46,9.69a28.5,28.5,0,0,1,18.36,6.87l.18.15V40.3c0,3.55-1.93,7-6,10.71a95.83,95.83,0,0,1-10.9,8.09l-1.64,1.1-1.63-1.1A95.94,95.94,0,0,1,22,51c-4.09-3.76-6-7.16-6-10.71Z" transform="translate(-15 -8.67)"/><polygon class="b" points="19.5 29.77 13.58 32.88 14.71 26.29 9.92 21.62 16.54 20.66 19.5 14.66 22.46 20.66 29.08 21.62 24.29 26.29 25.42 32.88 19.5 29.77"/></svg>