<?xml version="1.0" encoding="utf-8"?>
<!-- Generator: Adobe Illustrator 21.0.0, SVG Export Plug-In . SVG Version: 6.00 Build 0)  -->
<svg version="1.1" width="70" height="70" id="Warstwa_1" xmlns="http://www.w3.org/2000/svg" xmlns:xlink="http://www.w3.org/1999/xlink" x="0px" y="0px"
	 viewBox="0 0 70 70" style="enable-background:new 0 0 70 70;" xml:space="preserve">
<style type="text/css">
	.st0{fill:#0090FF;}
</style>
<path class="st0" d="M35,9.7c-2,2.6-17.8,24-17.8,32.9c0,9.8,8,17.8,17.8,17.8c9.8,0,17.8-8,17.8-17.8C52.8,33.6,37,12.3,35,9.7z
	 M35,59.2c-9.2,0-16.7-7.5-16.7-16.7c0-3.5,2.4-9.2,7.1-16.9c3.7-6.1,7.8-11.7,9.4-13.9l0.2-0.3l0.2,0.3c1.6,2.1,5.7,7.7,9.4,13.9
	c4.7,7.7,7.1,13.4,7.1,16.9C51.7,51.7,44.2,59.2,35,59.2z"/>
<path class="st0" d="M34.8,56.2v-1.1C28,55,22.6,49.5,22.5,42.8h-1.1C21.5,50.2,27.4,56.1,34.8,56.2z"/>
</svg>
