<?xml version="1.0" encoding="utf-8"?>
<!-- Generator: Adobe Illustrator 21.0.0, SVG Export Plug-In . SVG Version: 6.00 Build 0)  -->
<svg version="1.1" id="Warstwa_1" xmlns="http://www.w3.org/2000/svg" xmlns:xlink="http://www.w3.org/1999/xlink" x="0px" y="0px"
	 viewBox="0 0 85 85" style="enable-background:new 0 0 85 85;" xml:space="preserve">
<style type="text/css">
	.st0{fill:#0090FF;}
</style>
<path class="st0" d="M22.4,68c4.7,4.3,10.8,8.4,16.7,12.4l2.9,2c0.2,0.2,0.6,0.2,0.8,0l2.9-1.9c5.9-4,12.1-8.1,16.8-12.4
	c6.6-6,9.6-11.6,9.6-17.4V14.4c0-0.2-0.1-0.4-0.3-0.6C71.4,13.4,60.5,2.5,42.4,2.5c-18.1,0-28.9,10.9-29.4,11.3
	c-0.1,0.1-0.2,0.3-0.2,0.6v36.2C12.9,56.4,15.9,62,22.4,68z M14.4,14.7l0.2-0.2c1.9-1.7,12.3-10.4,27.8-10.4
	c15.5,0,26,8.7,27.9,10.4l0.3,0.2v35.8c0,5.4-2.9,10.6-9.1,16.3c-4.6,4.3-10.7,8.3-16.6,12.3l-2.5,1.7l-2.5-1.7
	c-5.9-4-11.9-8-16.5-12.3c-6.2-5.7-9.1-10.9-9.1-16.3V14.7z"/>
<g>
	<path class="st0" d="M33.4,63.2c-0.1,0-0.2,0-0.2-0.1c-0.2-0.1-0.3-0.4-0.2-0.6l7.8-21H34c-0.2,0-0.3-0.1-0.4-0.2
		c-0.1-0.1-0.1-0.3-0.1-0.4l5.7-19.9c0.1-0.2,0.3-0.4,0.5-0.4h9.5c0.2,0,0.3,0.1,0.4,0.2c0.1,0.1,0.1,0.3,0.1,0.5L44.5,35h7.9
		c0.2,0,0.4,0.1,0.4,0.3c0.1,0.2,0.1,0.4,0,0.5L33.8,63C33.7,63.1,33.5,63.2,33.4,63.2z M34.7,40.5h6.7c0.2,0,0.3,0.1,0.4,0.2
		c0.1,0.1,0.1,0.3,0.1,0.5l-6.7,18.1L51.4,36h-7.6c-0.2,0-0.3-0.1-0.4-0.2c-0.1-0.1-0.1-0.3-0.1-0.5l5.2-13.8h-8.4L34.7,40.5z"/>
</g>
</svg>
