<?xml version="1.0" encoding="utf-8"?>
<!-- Generator: Adobe Illustrator 21.0.2, SVG Export Plug-In . SVG Version: 6.00 Build 0)  -->
<svg version="1.1" id="Capa_1" xmlns="http://www.w3.org/2000/svg" xmlns:xlink="http://www.w3.org/1999/xlink" x="0px" y="0px"
	 viewBox="0 0 82 82" style="enable-background:new 0 0 82 82;" xml:space="preserve">
<style type="text/css">
	.st0{clip-path:url(#SVGID_2_);fill:#0090FF;}
	.st1{fill:none;stroke:#0090FF;stroke-width:2;}
</style>
<g transform="translate(1 1)">
	<g>
		<defs>
			<circle id="SVGID_1_" cx="40" cy="40" r="40"/>
		</defs>
		<clipPath id="SVGID_2_">
			<use xlink:href="#SVGID_1_"  style="overflow:visible;"/>
		</clipPath>
		<path class="st0" d="M72.5,79.5h-65c0-2.9,0.1-5.2,0.3-6.8c0.5-2.3,5-5,13.7-8.3c1.4-0.5,3-1,4.9-1.7c2.6-0.9,4.1-1.6,4.6-2.1
			c0.5-0.5,0.7-2,0.7-4.5v-1c0-1.4-0.5-2.7-1.5-4c-1-1.3-1.8-3.6-2.4-6.9c-0.2-1.1-0.6-2-1-2.7c-0.5-0.7-0.9-2-1.4-4.1
			c-0.3-1-0.4-2-0.1-2.9c0.3-0.9,0.4-1.5,0.4-1.7c-0.2-1.9-0.5-3.7-0.7-5.6C24.9,24.8,26,22,28.5,19c2.5-3,6.3-4.5,11.5-4.5
			S49,16,51.5,19c2.5,3,3.6,5.8,3.4,8.4c-0.2,1.9-0.5,3.8-0.7,5.6c0,0.2,0.1,0.8,0.4,1.7c0.3,0.9,0.3,1.9-0.1,2.9
			c-0.5,2-0.9,3.4-1.4,4.1c-0.5,0.7-0.8,1.6-1,2.7c-0.6,3.3-1.4,5.6-2.4,6.9c-1,1.3-1.5,2.6-1.5,4c0,3.4,0.3,5.3,1,5.8
			c0.2,0.2,3,1.3,8.3,3.2c0.2,0.1,0.5,0.2,0.8,0.3c8.7,3.3,13.3,6,13.7,8.3L72.5,79.5z"/>
	</g>
	<circle class="st1" cx="40" cy="40" r="40"/>
</g>
</svg>
