<?xml version="1.0" encoding="utf-8"?>
<!-- Generator: Adobe Illustrator 21.0.1, SVG Export Plug-In . SVG Version: 6.00 Build 0)  -->
<svg version="1.1" id="Warstwa_1" xmlns="http://www.w3.org/2000/svg" xmlns:xlink="http://www.w3.org/1999/xlink" x="0px" y="0px"
	 viewBox="0 0 70 70" style="enable-background:new 0 0 70 70;" xml:space="preserve">
<style type="text/css">
	.st0{fill:#FFFFFF;}
</style>
<path class="st0" d="M59.4,33.9c0.1-0.1,0.1-0.3,0.1-0.5c0-0.1-0.1-0.4-0.3-0.4L35.4,12.3c-0.1-0.1-0.3-0.3-0.5-0.3
	s-0.4,0.1-0.5,0.3L10.6,33.1c-0.3,0.3-0.3,0.6-0.1,0.9c0.3,0.3,0.9,0.3,1.1,0.1l4.5-3.8v25.9c0,0.4-0.1,0.3,0.3,0.3h12.4
	c0.4,0,1.1,0.1,1.1-0.3V42.7h10v13.5c0,0.4,0.9,0.3,1.3,0.3h12.4c0.4,0,0.1,0.1,0.1-0.3V30.2l4.6,3.8C58.6,34.2,59.3,34.2,59.4,33.9
	z M52.4,29.7v25.6H41.2V41.5H28.7l-0.1,13.8H17.3V29.7v-0.9l17.5-15.3l17.4,15.3C52.4,28.8,52.4,29.5,52.4,29.7z"/>
</svg>
