<svg xmlns="http://www.w3.org/2000/svg" viewBox="0 0 47.41 47.41"><defs><style>.a{fill:#0090ff;}</style></defs><title>choose-range</title><path class="a" d="M55.71,34.3h.9A25.65,25.65,0,0,0,31,8.71v.9A24.77,24.77,0,0,1,55.71,34.3Z" transform="translate(-9.19 -8.71)"/><path class="a" d="M49,32.46A16.21,16.21,0,0,0,32.85,16.28v.9A15.29,15.29,0,0,1,48.1,32.43Z" transform="translate(-9.19 -8.71)"/><path class="a" d="M34.71,23.9v.9a5.87,5.87,0,0,1,4.13,1.7,5.68,5.68,0,0,1,1.7,4.13h.9a6.67,6.67,0,0,0-6.73-6.73Z" transform="translate(-9.19 -8.71)"/><path class="a" d="M10.09,30.52h-.9a25.65,25.65,0,0,0,25.6,25.6v-.9A24.77,24.77,0,0,1,10.09,30.52Z" transform="translate(-9.19 -8.71)"/><path class="a" d="M16.77,32.36A16.21,16.21,0,0,0,32.95,48.54v-.9A15.29,15.29,0,0,1,17.7,32.39Z" transform="translate(-9.19 -8.71)"/><path class="a" d="M31.08,40.92V40A5.87,5.87,0,0,1,27,38.33a5.68,5.68,0,0,1-1.7-4.13h-.9a6.67,6.67,0,0,0,6.73,6.73Z" transform="translate(-9.19 -8.71)"/><circle class="a" cx="33.07" cy="32.28" r="2.58" transform="translate(-22.33 24.13) rotate(-45)"/></svg>