<?xml version="1.0" encoding="utf-8"?>
<!-- Generator: Adobe Illustrator 21.0.0, SVG Export Plug-In . SVG Version: 6.00 Build 0)  -->
<svg version="1.1" width="70" height="70" id="Warstwa_1" xmlns="http://www.w3.org/2000/svg" xmlns:xlink="http://www.w3.org/1999/xlink" x="0px" y="0px"
	 viewBox="0 0 70 70" style="enable-background:new 0 0 70 70;" xml:space="preserve">
<style type="text/css">
	.st0{fill:#0090FF;}
</style>
<path class="st0" d="M35,50.5c-4.4,0-8-3.6-8-8s3.6-8,8-8s8,3.6,8,8S39.4,50.5,35,50.5z M35,35.1c-4.1,0-7.5,3.4-7.5,7.5
	s3.4,7.5,7.5,7.5s7.5-3.4,7.5-7.5S39.1,35.1,35,35.1z M34.8,34.8h0.4v2.9h-0.4V34.8z M29.7,37l2,2l-0.3,0.3l-2-2L29.7,37z
	 M27.3,42.4h2.9v0.4h-2.9V42.4z M31.4,45.9l0.3,0.3l-2,2l-0.3-0.3L31.4,45.9z M34.8,47.5h0.4v2.9h-0.4V47.5z M38.6,45.9l2,2
	l-0.3,0.3l-2-2L38.6,45.9z M39.9,42.4h2.9v0.4h-2.9V42.4z M40.3,37l0.3,0.3l-2,2L38.3,39L40.3,37z M46.4,56.2H23.6c-1.1,0-2-0.9-2-2
	V31.4c0-1.1,0.9-2,2-2h22.8c1.1,0,2,0.9,2,2v22.8C48.4,55.3,47.5,56.2,46.4,56.2z M23.6,29.9c-0.8,0-1.5,0.7-1.5,1.5v22.8
	c0,0.8,0.7,1.5,1.5,1.5h22.8c0.8,0,1.5-0.7,1.5-1.5V31.4c0-0.8-0.7-1.5-1.5-1.5H23.6z M46.2,29.9h-3.9v-5.3c0-4-3.3-7.3-7.3-7.3
	s-7.3,3.3-7.3,7.3v5.3h-3.9v-5.3c0-6.2,5-11.2,11.2-11.2s11.2,5,11.2,11.2V29.9z M42.7,29.5h3.1v-4.9c0-6-4.8-10.8-10.8-10.8
	s-10.8,4.8-10.8,10.8v4.9h3.1v-4.9c0-4.3,3.5-7.7,7.7-7.7c4.3,0,7.7,3.5,7.7,7.7V29.5z M46.4,56.4H23.6c-1.2,0-2.2-1-2.2-2.2V31.4
	c0-1.2,1-2.2,2.1-2.2v-4.7c0-6.3,5.1-11.4,11.4-11.4s11.4,5.1,11.4,11.4v4.7c1.2,0,2.1,1,2.1,2.2v22.8
	C48.6,55.4,47.6,56.4,46.4,56.4z M23.6,29.7c-1,0-1.7,0.8-1.7,1.8v22.8c0,1,0.8,1.8,1.8,1.8h22.8c1,0,1.8-0.8,1.8-1.8V31.4
	c0-1-0.8-1.7-1.7-1.8l0,0c0.9,0,1.7,0.8,1.7,1.7v22.8c0,1-0.8,1.7-1.7,1.7h-23c-1,0-1.7-0.8-1.7-1.7V31.4
	C21.9,30.5,22.6,29.7,23.6,29.7L23.6,29.7z M23.6,30.1c-0.7,0-1.3,0.6-1.3,1.3v22.8c0,0.7,0.6,1.3,1.3,1.3h22.8
	c0.7,0,1.3-0.6,1.3-1.3V31.4c0-0.7-0.6-1.3-1.3-1.3H23.6z M42.5,29.7H46H42.5z M27.9,29.7h14.2H27.9z M24,29.7h3.5H24z M46,29.3
	L46,29.3v-4.7c0-6.1-4.9-11-11-11s-11,4.9-11,11v4.7v-4.7c0-6.1,4.9-11,11-11s11,4.9,11,11V29.3z M42.9,29.3h2.6v-4.7
	C45.6,18.8,40.8,14,35,14s-10.6,4.7-10.6,10.6v4.7H27v-4.7c0-4.4,3.6-7.9,7.9-7.9s7.9,3.6,7.9,7.9L42.9,29.3L42.9,29.3z M42.5,29.3
	L42.5,29.3v-4.7c0-4.2-3.4-7.5-7.5-7.5s-7.5,3.4-7.5,7.5v4.7v-4.7c0-4.1,3.4-7.5,7.5-7.5s7.5,3.4,7.5,7.5V29.3z M27.9,29.3h14.2
	v-4.7c0-3.9-3.2-7.1-7.1-7.1s-7.1,3.2-7.1,7.1V29.3z M35,50.7c-4.5,0-8.2-3.7-8.2-8.2s3.7-8.2,8.2-8.2s8.2,3.7,8.2,8.2
	S39.5,50.7,35,50.7z M35.4,50.3L35.4,50.3c1.8-0.1,3.5-0.8,4.7-1.9l0,0C38.9,49.5,37.2,50.2,35.4,50.3z M29.8,48.4
	c1.3,1.1,2.9,1.9,4.7,2l0,0C32.8,50.2,31.1,49.5,29.8,48.4L29.8,48.4z M35,49.9L35,49.9v-2.2V49.9z M34.6,47.2h0.9v2.6
	c1.7-0.1,3.2-0.8,4.4-1.8L38,46.2l0.6-0.6l1.9,1.9c1.1-1.2,1.7-2.7,1.8-4.4h-2.6v-0.9h2.6c-0.1-1.7-0.8-3.2-1.8-4.4l-1.9,1.9L38,39
	l1.8-1.9c-1.2-1.1-2.7-1.7-4.4-1.8v2.6h-0.9v-2.6c-1.7,0.1-3.2,0.8-4.4,1.8L32,39l-0.6,0.6l-1.9-1.9c-1.1,1.2-1.7,2.7-1.8,4.4h2.6
	V43h-2.6c0.1,1.7,0.8,3.2,1.8,4.4l1.9-1.9l0.6,0.6L30.1,48c1.2,1.1,2.7,1.7,4.4,1.8L34.6,47.2L34.6,47.2z M38.6,46.2l1.6,1.6l0,0
	L38.6,46.2L38.6,46.2z M29.8,47.7C29.8,47.7,29.8,47.8,29.8,47.7l1.6-1.6l0,0L29.8,47.7z M40.8,47.7L40.8,47.7
	c1.2-1.3,1.9-2.9,2-4.7l0,0C42.6,44.8,41.9,46.5,40.8,47.7z M27.3,43c0.1,1.8,0.8,3.5,2,4.7l0,0C28.1,46.5,27.4,44.8,27.3,43
	L27.3,43z M40.1,42.6h2.2l0,0l0,0H40.1z M27.7,42.6h2.2H27.7L27.7,42.6L27.7,42.6z M42.7,42.2L42.7,42.2c-0.1-1.8-0.8-3.5-1.9-4.7
	l0,0C41.9,38.7,42.6,40.3,42.7,42.2z M27.3,42.2L27.3,42.2c0.1-1.8,0.8-3.5,2-4.7l0,0C28.1,38.7,27.4,40.3,27.3,42.2z M29.8,37.4
	l1.6,1.6l0,0L29.8,37.4L29.8,37.4z M38.6,39L38.6,39l1.6-1.6l0,0L38.6,39z M35,37.5L35,37.5v-2.2l0,0V37.5z M35.4,34.9
	c1.8,0.1,3.5,0.8,4.7,2l0,0C38.9,35.7,37.2,34.9,35.4,34.9L35.4,34.9z M29.8,36.8L29.8,36.8c1.3-1.1,2.9-1.8,4.7-1.9l0,0
	C32.8,34.9,31.1,35.7,29.8,36.8z"/>
</svg>
