<?xml version="1.0" encoding="utf-8"?>
<!-- Generator: Adobe Illustrator 21.0.2, SVG Export Plug-In . SVG Version: 6.00 Build 0)  -->
<svg version="1.1" id="Capa_1" xmlns="http://www.w3.org/2000/svg" xmlns:xlink="http://www.w3.org/1999/xlink" x="0px" y="0px"
	 viewBox="0 0 70 70" style="enable-background:new 0 0 70 70;" xml:space="preserve">
<style type="text/css">
	.st0{fill:#0B94FF;}
</style>
<g>
	<path class="st0" d="M35,62.3c-15.5,0-28.1-12.6-28.1-28.1c0-4.2,0.9-8.3,2.7-12.1c4.6-9.7,14.6-16,25.4-16s20.7,6.3,25.4,16l0,0
		c1.8,3.8,2.7,7.8,2.7,12.1C63.1,49.7,50.5,62.3,35,62.3z M35,6.9c-10.5,0-20.2,6.1-24.7,15.6c-1.8,3.7-2.6,7.6-2.6,11.7
		c0,15.1,12.3,27.3,27.3,27.3s27.3-12.3,27.3-27.3c0-4.1-0.9-8.1-2.6-11.7C55.2,13,45.5,6.9,35,6.9z M35,52.4
		c-10,0-18.1-8.1-18.1-18.1c0-10,8.1-18.1,18.1-18.1s18.1,8.1,18.1,18.1C53.1,44.2,45,52.4,35,52.4z M35,16.8
		c-9.6,0-17.4,7.8-17.4,17.4S25.4,51.6,35,51.6c9.6,0,17.4-7.8,17.4-17.4S44.6,16.8,35,16.8z"/>
	<path class="st0" d="M45,63.9H35v-0.8h9.8c10.2-3.4,17.4-11.9,18.8-22.4l0-9.9c-0.8-2.9-2.1-5.7-3.9-8.3l0.6-0.4
		c1.9,2.7,3.2,5.6,4,8.6l0.1,10C63,51.6,55.5,60.4,45,63.9L45,63.9z"/>
	<path class="st0" d="M35,63.9l-10,0C14.5,60.4,7,51.6,5.6,40.8l0-10c0.8-3.2,2.2-6.1,4-8.7l0.6,0.4c-1.8,2.6-3.1,5.4-3.9,8.4l0,9.8
		c1.4,10.4,8.6,19,18.8,22.4H35V63.9z"/>
</g>
</svg>
