<svg xmlns="http://www.w3.org/2000/svg" width="70" height="70" viewBox="0 0 70 70"><defs><style>.a{fill:#0090ff;}</style></defs><title>icon</title><path class="a" d="M35.5,27a.5.5,0,0,0-1,0V44.53a6.5,6.5,0,1,0,1,0Zm5,24A5.5,5.5,0,1,1,35,45.5,5.51,5.51,0,0,1,40.5,51Z"/><path class="a" d="M39.5,41.52V13a4.5,4.5,0,0,0-9,0V41.52a10.5,10.5,0,1,0,9,0Zm5,9.48a9.5,9.5,0,1,1-13.3-8.7.5.5,0,0,0,.3-.46V13a3.5,3.5,0,0,1,7,0V41.84a.5.5,0,0,0,.3.46A9.5,9.5,0,0,1,44.5,51Z"/><path class="a" d="M43,17.5h2a.5.5,0,0,0,0-1H43a.5.5,0,0,0,0,1Z"/><path class="a" d="M45,20.5H43a.5.5,0,0,0,0,1h2a.5.5,0,0,0,0-1Z"/><path class="a" d="M45,24.5H43a.5.5,0,0,0,0,1h2a.5.5,0,0,0,0-1Z"/><path class="a" d="M45,28.5H43a.5.5,0,0,0,0,1h2a.5.5,0,0,0,0-1Z"/><path class="a" d="M45,32.5H43a.5.5,0,0,0,0,1h2a.5.5,0,0,0,0-1Z"/><path class="a" d="M45,36.5H43a.5.5,0,0,0,0,1h2a.5.5,0,0,0,0-1Z"/></svg>