<?xml version="1.0" encoding="utf-8"?>
<!-- Generator: Adobe Illustrator 21.0.1, SVG Export Plug-In . SVG Version: 6.00 Build 0)  -->
<svg version="1.1" id="Layer_1" xmlns="http://www.w3.org/2000/svg" xmlns:xlink="http://www.w3.org/1999/xlink" x="0px" y="0px"
	 viewBox="0 0 60 60" style="enable-background:new 0 0 60 60;" xml:space="preserve">
<style type="text/css">
	.st0{fill:#0090FF;stroke:#0090FF;stroke-width:0.7;stroke-miterlimit:10;}
</style>
<title>icon-modularity</title>
<path class="st0" d="M27.4,31.2L9.1,20.6c-0.3-0.2-0.7-0.3-1.1-0.3c-0.6,0-1.2,0.2-1.6,0.7c-0.4,0.4-0.7,1-0.6,1.6l0,21.1
	c0,0.8,0.4,1.5,1.1,1.9l18.2,10.5c0.3,0.2,0.7,0.3,1.1,0.3c1.2,0,2.2-1,2.2-2.2l0-21.1C28.5,32.3,28.1,31.6,27.4,31.2z M27.9,54.2
	c0,0.9-0.7,1.6-1.6,1.6c-0.3,0-0.6-0.1-0.8-0.2L7.2,45c-0.5-0.3-0.8-0.8-0.8-1.4l0-21.1c0-0.4,0.2-0.8,0.5-1.2
	c0.3-0.3,0.7-0.5,1.2-0.5c0.3,0,0.6,0.1,0.8,0.2l18.3,10.6c0.5,0.3,0.8,0.8,0.8,1.4L27.9,54.2z"/>
<path class="st0" d="M54.2,22.5c0-1.2-1-2.2-2.2-2.2c0,0,0,0,0,0c-0.4,0-0.8,0.1-1.1,0.3L32.6,31.1c-0.7,0.4-1.1,1.1-1.1,1.9l0,21.1
	c0,0.6,0.2,1.2,0.6,1.6c0.4,0.4,1,0.7,1.6,0.7c0.4,0,0.8-0.1,1.1-0.3l18.3-10.5c0.7-0.4,1.1-1.1,1.1-1.9L54.2,22.5z M52.8,45
	L34.5,55.6c-0.2,0.1-0.5,0.2-0.8,0.2c-0.4,0-0.9-0.2-1.2-0.5c-0.3-0.3-0.5-0.7-0.5-1.2l0-21.1c0-0.6,0.3-1.1,0.8-1.4l18.2-10.5
	c0.2-0.1,0.5-0.2,0.8-0.2c0.9,0,1.6,0.7,1.6,1.6l0,21.1C53.6,44.2,53.3,44.7,52.8,45z"/>
<path class="st0" d="M49.4,18.3c1.1-0.6,1.4-2,0.8-3c-0.2-0.3-0.5-0.6-0.8-0.8L31.1,3.9c-0.7-0.4-1.5-0.4-2.2,0L10.6,14.4
	c-1.1,0.6-1.4,2-0.8,3c0.2,0.3,0.5,0.6,0.8,0.8l18.3,10.6c0.7,0.4,1.5,0.4,2.2,0L49.4,18.3z M30,28.6c-0.3,0-0.6-0.1-0.8-0.2
	L10.9,17.8c-0.8-0.4-1.1-1.4-0.6-2.2c0.1-0.3,0.4-0.5,0.6-0.6L29.1,4.4c0.5-0.3,1.1-0.3,1.6,0L49.1,15c0.8,0.4,1.1,1.4,0.6,2.2
	c-0.1,0.3-0.4,0.5-0.6,0.6L30.8,28.3C30.6,28.5,30.3,28.6,30,28.6z"/>
</svg>
