<svg xmlns="http://www.w3.org/2000/svg" width="66.39" height="53.46" viewBox="0 0 66.39 53.46"><defs><style>.a,.b{fill:none;stroke:#0090ff;stroke-miterlimit:10;stroke-width:1.2px;}.a{stroke-linecap:round;}</style></defs><title>icon_mediadl</title><circle class="a" cx="33.2" cy="32.21" r="12.75"/><path class="a" d="M38.43,43.1,35,46.53M31.57,43.1,35,46.53m0-12.09V46" transform="translate(-1.8 -8.27)"/><path class="b" d="M67.6,56.59a4.47,4.47,0,0,1-4.38,4.54H6.78A4.47,4.47,0,0,1,2.4,56.59V23.47a4.47,4.47,0,0,1,4.38-4.54H63.22a4.47,4.47,0,0,1,4.38,4.54Z" transform="translate(-1.8 -8.27)"/><path class="b" d="M67.6,56.59a4.47,4.47,0,0,1-4.38,4.54H6.78A4.47,4.47,0,0,1,2.4,56.59V23.47a4.47,4.47,0,0,1,4.38-4.54H63.22a4.47,4.47,0,0,1,4.38,4.54Z" transform="translate(-1.8 -8.27)"/><path class="b" d="M67.6,24.38V19.48c0-3.13-1.94-5.56-4.38-5.69,0,0-31,0-34.42,0s-2.89-4.92-7.25-4.92H6.78c-2.41,0-4.38,2.56-4.38,5.69v9.75" transform="translate(-1.8 -8.27)"/></svg>