<svg xmlns="http://www.w3.org/2000/svg" width="70" height="70" viewBox="0 0 70 70"><defs><style>.a{fill:none;stroke:#0090ff;stroke-linecap:round;stroke-miterlimit:10;}</style></defs><title>icon</title><line class="a" x1="52.94" y1="17.06" x2="47.36" y2="22.64"/><line class="a" x1="22.66" y1="47.34" x2="17.06" y2="52.94"/><line class="a" x1="41.56" y1="10.5" x2="39.53" y2="18.11"/><line class="a" x1="30.48" y1="51.86" x2="28.44" y2="59.5"/><line class="a" x1="28.44" y1="10.5" x2="30.47" y2="18.11"/><line class="a" x1="39.52" y1="51.86" x2="41.56" y2="59.5"/><line class="a" x1="17.06" y1="17.06" x2="22.64" y2="22.64"/><line class="a" x1="47.34" y1="47.34" x2="52.94" y2="52.94"/><line class="a" x1="10.5" y1="28.44" x2="18.11" y2="30.47"/><line class="a" x1="51.86" y1="39.52" x2="59.5" y2="41.56"/><line class="a" x1="10.5" y1="41.56" x2="18.11" y2="39.53"/><line class="a" x1="51.86" y1="30.48" x2="59.5" y2="28.44"/><circle class="a" cx="34.96" cy="34.93" r="11.17"/><line class="a" x1="34.96" y1="24.3" x2="34.96" y2="46.1"/><line class="a" x1="38.82" y1="24.5" x2="38.82" y2="45.01"/><line class="a" x1="42.68" y1="27.12" x2="42.68" y2="42.4"/></svg>