<svg xmlns="http://www.w3.org/2000/svg" width="58.9" height="59.17" viewBox="0 0 58.9 59.17"><defs><style>.a{fill:#fff;}</style></defs><title>icon-savings</title><circle class="a" cx="16.37" cy="32" r="1.61"/><path class="a" d="M60.44,35.64c.08-2.09.17-4.44-2.29-5.75A3.6,3.6,0,0,0,55,29.65a2.45,2.45,0,0,0-.76.53l-.48.5-.32-.61A19.39,19.39,0,0,0,45,22c-3.31-1.73-8.71-2.77-14.43-2.77a34.16,34.16,0,0,0-9.42,1.16l-.2.06-.19-.1a30.26,30.26,0,0,0-5.58-2.39A3.24,3.24,0,0,0,11.65,19a3.15,3.15,0,0,0-.52,2.79c.32,1.11.75,2.56,1,3.54l.08.28-.21.21a18.61,18.61,0,0,0-4.19,6.39l-.11.29-.31,0c-.82.08-1.65.19-2.43.29H4.89a2.54,2.54,0,0,0-2.33,2.5c0,2.11,0,4.23,0,6.52a2.51,2.51,0,0,0,2.26,2.52L6,44.56l1.4.18.29,0,.11.28a19.19,19.19,0,0,0,4.65,6.84l.17.17,0,.24c0,.21-.06.46-.11.75l0,.14c0,.15,0,.31-.06.42l-.37,2.72c-.09.63-.17,1.26-.25,1.89a2.71,2.71,0,0,0,.66,2.16,2.74,2.74,0,0,0,2.07.94H21a2.72,2.72,0,0,0,1.61-.47l.3-.27a2.64,2.64,0,0,0,.72-1.48c.07-.37.12-.73.17-1.09l.06-.44h.45c3.52,0,15.52-.31,15.6-.32l.49,0,.1.48-.49.15.5,0c0,.2,0,.43.07.66l0,.41a2.61,2.61,0,0,0,2.61,2.43h6.5a2.78,2.78,0,0,0,2.09-1,2.73,2.73,0,0,0,.66-2.19L52,54.71c-.19-1.44-.38-2.92-.57-4.37l0-.21.13-.17A18.77,18.77,0,0,0,55.4,35.83c-.06-.42-.15-.83-.23-1.23A6.1,6.1,0,0,1,55,31.78a1.11,1.11,0,0,1,.62-.82,2.24,2.24,0,0,1,1.86.21c1.66.88,1.6,2.52,1.53,4.42s-.13,3.61,1.22,5a.58.58,0,0,0,.51.21.72.72,0,0,0,.51-1.22C60.33,38.63,60.38,37.18,60.44,35.64ZM50.34,49.21A1.3,1.3,0,0,0,50,50.27c.21,1.53.41,3.09.61,4.62l.47,3.49a1.35,1.35,0,0,1-1.33,1.51h-6.5c-.39,0-1.06-.15-1.18-1.17L42,58.3c0-.23-.05-.43-.07-.62-.11-1.1-.37-2-2.16-1.84-1,.09-15,.39-16,.31a2.91,2.91,0,0,0-.53-.06h-.52l-.16.49a3,3,0,0,0-.09.42l-.07.5c-.05.46-.12.91-.2,1.36a1.37,1.37,0,0,1-.25.65l-.27.23a1.42,1.42,0,0,1-.69.15H14.57a1.32,1.32,0,0,1-1-.45,1.29,1.29,0,0,1-.32-1c.07-.59.15-1.19.23-1.79l.39-2.84c0-.09,0-.21,0-.32l0-.25a7.32,7.32,0,0,0,.13-1.12,1.31,1.31,0,0,0-.33-1A17.88,17.88,0,0,1,9,44a.87.87,0,0,0-.81-.64c-.68-.07-1.37-.17-2-.26L5,43a1.1,1.1,0,0,1-1-1.11c0-2.28,0-4.4,0-6.49a1.09,1.09,0,0,1,1-1.09h.14C6.09,34.16,7.05,34,8,34a1.08,1.08,0,0,0,1-.77,17.15,17.15,0,0,1,4.28-6.55,1.16,1.16,0,0,0,.34-1.31c-.28-.95-.78-2.63-1.14-3.88a1.72,1.72,0,0,1,.28-1.53,1.78,1.78,0,0,1,1.94-.62,28.43,28.43,0,0,1,5.6,2.44,1.23,1.23,0,0,0,1.09,0,32.36,32.36,0,0,1,9.14-1.14c5.5,0,10.65,1,13.77,2.6a17.49,17.49,0,0,1,9.15,10.63,1.05,1.05,0,0,0,.08.22l.05.15c0,.22.09.45.14.67.08.37.16.75.22,1.15A17.27,17.27,0,0,1,50.34,49.21Z" transform="translate(-2.55 -2.16)"/><path class="a" d="M31.92,26h-.18a44.67,44.67,0,0,0-6.83.55.94.94,0,0,0-.63.31.55.55,0,0,0-.07.49c.1.35.32.73,1.18.56a32.75,32.75,0,0,1,6.46-.66,31.32,31.32,0,0,1,6.73.74c.9.2,1.13-.2,1.23-.58a.51.51,0,0,0,0-.45,1.1,1.1,0,0,0-.7-.32A44.83,44.83,0,0,0,31.92,26Z" transform="translate(-2.55 -2.16)"/><path class="a" d="M34.87,16.39a7.15,7.15,0,1,1,5-2.11,7.12,7.12,0,0,1-5,2.11h0Zm0-13.26a6.14,6.14,0,1,0,0,12.28v.49l0-.49a6.14,6.14,0,0,0,0-12.28Z" transform="translate(-2.55 -2.16)"/></svg>