<?xml version="1.0" encoding="utf-8"?>
<!-- Generator: Adobe Illustrator 21.0.2, SVG Export Plug-In . SVG Version: 6.00 Build 0)  -->
<svg version="1.1" id="Layer_1" xmlns="http://www.w3.org/2000/svg" xmlns:xlink="http://www.w3.org/1999/xlink" x="0px" y="0px"
	 viewBox="0 0 70 70" style="enable-background:new 0 0 70 70;" xml:space="preserve">
<style type="text/css">
	.st0{fill:#0090FF;}
</style>
<g>
	<path class="st0" d="M59.8,31L35.1,13c-0.2-0.2-0.5-0.2-0.7,0l-10.6,7.8v-5.1c0-0.4-0.2-0.6-0.6-0.6H19c-0.4,0-0.6,0.2-0.6,0.6v8.7
		c0,0.1,0,0.1,0,0.1l0.1,0.1l-0.1,0.1l-8.6,6.3c-0.2,0.2-0.3,0.6-0.1,0.8c0.2,0.2,0.6,0.3,0.8,0.1l2.7-1.9v30c0,0.4,0.2,0.6,0.6,0.6
		h41.9c0.4,0,0.6-0.2,0.6-0.6V30l2.7,1.9c0.1,0.1,0.2,0.1,0.4,0.1c0.2,0,0.4-0.1,0.5-0.2C60,31.6,60,31.2,59.8,31z M19.5,16.3h3v5.3
		l0,0l-3,2.2V16.3z M39,59.4h-8.6V43.3H39V59.4z M55.2,59.4h-15V42.7c0-0.4-0.2-0.6-0.6-0.6h-9.7c-0.4,0-0.6,0.2-0.6,0.6v16.7h-15
		V29l0,0l20.4-14.9l0.1,0L55.2,29V59.4z"/>
	<path class="st0" d="M21.8,41c-1.8,0-3.2,1.1-3.2,2.5v8.8c0,0.4,0.2,0.6,0.6,0.6h5.3c0.4,0,0.6-0.2,0.6-0.6v-8.8
		C25,42.1,23.6,41,21.8,41z M23.9,51.8h-4.1v-8.1c0-0.8,0.9-1.5,2.1-1.5c1.2,0,2.1,0.7,2.1,1.5V51.8z"/>
	<path class="st0" d="M47.2,41c-1.8,0-3.2,1.1-3.2,2.5v8.8c0,0.4,0.3,0.6,0.6,0.6h5.3c0.4,0,0.6-0.2,0.6-0.6v-8.8
		C50.3,42.1,48.9,41,47.2,41z M49.2,51.8h-4.1v-8.1c0-0.9,0.9-1.5,2.1-1.5c1.2,0,2.1,0.7,2.1,1.5V51.8z"/>
	<path class="st0" d="M40.3,29.4c-0.1-2.4-2.6-4.3-5.5-4.3c-3.1,0.1-5.5,1.9-5.6,4.4v3.2c0,0.4,0.2,0.6,0.6,0.6h9.9
		c0.4,0,0.6-0.2,0.6-0.6V29.4z M34.2,32h-3.8v-2.5c0-1.6,1.6-2.9,3.7-3.2l0.1,0V32z M39.1,32h-3.8v-5.7l0.1,0
		c2.1,0.2,3.7,1.6,3.7,3.2V32z"/>
</g>
</svg>
