<?xml version="1.0" encoding="utf-8"?>
<!-- Generator: Adobe Illustrator 21.0.1, SVG Export Plug-In . SVG Version: 6.00 Build 0)  -->
<svg version="1.1" id="Warstwa_1" xmlns="http://www.w3.org/2000/svg" xmlns:xlink="http://www.w3.org/1999/xlink" x="0px" y="0px"
	 viewBox="0 0 70 70" style="enable-background:new 0 0 70 70;" xml:space="preserve">
<style type="text/css">
	.st0{fill:#FFFFFF;}
</style>
<g>
	<path class="st0" d="M22.3,50.5c2.9,2.6,6.6,5.2,10.2,7.6l1.8,1.2c0.2,0.1,0.4,0.1,0.5,0l1.8-1.2c3.6-2.4,7.3-4.9,10.2-7.6
		c4-3.7,5.8-7,5.8-10.6v-22c0-0.1-0.1-0.3-0.2-0.4c-0.3-0.3-6.9-6.9-17.9-6.9s-17.5,6.6-17.8,6.9c0,0.1,0,0.3,0,0.4v22
		C16.5,43.5,18.3,46.8,22.3,50.5z M17.4,18.1L17.4,18.1c1.3-1.1,7.6-6.5,17-6.5s15.8,5.3,17,6.4l0.2,0.1v21.8c0,3.3-1.8,6.5-5.5,9.9
		c-2.8,2.6-6.5,5.1-10.1,7.5l-1.5,1l-1.5-1c-3.6-2.4-7.3-4.9-10.1-7.5c-3.8-3.5-5.5-6.6-5.5-9.9V18.1z"/>
	<path class="st0" d="M40.6,41.9l-6.1-3.2l-6.1,3.2l1.2-6.7l-4.9-4.8l6.8-1l3-6.2l3,6.2l6.8,1l-4.9,4.8L40.6,41.9z M34.5,37.7
		l4.9,2.6l-0.9-5.4l4-3.8L37,30.2l-2.4-4.9l-2.4,4.9l-5.5,0.7l4,3.8l-0.9,5.4L34.5,37.7z"/>
</g>
</svg>
