<?xml version="1.0" encoding="UTF-8"?>
<svg width="48px" height="48px" viewBox="0 0 48 48" version="1.1" xmlns="http://www.w3.org/2000/svg" xmlns:xlink="http://www.w3.org/1999/xlink">
    <!-- Generator: Sketch 44.1 (41455) - http://www.bohemiancoding.com/sketch -->
    <title>Group</title>
    <desc>Created with Sketch.</desc>
    <defs></defs>
    <g id="Página-de-Inicio---tuhogar" stroke="none" stroke-width="1" fill="none" fill-rule="evenodd">
        <g id="iPhone-7" transform="translate(-308.000000, -427.000000)">
            <g id="Group" transform="translate(308.000000, 427.000000)">
                <circle id="Oval" fill="#0090FF" cx="24" cy="24" r="24"></circle>
                <path d="M33.9804688,23.2382812 C33.9934896,23.264323 34,23.2936196 34,23.3261719 L34,32.75 C34,33.1015643 33.8763033,33.3977853 33.6289062,33.6386719 C33.3815092,33.8795585 33.0885434,34 32.75,34 L15.25,34 C14.9114566,34 14.6184908,33.8795585 14.3710938,33.6386719 C14.1236967,33.3977853 14,33.1015643 14,32.75 L14,23.3945312 C14,23.173176 14.0716139,22.9648447 14.2148438,22.7695312 C14.3580736,22.5742178 14.47526,22.43099 14.5664062,22.3398438 L22.7109375,14.5273438 C23.0625018,14.1757795 23.5052057,14 24.0390625,14 C24.5729193,14 25.0156232,14.1757795 25.3671875,14.5273438 L33.5117188,22.3984375 L33.6289062,22.515625 C33.6679689,22.5546877 33.7005207,22.5937498 33.7265625,22.6328125 L33.7460938,22.6523438 C33.8111982,22.7304691 33.8632811,22.8216141 33.9023438,22.9257812 C33.9414064,23.0299484 33.9674479,23.1341141 33.9804688,23.2382812 Z M19.2734375,28.1796875 L15.25,24.6445312 L15.25,31.890625 L19.2734375,28.1796875 Z M20.5625,28.7070312 L16.1484375,32.75 L31.9101562,32.75 L24.4101562,26.0117188 C24.3580727,25.9596352 24.289714,25.920573 24.2050781,25.8945312 C24.1204423,25.8684895 24.0325525,25.8554688 23.9414062,25.8554688 C23.85026,25.8554688 23.7623702,25.8717446 23.6777344,25.9042969 C23.5930985,25.9368491 23.5182295,25.9791664 23.453125,26.03125 L20.6992188,28.5703125 L20.6796875,28.5898438 C20.6666666,28.6158855 20.6471355,28.6386718 20.6210938,28.6582031 C20.595052,28.6777345 20.5755209,28.6940104 20.5625,28.7070312 Z M28.7851562,28.2773438 L32.75,31.8320312 L32.75,24.7617188 L28.7851562,28.2773438 Z M16.03125,22.6523438 L15.9921875,22.6523438 L15.4648438,23.1601562 L20.1914062,27.3398438 L22.6523438,25.0742188 C23.0429707,24.7617172 23.4759091,24.6087239 23.9511719,24.6152344 C24.4264347,24.6217448 24.8463523,24.7682277 25.2109375,25.0546875 L27.8671875,27.4179688 L32.59375,23.21875 L31.5195312,22.1445312 L31.5390625,22.1445312 L24.4882812,15.40625 C24.4231768,15.3541664 24.3515629,15.3118491 24.2734375,15.2792969 C24.1953121,15.2467446 24.1171879,15.2304688 24.0390625,15.2304688 C23.9609371,15.2304688 23.8828129,15.2467446 23.8046875,15.2792969 C23.7265621,15.3118491 23.6549482,15.3541664 23.5898438,15.40625 L16.03125,22.6523438 Z" id="Envelope-open---simple-line-icons" fill="#FFFFFF"></path>
            </g>
        </g>
    </g>
</svg>