<svg xmlns="http://www.w3.org/2000/svg" width="70" height="70" viewBox="0 0 70 70"><defs><style>.a{fill:#0090ff;}</style></defs><title>icon</title><path class="a" d="M35,52.71A21.1,21.1,0,1,1,56.1,31.6,21.13,21.13,0,0,1,35,52.71Zm0-41.09a20,20,0,1,0,20,20A20,20,0,0,0,35,11.61Z"/><path class="a" d="M35,40.5a8.89,8.89,0,1,1,8.89-8.89A8.9,8.9,0,0,1,35,40.5Zm0-16.67a7.78,7.78,0,1,0,7.78,7.78A7.79,7.79,0,0,0,35,23.82Z"/><path class="a" d="M35,37.44a5.84,5.84,0,1,1,5.84-5.84A5.84,5.84,0,0,1,35,37.44Zm0-10.56a4.72,4.72,0,1,0,4.72,4.72A4.73,4.73,0,0,0,35,26.88Z"/><circle class="a" cx="45" cy="21.6" r="1.39"/><path class="a" d="M50,59.5H20a2.23,2.23,0,0,1-2.22-2.22v-.56A2.23,2.23,0,0,1,20,54.5H50a2.23,2.23,0,0,1,2.22,2.22v.56A2.23,2.23,0,0,1,50,59.5ZM20,55.61a1.11,1.11,0,0,0-1.11,1.11v.56A1.11,1.11,0,0,0,20,58.39H50a1.11,1.11,0,0,0,1.11-1.11v-.56A1.11,1.11,0,0,0,50,55.61Z"/></svg>