<svg xmlns="http://www.w3.org/2000/svg" width="49.5" height="34.68" viewBox="0 0 49.5 34.68"><defs><style>.a{fill:#0090ff;}</style></defs><title>icon-voice</title><path class="a" d="M28.75,22a.75.75,0,0,0-1.5,0V43.2a.75.75,0,1,0,1.5,0Z" transform="translate(-7.25 -15.26)"/><path class="a" d="M20.75,20.6a.75.75,0,0,0-1.5,0v24a.75.75,0,1,0,1.5,0Z" transform="translate(-7.25 -15.26)"/><path class="a" d="M24.75,28.6a.75.75,0,0,0-1.5,0v8a.75.75,0,0,0,1.5,0Z" transform="translate(-7.25 -15.26)"/><path class="a" d="M16.75,28.6a.75.75,0,0,0-1.5,0v8a.75.75,0,0,0,1.5,0Z" transform="translate(-7.25 -15.26)"/><path class="a" d="M8.75,30.6a.75.75,0,0,0-1.5,0v4a.75.75,0,0,0,1.5,0Z" transform="translate(-7.25 -15.26)"/><path class="a" d="M12.75,26.6a.75.75,0,0,0-1.5,0v12a.75.75,0,0,0,1.5,0Z" transform="translate(-7.25 -15.26)"/><path class="a" d="M48.75,23.6a.75.75,0,0,0-1.5,0v18a.75.75,0,1,0,1.5,0Z" transform="translate(-7.25 -15.26)"/><path class="a" d="M52.75,28.6a.75.75,0,0,0-1.5,0v8a.75.75,0,1,0,1.5,0Z" transform="translate(-7.25 -15.26)"/><path class="a" d="M44.75,30.6a.75.75,0,0,0-1.5,0v4a.75.75,0,1,0,1.5,0Z" transform="translate(-7.25 -15.26)"/><path class="a" d="M56.75,30.6a.75.75,0,0,0-1.5,0v4a.75.75,0,1,0,1.5,0Z" transform="translate(-7.25 -15.26)"/><path class="a" d="M40.75,28.6a.75.75,0,0,0-1.5,0v8a.75.75,0,1,0,1.5,0Z" transform="translate(-7.25 -15.26)"/><path class="a" d="M36.75,22.6a.75.75,0,0,0-1.5,0v20a.75.75,0,1,0,1.5,0Z" transform="translate(-7.25 -15.26)"/><path class="a" d="M32.75,16a.75.75,0,0,0-1.5,0V49.19a.75.75,0,0,0,1.5,0Z" transform="translate(-7.25 -15.26)"/></svg>