<svg xmlns="http://www.w3.org/2000/svg" width="70" height="70" viewBox="0 0 70 70"><defs><style>.a{fill:#0090ff;}</style></defs><title>icon</title><path class="a" d="M49.74,25.66H14.32a.48.48,0,0,0-.48.48V43.85a.49.49,0,0,0,.48.48H49.74a.48.48,0,0,0,.48-.44V26.15A.48.48,0,0,0,49.74,25.66Zm-27,17.71H14.8V26.63h7.89Zm8.85,0H23.66V26.63h7.89Zm8.85,0H32.51V26.63H40.4Zm8.85,0H41.37V26.63h7.89Z"/><path class="a" d="M60.4,28.46A.45.45,0,0,0,60,28h-5.5V23.79a2.27,2.27,0,0,0-2.23-2.3H11.83a2.27,2.27,0,0,0-2.23,2.3V46.2a2.28,2.28,0,0,0,2.23,2.32h40.4a2.28,2.28,0,0,0,2.23-2.32V42H60a.45.45,0,0,0,.45-.45ZM53.57,46.2a1.37,1.37,0,0,1-1.34,1.43H11.83a1.37,1.37,0,0,1-1.34-1.43V23.79a1.36,1.36,0,0,1,1.34-1.41h40.4a1.36,1.36,0,0,1,1.34,1.41Zm5.94-5.11h-5V28.91h5Z"/></svg>