<svg xmlns="http://www.w3.org/2000/svg" width="70" height="70" viewBox="0 0 70 70"><defs><style>.a{fill:none;stroke:#0090ff;stroke-miterlimit:10;}</style></defs><title>icon</title><path class="a" d="M39,17C34.5,7.79,22.29,10.44,20.1,18.62"/><path class="a" d="M22.67,21.3c-9.53,0-9.58,11.46-1.56,12.15"/><path class="a" d="M45.92,37.76c6.49,2.51,12.09-5.4,6.46-10.4"/><path class="a" d="M25.29,30.87c-7.2,4.68,5.22,11.1,7.78,5.62"/><path class="a" d="M38.85,23.61c6.49-1.61,8,5.15,4.06,7.78"/><path class="a" d="M29.34,27.38c-2.23-5.32-.55-7.32,2.2-7.68"/><path class="a" d="M52.56,23.54C57.43,15.77,47.36,8,38.73,10.68"/><path class="a" d="M34.41,31.06c16,11.51-15.11,11.51-1.55,21.4"/><path class="a" d="M36.78,59.85C46.2,52.52,29.69,47.29,43.18,42"/></svg>