<svg xmlns="http://www.w3.org/2000/svg" width="82" height="82" viewBox="0 0 82 82">
    <g fill="none" fill-rule="evenodd" transform="translate(1 1)">
        <circle cx="40" cy="40" r="40" stroke="#0090FF" stroke-width="2"/>
        <path fill="#0090FF" d="M57.143 31.429L60 60H20l2.857-28.571h5.714v-.358c0-3.035 1.087-5.64 3.26-7.812C34.002 21.086 36.606 20 39.642 20h.714c3.036 0 5.64 1.086 7.813 3.259 2.172 2.173 3.259 4.777 3.259 7.812v.358h5.714zm-25.714-.358v.358H48.57v-.358c0-2.261-.803-4.196-2.41-5.803-1.607-1.607-3.542-2.41-5.804-2.41h-.714c-2.262 0-4.197.803-5.804 2.41-1.607 1.607-2.41 3.542-2.41 5.803zm-8.215 26.072h33.572l-2.232-22.857h-3.125V37.5c.952.595 1.428 1.429 1.428 2.5 0 .833-.268 1.518-.803 2.054-.536.535-1.22.803-2.054.803-.833 0-1.518-.268-2.054-.803-.535-.536-.803-1.22-.803-2.054 0-1.071.476-1.905 1.428-2.5v-3.214H31.43V37.5c.952.595 1.428 1.429 1.428 2.5 0 .833-.268 1.518-.803 2.054-.536.535-1.22.803-2.054.803-.833 0-1.518-.268-2.054-.803-.535-.536-.803-1.22-.803-2.054 0-1.071.476-1.905 1.428-2.5v-3.214h-3.125l-2.232 22.857z"/>
    </g>
</svg>
