<?xml version="1.0" encoding="utf-8"?>
<!-- Generator: Adobe Illustrator 21.0.1, SVG Export Plug-In . SVG Version: 6.00 Build 0)  -->
<svg version="1.1" id="Warstwa_1" xmlns="http://www.w3.org/2000/svg" xmlns:xlink="http://www.w3.org/1999/xlink" x="0px" y="0px"
	 viewBox="0 0 70 70" style="enable-background:new 0 0 70 70;" xml:space="preserve">
<style type="text/css">
	.st0{fill:#FFFFFF;}
</style>
<path class="st0" d="M52.3,12.5C52.3,12.5,52.2,12.5,52.3,12.5l-26.1,10c-0.2,0.1-0.4,0.3-0.4,0.4v25c-1.2-1.4-3.3-2.2-5.7-1.9
	c-3.7,0.4-6.8,3.4-6.8,6.6c0,3.2,3.1,5.3,6.8,4.8c3.7-0.4,6.8-3.4,6.8-6.6c0-0.4,0-19.7,0-19.7l25-9.5v19c-1.2-1.4-3.3-2.2-5.7-1.9
	c-3.7,0.4-6.8,3.4-6.8,6.6c0,3.2,3.1,5.3,6.8,4.8c3.7-0.4,6.8-3.4,6.8-6.6c0-0.6,0-30.4,0-30.4C53,12.7,52.6,12.5,52.3,12.5z
	 M51.9,13.8v6.7l-25.1,9.5v-6.7L51.9,13.8z M46.8,39.7c3-0.2,5.1,1.6,5.1,4c0,2.5-2.5,4.9-5.7,5.4c-3.2,0.4-5.7-1.3-5.7-3.9
	s2.5-4.9,5.7-5.4C46.4,39.8,46.6,39.7,46.8,39.7z M20.6,47c3-0.2,5.1,1.6,5.1,4c0,2.5-2.5,4.9-5.7,5.4c-3.2,0.4-5.7-1.3-5.7-3.9
	s2.5-4.9,5.7-5.4C20.3,47,20.4,47,20.6,47z"/>
</svg>
