<?xml version="1.0" encoding="utf-8"?>
<!-- Generator: Adobe Illustrator 21.0.2, SVG Export Plug-In . SVG Version: 6.00 Build 0)  -->
<svg version="1.1" id="Layer_1" xmlns="http://www.w3.org/2000/svg" xmlns:xlink="http://www.w3.org/1999/xlink" x="0px" y="0px"
	 viewBox="0 0 70 70" style="enable-background:new 0 0 70 70;" xml:space="preserve">
<style type="text/css">
	.st0{fill:#0090FF;}
</style>
<g>
	<path class="st0" d="M65.8,52.2l0-29.9c0-3.3-2.7-6-6-6c-0.5,0-0.9,0.1-1.4,0.2c-0.2,0.1-0.4,0.3-0.4,0.5v6.1h-4v1h4v24.2
		c0.3-0.1,0.6-0.2,1-0.3c0.3,0,0.6-0.1,0.8-0.1c2.8,0,5,2.2,5,5c0,2.6-2.1,4.8-4.7,5l-50.4,0c-2.8,0-5-2.2-5-5c0-2.8,2.2-5,5-5
		c0.3,0,0.6,0,0.9,0.1c0.3,0.1,0.6,0.2,0.9,0.3V24.1h11v-1h-11v-6.1c0-0.2-0.2-0.4-0.4-0.5c-0.5-0.1-0.9-0.2-1.4-0.2
		c-3.3,0-6,2.7-6,6l0,30.1c0,0.2,0,0.4,0,0.5c0,3.2,2.5,5.8,5.6,6l0.3,0l50.4,0l0.1,0c3.2-0.2,5.6-2.8,5.6-6c0-0.2,0-0.3,0-0.5l0,0
		l0,0L65.8,52.2z M4.8,22.3c0-2.8,2.2-5,5-5c0.2,0,0.3,0,0.5,0l0.3,0V47l-0.5,0c-1.7-0.1-3.5,0.6-4.7,1.9l-0.6,0.6V22.3z M64.8,49.5
		l-0.6-0.6c-1.2-1.3-3-2-4.7-1.9L59,47V17.3l0.3,0c0.2,0,0.3,0,0.5,0c2.8,0,5,2.2,5,5V49.5z"/>
	<path class="st0" d="M32.5,44.4h14.6V28.7L32.5,44.4z M46.2,43.4H34.9l0.2-0.2l11.1-11.9V43.4z"/>
	<path class="st0" d="M35.8,24.1h9.8L20.1,50.4l32.1,0V17.2l-5.7,5.8h-9.8l5.1-5L37,13.1L14.6,35.4l4.9,4.9L35.8,24.1z M51.3,19.7
		v29.6h-2.4v-2.5h-1v2.5h-2.4v-2.5h-1v2.5h-2.4v-2.5h-1v2.5h-2.4v-2.5h-1v2.5h-2.4v-2.5h-1v2.5h-2.4v-2.5h-1v2.5h-2.4v-2.5h-1v2.5
		h-5l0.2-0.2L51.3,19.7z M17.8,33.7l1.8,1.8l0.7-0.7L18.5,33l1.7-1.7l1.2,1.2l0.7-0.7l-1.2-1.2l1.7-1.7l1.8,1.8l0.7-0.7l-1.8-1.8
		l1.7-1.7l1.2,1.2l0.7-0.7l-1.2-1.2l1.7-1.7l1.8,1.8l0.7-0.7l-1.8-1.8l1.7-1.7l1.2,1.2l0.7-0.7L30.5,21l1.7-1.7l1.8,1.8l0.7-0.7
		l-1.8-1.8l1.7-1.7l1.2,1.2l0.7-0.7l-1.2-1.2l1.7-1.7l3.5,3.5L19.6,38.9l-3.5-3.5L17.8,33.7z"/>
</g>
</svg>
