<?xml version="1.0" encoding="utf-8"?>
<!-- Generator: Adobe Illustrator 21.0.1, SVG Export Plug-In . SVG Version: 6.00 Build 0)  -->
<svg version="1.1" id="Warstwa_1" xmlns="http://www.w3.org/2000/svg" xmlns:xlink="http://www.w3.org/1999/xlink" x="0px" y="0px"
	 viewBox="0 0 70 70" style="enable-background:new 0 0 70 70;" xml:space="preserve">
<style type="text/css">
	.st0{fill:#FFFFFF;}
</style>
<path class="st0" d="M43.2,17.2c-2.3-1.9-5.2-3.1-8.3-3.1c-0.4,0-0.9,0-1.3,0.1c-5.6,0.6-10.2,5-10.8,10.6c-0.4,2.8,0.4,5.5,1.9,7.8
	c2.3,3.4,3.6,7.1,4,10.7l0.1,0.4c0.1,0.4,0.3,1,0.6,1.2l0.1,0.1l-0.1,0.1c-0.4,0.4-0.6,0.8-0.6,1.3c0,0.4,0.2,0.8,0.5,1.1l0.1,0.1
	l-0.1,0.1c-0.4,0.4-0.5,0.7-0.5,1.1c0,0.4,0.2,0.8,0.5,1.1l0.1,0.1l-0.1,0.1c-0.4,0.4-0.5,0.8-0.5,1.2c0,1,0.8,1.8,1.7,1.8h1.4v0.1
	c0.3,1.4,1.5,2.4,3,2.4s2.7-1,3-2.4v-0.1h1.6c1,0,1.7-0.8,1.7-1.8c0-0.4-0.2-0.9-0.5-1.1l-0.1-0.1l0.1-0.1c0.4-0.3,0.6-0.7,0.6-1.1
	s-0.2-0.8-0.5-1.1l-0.1-0.1l0.1-0.1c0.4-0.4,0.5-0.7,0.5-1.1s-0.2-0.9-0.5-1.2l-0.1-0.1l0.1-0.1c0.4-0.4,0.6-0.8,0.6-1.4v-0.2
	c0.9-4.1,1.8-7.8,3.9-10.7c1.4-2,2.2-4.4,2.2-6.8C47.3,22.7,45.8,19.5,43.2,17.2z M37,53.5C36.8,54.4,36,55,35,55
	c-1,0-1.8-0.6-2-1.5l-0.1-0.2h4.2L37,53.5z M39.4,52.5h-8.8c-0.4,0-0.8-0.4-0.8-0.9s0.4-0.9,0.8-0.9h8.8c0.4,0,0.8,0.4,0.8,0.9
	C40.3,52.1,39.8,52.5,39.4,52.5z M39.4,49.9h-8.9c-0.4,0-0.8-0.4-0.8-0.9c0-0.4,0.4-0.9,0.8-0.9h8.9c0.4,0,0.8,0.4,0.8,0.9
	C40.2,49.4,39.8,49.9,39.4,49.9z M29.7,46.4c0-0.4,0.4-0.9,0.8-0.9h8.8c0.4,0,0.8,0.4,0.8,0.9s-0.4,0.9-0.8,0.9h-8.8
	C30.1,47.2,29.7,46.8,29.7,46.4z M44.3,32.4c-2.2,3.2-3.2,7-4.1,11.1v0.3c0,0.7-0.5,0.8-1.2,0.8h-8.2c-0.7,0-1.1-0.2-1.1-0.8v-0.4
	c-0.9-3.9-1.8-7.6-4.2-11.1c-1.4-2.2-2.1-4.8-1.8-7.3c0.5-5.2,4.8-9.3,10-9.9c0.4-0.1,0.9-0.1,1.3-0.1c2.8,0,5.5,1,7.6,2.8
	c2.4,2.1,3.7,5.1,3.7,8.3C46.5,28.4,45.7,30.6,44.3,32.4z M32.2,18.2c-0.2,0-0.4,0-0.4-0.2c-0.1-0.3,0-0.4,0.3-0.4
	c0.4-0.1,0.6-0.3,1.1-0.3l0,0h0.1c0.3,0,0.4,0.2,0.4,0.4c0,0.3-0.1,0.4-0.4,0.4c-0.4,0.1-0.6,0.1-0.9,0.1H32.2z M30.4,18.3
	c0.2,0,0.4,0.1,0.4,0.2c0.1,0.2,0.1,0.4-0.2,0.6c-1.4,0.8-2.5,2-3.1,3.4c-0.1,0.2-0.3,0.3-0.4,0.3c-0.1-0.1-0.1-0.1-0.1-0.1H27
	c-0.1,0-0.2-0.1-0.3-0.2c-0.1-0.1-0.1-0.2,0-0.4c0.7-1.6,1.9-3,3.4-3.8l0,0C30.2,18.3,30.3,18.3,30.4,18.3z"/>
</svg>
