<svg xmlns="http://www.w3.org/2000/svg" xmlns:xlink="http://www.w3.org/1999/xlink" width="70" height="70" viewBox="0 0 70 70"><defs><style>.a,.b{fill:none;stroke:#0090ff;stroke-miterlimit:10;}.a{stroke-width:1.5px;}.c{clip-path:url(#a);}.d{clip-path:url(#b);}</style><clipPath id="a"><circle class="a" cx="50.8" cy="48.36" r="11.8"/></clipPath><clipPath id="b"><circle class="a" cx="19.21" cy="48.36" r="11.8" transform="translate(-28.57 27.75) rotate(-45)"/></clipPath></defs><title>icon</title><circle class="a" cx="35" cy="21.64" r="11.8"/><circle class="b" cx="50.8" cy="48.36" r="11.8"/><g class="c"><line class="b" x1="41.29" y1="35.95" x2="41.29" y2="60.78"/><line class="b" x1="44.01" y1="35.95" x2="44.01" y2="60.78"/><line class="b" x1="46.72" y1="35.95" x2="46.72" y2="60.78"/><line class="b" x1="49.44" y1="35.95" x2="49.44" y2="60.78"/><line class="b" x1="52.16" y1="35.95" x2="52.16" y2="60.78"/><line class="b" x1="54.88" y1="35.95" x2="54.88" y2="60.78"/><line class="b" x1="57.6" y1="35.95" x2="57.6" y2="60.78"/><line class="b" x1="60.31" y1="35.95" x2="60.31" y2="60.78"/></g><circle class="a" cx="50.8" cy="48.36" r="11.8"/><circle class="b" cx="19.2" cy="48.36" r="11.8" transform="translate(-28.58 27.74) rotate(-45)"/><g class="d"><line class="b" x1="3.7" y1="46.32" x2="21.25" y2="63.87"/><line class="b" x1="5.62" y1="44.4" x2="23.18" y2="61.95"/><line class="b" x1="7.54" y1="42.47" x2="25.1" y2="60.03"/><line class="b" x1="9.47" y1="40.55" x2="27.02" y2="58.11"/><line class="b" x1="11.39" y1="38.63" x2="28.94" y2="56.18"/><line class="b" x1="13.31" y1="36.71" x2="30.86" y2="54.26"/><line class="b" x1="15.23" y1="34.79" x2="32.79" y2="52.34"/><line class="b" x1="17.15" y1="32.86" x2="34.71" y2="50.42"/><line class="b" x1="21.25" y1="32.86" x2="3.7" y2="50.42"/><line class="b" x1="23.18" y1="34.79" x2="5.62" y2="52.34"/><line class="b" x1="25.1" y1="36.71" x2="7.54" y2="54.26"/><line class="b" x1="27.02" y1="38.63" x2="9.47" y2="56.18"/><line class="b" x1="28.94" y1="40.55" x2="11.39" y2="58.11"/><line class="b" x1="30.86" y1="42.47" x2="13.31" y2="60.03"/><line class="b" x1="32.79" y1="44.4" x2="15.23" y2="61.95"/><line class="b" x1="34.71" y1="46.32" x2="17.15" y2="63.87"/></g><circle class="a" cx="19.21" cy="48.36" r="11.8" transform="translate(-28.57 27.75) rotate(-45)"/></svg>