<svg xmlns="http://www.w3.org/2000/svg" width="82" height="82" viewBox="0 0 82 82">
    <g fill="none" fill-rule="evenodd" transform="translate(1 1)">
        <circle cx="40" cy="40" r="40" stroke="#0090FF" stroke-width="2"/>
        <path fill="#0090FF" d="M57.286 25.714c0 2.143-.953 3.78-2.857 4.911v8.304L43 44.643v4.732c1.905 1.131 2.857 2.768 2.857 4.91 0 1.548-.565 2.888-1.696 4.019C43.03 59.434 41.69 60 40.143 60c-1.548 0-2.887-.565-4.018-1.696-1.131-1.131-1.696-2.47-1.696-4.018 0-2.143.952-3.78 2.857-4.911v-4.732l-11.429-5.714v-8.304C23.952 29.494 23 27.857 23 25.715c0-1.548.565-2.888 1.696-4.019 1.131-1.13 2.47-1.696 4.018-1.696 1.548 0 2.887.565 4.018 1.696 1.131 1.131 1.697 2.47 1.697 4.018 0 2.143-.953 3.78-2.858 4.911v4.732l8.572 4.286 8.571-4.286v-4.732c-1.904-1.131-2.857-2.768-2.857-4.91 0-1.548.566-2.888 1.697-4.019 1.13-1.13 2.47-1.696 4.017-1.696 1.548 0 2.887.565 4.018 1.696 1.131 1.131 1.697 2.47 1.697 4.018zm-28.572-2.857c-.833 0-1.518.268-2.053.804-.536.535-.804 1.22-.804 2.053 0 .834.268 1.518.804 2.054.535.536 1.22.803 2.053.803.834 0 1.518-.267 2.054-.803.536-.536.803-1.22.803-2.054 0-.833-.267-1.518-.803-2.053-.536-.536-1.22-.804-2.054-.804zm11.429 34.286c.833 0 1.518-.268 2.053-.804.536-.535.804-1.22.804-2.053 0-.834-.268-1.518-.804-2.054-.535-.536-1.22-.803-2.053-.803s-1.518.267-2.054.803c-.535.536-.803 1.22-.803 2.054 0 .833.268 1.518.803 2.053.536.536 1.22.804 2.054.804zM51.57 28.57c.834 0 1.518-.267 2.054-.803.536-.536.804-1.22.804-2.054 0-.833-.268-1.518-.804-2.053-.536-.536-1.22-.804-2.054-.804-.833 0-1.517.268-2.053.804-.536.535-.804 1.22-.804 2.053 0 .834.268 1.518.804 2.054.536.536 1.22.803 2.053.803z"/>
    </g>
</svg>
