<svg width="60" height="60" xmlns="http://www.w3.org/2000/svg" xmlns:xlink="http://www.w3.org/1999/xlink" viewBox="0 0 55.82 55.3"><defs><style>.a{fill:none;}.b{opacity:0.2;}.c{fill:#0090ff;}.d{opacity:0.5;}.e{clip-path:url(#a);}</style><clipPath id="a" transform="translate(-0.08 0.1)"><rect class="a" x="22" width="34" height="55.1"/></clipPath></defs><title>motion</title><g class="b"><circle class="a" cx="20.03" cy="5.2" r="4.1"/><path class="a" d="M20.8,13.4a2.36,2.36,0,0,0-.8-.9,6,6,0,0,0-1.6-.8,3.4,3.4,0,0,0-1-.1,2.77,2.77,0,0,0-.9.1,10.09,10.09,0,0,0-1.5.7L5.1,17.6a1.08,1.08,0,0,1-.4.5,1.59,1.59,0,0,0-.8,1L2.4,27.2a1.16,1.16,0,0,0,.2,1,1.46,1.46,0,0,0,.9.6,1.16,1.16,0,0,0,1-.2,1.46,1.46,0,0,0,.6-.9l1.5-7.9L13,16.4,10.5,28a2.2,2.2,0,0,0-.1.8L8.6,40l-.1.2-7,10.7A4.07,4.07,0,0,0,1,52.7a1.64,1.64,0,0,0,.7,1.2,2.18,2.18,0,0,0,2.8-1l6.9-10.7a3.55,3.55,0,0,0,.4-.9c.1-.3.2-.4.2-.6L13.4,32l.5.2c.1,0,.3.1.4.1a14.24,14.24,0,0,1,1.6.5l.2.1,3,3.6,1.3-7.8a2.77,2.77,0,0,1,.1-.9l2.1-9.5-4.1,2.2-1.4,7.4a2.26,2.26,0,0,1-1,1.5,2.32,2.32,0,0,1-1.8.4,2.26,2.26,0,0,1-1.5-1,2.32,2.32,0,0,1-.4-1.8l1.5-8.1a2.2,2.2,0,0,1,1.2-1.6,2.19,2.19,0,0,1,.5-.3l5.5-2.9c-.1-.1-.1-.2-.2-.4Z" transform="translate(-0.08 0.1)"/><circle class="a" cx="31.03" cy="5.2" r="4.1"/><path class="c" d="M20.1,10.1a5.1,5.1,0,1,0,0-10.2A5.28,5.28,0,0,0,15,5.1,5.1,5.1,0,0,0,20.1,10.1Zm0-9.1A4.1,4.1,0,1,1,16,5.1,4.06,4.06,0,0,1,20.1,1Z" transform="translate(-0.08 0.1)"/><path class="c" d="M16.2,33l-.2-.2a4.94,4.94,0,0,0-1.6-.5c-.2,0-.3-.1-.4-.1l-.6-.2L12,40.8a3.93,3.93,0,0,1-.2.6,3.55,3.55,0,0,1-.4.9L4.5,52.9c-.7,1.1-2,1.6-2.8,1A1.85,1.85,0,0,1,1,52.7a2.5,2.5,0,0,1,.5-1.8l7-10.7.1-.2,1.8-11.2a2.2,2.2,0,0,1,.1-.8L13,16.4,6.6,19.8,5.1,27.7a1.46,1.46,0,0,1-.6.9,1.23,1.23,0,0,1-1,.2,1.46,1.46,0,0,1-.9-.6,1.23,1.23,0,0,1-.2-1l1.5-8.1a1.52,1.52,0,0,1,.8-1c.1-.1.3-.2.4-.3L15,12.6a3.48,3.48,0,0,1,1.5-.7,2.77,2.77,0,0,1,.9-.1,3.4,3.4,0,0,1,1,.1,3.46,3.46,0,0,1,1.6.8,1.42,1.42,0,0,1,.8.9l.1.2c.1.1.1.2.2.4l.9-.5c-.1-.1-.1-.3-.2-.4l-.1-.3a3.06,3.06,0,0,0-1.2-1.3,6.63,6.63,0,0,0-1.9-.9,4.87,4.87,0,0,0-1.2-.1,5,5,0,0,0-1.2.2,8.86,8.86,0,0,0-1.7.8L4.7,16.9a2.19,2.19,0,0,0-.5.3A2.2,2.2,0,0,0,3,18.8L1.4,27a2.32,2.32,0,0,0,.4,1.8,2.52,2.52,0,0,0,1.5,1,2.32,2.32,0,0,0,1.8-.4,2.52,2.52,0,0,0,1-1.5l1.4-7.4,4.1-2.2L9.5,27.8a3.08,3.08,0,0,0-.1.9L7.7,39.6a.1.1,0,0,1-.1.1L.7,50.4a3.48,3.48,0,0,0-.6,2.4,3.09,3.09,0,0,0,1.1,2,2.2,2.2,0,0,0,1.3.4,3.62,3.62,0,0,0,2.9-1.7l6.9-10.7a9.74,9.74,0,0,0,.5-1.1A2.54,2.54,0,0,0,13,41l1.2-7.6a5.64,5.64,0,0,1,1.2.4L18.9,38l.2-1.3Z" transform="translate(-0.08 0.1)"/></g><g class="d"><path class="a" d="M31.5,27.8l2.1-9.5-4.1,2.2-1.4,7.4a2.26,2.26,0,0,1-1,1.5,2.32,2.32,0,0,1-1.8.4,2.26,2.26,0,0,1-1.5-1,2.32,2.32,0,0,1-.4-1.8l1.5-8.1a2.2,2.2,0,0,1,1.2-1.6,2.19,2.19,0,0,1,.5-.3l5.5-2.9c-.1-.1-.1-.2-.2-.4l-.1-.2a2.36,2.36,0,0,0-.8-.9,6,6,0,0,0-1.6-.8,3.4,3.4,0,0,0-1-.1,2.77,2.77,0,0,0-.9.1,10.09,10.09,0,0,0-1.5.7l-9.9,5.2c-.1.1-.3.2-.4.3a1.59,1.59,0,0,0-.8,1l-1.5,8.1a1.16,1.16,0,0,0,.2,1,1.46,1.46,0,0,0,.9.6,1.16,1.16,0,0,0,1-.2,1.46,1.46,0,0,0,.6-.9l1.5-7.9L24,16.3,21.5,28a2.2,2.2,0,0,0-.1.8L19.6,40l-.1.2-7,10.7a2.9,2.9,0,0,0-.5,1.8,1.64,1.64,0,0,0,.7,1.2,2.18,2.18,0,0,0,2.8-1l6.9-10.7a3.55,3.55,0,0,0,.4-.9c.1-.3.2-.4.2-.6L24.4,32l.5.2c.1,0,.3.1.4.1a14.24,14.24,0,0,1,1.6.5l.2.1,3,3.6,1.3-7.8A3.08,3.08,0,0,1,31.5,27.8Z" transform="translate(-0.08 0.1)"/><circle class="a" cx="42.02" cy="5.2" r="4.1"/><circle class="a" cx="31.03" cy="5.2" r="4.1"/><path class="a" d="M26.7,18.1a1.59,1.59,0,0,0-.8,1l-1.5,8.1a1.16,1.16,0,0,0,.2,1,1.46,1.46,0,0,0,.9.6,1.16,1.16,0,0,0,1-.2,1.46,1.46,0,0,0,.6-.9l1.5-7.9L35,16.4,32.5,28a2.2,2.2,0,0,0-.1.8L30.6,40l-.1.2-7,10.7a2.9,2.9,0,0,0-.5,1.8,1.64,1.64,0,0,0,.7,1.2,2.18,2.18,0,0,0,2.8-1l6.9-10.7a3.55,3.55,0,0,0,.4-.9c.1-.3.2-.4.2-.6L35.4,32l.5.2c.1,0,.3.1.4.1a14.24,14.24,0,0,1,1.6.5l.2.1,7.3,8.7,2.3,10.8A1.9,1.9,0,0,0,49.9,54a2,2,0,0,0,1.4-2.3L49,40.9a3.55,3.55,0,0,0-.4-.9,1.38,1.38,0,0,0-.3-.4l-7.7-9.2,2.4-11,2.4,5c0,.1.1.2.1.3l.1.2a1,1,0,0,0,.6.8l7,3.1a1.39,1.39,0,0,0,.9,0,1.55,1.55,0,0,0,.8-.8,1.32,1.32,0,0,0-.6-1.8l-6.7-3-4.3-8.8a2,2,0,0,0-.4-.8l-.1-.2a2.36,2.36,0,0,0-.8-.9,6,6,0,0,0-1.6-.8,3.4,3.4,0,0,0-1-.1,2.77,2.77,0,0,0-.9.1,10.09,10.09,0,0,0-1.5.7l-9.9,5.2A1.08,1.08,0,0,1,26.7,18.1Z" transform="translate(-0.08 0.1)"/><path class="c" d="M26,5.1A5.1,5.1,0,1,0,31.1,0,5.12,5.12,0,0,0,26,5.1Zm9.1,0A4.12,4.12,0,0,1,31,9.2a4,4,0,0,1-4-4.1A4.06,4.06,0,0,1,31.1,1,4,4,0,0,1,35.1,5.1Z" transform="translate(-0.08 0.1)"/><path class="c" d="M23.3,42.8a9.74,9.74,0,0,0,.5-1.1A2.54,2.54,0,0,0,24,41l1.2-7.6a5.64,5.64,0,0,1,1.2.4L29.9,38l.2-1.3-3-3.6-.1-.3a4.94,4.94,0,0,0-1.6-.5c-.2,0-.3-.1-.4-.1l-.6-.2L23,40.8a3.93,3.93,0,0,1-.2.6,3.55,3.55,0,0,1-.4.9L15.5,53c-.7,1.1-2,1.6-2.8,1a1.85,1.85,0,0,1-.7-1.2,2.5,2.5,0,0,1,.5-1.8l7-10.7.1-.2,1.8-11.2a2.2,2.2,0,0,1,.1-.8L24,16.4l-6.4,3.4-1.5,7.9a1.46,1.46,0,0,1-.6.9,1.23,1.23,0,0,1-1,.2,1.46,1.46,0,0,1-.9-.6,1.23,1.23,0,0,1-.2-1l1.5-8.1a1.52,1.52,0,0,1,.8-1c.1-.1.3-.2.4-.3L26,12.6a3.48,3.48,0,0,1,1.5-.7,2.77,2.77,0,0,1,.9-.1,3.4,3.4,0,0,1,1,.1,3.46,3.46,0,0,1,1.6.8,1.42,1.42,0,0,1,.8.9l.1.2c.1.1.1.2.2.4l.9-.5c-.1-.1-.1-.3-.2-.4l-.1-.3a3.06,3.06,0,0,0-1.2-1.3,6.63,6.63,0,0,0-1.9-.9,4.87,4.87,0,0,0-1.2-.1,5,5,0,0,0-1.2.2,8.86,8.86,0,0,0-1.7.8l-9.8,5.2a2.19,2.19,0,0,0-.5.3A2.2,2.2,0,0,0,14,18.8L12.4,27a2.32,2.32,0,0,0,.4,1.8,2.52,2.52,0,0,0,1.5,1,2.32,2.32,0,0,0,1.8-.4,2.52,2.52,0,0,0,1-1.5l1.4-7.4,4.1-2.2-2.1,9.5a3.08,3.08,0,0,0-.1.9L18.7,39.6a.1.1,0,0,1-.1.1L11.7,50.4a3.48,3.48,0,0,0-.6,2.4,3.09,3.09,0,0,0,1.1,2,2.2,2.2,0,0,0,1.3.4,3.62,3.62,0,0,0,2.9-1.7Z" transform="translate(-0.08 0.1)"/></g><g class="e"><path class="c" d="M42.1,10.1A5.12,5.12,0,0,1,37,5a5.1,5.1,0,0,1,10.2.1A5.17,5.17,0,0,1,42.1,10.1Zm0-9.1A4.06,4.06,0,0,0,38,5.1a4.12,4.12,0,0,0,4.1,4.1,4.06,4.06,0,0,0,4.1-4.1A4.18,4.18,0,0,0,42.1,1Z" transform="translate(-0.08 0.1)"/></g><g class="e"><path class="c" d="M24.5,55.1a2,2,0,0,1-1.3-.4,2.4,2.4,0,0,1-1.1-2,3.48,3.48,0,0,1,.6-2.4l6.9-10.7a.1.1,0,0,1,.1-.1l1.7-10.9a2.77,2.77,0,0,1,.1-.9l2.1-9.5-4.1,2.2-1.4,7.4a2.26,2.26,0,0,1-1,1.5,2.32,2.32,0,0,1-1.8.4,2.26,2.26,0,0,1-1.5-1,2.32,2.32,0,0,1-.4-1.8l1.5-8.1a2.2,2.2,0,0,1,1.2-1.6,2.19,2.19,0,0,1,.5-.3l9.8-5.2a3.81,3.81,0,0,1,1.7-.8,5,5,0,0,1,1.2-.2,4.87,4.87,0,0,1,1.2.1,5.57,5.57,0,0,1,1.9.9A2.56,2.56,0,0,1,43.6,13l.1.2a3.55,3.55,0,0,1,.4.9l4.1,8.4,6.4,2.8a2.4,2.4,0,0,1,1.1,3.1,2.73,2.73,0,0,1-1.3,1.3,2.21,2.21,0,0,1-1.6,0l-7-3.1a2.36,2.36,0,0,1-1.2-1.4c-.1-.1-.1-.2-.2-.3l-1.2-2.4-1.7,7.7L48.9,39c.1.2.2.3.3.5a2.62,2.62,0,0,1,.6,1.3l2.3,10.8A2.92,2.92,0,0,1,50,55.1a3,3,0,0,1-3.4-2.4L44.4,42.2l-7.1-8.4a5.64,5.64,0,0,0-1.2-.4L35,40.9a1.85,1.85,0,0,1-.2.7,9.74,9.74,0,0,1-.5,1.1L27.4,53.4A3.48,3.48,0,0,1,24.5,55.1ZM35,16.4,32.5,28a2.2,2.2,0,0,0-.1.8L30.6,40l-.1.2-7,10.7a2.9,2.9,0,0,0-.5,1.8,1.64,1.64,0,0,0,.7,1.2,2.18,2.18,0,0,0,2.8-1l6.9-10.7a3.55,3.55,0,0,0,.4-.9c.1-.3.2-.4.2-.6L35.4,32l.5.2c.1,0,.3.1.4.1a14.24,14.24,0,0,1,1.6.5l.2.1,7.3,8.7,2.3,10.8A1.9,1.9,0,0,0,49.9,54a2,2,0,0,0,1.4-2.3L49,40.9a3.55,3.55,0,0,0-.4-.9,1.38,1.38,0,0,0-.3-.4l-7.7-9.2,2.4-11,2.4,5c0,.1.1.2.1.3l.1.2a1,1,0,0,0,.6.8l7,3.1a1.39,1.39,0,0,0,.9,0,1.55,1.55,0,0,0,.8-.8,1.32,1.32,0,0,0-.6-1.8l-6.7-3-4.3-8.8a2,2,0,0,0-.4-.8l-.1-.2a2.36,2.36,0,0,0-.8-.9,6,6,0,0,0-1.6-.8,3.4,3.4,0,0,0-1-.1,2.77,2.77,0,0,0-.9.1,10.09,10.09,0,0,0-1.5.7l-9.9,5.2c-.1.1-.3.2-.4.3a1.59,1.59,0,0,0-.8,1L24.4,27a1.16,1.16,0,0,0,.2,1,1.46,1.46,0,0,0,.9.6,1.16,1.16,0,0,0,1-.2,1.46,1.46,0,0,0,.6-.9l1.5-7.9Z" transform="translate(-0.08 0.1)"/></g></svg>
