<svg xmlns="http://www.w3.org/2000/svg" width="70" height="70" viewBox="0 0 70 70"><defs><style>.a{fill:#0090ff;}</style></defs><title>icon</title><path class="a" d="M34.32,13.07v23a.68.68,0,0,0,.67.69.75.75,0,0,0,.48-.19.67.67,0,0,0,.21-.48v-23a.68.68,0,0,0-.66-.7h-.09A.68.68,0,0,0,34.32,13.07Z"/><path class="a" d="M48,22.48a.69.69,0,0,0-.89,1,18.58,18.58,0,0,1-12,32.74H35A18.58,18.58,0,0,1,22.91,23.52a.68.68,0,0,0,.12-1,.67.67,0,0,0-.59-.26h0a.68.68,0,0,0-.41.17,19.94,19.94,0,0,0,12.8,35.13l.13,0h0A20,20,0,0,0,48,22.48Z"/></svg>