<svg width="50" height="50" xmlns="http://www.w3.org/2000/svg" viewBox="0 0 31.66 31.66"><defs><style>.a{fill:#0090ff;}.b{fill:none;stroke:#0090ff;stroke-linecap:round;stroke-miterlimit:10;}</style></defs><title>light-sensor</title><path class="a" d="M34.68,41.21a6,6,0,1,1,6-6A6,6,0,0,1,34.68,41.21Zm0-10.84a4.85,4.85,0,1,0,4.85,4.85A4.86,4.86,0,0,0,34.68,30.36Z" transform="translate(-19.17 -19.17)"/><line class="b" x1="15.83" y1="0.5" x2="15.83" y2="5.26"/><line class="b" x1="15.83" y1="26.38" x2="15.83" y2="31.16"/><line class="b" x1="8.16" y1="2.55" x2="10.55" y2="6.68"/><line class="b" x1="21.1" y1="24.96" x2="23.49" y2="29.1"/><line class="b" x1="2.55" y1="8.16" x2="6.68" y2="10.55"/><line class="b" x1="24.96" y1="21.1" x2="29.1" y2="23.49"/><line class="b" x1="0.5" y1="15.83" x2="5.26" y2="15.83"/><line class="b" x1="26.38" y1="15.83" x2="31.16" y2="15.83"/><line class="b" x1="2.55" y1="23.49" x2="6.68" y2="21.11"/><line class="b" x1="24.96" y1="10.56" x2="29.1" y2="8.16"/><line class="b" x1="8.16" y1="29.1" x2="10.55" y2="24.98"/><line class="b" x1="21.1" y1="6.69" x2="23.49" y2="2.55"/></svg>
