<?xml version="1.0" encoding="utf-8"?>
<!-- Generator: Adobe Illustrator 21.0.2, SVG Export Plug-In . SVG Version: 6.00 Build 0)  -->
<svg version="1.1" id="Layer_1" xmlns="http://www.w3.org/2000/svg" xmlns:xlink="http://www.w3.org/1999/xlink" x="0px" y="0px"
	 viewBox="0 0 70 70" style="enable-background:new 0 0 70 70;" xml:space="preserve">
<style type="text/css">
	.st0{fill:#0090FF;}
</style>
<g transform="translate(0,-952.36218)">
	<path class="st0" d="M26.9,967.3c-1.7,0-3,1.4-3,3v3H11.6c-1.7,0-3,1.4-3,3v28c0,1.7,1.4,3,3,3H58c1.7,0,3-1.4,3-3v-28
		c0-1.7-1.4-3-3-3H45.8v-3c0-1.7-1.4-3-3-3H26.9z M26.9,968.6h15.9c1,0,1.8,0.8,1.8,1.8v3H25v-3C25,969.4,25.8,968.6,26.9,968.6z
		 M11.6,974.7H58c1,0,1.8,0.8,1.8,1.8v4.3c-5.7,4.4-14.8,7.3-25,7.3s-19.3-2.9-25-7.3v-4.3C9.8,975.5,10.6,974.7,11.6,974.7z
		 M9.8,982.3c5,3.6,12.1,6,20.1,6.8v2.7c0,1,0.8,1.8,1.8,1.8h6.1c1,0,1.8-0.8,1.8-1.8v-2.7c8-0.7,15.1-3.2,20.1-6.8v22.2
		c0,1-0.8,1.8-1.8,1.8H11.6c-1,0-1.8-0.8-1.8-1.8V982.3z M31.1,989.2c1.2,0.1,2.4,0.1,3.7,0.1c1.2,0,2.5,0,3.7-0.1v2.6
		c0,0.3-0.3,0.6-0.6,0.6h-6.1c-0.3,0-0.6-0.3-0.6-0.6V989.2z"/>
</g>
</svg>
