<svg width="60" height="60" xmlns="http://www.w3.org/2000/svg" viewBox="0 0 57.3 57.3"><defs><style>.a{fill:#0090ff;}</style></defs><title>accelerometer</title><path class="a" d="M61.95,44.94a1.3,1.3,0,1,1,1.64-.85A1.3,1.3,0,0,1,61.95,44.94Zm-2.29-1.41-1.24-.4a.65.65,0,1,1,.4-1.24l1.24.4a.65.65,0,1,1-.4,1.24ZM28.09,56.74A22.83,22.83,0,1,1,56.76,41.91,22.83,22.83,0,0,1,28.09,56.74ZM41.53,14.48a21.76,21.76,0,0,0-27,14,21.76,21.76,0,0,0,14,27,21.76,21.76,0,0,0,27-14A21.76,21.76,0,0,0,41.53,14.48Zm-12,40c-2.16-.69-1.91-7.31.52-16.37-8.79-3.25-14.35-6.87-13.66-9s7.31-1.91,16.37.52c3.25-8.79,6.87-14.34,9-13.66s1.91,7.31-.52,16.37c8.79,3.25,14.34,6.87,13.66,9s-7.31,1.91-16.37-.52C35.28,49.59,31.66,55.14,29.5,54.45Zm.4-1.24c1.06.34,4.42-5,7.35-12.77-1-.28-2-.57-3-.9s-2-.66-3-1C29.2,46.54,28.84,52.88,29.89,53.21Zm8.84-17c.33-1,.63-2.06.91-3.06-1-.35-2-.7-3-1s-2.06-.63-3.06-.91c-.35,1-.7,2-1,3s-.63,2.06-.91,3.06c1,.35,2,.7,3,1s2.06.63,3.06.91C38.06,38.22,38.4,37.22,38.74,36.18ZM17.61,29.45c-.34,1.06,5,4.42,12.77,7.35.28-1,.57-2,.9-3s.66-2,1-3C24.28,28.76,17.94,28.4,17.61,29.45ZM41.36,17.17c-1.06-.34-4.42,5-7.35,12.77,1,.28,2,.57,3,.9s2,.66,3,1C42.06,23.84,42.42,17.5,41.36,17.17ZM53.65,40.92c.34-1.06-5-4.42-12.77-7.35-.28,1-.57,2-.9,3s-.66,2-1,3C47,41.62,53.31,42,53.65,40.92ZM34.39,34.79a1.3,1.3,0,1,1,.85,1.64A1.3,1.3,0,0,1,34.39,34.79Zm9.77-24.26-.4,1.24a.65.65,0,1,1-1.24-.4l.4-1.24a.65.65,0,0,1,1.24.4ZM43.93,9.1a1.3,1.3,0,1,1,1.64-.85A1.3,1.3,0,0,1,43.93,9.1Zm-32.74,19-1.24-.4a.65.65,0,1,1,.4-1.24l1.24.4a.65.65,0,0,1-.4,1.24Zm-3.93-.57a1.3,1.3,0,1,1,1.64-.85A1.3,1.3,0,0,1,7.26,27.54ZM27.09,59.86l.4-1.24a.65.65,0,0,1,1.24.4l-.4,1.24a.65.65,0,1,1-1.24-.4Zm.23,1.44a1.3,1.3,0,1,1-1.64.85A1.3,1.3,0,0,1,27.32,61.3Z" transform="translate(-6.35 -6.55)"/></svg>
