<?xml version="1.0" encoding="utf-8"?>
<!-- Generator: Adobe Illustrator 21.0.1, SVG Export Plug-In . SVG Version: 6.00 Build 0)  -->
<svg version="1.1" id="Warstwa_1" xmlns="http://www.w3.org/2000/svg" xmlns:xlink="http://www.w3.org/1999/xlink" x="0px" y="0px"
	 viewBox="0 0 70 70" style="enable-background:new 0 0 70 70;" xml:space="preserve">
<style type="text/css">
	.st0{fill:#FFFFFF;}
</style>
<g>
	<path class="st0" d="M34.9,27.7c0-0.3-0.2-0.4-0.4-0.4s-0.4,0.2-0.4,0.4V43c-3,0.3-5.2,2.7-5.2,5.7c0,3.1,2.5,5.7,5.7,5.7
		s5.7-2.5,5.7-5.7c0-3-2.3-5.4-5.2-5.7V27.7z M39.3,48.7c0,2.6-2.2,4.8-4.8,4.8s-4.8-2.2-4.8-4.8s2.2-4.8,4.8-4.8S39.3,46,39.3,48.7
		z"/>
	<path class="st0" d="M38.4,40.4V15.5c0-2.2-1.7-3.9-3.9-3.9s-3.9,1.7-3.9,3.9v24.9c-3.2,1.5-5.2,4.7-5.2,8.3c0,5.1,4.1,9.2,9.2,9.2
		s9.2-4.1,9.2-9.2C43.7,45.1,41.7,41.9,38.4,40.4z M42.8,48.7c0,4.5-3.8,8.3-8.3,8.3s-8.3-3.8-8.3-8.3c0-3.3,1.9-6.3,5-7.6
		c0.2-0.1,0.3-0.3,0.3-0.4V15.5c0-1.7,1.4-3.1,3.1-3.1s3.1,1.4,3.1,3.1v25.1c0,0.2,0.1,0.3,0.3,0.4C40.9,42.4,42.8,45.4,42.8,48.7z"
		/>
	<path class="st0" d="M41.5,19.4h1.7c0.3,0,0.4-0.2,0.4-0.4c0-0.3-0.2-0.4-0.4-0.4h-1.7c-0.3,0-0.4,0.2-0.4,0.4
		C41,19.2,41.2,19.4,41.5,19.4z"/>
	<path class="st0" d="M43.2,22h-1.7c-0.3,0-0.4,0.2-0.4,0.4c0,0.3,0.2,0.4,0.4,0.4h1.7c0.3,0,0.4-0.2,0.4-0.4
		C43.7,22.2,43.5,22,43.2,22z"/>
	<path class="st0" d="M43.2,25.5h-1.7c-0.3,0-0.4,0.2-0.4,0.4c0,0.3,0.2,0.4,0.4,0.4h1.7c0.3,0,0.4-0.2,0.4-0.4
		C43.7,25.7,43.5,25.5,43.2,25.5z"/>
	<path class="st0" d="M43.2,29h-1.7c-0.3,0-0.4,0.2-0.4,0.4c0,0.3,0.2,0.4,0.4,0.4h1.7c0.3,0,0.4-0.2,0.4-0.4
		C43.7,29.2,43.5,29,43.2,29z"/>
	<path class="st0" d="M43.2,32.5h-1.7c-0.3,0-0.4,0.2-0.4,0.4c0,0.3,0.2,0.4,0.4,0.4h1.7c0.3,0,0.4-0.2,0.4-0.4
		C43.7,32.7,43.5,32.5,43.2,32.5z"/>
	<path class="st0" d="M43.2,36h-1.7c-0.3,0-0.4,0.2-0.4,0.4c0,0.3,0.2,0.4,0.4,0.4h1.7c0.3,0,0.4-0.2,0.4-0.4
		C43.7,36.2,43.5,36,43.2,36z"/>
</g>
</svg>
