<svg xmlns="http://www.w3.org/2000/svg" width="70" height="70" viewBox="0 0 70 70"><defs><style>.a{fill:#0090ff;}</style></defs><title>icon</title><path class="a" d="M55.39,10l-.07,0-29.08,11a.6.6,0,0,0-.38.55V49.42a7,7,0,0,0-6.4-2.13c-4.11.53-7.56,3.75-7.56,7.31s3.45,5.88,7.56,5.34S27,56.18,27,52.63V30.75L54.93,20.14V41.27a7,7,0,0,0-6.4-2.13C44.42,39.68,41,42.9,41,46.45s3.45,5.88,7.56,5.34S56.1,48,56.1,44.49V10.58A.61.61,0,0,0,55.39,10Zm-.45,1.42V18.9L27,29.52V22ZM49.21,40.26c3.27-.15,5.72,1.76,5.72,4.38,0,2.79-2.8,5.53-6.4,6s-6.4-1.53-6.4-4.33,2.8-5.53,6.4-6C48.76,40.28,49,40.27,49.21,40.26ZM20.13,48.4c3.27-.15,5.72,1.76,5.72,4.38,0,2.79-2.8,5.53-6.4,6s-6.4-1.53-6.4-4.33,2.8-5.53,6.4-6C19.69,48.42,19.92,48.41,20.13,48.4Z"/></svg>