<?xml version="1.0" encoding="utf-8"?>
<!-- Generator: Adobe Illustrator 21.0.1, SVG Export Plug-In . SVG Version: 6.00 Build 0)  -->
<svg version="1.1" id="Layer_1" xmlns="http://www.w3.org/2000/svg" xmlns:xlink="http://www.w3.org/1999/xlink" x="0px" y="0px"
	 viewBox="0 0 80 60" style="enable-background:new 0 0 80 60;" xml:space="preserve">
<title>hand</title>
<path d="M49,14.7c0.2-0.8,0.4-1.7,0.4-2.6c-0.2-5.5-4.7-9.8-10.2-9.6c-5.2,0.2-9.4,4.4-9.6,9.6c0,1.7,0.4,3.3,1.3,4.8
	c0.3,0.5,0.8,0.6,1.3,0.4c0.5-0.3,0.6-0.8,0.4-1.3c-0.7-1.2-1-2.5-1-3.9c0-4.4,3.6-8,8-8c4.4,0,8,3.6,8,8c0,0.7-0.1,1.4-0.3,2.1
	c-0.1,0.5,0.2,1,0.7,1.2c0.2,0.1,0.5,0,0.7-0.1C48.8,15.1,49,14.9,49,14.7z"/>
<path d="M22.6,11.8c0.5,0,1-0.4,1-1c0-0.5-0.4-1-1-1H4.5L8,6.4C8.3,5.9,8.1,5.3,7.7,5C7.4,4.8,6.9,4.8,6.6,5l-5.1,5.1
	c-0.1,0.1-0.2,0.2-0.2,0.3c0,0-0.1,0.1-0.1,0.1v0.1v0.1c0,0.1,0,0.1,0,0.2v0.2c0,0.1,0.1,0.3,0.2,0.4l5.1,5.1
	c0.3,0.4,0.9,0.6,1.4,0.3c0.4-0.3,0.6-0.9,0.3-1.4c-0.1-0.1-0.2-0.2-0.3-0.3l-3.4-3.5H22.6z"/>
<path d="M78.5,11.5c0.1-0.1,0.2-0.2,0.2-0.3c0,0,0-0.1,0-0.1V11c0,0,0-0.1,0-0.1c0-0.1,0-0.1,0-0.2v-0.2c0-0.1-0.1-0.3-0.2-0.4
	L73.4,5c-0.4-0.4-1-0.4-1.4,0c-0.4,0.4-0.4,1,0,1.4l3.5,3.5H57.4c-0.5,0-1,0.4-1,1c0,0.5,0.4,1,1,1h18.2L72,15.3
	c-0.4,0.4-0.4,1,0,1.4c0.4,0.4,1,0.4,1.4,0L78.5,11.5z"/>
<path d="M67.3,30c0-2.6-2.1-4.8-4.8-4.8c-1,0-1.9,0.3-2.7,0.8l-0.3,0.2l-0.1-0.4c-0.9-2.5-3.6-3.8-6.1-2.9c-0.4,0.1-0.8,0.3-1.1,0.5
	l-0.3,0.2l-0.1-0.4c-0.9-2.5-3.6-3.8-6.1-2.9c-0.3,0.1-0.6,0.2-0.8,0.4L44.3,21v-8.9c0-2.6-2.1-4.8-4.8-4.8s-4.8,2.1-4.8,4.8v22.4
	l-5-3.7c-2.5-1.9-6.1-1.6-8.3,0.6c-1.4,1.4-1.4,3.6,0,5l18.2,18.2c2.1,2.1,4.9,3.3,7.9,3.3h6c7.6,0,13.7-6.2,13.8-13.8V30z
	 M65.3,44.1c0,6.5-5.3,11.8-11.8,11.8h-6c-2.5,0-4.8-1-6.6-2.7L22.8,35c-0.6-0.6-0.6-1.6,0-2.3c0,0,0,0,0,0c1.6-1.5,4-1.7,5.8-0.4
	l6.5,4.9c0.4,0.3,1.1,0.2,1.4-0.2c0.1-0.2,0.2-0.3,0.2-0.5V12.1c0-1.6,1.3-2.9,2.9-2.9s2.9,1.3,2.9,2.9v19.2c0,0.5,0.4,1,1,1
	s1-0.4,1-1v-6.4c0-1.6,1.3-2.9,2.9-2.9c1.6,0,2.9,1.3,2.9,2.9v6.4c0,0.5,0.4,1,1,1s1-0.4,1-1v-3.8c0-1.6,1.3-2.9,2.9-2.9
	c1.6,0,2.9,1.3,2.9,2.9v3.8c0,0.5,0.4,1,1,1s1-0.4,1-1V30c0-1.6,1.3-2.9,2.9-2.9c1.6,0,2.9,1.3,2.9,2.9L65.3,44.1z"/>
</svg>
