<?xml version="1.0" encoding="utf-8"?>
<!-- Generator: Adobe Illustrator 20.0.0, SVG Export Plug-In . SVG Version: 6.00 Build 0)  -->
<svg version="1.1" id="Warstwa_2" xmlns="http://www.w3.org/2000/svg" xmlns:xlink="http://www.w3.org/1999/xlink" x="0px" y="0px"
	 viewBox="0 0 700 1000" style="enable-background:new 0 0 700 1000;" xml:space="preserve">
<style type="text/css">
	.st0{fill:none;stroke:#CCCCCC;stroke-width:17.0079;stroke-linecap:round;stroke-linejoin:round;stroke-miterlimit:10;}
</style>
<g>
	<path class="st0" d="M296.5,631.1l-77.8,77.8c-21.4,21.4-56.4,21.4-77.8,0c-21.4-21.4-21.4-56.4,0-77.8l77.8-77.8
		c7.8,7.8,21.4,7.8,29.1,0c7.8-7.8,7.8-21.4,0-29.1l19.4-19.4l77.8,77.8l-19.4,19.4c-7.8-7.8-21.4-7.8-29.1,0
		C288.8,609.6,288.8,623.2,296.5,631.1z"/>
	<path class="st0" d="M248,601.9l-68.1,68.1L248,601.9z"/>
	<path class="st0" d="M298.5,379.2c7.8-27.2,0-58.3-21.4-79.7c-25.2-25.2-63.2-31.1-94.3-16.6l55.4,55.4c10.7,10.7,10.7,28.2,0,38.9
		c-10.7,10.7-28.2,10.7-38.9,0l-55.4-55.4c-14.6,31.1-9.7,69.1,16.6,94.3c21.4,21.4,52.5,29.1,79.7,21.4l75.8,75.8l58.3-58.3
		L298.5,379.2z"/>
	<path class="st0" d="M470.6,551.3l-75.8-75.8l-58.3,58.3l75.8,75.8c-7.8,27.2,0,58.3,21.4,79.7c25.2,25.2,63.2,31.1,94.3,16.6
		l-55.4-55.4c-10.7-10.7-10.7-28.2,0-38.9c10.7-10.7,28.2-10.7,38.9,0l55.4,55.5c14.6-31.1,9.7-69.1-16.6-94.3
		C529,550.4,497.8,543.5,470.6,551.3z"/>
	<polygon class="st0" points="316,553.2 296.5,533.8 462.9,367.6 472.6,338.3 511.4,299.5 550.3,338.3 511.4,377.3 482.3,387 	"/>
</g>
</svg>
