<?xml version="1.0" encoding="utf-8"?>
<!-- Generator: Adobe Illustrator 20.0.0, SVG Export Plug-In . SVG Version: 6.00 Build 0)  -->
<svg version="1.1" id="Warstwa_3" xmlns="http://www.w3.org/2000/svg" xmlns:xlink="http://www.w3.org/1999/xlink" x="0px" y="0px"
	 viewBox="0 0 700 1000" style="enable-background:new 0 0 700 1000;" xml:space="preserve">
<style type="text/css">
	.st0{fill:none;stroke:#CCCCCC;stroke-width:19.8425;stroke-linecap:round;stroke-linejoin:round;stroke-miterlimit:10;}
	.st1{fill:#CCCCCC;}
</style>
<g>
	<path class="st0" d="M541.6,756.7H158.4c-18.4,0-33.4-15.1-33.4-33.4V236.7c0-18.4,15.1-33.4,33.4-33.4h383.2
		c18.4,0,33.4,15.1,33.4,33.4v486.6C575.1,741.6,560,756.7,541.6,756.7z"/>
	<line class="st0" x1="195.5" y1="520.9" x2="496.5" y2="520.9"/>
	<line class="st0" x1="195.5" y1="575.4" x2="452.1" y2="575.4"/>
	<line class="st0" x1="195.5" y1="630" x2="496.5" y2="630"/>
	<line class="st0" x1="195.5" y1="684.6" x2="399.4" y2="684.6"/>
	<path class="st1" d="M433.5,342l-13.3-2.2c-1.4-4.5-3.1-8.9-5.4-13l7.9-11c3.1-4.4,2.7-10.5-1.2-14.4l-11.6-11.6
		c-2.1-2.1-4.9-3.2-7.9-3.2c-2.3,0-4.5,0.7-6.5,2l-11,7.8c-4.3-2.3-8.8-4.2-13.5-5.5l-2.2-13.1c-0.9-5.4-5.5-9.3-11-9.3h-16.4
		c-5.5,0-10.1,3.9-11,9.3l-2.3,13.4c-4.5,1.4-8.9,3.2-12.9,5.5l-10.8-7.8c-1.9-1.4-4.2-2-6.5-2c-3,0-5.8,1.2-7.9,3.2l-11.6,11.6
		c-3.9,3.9-4.3,9.9-1.2,14.3l7.9,11.1c-2.2,4.2-4,8.5-5.3,13l-13.1,2.2c-5.4,0.9-9.3,5.5-9.3,11v16.4c0,5.5,3.9,10.1,9.3,11
		l13.4,2.3c1.4,4.5,3.2,8.9,5.5,12.9l-7.8,10.8c-3.1,4.4-2.7,10.5,1.2,14.4l11.6,11.6c2.1,2.1,4.9,3.2,7.9,3.2c2.3,0,4.5-0.7,6.5-2
		l11.1-7.9c4.1,2.1,8.2,3.9,12.6,5.2l2.2,13.2c0.9,5.4,5.5,9.3,11,9.3h16.4c5.5,0,10.1-3.9,11-9.3l2.2-13.3c4.5-1.4,8.9-3.1,13-5.4
		l11,7.9c1.9,1.4,4.2,2,6.5,2l0,0c3,0,5.8-1.2,7.9-3.2l11.6-11.6c3.9-3.9,4.3-9.9,1.2-14.3l-7.8-11c2.2-4.2,4.1-8.5,5.4-13l13.2-2.2
		c5.4-0.9,9.3-5.5,9.3-11v-16.4C442.8,347.6,438.9,342.9,433.5,342z M433,369.4c0,0.6-0.5,1.2-1.1,1.3l-16.4,2.8
		c-1.9,0.3-3.4,1.8-4,3.6c-1.5,5.7-3.8,11.3-6.8,16.4c-1,1.7-0.9,3.8,0.2,5.4l9.6,13.5c0.4,0.6,0.3,1.3-0.2,1.8l-11.6,11.6
		c-0.4,0.4-0.7,0.4-0.9,0.4c-0.2,0-0.5,0-0.7-0.3l-13.5-9.6c-1.6-1.1-3.7-1.2-5.4-0.2c-5.1,3.1-10.6,5.4-16.4,6.8
		c-1.8,0.5-3.3,2-3.6,4l-2.8,16.4c-0.1,0.6-0.6,1.1-1.3,1.1h-16.4c-0.6,0-1.2-0.5-1.3-1.1l-2.8-16.4c-0.3-1.9-1.8-3.4-3.6-4
		c-5.6-1.5-11-3.7-16-6.6c-0.7-0.5-1.6-0.6-2.5-0.6c-1,0-2,0.3-2.9,0.9l-13.6,9.7c-0.3,0.2-0.6,0.3-0.7,0.3s-0.6-0.1-0.9-0.4
		L286,414.4c-0.5-0.5-0.6-1.2-0.2-1.8l9.5-13.4c1.1-1.6,1.2-3.7,0.2-5.4c-3.1-5.1-5.4-10.6-6.9-16.4c-0.5-1.8-2-3.2-3.9-3.6
		l-16.5-2.8c-0.6-0.1-1.1-0.6-1.1-1.3v-16.4c0-0.6,0.5-1.2,1.1-1.3l16.3-2.7c1.9-0.3,3.5-1.8,4-3.6c1.5-5.7,3.7-11.3,6.7-16.5
		c0.9-1.7,0.8-3.7-0.3-5.3l-9.8-13.8c-0.4-0.6-0.3-1.3,0.2-1.8l11.6-11.6c0.4-0.4,0.7-0.4,0.9-0.4c0.2,0,0.5,0,0.7,0.3l13.4,9.5
		c1.6,1.1,3.7,1.2,5.4,0.2c5.1-3.1,10.6-5.4,16.4-6.9c1.8-0.5,3.2-2,3.6-3.9l2.8-16.5c0.1-0.6,0.6-1.1,1.3-1.1h16.4
		c0.6,0,1.2,0.5,1.3,1.1l2.7,16.3c0.3,1.9,1.8,3.5,3.6,4c5.9,1.5,11.6,3.8,16.7,6.9c1.7,1,3.8,0.9,5.4-0.2l13.5-9.6
		c0.3-0.2,0.6-0.3,0.7-0.3c0.2,0,0.6,0.1,0.9,0.4l11.6,11.6c0.5,0.5,0.6,1.2,0.2,1.8l-9.6,13.5c-1.1,1.6-1.2,3.7-0.2,5.4
		c3.1,5.1,5.4,10.6,6.8,16.4c0.5,1.8,2,3.3,4,3.6l16.4,2.8c0.6,0.1,1.1,0.6,1.1,1.3L433,369.4L433,369.4z M350,321.4
		c-22,0-39.9,17.8-39.9,39.9s17.8,39.9,39.9,39.9c21.9,0,39.9-17.8,39.9-39.9S372,321.4,350,321.4z M350,391.2
		c-16.6,0-30.1-13.5-30.1-30.1s13.5-30.1,30.1-30.1s30.1,13.5,30.1,30.1S366.6,391.2,350,391.2z"/>
</g>
</svg>
