<svg xmlns="http://www.w3.org/2000/svg" viewBox="0 0 852.15 596.18"><defs><style>.a{fill:#0090ff;}</style></defs><title>marketing-dept</title><path class="a" d="M692,442.83c-.06,55.93-4.49,112.41-17.84,166.86-4.81,19.61-11,39.48-19.36,56.43a123.32,123.32,0,0,1-12,19.84c1.52-2-1.41,1.65-1.91,2.22-1,1.14-2,2.22-3.11,3.29s-2.08,2-3.16,2.87c-1.85,1.57,1.89-1.39,0,0-.7.52-1.43,1-2.16,1.48a34.78,34.78,0,0,1-3.28,1.86c-.62.31-2.67,1.15.3-.07-.55.23-1.11.42-1.67.61a26.38,26.38,0,0,1-3.37.87c-2.14.43,2.68-.28.52-.06-.76.08-1.52.1-2.28.11l5.3,1.43A19.57,19.57,0,0,0,623.4,699l-2.79-.37q4.09.85,2.51.27l-3.34-1.29-10.31-4c-2.8-1.08,3.06,2.05.16-.47-1.19-1-2.31-2.15-3.41-3.28s-2.27-2.48-3.34-3.77c-.2-.24-2-2.53-.55-.65-.74-1-1.45-2-2.16-3-11.28-16.06-17.54-33.45-23.26-52-17-55.25-22.39-114.18-23.46-171.73-1.11-59.56,3-120,16.55-178.08,5-21.38,11.46-43,20.9-62,1.88-3.77,3.93-7.44,6.13-11,1-1.65,2.08-3.26,3.18-4.85.53-.76,1.07-1.51,1.62-2.26q1.09-1.44,0,0,.54-.69,1.1-1.36c5.06-6.19,11.77-12.83,20.3-12.73.57,0,1.14.05,1.71.1,2.16.18-2.67-.43-.52-.06a26.05,26.05,0,0,1,3.37.87c.57.18,1.12.39,1.67.61-3-1.15-.94-.38-.3-.07a34.94,34.94,0,0,1,3.82,2.21c.55.36,1.08.74,1.62,1.13,1.93,1.4-1.86-1.5,0,0,1.1.9,2.14,1.88,3.16,2.87s2.11,2.16,3.11,3.29c.52.59,1,1.19,1.53,1.8,1.85,2.22-.19-.33.88,1.1,10.6,14.07,16.59,29.17,22,45,16.67,48.8,22.9,101.25,25.56,152.52.77,15,1.11,29.95,1.13,44.93,0,13.54,21,13.54,21,0-.06-56.82-4.71-114.32-17.92-169.7-4.94-20.7-11.38-41.1-20.33-60.44-6.2-13.38-14.28-27.21-25.83-36.68-14.34-11.78-32.31-14.14-48.34-3.23-14.35,9.77-23.67,26.05-30.75,41.48-22.06,48-29.89,102.62-34.43,154.79a847.29,847.29,0,0,0,4.7,188.8c3.64,26.41,8.82,52.7,16.57,78.22,5.83,19.2,13.18,38.65,24.31,55.46a81.33,81.33,0,0,0,15,17.47c5.93,5,13.69,7.1,20.86,9.87l1,.37.07,0q5.81,1-.45-.52a14.38,14.38,0,0,0,7.58,1.33,36.43,36.43,0,0,0,9.54-2,51,51,0,0,0,17.09-10.79C663,696.77,670.8,682.12,677,668c8.78-20.09,14.92-41.16,19.74-62.52,12-53.17,16.23-108.25,16.29-162.67C713,429.29,692,429.29,692,442.83ZM606.14,691.91l-93.22-33.75L331.78,592.57l-121.3-43.92-47.79-17.3,7.71,10.13V344l-7.71,10.13L249,322.85l178.63-64.68,150.66-54.55,27.36-9.91-10.22-17.55c-12.6,10.93-20.9,26.54-27.43,41.62-9.52,22-15.93,45.17-20.88,68.59-12.76,60.39-16.2,122.92-14.36,184.5,1.51,50.41,6.92,101.38,19.59,150.29,4.84,18.68,11,37.11,19.43,54.51,5.94,12.33,13.6,24.86,24.17,33.77,4.37,3.69,10.55,4.3,14.85,0,3.79-3.79,4.38-11.16,0-14.85a63.25,63.25,0,0,1-6.79-6.72c-.57-.65-1.11-1.32-1.66-2-1.86-2.27,1.26,1.7-.54-.7-1.32-1.76-2.54-3.59-3.74-5.44a156.15,156.15,0,0,1-11.9-22.86c-9.22-22-15.16-45.43-19.86-68.8-12.12-60.3-14.72-122.7-12.17-184,1.91-45.8,7.22-91.81,18.93-136.21,4.37-16.58,9.83-33.22,16.92-47.92C595.85,207.78,601,199,610.26,191c7.81-6.77-.42-21.1-10.22-17.55l-86.28,31.24L335.13,269.39,184.48,323.94l-27.37,9.91c-4.44,1.61-7.71,5.17-7.71,10.13v197.5c0,5,3.26,8.52,7.71,10.13L243.84,583,411,643.53l159.05,57.59,30.49,11c5.39,2,11.49-2.15,12.92-7.33C615.09,699,611.52,693.86,606.14,691.91ZM149.4,344.59V541l10.5-10.5h-83a20.14,20.14,0,0,1-19.25-14.67c-1.93-6.45-.71-15.32-.71-22.18V375.81c0-12.62,9.53-20.72,21.78-20.72H159.9c13.54,0,13.54-21,0-21h-83a41.4,41.4,0,0,0-33.19,17c-7.49,10.12-7.78,21.54-7.78,33.4v122c0,16.58,6.35,31.63,21.43,40,8.08,4.51,16.83,5,25.77,5H159.9A10.6,10.6,0,0,0,170.4,541V344.59C170.4,331,149.4,331,149.4,344.59Zm440.26,98.25c-.13,15.9-4.25,31.24-13.56,44.26a41.23,41.23,0,0,1-13.54,11.82c-5.59,3.14-10.3,3.29-17,3.29l10.5,10.5a867.48,867.48,0,0,1-.1-139.83l-10.5,10.5c6.32,0,10.83.24,16,2.8,6,3,10.22,7,14.64,12.44,9.64,11.87,13.37,29,13.5,44.22.11,13.54,21.11,13.55,21,0-.17-20.82-6-41.49-18.85-58A61.56,61.56,0,0,0,572.12,368c-8.54-4.5-17.13-5.61-26.62-5.66-6.06,0-10,4.82-10.5,10.5a867.6,867.6,0,0,0,.1,139.83c.47,5.7,4.42,10.5,10.5,10.5,9.23,0,17-1.22,25.46-5.1,7.76-3.56,14.59-9.65,19.94-16.22,13.49-16.59,19.48-37.88,19.65-59.05C610.77,429.29,589.77,429.3,589.66,442.84Zm196.89,8.9h91.4c13.54,0,13.54-21,0-21h-91.4c-13.54,0-13.54,21,0,21ZM773.66,286l73.14-54.81c4.57-3.43,6.91-9,3.77-14.37-2.65-4.51-9.77-7.21-14.37-3.77l-73.14,54.81c-4.57,3.42-6.91,9-3.77,14.37,2.64,4.51,9.77,7.21,14.37,3.77Zm-10.6,328.63,73.14,54.81c4.59,3.44,11.72.75,14.37-3.77,3.14-5.36.8-10.94-3.77-14.37l-73.14-54.81c-4.59-3.44-11.72-.75-14.37,3.77-3.14,5.36-.8,10.94,3.77,14.37ZM193.48,554.5,167.29,701.77l-5.24,29.45L161.2,736c-.57,3.19-1.79,4.47-4.38,5.23-.44.13-4-.31-1.19.19l-1.89-.34-41.53-7.39L100,731.54c-2.87-.51-5-2.22-5.28-4.14-.14-1.2.35-4.21-.16-1.33l.13-.72L122.24,570.5,127,543.83l-10.12,7.71h43L149.4,541v.43c0,5,3.26,8.52,7.71,10.13l43.7,15.82c5.39,2,11.49-2.14,12.92-7.33,1.61-5.85-2-11-7.33-12.92l-43.7-15.82,7.71,10.13V541a10.6,10.6,0,0,0-10.5-10.5h-43c-4.34,0-9.32,3.17-10.12,7.71L80.53,685.59l-5.31,29.83-.91,5.11c-2.3,12.91,4,25.06,16.26,30.05,4,1.65,8.66,2.05,12.92,2.81l22.71,4c13.44,2.39,29.36,7.84,42.28,1.62,10.53-5.07,12.65-15.71,14.45-25.83L188.85,700l16.72-94,8.16-45.91c1-5.63-1.44-11.29-7.33-12.92C201.27,545.76,194.48,548.86,193.48,554.5Z" transform="translate(-35.94 -165.77)"/></svg>