<svg xmlns="http://www.w3.org/2000/svg" viewBox="0 0 86 72"><defs><style>.a{fill:#0090ff;}</style></defs><title>pr-dept</title><path class="a" d="M21.81,14a1,1,0,0,0-.5.28l-14,14A1,1,0,0,0,7,29V85a1,1,0,0,0,1,1H92a1,1,0,0,0,1-1V15a1,1,0,0,0-1-1ZM23,16H91V84H9V30H22a1,1,0,0,0,1-1Zm-2,1.41V28H10.41ZM27,25v2H77V25ZM22.59,36A7.55,7.55,0,0,0,15,43.5v23A7.55,7.55,0,0,0,22.59,74H39.41A7.55,7.55,0,0,0,47,66.5v-23A7.55,7.55,0,0,0,39.41,36ZM52,37v2H86V37ZM22.59,38H39.41A5.51,5.51,0,0,1,45,43.5v23A5.51,5.51,0,0,1,39.41,72H22.59A5.51,5.51,0,0,1,17,66.5v-23A5.51,5.51,0,0,1,22.59,38ZM31,42.5a5,5,0,1,0,5,5A5,5,0,0,0,31,42.5Zm0,2a3,3,0,1,1-3,3A3,3,0,0,1,31,44.5ZM52,45v2H86V45Zm0,8v2H86V53ZM31,55.5a11,11,0,0,0-11,11h2a9,9,0,0,1,18,0h2A11,11,0,0,0,31,55.5ZM52,61v2H86V61Zm0,8v2H78V69Z" transform="translate(-7 -14)"/></svg>