<svg xmlns="http://www.w3.org/2000/svg" width="750.74" height="310.27" viewBox="0 0 750.74 310.27"><defs><style>.a{fill:#224770;}</style></defs><title>z-wave-logo</title><path class="a" d="M639.46,173.66l62.58,0,0,25.4-29.58,0,0,9,26.86,0,0,24-26.84,0v9.82l30.36,0,0,25.4-63.37-.07.09-93.59m-109.84-.12,36.4,0,9.92,33.92a108.91,108.91,0,0,1,4.56,22.13h.65A132.9,132.9,0,0,1,586,208.29l10.5-34.68,35.73,0-35.7,93.57-31.3,0Zm-29.49,59.53-2.87-10.61a95.87,95.87,0,0,1-3.77-20.56h-.65c-.53,9-2.5,15.58-3.81,20.56l-2.9,10.6Zm-25.21-59.58,37.45,0L545,267.15l-36.13,0-3-11.79H480.49l-2.89,11.78-36.15,0ZM381.44,235,374.33,267,345,267l-27.29-93.63,33.77,0,7.29,41.25a127.63,127.63,0,0,1,2.08,18.45h.79a91.75,91.75,0,0,1,2.23-16l9-43.71,23.7,0,8.86,43.72a93,93,0,0,1,2.23,16h.77a130.27,130.27,0,0,1,2.1-18.43l7.38-41.23,33.78,0L424.21,267l-29.33,0-7-31.95a93.14,93.14,0,0,1-2.61-15.44h-1.19A92.5,92.5,0,0,1,381.44,235M221.69,89.71V59.81C132,59.81,59.09,132.76,59.09,222.42H89c0-73.18,59.53-132.71,132.7-132.71m0-59.09V.73C99.45.73,0,100.18,0,222.42H29.89c0-105.76,86-191.8,191.8-191.8m26.56,234.93H173.12l40.65-63.74h-39l16.87-27.05h74l-39.5,62.87h39.51Zm-26.56-131.7a88.57,88.57,0,1,0,88.57,88.57,88.56,88.56,0,0,0-88.57-88.57" transform="translate(0 -0.73)"/><path class="a" d="M734.55,187h1.54c1.9,0,2.85-.67,2.85-2.06,0-1.54-1-2.18-3.09-2.18h-1.31V187m2-7c4.55,0,6.85,1.63,6.85,4.59A4.33,4.33,0,0,1,740,188.9l3.52,7h-4.79l-3-6.3h-1.27v6.3h-4.35V180Zm-8.47-.28a11.93,11.93,0,0,0-3.56,8.51,11.9,11.9,0,0,0,11.76,11.8,12,12,0,0,0,8.35-3.4A11.91,11.91,0,0,0,744.8,180a11.65,11.65,0,0,0-8.47-3.56,11.44,11.44,0,0,0-8.23,3.32m18.61-1.58a14.17,14.17,0,0,1,4,10.09,14,14,0,0,1-4.28,10.25,14.66,14.66,0,0,1-10.17,4.2,14.15,14.15,0,0,1-10.25-4.4,14.31,14.31,0,0,1-4.16-10.06,14.54,14.54,0,0,1,4.39-10.37,14,14,0,0,1,10-4.08,14.25,14.25,0,0,1,10.41,4.36" transform="translate(0 -0.73)"/></svg>