<svg width="83" height="69" viewBox="0 0 83 69" xmlns="http://www.w3.org/2000/svg"><title>3F834C09-77DB-46B7-8C1D-9CCF6F12E9C7</title><path d="M4.786 0A4.786 4.786 0 0 0 0 4.786v47.846a4.786 4.786 0 0 0 4.786 4.787h28.795v9.573h-3.784a.965.965 0 1 0 0 1.892h22.835a.965.965 0 1 0 0-1.892h-3.916v-9.573h28.795a4.786 4.786 0 0 0 4.786-4.787V4.786A4.786 4.786 0 0 0 77.511 0H4.786zm0 1.892h72.725a2.838 2.838 0 0 1 2.875 2.876v39.256H1.911V4.786a2.838 2.838 0 0 1 2.875-2.875v-.02zm35.946 4.843L14 17.292a1.003 1.003 0 0 0 0 1.76l9.024 3.556c-.02.119-.02.24 0 .36v9.591a3.595 3.595 0 0 0 1.74 2.744c1.21.864 2.543 1.54 3.955 2.005A38.386 38.386 0 0 0 41.224 39.2c4.245.065 8.47-.574 12.506-1.892a14.719 14.719 0 0 0 3.954-2.005 3.595 3.595 0 0 0 1.646-2.744v-9.591c.02-.12.02-.24 0-.36l5.808-2.308v5.808a1.892 1.892 0 0 0-.965 1.646 1.892 1.892 0 0 0 3.784 0 1.892 1.892 0 0 0-.965-1.646v-6.546l1.324-.51a1.003 1.003 0 0 0 0-1.76L41.508 6.754a1.022 1.022 0 0 0-.719 0l-.057-.019zm.36 1.892l24.197 9.46-24.14 9.572L16.95 18.2l24.14-9.573zm-16.27 14.662l15.91 6.243a.964.964 0 0 0 .72 0l15.91-6.243v9.27c0 .19-.246.663-.984 1.23a12.997 12.997 0 0 1-3.405 1.703 36.74 36.74 0 0 1-11.881 1.892 36.74 36.74 0 0 1-11.881-1.892 12.997 12.997 0 0 1-3.406-1.703c-.756-.567-.983-1.04-.983-1.23v-9.27zM1.91 45.935h78.475v6.697a2.838 2.838 0 0 1-2.875 2.876H4.786a2.838 2.838 0 0 1-2.875-2.876v-6.697zm39.238 2.876a1.892 1.892 0 1 0 0 3.784 1.892 1.892 0 0 0 0-3.784zm-5.676 8.608h11.351v9.573h-11.35v-9.573z" fill="#0090FF"/></svg>